<?xml version="1.0" encoding="UTF-8" standalone="no"?>
<svg xmlns="http://www.w3.org/2000/svg" version="1.2" baseProfile="tiny" viewBox="0.00 0.00 252.00 271.00">
    <g stroke-width="2.00" fill="none" stroke-linecap="butt">
        <path stroke="#dededf" vector-effect="non-scaling-stroke" d="
  M 124.13 13.07
  C 127.41 13.51 130.52 17.10 131.74 19.98
  A 0.50 0.50 0.0 0 0 132.51 20.18
  Q 136.72 16.89 141.64 16.66
  Q 141.69 16.66 141.69 16.63
  Q 141.68 16.61 141.68 16.57
  Q 141.65 16.47 141.50 16.47
  Q 136.84 16.45 132.98 19.01
  A 0.73 0.73 0.0 0 1 132.04 18.89
  C 129.52 16.16 128.43 13.00 123.83 12.77
  Q 123.49 12.75 123.78 12.94
  Q 123.94 13.04 124.13 13.07"
        />
        <path stroke="#dededf" vector-effect="non-scaling-stroke" d="
  M 144.94 16.73
  C 152.15 17.43 157.34 21.43 159.90 28.05
  Q 159.95 28.16 159.98 28.05
  Q 160.02 27.94 160.06 27.79
  Q 160.08 27.69 160.05 27.59
  C 157.83 21.06 152.36 16.31 144.96 16.27
  A 0.23 0.23 0.0 0 0 144.94 16.73"
        />
        <path stroke="#7a7a7a" vector-effect="non-scaling-stroke" d="
  M 38.49 49.37
  C 32.56 49.20 21.08 48.23 17.30 50.02"
        />
        <path stroke="#c8c7c8" vector-effect="non-scaling-stroke" d="
  M 17.30 50.02
  Q 14.69 49.58 14.52 53.09"
        />
        <path stroke="#7a7a7a" vector-effect="non-scaling-stroke" d="
  M 14.52 53.09
  Q 14.55 53.36 14.43 53.66
  Q 14.25 54.09 14.25 54.56
  L 14.25 183.67"
        />
        <path stroke="#c8c7c8" vector-effect="non-scaling-stroke" d="
  M 14.25 183.67
  C 13.95 188.00 12.87 198.99 15.40 203.82
  A 1.07 1.05 -8.5 0 0 16.16 204.37
  Q 20.07 205.05 22.50 205.02
  Q 38.02 204.85 53.48 205.23"
        />
        <path stroke="#d0d0d1" vector-effect="non-scaling-stroke" d="
  M 53.48 205.23
  L 100.41 205.27
  A 1.19 1.19 0.0 0 1 101.49 206.97
  Q 99.19 211.92 99.35 217.44
  Q 99.36 218.01 98.98 218.43
  L 91.22 226.85
  A 0.77 0.77 0.0 0 0 91.17 227.83
  Q 91.54 228.33 91.84 228.22
  Q 92.44 228.01 92.49 228.64
  L 92.56 229.55"
        />
        <path stroke="#c8c7c8" vector-effect="non-scaling-stroke" d="
  M 92.56 229.55
  Q 92.31 230.34 93.01 230.42
  Q 97.65 230.97 102.31 230.92
  Q 129.78 230.61 157.25 231.19
  Q 158.40 231.21 160.05 230.22"
        />
        <path stroke="#d0d0d1" vector-effect="non-scaling-stroke" d="
  M 160.05 230.22
  Q 163.57 227.59 157.83 223.92
  C 154.36 221.69 153.85 219.34 151.33 216.83
  A 0.92 0.92 0.0 0 0 150.68 216.56
  L 101.30 216.68
  A 0.76 0.76 0.0 0 1 100.55 215.80
  L 101.22 211.44
  A 0.60 0.60 0.0 0 1 102.01 210.97
  Q 106.40 212.50 110.91 211.93
  C 113.81 211.57 116.34 211.84 119.43 211.89
  Q 135.17 212.10 151.00 211.87"
        />
        <path stroke="#c8c7c8" vector-effect="non-scaling-stroke" d="
  M 151.00 211.87
  C 151.37 213.22 150.76 215.94 152.22 216.60
  Q 152.79 216.86 152.74 216.24
  L 152.40 212.27"
        />
        <path stroke="#dededf" vector-effect="non-scaling-stroke" d="
  M 152.40 212.27
  L 152.48 206.80
  A 1.27 1.27 0.0 0 1 153.77 205.55
  Q 175.81 205.94 197.86 205.46
  Q 199.32 205.42 201.62 205.71
  C 204.72 206.10 208.97 205.81 211.07 205.90
  Q 224.41 206.51 237.52 205.12
  A 0.80 0.79 -3.6 0 0 238.23 204.32
  L 237.91 183.76"
        />
        <path stroke="#7a7a7a" vector-effect="non-scaling-stroke" d="
  M 237.91 183.76
  L 237.88 121.50"
        />
        <path stroke="#99999a" vector-effect="non-scaling-stroke" d="
  M 237.88 121.50
  Q 238.15 88.16 237.75 54.81
  Q 237.69 50.34 233.95 49.57
  Q 229.63 48.68 222.16 49.45"
        />
        <path stroke="#7a7a7a" vector-effect="non-scaling-stroke" d="
  M 222.16 49.45
  L 176.21 49.38"
        />
        <path stroke="#dededf" vector-effect="non-scaling-stroke" d="
  M 176.21 49.38
  L 174.19 43.99
  A 1.52 1.40 13.0 0 0 173.81 43.43
  L 169.96 39.92
  Q 169.63 39.62 169.19 39.62
  Q 140.50 39.76 111.82 39.43
  C 104.55 39.34 97.19 39.74 89.89 39.59
  C 86.35 39.52 83.76 40.50 80.64 41.75
  A 0.33 0.33 0.0 0 1 80.26 41.23
  Q 83.61 37.13 88.68 35.56
  Q 89.21 35.39 89.49 34.91
  C 93.65 27.73 93.36 26.58 101.85 23.61
  Q 102.36 23.43 102.56 22.93
  Q 103.26 21.12 104.17 19.43
  Q 104.23 19.33 104.19 19.31
  Q 104.06 19.27 103.94 19.23
  Q 103.90 19.22 103.88 19.26
  Q 102.15 23.52 97.96 24.65
  C 91.58 26.36 92.40 31.15 88.27 34.48
  C 82.67 39.00 78.01 38.24 77.44 47.23
  Q 77.40 47.78 76.88 47.98
  Q 75.46 48.51 73.26 48.51
  C 63.88 48.49 53.59 47.67 44.37 49.03
  Q 41.51 49.44 38.49 49.37"
        />
        <path stroke="#656566" vector-effect="non-scaling-stroke" d="
  M 176.21 49.38
  L 174.89 55.66"
        />
        <path stroke="#bbbbbd" vector-effect="non-scaling-stroke" d="
  M 174.89 55.66
  Q 168.57 55.07 153.56 55.05
  Q 118.12 55.00 82.69 55.23
  Q 80.72 55.24 78.92 56.25"
        />
        <path stroke="#656566" vector-effect="non-scaling-stroke" d="
  M 78.92 56.25
  Q 77.45 53.31 77.49 50.22
  A 0.76 0.76 0.0 0 0 76.73 49.45
  L 38.49 49.37"
        />
        <path stroke="#202020" vector-effect="non-scaling-stroke" d="
  M 222.16 49.45
  L 216.35 57.42"
        />
        <path stroke="#711943" vector-effect="non-scaling-stroke" d="
  M 216.35 57.42
  L 203.98 57.51"
        />
        <path stroke="#76214e" vector-effect="non-scaling-stroke" d="
  M 203.98 57.51
  L 175.03 57.56"
        />
        <path stroke="#711943" vector-effect="non-scaling-stroke" d="
  M 175.03 57.56
  Q 174.62 58.00 174.21 57.62"
        />
        <path stroke="#575757" vector-effect="non-scaling-stroke" d="
  M 174.21 57.62
  Q 174.26 56.49 174.89 55.66"
        />
        <path stroke="#c86f9a" vector-effect="non-scaling-stroke" d="
  M 174.21 57.62
  C 170.04 63.31 165.64 64.48 158.29 64.51
  Q 144.57 64.56 131.72 64.88"
        />
        <path stroke="#c6905b" vector-effect="non-scaling-stroke" d="
  M 131.72 64.88
  L 118.39 64.85"
        />
        <path stroke="#c86f9a" vector-effect="non-scaling-stroke" d="
  M 118.39 64.85
  Q 106.05 64.43 93.96 64.47
  C 86.97 64.50 82.78 62.89 79.27 57.14"
        />
        <path stroke="#575757" vector-effect="non-scaling-stroke" d="
  M 78.92 56.25
  Q 79.02 57.04 79.27 57.14"
        />
        <path stroke="#711943" vector-effect="non-scaling-stroke" d="
  M 79.27 57.14
  Q 78.62 58.18 78.69 57.56"
        />
        <path stroke="#6c0f37" vector-effect="non-scaling-stroke" d="
  M 78.69 57.56
  L 46.18 57.50"
        />
        <path stroke="#67052b" vector-effect="non-scaling-stroke" d="
  M 46.18 57.50
  L 21.64 57.36
  A 0.39 0.39 0.0 0 0 21.25 57.75
  L 21.25 176.27
  Q 21.25 176.83 21.80 176.83
  L 53.78 176.94"
        />
        <path stroke="#6c0f37" vector-effect="non-scaling-stroke" d="
  M 53.78 176.94
  L 99.52 176.99"
        />
        <path stroke="#711943" vector-effect="non-scaling-stroke" d="
  M 99.52 176.99
  L 122.01 176.98"
        />
        <path stroke="#76214e" vector-effect="non-scaling-stroke" d="
  M 122.01 176.98
  L 129.00 176.72"
        />
        <path stroke="#202020" vector-effect="non-scaling-stroke" d="
  M 129.00 176.72
  L 123.92 183.73"
        />
        <path stroke="#575757" vector-effect="non-scaling-stroke" d="
  M 123.92 183.73
  L 76.01 183.66"
        />
        <path stroke="#4e4d4f" vector-effect="non-scaling-stroke" d="
  M 76.01 183.66
  L 14.25 183.67"
        />
        <path stroke="#4e4d4f" vector-effect="non-scaling-stroke" d="
  M 14.52 53.09
  L 17.30 50.02"
        />
        <path stroke="#ef6f45" vector-effect="non-scaling-stroke" d="
  M 143.26 69.92
  L 125.93 69.67"
        />
        <path stroke="#e15247" vector-effect="non-scaling-stroke" d="
  M 125.93 69.67
  L 131.72 64.88"
        />
        <path stroke="#202020" vector-effect="non-scaling-stroke" d="
  M 237.88 121.50
  L 237.77 116.67
  A 1.40 1.40 0.0 0 0 235.84 115.41
  L 231.33 117.25
  Q 230.88 117.43 230.84 117.92
  L 230.75 119.25
  Q 230.71 119.72 230.49 119.29
  Q 230.43 119.18 230.47 119.00
  Q 230.69 117.94 230.25 117.49"
        />
        <path stroke="#913863" vector-effect="non-scaling-stroke" d="
  M 230.25 117.49
  L 230.21 58.57
  Q 230.21 57.03 228.68 57.07
  L 216.35 57.42"
        />
        <path stroke="#711943" vector-effect="non-scaling-stroke" d="
  M 230.25 117.49
  L 230.54 176.22
  A 0.49 0.49 0.0 0 1 230.05 176.72
  L 183.82 177.05"
        />
        <path stroke="#913863" vector-effect="non-scaling-stroke" d="
  M 183.82 177.05
  L 180.74 176.79"
        />
        <path stroke="#e73a91" vector-effect="non-scaling-stroke" d="
  M 180.74 176.79
  L 188.28 176.78
  Q 188.78 176.78 188.98 176.32
  C 190.05 173.87 194.44 171.19 196.74 169.85
  Q 197.15 169.61 197.39 169.19
  Q 198.45 167.35 199.51 166.74
  C 209.79 160.90 216.19 149.34 220.36 138.97
  Q 220.55 138.50 220.48 138.01
  Q 220.21 136.10 221.47 134.88
  Q 221.83 134.53 221.98 134.05
  Q 228.08 115.04 225.03 95.41
  C 224.34 90.94 222.50 86.65 220.75 82.44
  A 0.13 0.13 0.0 0 0 220.50 82.48
  Q 220.50 82.62 220.51 82.76
  Q 220.61 83.64 220.21 82.77
  C 216.46 74.54 212.49 66.56 205.29 61.25
  A 1.43 1.38 -80.4 0 1 204.76 60.47
  L 203.98 57.51"
        />
        <path stroke="#96416e" vector-effect="non-scaling-stroke" d="
  M 180.74 176.79
  L 129.00 176.72"
        />
        <path stroke="#f09bc7" vector-effect="non-scaling-stroke" d="
  M 90.02 154.56
  Q 91.73 154.79 90.32 152.39
  A 0.64 0.62 -38.3 0 1 90.42 151.63
  Q 91.40 150.63 90.80 149.29
  A 0.92 0.92 0.0 0 0 89.96 148.74
  L 86.95 148.76
  A 0.62 0.62 0.0 0 0 86.34 149.36
  L 86.24 153.23
  A 0.48 0.48 0.0 0 1 85.44 153.58
  Q 84.78 152.99 84.75 152.15
  Q 84.73 151.65 84.99 151.21
  L 85.22 150.83
  A 1.71 1.71 0.0 0 0 83.29 148.31
  Q 80.50 149.10 79.12 148.55"
        />
        <path stroke="#f47750" vector-effect="non-scaling-stroke" d="
  M 113.11 70.55
  L 107.46 76.11
  Q 106.80 76.75 107.72 76.75
  L 121.96 76.75
  A 0.24 0.24 0.0 0 1 122.13 77.17
  L 104.44 94.63
  A 0.37 0.37 0.0 0 0 104.91 95.20
  L 143.26 69.92"
        />
        <path stroke="#e73a91" vector-effect="non-scaling-stroke" d="
  M 143.26 69.92
  Q 151.19 67.78 161.48 68.37
  C 164.70 68.56 166.87 67.19 169.66 65.91
  Q 170.13 65.70 170.19 65.19
  L 170.35 63.91
  Q 170.40 63.46 170.68 63.10
  L 175.03 57.56"
        />
        <path stroke="#e15247" vector-effect="non-scaling-stroke" d="
  M 118.39 64.85
  L 113.61 69.65"
        />
        <path stroke="#ef6f45" vector-effect="non-scaling-stroke" d="
  M 113.61 69.65
  Q 113.98 69.77 113.11 70.55"
        />
        <path stroke="#e73a91" vector-effect="non-scaling-stroke" d="
  M 113.11 70.55
  Q 113.46 68.58 111.13 68.50
  C 109.43 68.45 107.72 70.15 105.69 70.39
  Q 98.49 71.25 91.26 71.94
  Q 90.76 71.98 90.39 72.32
  Q 88.58 73.94 86.06 74.12
  Q 85.54 74.15 85.12 74.46
  C 77.23 80.41 72.31 91.89 71.66 101.36
  Q 71.65 101.50 71.50 101.50
  Q 71.33 101.50 71.16 101.51
  Q 70.78 101.52 70.80 101.90
  Q 71.00 106.20 71.13 110.50
  C 71.38 119.10 74.51 127.38 76.47 135.69
  C 77.17 138.66 79.72 142.06 79.66 144.84
  Q 79.61 146.96 79.12 148.55"
        />
        <path stroke="#eb92bd" vector-effect="non-scaling-stroke" d="
  M 79.12 148.55
  L 76.14 148.82
  Q 75.75 148.86 75.75 149.24
  L 75.75 154.06
  A 0.71 0.71 0.0 0 0 76.50 154.77
  L 80.96 154.53
  Q 81.71 154.49 81.87 153.76
  L 82.20 152.31
  A 0.49 0.49 0.0 0 1 83.09 152.16
  L 84.20 153.96
  Q 84.46 154.38 84.96 154.41
  L 86.77 154.52
  Q 87.41 154.56 87.54 153.92
  L 87.82 152.46
  A 0.41 0.41 0.0 0 1 88.56 152.31
  L 90.02 154.56"
        />
        <path stroke="#e73a91" vector-effect="non-scaling-stroke" d="
  M 90.02 154.56
  Q 88.76 155.16 86.84 155.23
  A 0.11 0.11 0.0 0 0 86.82 155.45
  L 87.34 155.52
  Q 87.84 155.59 87.92 156.08
  C 88.50 159.40 91.28 161.03 94.35 162.59
  Q 94.48 162.66 94.50 162.51
  Q 94.52 162.29 94.66 162.36
  C 98.57 164.46 102.08 167.20 105.90 168.87
  Q 110.61 170.94 115.45 172.67
  C 117.88 173.54 119.36 175.46 122.17 176.09
  A 0.06 0.05 46.4 0 1 122.17 176.20
  L 121.72 176.27
  A 0.24 0.24 0.0 0 0 121.61 176.70
  L 122.01 176.98"
        />
        <path stroke="#dd277a" vector-effect="non-scaling-stroke" d="
  M 99.52 176.99
  L 92.05 176.78
  Q 91.54 176.77 91.24 176.36
  C 88.57 172.74 85.46 170.64 81.33 168.99
  C 77.17 167.33 73.44 161.72 70.77 159.46
  C 53.16 144.62 48.89 123.75 51.64 101.56
  C 51.88 99.60 51.58 97.72 52.12 95.85
  Q 54.28 88.34 56.56 80.83
  C 58.01 76.05 65.72 69.28 69.28 65.48
  C 69.97 64.75 70.86 63.29 72.02 62.46
  Q 72.42 62.17 72.90 62.33
  Q 73.73 62.62 74.11 61.89
  A 2.08 1.90 -49.7 0 1 77.49 61.45
  Q 78.03 62.23 78.82 62.50
  Q 79.29 62.66 79.43 62.18
  Q 80.08 59.99 78.69 57.56"
        />
        <path stroke="#ed9006" vector-effect="non-scaling-stroke" d="
  M 125.93 69.67
  Q 123.43 69.51 119.83 69.47
  C 118.36 69.46 117.16 70.43 115.50 69.69
  Q 115.05 69.48 114.56 69.54
  L 113.61 69.65"
        />
        <path stroke="#d21462" vector-effect="non-scaling-stroke" d="
  M 46.18 57.50
  C 45.72 59.57 45.47 60.77 44.00 62.44
  C 39.18 67.90 36.60 73.49 33.97 80.56
  C 33.25 82.51 32.98 84.99 32.07 87.15
  C 30.23 91.49 28.91 97.13 28.75 101.83
  C 28.06 121.95 29.42 140.75 40.05 157.78
  C 43.33 163.04 49.69 170.02 53.78 176.94"
        />
        <path stroke="#848486" vector-effect="non-scaling-stroke" d="
  M 180.70 183.76
  L 153.27 183.78"
        />
        <path stroke="#767677" vector-effect="non-scaling-stroke" d="
  M 153.27 183.78
  L 123.92 183.73"
        />
        <path stroke="#a5a4a6" vector-effect="non-scaling-stroke" d="
  M 76.01 183.66
  L 58.60 183.87
  Q 58.33 183.88 58.46 184.12
  Q 59.10 185.30 57.87 186.24
  A 0.70 0.69 -19.1 0 0 57.60 186.79
  L 57.62 196.20
  Q 57.62 196.70 57.85 197.14
  Q 59.09 199.54 59.41 202.27
  Q 59.47 202.79 59.06 203.09
  L 58.15 203.74
  Q 57.75 204.03 58.23 204.13
  L 59.77 204.44
  Q 59.91 204.47 59.94 204.56
  Q 59.98 204.68 60.02 204.81
  Q 60.09 205.01 59.88 205.02
  L 53.48 205.23"
        />
        <path stroke="#bbbbbd" vector-effect="non-scaling-stroke" d="
  M 153.27 183.78
  L 148.11 184.40
  Q 147.50 184.47 147.58 185.08
  L 150.01 205.12"
        />
        <path stroke="#a5a4a6" vector-effect="non-scaling-stroke" d="
  M 150.01 205.12
  L 104.06 205.05
  A 1.59 1.58 4.2 0 0 102.49 206.40
  L 102.05 209.26
  Q 101.97 209.79 102.50 209.84
  L 111.56 210.54
  A 0.93 0.92 -60.0 0 0 112.18 210.37
  Q 112.70 210.02 113.00 210.02
  Q 124.58 209.89 150.50 210.08
  Q 150.99 210.08 150.99 210.57
  L 151.00 211.87"
        />
        <path stroke="#a5a4a6" vector-effect="non-scaling-stroke" d="
  M 160.05 230.22
  C 158.24 226.83 155.19 226.04 152.93 222.78
  Q 152.60 222.31 152.60 221.74
  Q 152.60 219.79 151.01 218.41
  A 1.26 1.23 -23.2 0 0 150.21 218.10
  Q 116.81 217.91 104.08 217.98
  C 98.67 218.01 99.76 221.65 97.53 224.57
  Q 95.39 227.37 92.56 229.55"
        />
        <path stroke="#656566" vector-effect="non-scaling-stroke" d="
  M 237.91 183.76
  L 180.70 183.76"
        />
        <path stroke="#202020" vector-effect="non-scaling-stroke" d="
  M 180.70 183.76
  Q 178.81 182.03 180.18 179.75
  Q 180.44 179.32 180.94 179.29
  Q 183.48 179.15 183.82 177.05"
        />
        <path stroke="#b3b2b4" vector-effect="non-scaling-stroke" d="
  M 152.40 212.27
  Q 152.17 209.55 152.23 206.81
  Q 152.25 205.75 151.70 205.43
  Q 151.10 205.07 150.01 205.12"
        />
        <path stroke="#dededf" vector-effect="non-scaling-stroke" d="
  M 171.08 38.82
  L 172.70 40.79
  A 0.41 0.41 0.0 0 0 173.38 40.34
  C 171.39 36.59 165.53 35.13 161.39 34.86
  Q 161.28 34.85 161.26 34.93
  Q 161.24 35.03 161.25 35.24
  Q 161.27 35.44 161.46 35.44
  Q 166.72 35.50 170.89 38.64
  A 1.06 0.85 4.9 0 1 171.08 38.82"
        />
        <path stroke="#d0d0d1" vector-effect="non-scaling-stroke" d="
  M 72.07 241.43
  Q 68.78 241.18 67.91 243.06
  Q 67.69 243.52 67.31 243.87
  Q 63.50 247.35 60.39 251.41
  C 59.40 252.71 59.46 254.10 59.75 255.57
  Q 59.85 256.11 60.39 256.21
  Q 61.73 256.46 63.75 256.48
  Q 126.43 256.99 189.70 256.64
  Q 191.56 256.63 192.13 254.85
  C 193.29 251.25 186.24 245.29 183.91 242.84
  Q 183.07 241.96 179.96 241.58"
        />
        <path stroke="#dededf" vector-effect="non-scaling-stroke" d="
  M 179.96 241.58
  Q 154.19 240.95 127.08 240.97
  Q 125.76 240.97 122.60 240.51
  C 119.27 240.03 114.47 240.97 112.39 241.04
  Q 91.89 241.64 72.07 241.43"
        />
        <path stroke="#bbbbbd" vector-effect="non-scaling-stroke" d="
  M 179.96 241.58
  L 190.20 252.29"
        />
        <path stroke="#dededf" vector-effect="non-scaling-stroke" d="
  M 190.20 252.29
  L 188.56 252.96
  Q 188.14 253.13 187.70 253.12
  L 60.99 253.04"
        />
        <path stroke="#bbbbbd" vector-effect="non-scaling-stroke" d="
  M 60.99 253.04
  L 72.07 241.43"
        />
        <path stroke="#d0d0d1" vector-effect="non-scaling-stroke" d="
  M 60.99 253.04
  Q 61.14 253.60 60.89 254.06
  Q 60.33 255.12 61.53 255.12
  L 190.73 254.96
  Q 191.46 254.96 191.31 254.24
  Q 191.11 253.30 190.20 252.29"
        />
        <path stroke="#f09bc7" vector-effect="non-scaling-stroke" d="
  M 107.33 106.43
  L 102.66 106.78
  Q 102.16 106.81 101.88 107.22
  Q 95.67 116.46 89.37 125.66
  C 87.85 127.86 88.10 129.87 88.29 132.36
  Q 88.34 133.00 88.98 133.00
  L 100.84 133.00
  A 0.65 0.65 0.0 0 1 101.49 133.65
  L 101.51 138.79
  Q 101.51 139.73 102.44 139.69
  L 108.17 139.48"
        />
        <path stroke="#f254a9" vector-effect="non-scaling-stroke" d="
  M 108.17 139.48
  L 109.18 150.40"
        />
        <path stroke="#f09bc7" vector-effect="non-scaling-stroke" d="
  M 109.18 150.40
  L 108.94 152.91
  Q 108.89 153.44 108.35 153.46
  L 103.01 153.61
  A 0.79 0.79 0.0 0 1 102.25 153.12
  Q 101.64 151.61 102.73 150.22
  A 0.54 0.52 -48.8 0 0 102.69 149.51
  C 101.39 148.26 98.44 147.91 97.73 150.09
  Q 97.55 150.65 97.22 150.16
  C 95.10 146.99 90.65 149.41 91.95 152.80
  C 92.80 155.02 95.31 155.05 96.93 153.76
  Q 97.23 153.52 97.55 153.74
  L 98.64 154.49
  Q 99.43 155.02 99.30 154.08
  L 99.13 152.83
  A 0.56 0.55 -79.0 0 1 99.95 152.27
  Q 100.90 152.82 101.25 153.94
  A 0.54 0.53 -7.4 0 0 101.75 154.32
  L 109.54 154.50
  Q 110.03 154.51 110.13 154.04
  Q 110.46 152.43 112.09 152.45
  Q 112.55 152.46 112.87 152.14
  Q 113.77 151.25 113.89 149.62"
        />
        <path stroke="#f254a9" vector-effect="non-scaling-stroke" d="
  M 113.89 149.62
  L 114.70 149.15
  Q 115.31 148.80 115.28 149.50
  L 115.26 150.03"
        />
        <path stroke="#f09bc7" vector-effect="non-scaling-stroke" d="
  M 115.26 150.03
  Q 114.92 151.70 113.78 154.01
  Q 113.63 154.30 113.88 154.52
  Q 114.27 154.85 114.64 154.49
  L 115.97 153.16
  A 0.70 0.69 42.8 0 1 116.93 153.13
  L 118.58 154.58
  A 0.41 0.40 12.2 0 0 119.24 154.16
  L 118.90 153.03"
        />
        <path stroke="#f254a9" vector-effect="non-scaling-stroke" d="
  M 118.90 153.03
  L 120.21 153.29"
        />
        <path stroke="#f09bc7" vector-effect="non-scaling-stroke" d="
  M 120.21 153.29
  Q 121.71 155.50 125.04 153.95"
        />
        <path stroke="#f254a9" vector-effect="non-scaling-stroke" d="
  M 125.04 153.95
  L 125.73 154.02"
        />
        <path stroke="#f09bc7" vector-effect="non-scaling-stroke" d="
  M 125.73 154.02
  Q 127.34 155.00 129.56 154.80
  Q 130.09 154.75 130.31 154.45
  Q 130.65 153.98 130.18 153.43"
        />
        <path stroke="#f254a9" vector-effect="non-scaling-stroke" d="
  M 130.18 153.43
  Q 130.44 152.93 130.96 152.72
  Q 131.39 152.54 131.80 152.77
  L 132.73 153.28"
        />
        <path stroke="#f09bc7" vector-effect="non-scaling-stroke" d="
  M 132.73 153.28
  Q 132.61 154.21 132.80 154.42
  A 0.81 0.63 -68.2 0 0 133.95 153.74
  L 134.12 151.56
  A 0.40 0.39 31.7 0 1 134.85 151.39
  C 135.36 152.20 135.41 153.20 135.92 153.90
  Q 137.23 155.70 137.89 153.25"
        />
        <path stroke="#f254a9" vector-effect="non-scaling-stroke" d="
  M 137.89 153.25
  Q 138.23 153.34 138.73 153.15"
        />
        <path stroke="#f09bc7" vector-effect="non-scaling-stroke" d="
  M 138.73 153.15
  C 140.66 156.84 145.15 153.96 143.93 149.77"
        />
        <path stroke="#f254a9" vector-effect="non-scaling-stroke" d="
  M 143.93 149.77
  L 144.93 149.67"
        />
        <path stroke="#f09bc7" vector-effect="non-scaling-stroke" d="
  M 144.93 149.67
  Q 146.50 150.76 145.95 153.59
  A 0.80 0.78 29.1 0 0 146.16 154.29
  L 146.41 154.54
  A 0.69 0.68 -77.0 0 0 147.54 153.83
  Q 146.40 150.44 149.03 149.43"
        />
        <path stroke="#f254a9" vector-effect="non-scaling-stroke" d="
  M 149.03 149.43
  Q 149.70 150.17 150.89 150.68"
        />
        <path stroke="#f09bc7" vector-effect="non-scaling-stroke" d="
  M 150.89 150.68
  Q 151.08 152.40 151.15 153.98
  Q 151.17 154.56 151.66 154.71
  A 0.46 0.46 0.0 0 0 152.25 154.24
  Q 152.09 151.56 154.75 152.11"
        />
        <path stroke="#f254a9" vector-effect="non-scaling-stroke" d="
  M 154.75 152.11
  Q 155.05 151.66 155.45 151.76"
        />
        <path stroke="#f09bc7" vector-effect="non-scaling-stroke" d="
  M 155.45 151.76
  Q 156.13 155.32 159.75 154.37
  Q 160.26 154.24 160.57 153.82
  L 161.13 153.07
  A 0.40 0.40 0.0 0 1 161.81 153.15
  Q 162.56 154.86 164.53 154.83
  A 1.74 1.74 0.0 0 0 166.25 153.09
  L 166.25 149.54
  Q 166.25 149.17 165.90 149.07
  Q 164.88 148.79 164.98 149.75
  Q 165.19 151.61 164.92 152.85
  A 0.97 0.97 0.0 0 1 163.00 152.55
  L 163.31 149.26"
        />
        <path stroke="#f254a9" vector-effect="non-scaling-stroke" d="
  M 163.31 149.26
  L 163.15 147.23
  A 0.81 0.80 73.4 0 1 163.56 146.46
  C 174.89 140.13 182.22 133.12 186.52 120.56
  C 191.24 106.77 185.75 92.07 175.74 81.78
  Q 168.20 74.03 157.50 74.21
  C 150.94 74.32 145.94 73.85 140.41 76.02
  Q 136.38 77.60 135.04 78.80
  C 131.41 82.06 127.07 83.61 123.39 86.33
  Q 120.38 88.55 117.13 90.44
  C 114.64 91.88 112.99 94.42 109.42 94.93
  A 1.03 1.02 -78.9 0 0 108.68 95.43
  Q 107.27 97.90 104.87 99.41
  A 1.02 0.99 77.8 0 0 104.42 100.13
  C 104.09 102.82 106.14 104.43 107.33 106.43"
        />
        <path stroke="#f5acd5" vector-effect="non-scaling-stroke" d="
  M 163.31 149.26
  Q 162.27 148.06 161.64 150.16
  Q 161.45 150.79 161.09 150.23
  C 159.31 147.41 155.80 148.50 155.45 151.76"
        />
        <path stroke="#f5acd5" vector-effect="non-scaling-stroke" d="
  M 154.75 152.11
  Q 154.90 150.90 152.94 150.98
  A 0.56 0.56 0.0 0 1 152.87 149.86
  L 154.79 149.69
  A 0.32 0.31 -33.8 0 0 154.91 149.10
  Q 151.43 147.29 150.89 150.68"
        />
        <path stroke="#f5acd5" vector-effect="non-scaling-stroke" d="
  M 149.03 149.43
  Q 148.32 148.23 145.21 148.88
  Q 144.85 148.96 144.74 149.32
  Q 144.64 149.66 144.93 149.67"
        />
        <path stroke="#f5acd5" vector-effect="non-scaling-stroke" d="
  M 143.93 149.77
  C 142.58 148.48 139.19 147.94 138.75 150.46
  Q 138.59 151.35 138.25 150.51
  L 137.62 148.93
  A 0.41 0.41 0.0 0 0 136.83 149.03
  Q 136.46 151.81 138.73 153.15"
        />
        <path stroke="#f5acd5" vector-effect="non-scaling-stroke" d="
  M 137.89 153.25
  Q 135.60 151.73 134.49 149.10
  A 0.75 0.75 0.0 0 0 133.05 149.33
  L 132.73 153.28"
        />
        <path stroke="#f5acd5" vector-effect="non-scaling-stroke" d="
  M 130.18 153.43
  Q 129.19 153.47 128.12 153.51
  Q 127.65 153.52 127.43 153.32
  Q 127.15 153.05 127.25 152.58
  A 0.52 0.52 0.0 0 1 127.67 152.17
  L 129.66 151.78
  A 0.45 0.45 0.0 0 0 129.54 150.89
  L 127.75 151.04
  Q 127.16 151.09 127.24 150.50
  L 127.29 150.12
  Q 127.34 149.76 127.69 149.76
  L 129.91 149.73
  A 0.48 0.48 0.0 0 0 129.93 148.77
  L 126.48 148.61
  Q 125.59 148.57 125.78 149.44
  Q 126.27 151.74 125.73 154.02"
        />
        <path stroke="#f5acd5" vector-effect="non-scaling-stroke" d="
  M 125.04 153.95
  Q 125.85 152.54 123.92 150.96"
        />
        <path stroke="#f254a9" vector-effect="non-scaling-stroke" d="
  M 123.92 150.96
  Q 124.01 151.10 124.05 150.47"
        />
        <path stroke="#f5acd5" vector-effect="non-scaling-stroke" d="
  M 124.05 150.47
  Q 124.75 150.26 124.77 150.23
  Q 125.23 149.34 124.27 149.05
  C 120.64 147.96 119.14 150.19 120.21 153.29"
        />
        <path stroke="#f5acd5" vector-effect="non-scaling-stroke" d="
  M 118.90 153.03
  L 117.60 149.50
  A 1.02 1.02 0.0 0 0 115.81 149.26
  L 115.26 150.03"
        />
        <path stroke="#f5acd5" vector-effect="non-scaling-stroke" d="
  M 113.89 149.62
  Q 108.95 147.16 109.18 150.40"
        />
        <path stroke="#f5acd5" vector-effect="non-scaling-stroke" d="
  M 108.17 139.48
  L 108.09 133.38
  A 0.58 0.58 0.0 0 1 108.72 132.79
  L 111.33 133.04
  A 0.57 0.57 0.0 0 0 111.96 132.48
  L 112.02 127.85
  A 0.60 0.59 86.3 0 0 111.34 127.25
  L 109.13 127.55
  A 1.19 1.19 0.0 0 1 107.77 126.38
  Q 107.70 116.69 107.77 106.94
  Q 107.78 106.48 107.33 106.43"
        />
        <path stroke="#f09bc7" vector-effect="non-scaling-stroke" d="
  M 124.05 150.47
  C 123.31 149.66 122.12 149.39 121.45 150.48
  Q 120.64 151.79 121.91 153.38
  A 0.92 0.92 0.0 0 0 123.45 152.40
  Q 122.82 151.12 123.92 150.96"
        />
        <path stroke="#f09bc7" vector-effect="non-scaling-stroke" d="
  M 172.90 149.77
  L 172.90 153.57
  A 1.15 1.15 0.0 0 0 174.06 154.72
  L 175.28 154.72
  A 2.75 2.72 -0.1 0 0 178.02 152.00
  L 178.02 151.34
  A 2.75 2.72 -0.1 0 0 175.26 148.62
  L 174.04 148.62
  A 1.15 1.15 0.0 0 0 172.90 149.77"
        />
        <path stroke="#f09bc7" vector-effect="non-scaling-stroke" d="
  M 170.11 151.74
  Q 169.63 150.82 169.10 149.51
  Q 168.89 148.99 168.53 148.84
  Q 168.11 148.66 167.58 148.75
  Q 166.94 148.86 167.21 149.45
  Q 168.10 151.41 166.71 153.38
  A 0.78 0.78 0.0 0 0 167.35 154.61
  Q 168.47 154.61 168.51 153.85
  Q 168.54 153.40 168.20 153.09
  Q 167.92 152.83 167.96 152.14
  A 0.87 0.58 46.6 0 1 169.36 152.46
  Q 169.90 153.90 171.10 154.73
  A 0.54 0.53 -71.4 0 0 171.94 154.31
  L 172.14 149.22
  A 0.50 0.50 0.0 0 0 171.16 149.06
  Q 170.84 150.23 171.01 151.45
  A 0.48 0.48 0.0 0 1 170.11 151.74"
        />
        <path stroke="#f5acd5" vector-effect="non-scaling-stroke" d="
  M 154.33 106.49
  L 153.67 106.85
  Q 153.23 107.08 152.95 107.49
  Q 146.79 116.59 140.60 125.68
  C 139.14 127.82 139.39 129.88 139.33 132.34
  A 0.65 0.64 0.9 0 0 139.98 133.00
  L 152.30 133.00
  A 0.52 0.52 0.0 0 1 152.82 133.56
  L 152.49 139.10
  A 0.61 0.61 0.0 0 0 153.10 139.75
  L 158.25 139.75
  Q 159.00 139.75 159.00 139.00
  L 159.00 133.62
  Q 159.00 133.00 159.62 133.00
  L 162.29 133.00
  Q 163.08 133.00 163.06 132.21
  L 162.98 127.93
  A 0.54 0.54 0.0 0 0 162.43 127.40
  L 159.85 127.47
  Q 159.05 127.50 159.06 126.69
  L 159.28 109.67"
        />
        <path stroke="#fa6fbe" vector-effect="non-scaling-stroke" d="
  M 159.28 109.67
  Q 161.64 114.93 160.90 121.44
  Q 160.84 122.02 161.30 122.36
  C 165.15 125.23 167.33 118.86 168.42 116.44
  C 170.33 112.22 169.59 106.53 168.42 102.18
  Q 168.31 101.78 167.90 101.66
  Q 167.39 101.52 167.01 100.74
  Q 162.13 90.75 151.23 89.05
  C 147.57 88.48 139.28 90.68 136.17 92.75
  C 131.89 95.61 128.61 99.28 129.18 104.85
  A 0.82 0.81 4.9 0 0 129.77 105.54
  C 135.49 107.13 138.43 115.10 138.51 120.27
  A 1.27 1.26 -17.1 0 0 140.47 121.30
  Q 143.41 119.39 145.36 116.04
  C 147.01 113.21 149.54 107.82 152.24 106.06
  Q 152.82 105.69 153.32 105.74
  Q 154.10 105.81 154.33 106.49"
        />
        <path stroke="#f8b6dc" vector-effect="non-scaling-stroke" d="
  M 159.28 109.67
  L 158.95 107.44
  Q 158.87 106.90 158.33 106.85
  L 154.33 106.49"
        />
        <path stroke="#f5acd5" vector-effect="non-scaling-stroke" d="
  M 131.56 107.94
  Q 125.76 104.45 120.45 108.15
  C 112.79 113.49 112.73 137.73 123.79 140.04
  C 140.20 143.48 140.00 113.01 131.56 107.94"
        />
        <path stroke="#eb92bd" vector-effect="non-scaling-stroke" d="
  M 99.94 127.31
  Q 100.28 127.57 100.84 127.51
  A 0.74 0.73 -3.0 0 0 101.50 126.78
  L 101.50 117.77
  Q 101.50 116.58 100.84 117.56
  L 94.71 126.68
  A 0.47 0.47 0.0 0 0 95.17 127.41
  Q 97.45 127.08 99.94 127.31"
        />
        <path stroke="#f5acd5" vector-effect="non-scaling-stroke" d="
  M 128.56 113.23
  C 126.45 110.04 123.17 112.11 122.62 115.11
  C 121.84 119.38 120.48 134.35 126.16 134.77
  A 2.84 2.83 8.6 0 0 129.12 132.59
  C 130.21 127.92 131.34 117.47 128.56 113.23"
        />
        <path stroke="#f5acd5" vector-effect="non-scaling-stroke" d="
  M 146.01 126.64
  A 0.39 0.39 0.0 0 0 146.32 127.25
  L 152.35 127.47
  A 0.39 0.39 0.0 0 0 152.75 127.08
  L 152.75 117.68
  A 0.39 0.39 0.0 0 0 152.03 117.47
  L 146.01 126.64"
        />
        <path stroke="#f09bc7" vector-effect="non-scaling-stroke" d="
  M 79.14 151.75
  L 77.30 152.08
  A 0.37 0.36 -6.5 0 0 77.00 152.45
  Q 77.00 152.65 77.00 152.85
  Q 76.99 153.40 77.54 153.47
  L 80.26 153.81
  A 0.65 0.65 0.0 0 0 80.99 153.17
  L 81.01 149.86
  Q 81.01 149.40 80.55 149.45
  L 77.30 149.84
  A 0.34 0.33 -4.7 0 0 77.00 150.18
  Q 77.00 150.37 76.99 150.58
  A 0.61 0.61 0.0 0 0 77.89 151.15
  Q 78.49 150.83 79.21 151.16
  Q 80.11 151.58 79.14 151.75"
        />
        <path stroke="#eb92bd" vector-effect="non-scaling-stroke" d="
  M 82.5901 151.1758
  A 0.91 0.80 113.3 0 0 83.6848 150.6564
  A 0.91 0.80 113.3 0 0 83.3099 149.5042
  A 0.91 0.80 113.3 0 0 82.2152 150.0236
  A 0.91 0.80 113.3 0 0 82.5901 151.1758"
        />
        <path stroke="#eb92bd" vector-effect="non-scaling-stroke" d="
  M 88.25 149.66
  Q 87.95 149.74 87.71 150.34
  A 0.46 0.46 0.0 0 0 88.11 150.97
  L 89.04 151.01
  A 0.55 0.55 0.0 0 0 89.49 150.11
  Q 89.23 149.80 88.88 149.72
  Q 88.43 149.61 88.25 149.66"
        />
        <path stroke="#f09bc7" vector-effect="non-scaling-stroke" d="
  M 100.31 149.69
  Q 100.06 149.37 99.40 149.85
  A 0.64 0.63 -63.0 0 0 99.77 151.00
  L 100.26 151.00
  A 0.68 0.68 0.0 0 0 100.90 150.55
  Q 101.25 149.61 100.31 149.69"
        />
        <path stroke="#eb92bd" vector-effect="non-scaling-stroke" d="
  M 94.6860 153.4798
  A 1.86 1.57 89.2 0 0 96.2298 151.5981
  A 1.86 1.57 89.2 0 0 94.6340 149.7602
  A 1.86 1.57 89.2 0 0 93.0902 151.6419
  A 1.86 1.57 89.2 0 0 94.6860 153.4798"
        />
        <path stroke="#eb92bd" vector-effect="non-scaling-stroke" d="
  M 112.42 150.50
  A 1.00 0.79 0.0 0 0 111.42 149.71
  A 1.00 0.79 0.0 0 0 110.42 150.50
  A 1.00 0.79 0.0 0 0 111.42 151.29
  A 1.00 0.79 0.0 0 0 112.42 150.50"
        />
        <path stroke="#eb92bd" vector-effect="non-scaling-stroke" d="
  M 175.3535 153.5900
  A 1.94 1.23 89.6 0 0 176.5700 151.6414
  A 1.94 1.23 89.6 0 0 175.3265 149.7100
  A 1.94 1.23 89.6 0 0 174.1100 151.6586
  A 1.94 1.23 89.6 0 0 175.3535 153.5900"
        />
        <path stroke="#f5acd5" vector-effect="non-scaling-stroke" d="
  M 116.08 150.91
  L 116.26 152.16
  Q 116.36 152.83 116.80 152.31
  Q 117.61 151.35 116.69 150.57
  A 0.38 0.37 -74.0 0 0 116.08 150.91"
        />
        <path stroke="#f09bc7" vector-effect="non-scaling-stroke" d="
  M 141.2247 153.4298
  A 1.81 1.45 90.8 0 0 142.6999 151.6402
  A 1.81 1.45 90.8 0 0 141.2753 149.8102
  A 1.81 1.45 90.8 0 0 139.8001 151.5998
  A 1.81 1.45 90.8 0 0 141.2247 153.4298"
        />
        <path stroke="#f09bc7" vector-effect="non-scaling-stroke" d="
  M 158.4389 153.3866
  A 1.82 1.57 93.5 0 0 160.1171 151.6658
  A 1.82 1.57 93.5 0 0 158.6611 149.7534
  A 1.82 1.57 93.5 0 0 156.9829 151.4742
  A 1.82 1.57 93.5 0 0 158.4389 153.3866"
        />
        <path stroke="#575757" vector-effect="non-scaling-stroke" d="
  M 125.22 195.49
  L 124.92 195.39
  Q 124.37 195.22 124.33 194.64
  L 124.13 191.73
  A 1.31 1.31 0.0 0 0 121.51 191.82
  L 121.49 196.56
  A 1.08 1.08 0.0 0 0 122.08 197.52
  L 125.31 199.16
  A 2.15 2.15 0.0 0 0 128.44 197.27
  L 128.51 190.98
  A 1.17 1.17 0.0 0 0 126.17 190.90
  L 125.91 195.01
  Q 125.87 195.69 125.22 195.49"
        />
    </g>
    <path fill="#f3f3f3" d="
  M 0.00 0.00
  L 252.00 0.00
  L 252.00 271.00
  L 0.00 271.00
  L 0.00 0.00
  Z
  M 124.13 13.07
  C 127.41 13.51 130.52 17.10 131.74 19.98
  A 0.50 0.50 0.0 0 0 132.51 20.18
  Q 136.72 16.89 141.64 16.66
  Q 141.69 16.66 141.69 16.63
  Q 141.68 16.61 141.68 16.57
  Q 141.65 16.47 141.50 16.47
  Q 136.84 16.45 132.98 19.01
  A 0.73 0.73 0.0 0 1 132.04 18.89
  C 129.52 16.16 128.43 13.00 123.83 12.77
  Q 123.49 12.75 123.78 12.94
  Q 123.94 13.04 124.13 13.07
  Z
  M 144.94 16.73
  C 152.15 17.43 157.34 21.43 159.90 28.05
  Q 159.95 28.16 159.98 28.05
  Q 160.02 27.94 160.06 27.79
  Q 160.08 27.69 160.05 27.59
  C 157.83 21.06 152.36 16.31 144.96 16.27
  A 0.23 0.23 0.0 0 0 144.94 16.73
  Z
  M 38.49 49.37
  C 32.56 49.20 21.08 48.23 17.30 50.02
  Q 14.69 49.58 14.52 53.09
  Q 14.55 53.36 14.43 53.66
  Q 14.25 54.09 14.25 54.56
  L 14.25 183.67
  C 13.95 188.00 12.87 198.99 15.40 203.82
  A 1.07 1.05 -8.5 0 0 16.16 204.37
  Q 20.07 205.05 22.50 205.02
  Q 38.02 204.85 53.48 205.23
  L 100.41 205.27
  A 1.19 1.19 0.0 0 1 101.49 206.97
  Q 99.19 211.92 99.35 217.44
  Q 99.36 218.01 98.98 218.43
  L 91.22 226.85
  A 0.77 0.77 0.0 0 0 91.17 227.83
  Q 91.54 228.33 91.84 228.22
  Q 92.44 228.01 92.49 228.64
  L 92.56 229.55
  Q 92.31 230.34 93.01 230.42
  Q 97.65 230.97 102.31 230.92
  Q 129.78 230.61 157.25 231.19
  Q 158.40 231.21 160.05 230.22
  Q 163.57 227.59 157.83 223.92
  C 154.36 221.69 153.85 219.34 151.33 216.83
  A 0.92 0.92 0.0 0 0 150.68 216.56
  L 101.30 216.68
  A 0.76 0.76 0.0 0 1 100.55 215.80
  L 101.22 211.44
  A 0.60 0.60 0.0 0 1 102.01 210.97
  Q 106.40 212.50 110.91 211.93
  C 113.81 211.57 116.34 211.84 119.43 211.89
  Q 135.17 212.10 151.00 211.87
  C 151.37 213.22 150.76 215.94 152.22 216.60
  Q 152.79 216.86 152.74 216.24
  L 152.40 212.27
  L 152.48 206.80
  A 1.27 1.27 0.0 0 1 153.77 205.55
  Q 175.81 205.94 197.86 205.46
  Q 199.32 205.42 201.62 205.71
  C 204.72 206.10 208.97 205.81 211.07 205.90
  Q 224.41 206.51 237.52 205.12
  A 0.80 0.79 -3.6 0 0 238.23 204.32
  L 237.91 183.76
  L 237.88 121.50
  Q 238.15 88.16 237.75 54.81
  Q 237.69 50.34 233.95 49.57
  Q 229.63 48.68 222.16 49.45
  L 176.21 49.38
  L 174.19 43.99
  A 1.52 1.40 13.0 0 0 173.81 43.43
  L 169.96 39.92
  Q 169.63 39.62 169.19 39.62
  Q 140.50 39.76 111.82 39.43
  C 104.55 39.34 97.19 39.74 89.89 39.59
  C 86.35 39.52 83.76 40.50 80.64 41.75
  A 0.33 0.33 0.0 0 1 80.26 41.23
  Q 83.61 37.13 88.68 35.56
  Q 89.21 35.39 89.49 34.91
  C 93.65 27.73 93.36 26.58 101.85 23.61
  Q 102.36 23.43 102.56 22.93
  Q 103.26 21.12 104.17 19.43
  Q 104.23 19.33 104.19 19.31
  Q 104.06 19.27 103.94 19.23
  Q 103.90 19.22 103.88 19.26
  Q 102.15 23.52 97.96 24.65
  C 91.58 26.36 92.40 31.15 88.27 34.48
  C 82.67 39.00 78.01 38.24 77.44 47.23
  Q 77.40 47.78 76.88 47.98
  Q 75.46 48.51 73.26 48.51
  C 63.88 48.49 53.59 47.67 44.37 49.03
  Q 41.51 49.44 38.49 49.37
  Z
  M 171.08 38.82
  L 172.70 40.79
  A 0.41 0.41 0.0 0 0 173.38 40.34
  C 171.39 36.59 165.53 35.13 161.39 34.86
  Q 161.28 34.85 161.26 34.93
  Q 161.24 35.03 161.25 35.24
  Q 161.27 35.44 161.46 35.44
  Q 166.72 35.50 170.89 38.64
  A 1.06 0.85 4.9 0 1 171.08 38.82
  Z
  M 72.07 241.43
  Q 68.78 241.18 67.91 243.06
  Q 67.69 243.52 67.31 243.87
  Q 63.50 247.35 60.39 251.41
  C 59.40 252.71 59.46 254.10 59.75 255.57
  Q 59.85 256.11 60.39 256.21
  Q 61.73 256.46 63.75 256.48
  Q 126.43 256.99 189.70 256.64
  Q 191.56 256.63 192.13 254.85
  C 193.29 251.25 186.24 245.29 183.91 242.84
  Q 183.07 241.96 179.96 241.58
  Q 154.19 240.95 127.08 240.97
  Q 125.76 240.97 122.60 240.51
  C 119.27 240.03 114.47 240.97 112.39 241.04
  Q 91.89 241.64 72.07 241.43
  Z"
    />
    <path fill="#c9c9cb" d="
  M 124.13 13.07
  Q 123.94 13.04 123.78 12.94
  Q 123.49 12.75 123.83 12.77
  C 128.43 13.00 129.52 16.16 132.04 18.89
  A 0.73 0.73 0.0 0 0 132.98 19.01
  Q 136.84 16.45 141.50 16.47
  Q 141.65 16.47 141.68 16.57
  Q 141.68 16.61 141.69 16.63
  Q 141.69 16.66 141.64 16.66
  Q 136.72 16.89 132.51 20.18
  A 0.50 0.50 0.0 0 1 131.74 19.98
  C 130.52 17.10 127.41 13.51 124.13 13.07
  Z"
    />
    <path fill="#c9c9cb" d="
  M 159.90 28.05
  C 157.34 21.43 152.15 17.43 144.94 16.73
  A 0.23 0.23 0.0 0 1 144.96 16.27
  C 152.36 16.31 157.83 21.06 160.05 27.59
  Q 160.08 27.69 160.06 27.79
  Q 160.02 27.94 159.98 28.05
  Q 159.95 28.16 159.90 28.05
  Z"
    />
    <path fill="#c9c9cb" d="
  M 176.21 49.38
  L 174.89 55.66
  Q 168.57 55.07 153.56 55.05
  Q 118.12 55.00 82.69 55.23
  Q 80.72 55.24 78.92 56.25
  Q 77.45 53.31 77.49 50.22
  A 0.76 0.76 0.0 0 0 76.73 49.45
  L 38.49 49.37
  Q 41.51 49.44 44.37 49.03
  C 53.59 47.67 63.88 48.49 73.26 48.51
  Q 75.46 48.51 76.88 47.98
  Q 77.40 47.78 77.44 47.23
  C 78.01 38.24 82.67 39.00 88.27 34.48
  C 92.40 31.15 91.58 26.36 97.96 24.65
  Q 102.15 23.52 103.88 19.26
  Q 103.90 19.22 103.94 19.23
  Q 104.06 19.27 104.19 19.31
  Q 104.23 19.33 104.17 19.43
  Q 103.26 21.12 102.56 22.93
  Q 102.36 23.43 101.85 23.61
  C 93.36 26.58 93.65 27.73 89.49 34.91
  Q 89.21 35.39 88.68 35.56
  Q 83.61 37.13 80.26 41.23
  A 0.33 0.33 0.0 0 0 80.64 41.75
  C 83.76 40.50 86.35 39.52 89.89 39.59
  C 97.19 39.74 104.55 39.34 111.82 39.43
  Q 140.50 39.76 169.19 39.62
  Q 169.63 39.62 169.96 39.92
  L 173.81 43.43
  A 1.52 1.40 13.0 0 1 174.19 43.99
  L 176.21 49.38
  Z"
    />
    <path fill="#c9c9cb" d="
  M 170.89 38.64
  Q 166.72 35.50 161.46 35.44
  Q 161.27 35.44 161.25 35.24
  Q 161.24 35.03 161.26 34.93
  Q 161.28 34.85 161.39 34.86
  C 165.53 35.13 171.39 36.59 173.38 40.34
  A 0.41 0.41 0.0 0 1 172.70 40.79
  L 171.08 38.82
  A 1.06 0.85 4.9 0 0 170.89 38.64
  Z"
    />
    <path fill="#000000" d="
  M 38.49 49.37
  L 76.73 49.45
  A 0.76 0.76 0.0 0 1 77.49 50.22
  Q 77.45 53.31 78.92 56.25
  Q 79.02 57.04 79.27 57.14
  Q 78.62 58.18 78.69 57.56
  L 46.18 57.50
  L 21.64 57.36
  A 0.39 0.39 0.0 0 0 21.25 57.75
  L 21.25 176.27
  Q 21.25 176.83 21.80 176.83
  L 53.78 176.94
  L 99.52 176.99
  L 122.01 176.98
  L 129.00 176.72
  L 123.92 183.73
  L 76.01 183.66
  L 14.25 183.67
  L 14.25 54.56
  Q 14.25 54.09 14.43 53.66
  Q 14.55 53.36 14.52 53.09
  L 17.30 50.02
  C 21.08 48.23 32.56 49.20 38.49 49.37
  Z"
    />
    <path fill="#000000" d="
  M 176.21 49.38
  L 222.16 49.45
  L 216.35 57.42
  L 203.98 57.51
  L 175.03 57.56
  Q 174.62 58.00 174.21 57.62
  Q 174.26 56.49 174.89 55.66
  L 176.21 49.38
  Z"
    />
    <path fill="#3f3f40" d="
  M 237.88 121.50
  L 237.77 116.67
  A 1.40 1.40 0.0 0 0 235.84 115.41
  L 231.33 117.25
  Q 230.88 117.43 230.84 117.92
  L 230.75 119.25
  Q 230.71 119.72 230.49 119.29
  Q 230.43 119.18 230.47 119.00
  Q 230.69 117.94 230.25 117.49
  L 230.21 58.57
  Q 230.21 57.03 228.68 57.07
  L 216.35 57.42
  L 222.16 49.45
  Q 229.63 48.68 233.95 49.57
  Q 237.69 50.34 237.75 54.81
  Q 238.15 88.16 237.88 121.50
  Z"
    />
    <path fill="#9c9a9d" d="
  M 17.30 50.02
  L 14.52 53.09
  Q 14.69 49.58 17.30 50.02
  Z"
    />
    <path fill="#adadae" d="
  M 174.89 55.66
  Q 174.26 56.49 174.21 57.62
  C 170.04 63.31 165.64 64.48 158.29 64.51
  Q 144.57 64.56 131.72 64.88
  L 118.39 64.85
  Q 106.05 64.43 93.96 64.47
  C 86.97 64.50 82.78 62.89 79.27 57.14
  Q 79.02 57.04 78.92 56.25
  Q 80.72 55.24 82.69 55.23
  Q 118.12 55.00 153.56 55.05
  Q 168.57 55.07 174.89 55.66
  Z"
    />
    <path fill="#e23186" d="
  M 230.25 117.49
  L 230.54 176.22
  A 0.49 0.49 0.0 0 1 230.05 176.72
  L 183.82 177.05
  L 180.74 176.79
  L 188.28 176.78
  Q 188.78 176.78 188.98 176.32
  C 190.05 173.87 194.44 171.19 196.74 169.85
  Q 197.15 169.61 197.39 169.19
  Q 198.45 167.35 199.51 166.74
  C 209.79 160.90 216.19 149.34 220.36 138.97
  Q 220.55 138.50 220.48 138.01
  Q 220.21 136.10 221.47 134.88
  Q 221.83 134.53 221.98 134.05
  Q 228.08 115.04 225.03 95.41
  C 224.34 90.94 222.50 86.65 220.75 82.44
  A 0.13 0.13 0.0 0 0 220.50 82.48
  Q 220.50 82.62 220.51 82.76
  Q 220.61 83.64 220.21 82.77
  C 216.46 74.54 212.49 66.56 205.29 61.25
  A 1.43 1.38 -80.4 0 1 204.76 60.47
  L 203.98 57.51
  L 216.35 57.42
  L 228.68 57.07
  Q 230.21 57.03 230.21 58.57
  L 230.25 117.49
  Z"
    />
    <path fill="#cd0a56" d="
  M 46.18 57.50
  C 45.72 59.57 45.47 60.77 44.00 62.44
  C 39.18 67.90 36.60 73.49 33.97 80.56
  C 33.25 82.51 32.98 84.99 32.07 87.15
  C 30.23 91.49 28.91 97.13 28.75 101.83
  C 28.06 121.95 29.42 140.75 40.05 157.78
  C 43.33 163.04 49.69 170.02 53.78 176.94
  L 21.80 176.83
  Q 21.25 176.83 21.25 176.27
  L 21.25 57.75
  A 0.39 0.39 0.0 0 1 21.64 57.36
  L 46.18 57.50
  Z"
    />
    <path fill="#e23186" d="
  M 79.27 57.14
  C 82.78 62.89 86.97 64.50 93.96 64.47
  Q 106.05 64.43 118.39 64.85
  L 113.61 69.65
  Q 113.98 69.77 113.11 70.55
  Q 113.46 68.58 111.13 68.50
  C 109.43 68.45 107.72 70.15 105.69 70.39
  Q 98.49 71.25 91.26 71.94
  Q 90.76 71.98 90.39 72.32
  Q 88.58 73.94 86.06 74.12
  Q 85.54 74.15 85.12 74.46
  C 77.23 80.41 72.31 91.89 71.66 101.36
  Q 71.65 101.50 71.50 101.50
  Q 71.33 101.50 71.16 101.51
  Q 70.78 101.52 70.80 101.90
  Q 71.00 106.20 71.13 110.50
  C 71.38 119.10 74.51 127.38 76.47 135.69
  C 77.17 138.66 79.72 142.06 79.66 144.84
  Q 79.61 146.96 79.12 148.55
  L 76.14 148.82
  Q 75.75 148.86 75.75 149.24
  L 75.75 154.06
  A 0.71 0.71 0.0 0 0 76.50 154.77
  L 80.96 154.53
  Q 81.71 154.49 81.87 153.76
  L 82.20 152.31
  A 0.49 0.49 0.0 0 1 83.09 152.16
  L 84.20 153.96
  Q 84.46 154.38 84.96 154.41
  L 86.77 154.52
  Q 87.41 154.56 87.54 153.92
  L 87.82 152.46
  A 0.41 0.41 0.0 0 1 88.56 152.31
  L 90.02 154.56
  Q 88.76 155.16 86.84 155.23
  A 0.11 0.11 0.0 0 0 86.82 155.45
  L 87.34 155.52
  Q 87.84 155.59 87.92 156.08
  C 88.50 159.40 91.28 161.03 94.35 162.59
  Q 94.48 162.66 94.50 162.51
  Q 94.52 162.29 94.66 162.36
  C 98.57 164.46 102.08 167.20 105.90 168.87
  Q 110.61 170.94 115.45 172.67
  C 117.88 173.54 119.36 175.46 122.17 176.09
  A 0.06 0.05 46.4 0 1 122.17 176.20
  L 121.72 176.27
  A 0.24 0.24 0.0 0 0 121.61 176.70
  L 122.01 176.98
  L 99.52 176.99
  L 92.05 176.78
  Q 91.54 176.77 91.24 176.36
  C 88.57 172.74 85.46 170.64 81.33 168.99
  C 77.17 167.33 73.44 161.72 70.77 159.46
  C 53.16 144.62 48.89 123.75 51.64 101.56
  C 51.88 99.60 51.58 97.72 52.12 95.85
  Q 54.28 88.34 56.56 80.83
  C 58.01 76.05 65.72 69.28 69.28 65.48
  C 69.97 64.75 70.86 63.29 72.02 62.46
  Q 72.42 62.17 72.90 62.33
  Q 73.73 62.62 74.11 61.89
  A 2.08 1.90 -49.7 0 1 77.49 61.45
  Q 78.03 62.23 78.82 62.50
  Q 79.29 62.66 79.43 62.18
  Q 80.08 59.99 78.69 57.56
  Q 78.62 58.18 79.27 57.14
  Z"
    />
    <path fill="#d71d6d" d="
  M 46.18 57.50
  L 78.69 57.56
  Q 80.08 59.99 79.43 62.18
  Q 79.29 62.66 78.82 62.50
  Q 78.03 62.23 77.49 61.45
  A 2.08 1.90 -49.7 0 0 74.11 61.89
  Q 73.73 62.62 72.90 62.33
  Q 72.42 62.17 72.02 62.46
  C 70.86 63.29 69.97 64.75 69.28 65.48
  C 65.72 69.28 58.01 76.05 56.56 80.83
  Q 54.28 88.34 52.12 95.85
  C 51.58 97.72 51.88 99.60 51.64 101.56
  C 48.89 123.75 53.16 144.62 70.77 159.46
  C 73.44 161.72 77.17 167.33 81.33 168.99
  C 85.46 170.64 88.57 172.74 91.24 176.36
  Q 91.54 176.77 92.05 176.78
  L 99.52 176.99
  L 53.78 176.94
  C 49.69 170.02 43.33 163.04 40.05 157.78
  C 29.42 140.75 28.06 121.95 28.75 101.83
  C 28.91 97.13 30.23 91.49 32.07 87.15
  C 32.98 84.99 33.25 82.51 33.97 80.56
  C 36.60 73.49 39.18 67.90 44.00 62.44
  C 45.47 60.77 45.72 59.57 46.18 57.50
  Z"
    />
    <path fill="#ec429b" d="
  M 203.98 57.51
  L 204.76 60.47
  A 1.43 1.38 -80.4 0 0 205.29 61.25
  C 212.49 66.56 216.46 74.54 220.21 82.77
  Q 220.61 83.64 220.51 82.76
  Q 220.50 82.62 220.50 82.48
  A 0.13 0.13 0.0 0 1 220.75 82.44
  C 222.50 86.65 224.34 90.94 225.03 95.41
  Q 228.08 115.04 221.98 134.05
  Q 221.83 134.53 221.47 134.88
  Q 220.21 136.10 220.48 138.01
  Q 220.55 138.50 220.36 138.97
  C 216.19 149.34 209.79 160.90 199.51 166.74
  Q 198.45 167.35 197.39 169.19
  Q 197.15 169.61 196.74 169.85
  C 194.44 171.19 190.05 173.87 188.98 176.32
  Q 188.78 176.78 188.28 176.78
  L 180.74 176.79
  L 129.00 176.72
  L 122.01 176.98
  L 121.61 176.70
  A 0.24 0.24 0.0 0 1 121.72 176.27
  L 122.17 176.20
  A 0.06 0.05 46.4 0 0 122.17 176.09
  C 119.36 175.46 117.88 173.54 115.45 172.67
  Q 110.61 170.94 105.90 168.87
  C 102.08 167.20 98.57 164.46 94.66 162.36
  Q 94.52 162.29 94.50 162.51
  Q 94.48 162.66 94.35 162.59
  C 91.28 161.03 88.50 159.40 87.92 156.08
  Q 87.84 155.59 87.34 155.52
  L 86.82 155.45
  A 0.11 0.11 0.0 0 1 86.84 155.23
  Q 88.76 155.16 90.02 154.56
  Q 91.73 154.79 90.32 152.39
  A 0.64 0.62 -38.3 0 1 90.42 151.63
  Q 91.40 150.63 90.80 149.29
  A 0.92 0.92 0.0 0 0 89.96 148.74
  L 86.95 148.76
  A 0.62 0.62 0.0 0 0 86.34 149.36
  L 86.24 153.23
  A 0.48 0.48 0.0 0 1 85.44 153.58
  Q 84.78 152.99 84.75 152.15
  Q 84.73 151.65 84.99 151.21
  L 85.22 150.83
  A 1.71 1.71 0.0 0 0 83.29 148.31
  Q 80.50 149.10 79.12 148.55
  Q 79.61 146.96 79.66 144.84
  C 79.72 142.06 77.17 138.66 76.47 135.69
  C 74.51 127.38 71.38 119.10 71.13 110.50
  Q 71.00 106.20 70.80 101.90
  Q 70.78 101.52 71.16 101.51
  Q 71.33 101.50 71.50 101.50
  Q 71.65 101.50 71.66 101.36
  C 72.31 91.89 77.23 80.41 85.12 74.46
  Q 85.54 74.15 86.06 74.12
  Q 88.58 73.94 90.39 72.32
  Q 90.76 71.98 91.26 71.94
  Q 98.49 71.25 105.69 70.39
  C 107.72 70.15 109.43 68.45 111.13 68.50
  Q 113.46 68.58 113.11 70.55
  L 107.46 76.11
  Q 106.80 76.75 107.72 76.75
  L 121.96 76.75
  A 0.24 0.24 0.0 0 1 122.13 77.17
  L 104.44 94.63
  A 0.37 0.37 0.0 0 0 104.91 95.20
  L 143.26 69.92
  Q 151.19 67.78 161.48 68.37
  C 164.70 68.56 166.87 67.19 169.66 65.91
  Q 170.13 65.70 170.19 65.19
  L 170.35 63.91
  Q 170.40 63.46 170.68 63.10
  L 175.03 57.56
  L 203.98 57.51
  Z
  M 107.33 106.43
  L 102.66 106.78
  Q 102.16 106.81 101.88 107.22
  Q 95.67 116.46 89.37 125.66
  C 87.85 127.86 88.10 129.87 88.29 132.36
  Q 88.34 133.00 88.98 133.00
  L 100.84 133.00
  A 0.65 0.65 0.0 0 1 101.49 133.65
  L 101.51 138.79
  Q 101.51 139.73 102.44 139.69
  L 108.17 139.48
  L 109.18 150.40
  L 108.94 152.91
  Q 108.89 153.44 108.35 153.46
  L 103.01 153.61
  A 0.79 0.79 0.0 0 1 102.25 153.12
  Q 101.64 151.61 102.73 150.22
  A 0.54 0.52 -48.8 0 0 102.69 149.51
  C 101.39 148.26 98.44 147.91 97.73 150.09
  Q 97.55 150.65 97.22 150.16
  C 95.10 146.99 90.65 149.41 91.95 152.80
  C 92.80 155.02 95.31 155.05 96.93 153.76
  Q 97.23 153.52 97.55 153.74
  L 98.64 154.49
  Q 99.43 155.02 99.30 154.08
  L 99.13 152.83
  A 0.56 0.55 -79.0 0 1 99.95 152.27
  Q 100.90 152.82 101.25 153.94
  A 0.54 0.53 -7.4 0 0 101.75 154.32
  L 109.54 154.50
  Q 110.03 154.51 110.13 154.04
  Q 110.46 152.43 112.09 152.45
  Q 112.55 152.46 112.87 152.14
  Q 113.77 151.25 113.89 149.62
  L 114.70 149.15
  Q 115.31 148.80 115.28 149.50
  L 115.26 150.03
  Q 114.92 151.70 113.78 154.01
  Q 113.63 154.30 113.88 154.52
  Q 114.27 154.85 114.64 154.49
  L 115.97 153.16
  A 0.70 0.69 42.8 0 1 116.93 153.13
  L 118.58 154.58
  A 0.41 0.40 12.2 0 0 119.24 154.16
  L 118.90 153.03
  L 120.21 153.29
  Q 121.71 155.50 125.04 153.95
  L 125.73 154.02
  Q 127.34 155.00 129.56 154.80
  Q 130.09 154.75 130.31 154.45
  Q 130.65 153.98 130.18 153.43
  Q 130.44 152.93 130.96 152.72
  Q 131.39 152.54 131.80 152.77
  L 132.73 153.28
  Q 132.61 154.21 132.80 154.42
  A 0.81 0.63 -68.2 0 0 133.95 153.74
  L 134.12 151.56
  A 0.40 0.39 31.7 0 1 134.85 151.39
  C 135.36 152.20 135.41 153.20 135.92 153.90
  Q 137.23 155.70 137.89 153.25
  Q 138.23 153.34 138.73 153.15
  C 140.66 156.84 145.15 153.96 143.93 149.77
  L 144.93 149.67
  Q 146.50 150.76 145.95 153.59
  A 0.80 0.78 29.1 0 0 146.16 154.29
  L 146.41 154.54
  A 0.69 0.68 -77.0 0 0 147.54 153.83
  Q 146.40 150.44 149.03 149.43
  Q 149.70 150.17 150.89 150.68
  Q 151.08 152.40 151.15 153.98
  Q 151.17 154.56 151.66 154.71
  A 0.46 0.46 0.0 0 0 152.25 154.24
  Q 152.09 151.56 154.75 152.11
  Q 155.05 151.66 155.45 151.76
  Q 156.13 155.32 159.75 154.37
  Q 160.26 154.24 160.57 153.82
  L 161.13 153.07
  A 0.40 0.40 0.0 0 1 161.81 153.15
  Q 162.56 154.86 164.53 154.83
  A 1.74 1.74 0.0 0 0 166.25 153.09
  L 166.25 149.54
  Q 166.25 149.17 165.90 149.07
  Q 164.88 148.79 164.98 149.75
  Q 165.19 151.61 164.92 152.85
  A 0.97 0.97 0.0 0 1 163.00 152.55
  L 163.31 149.26
  L 163.15 147.23
  A 0.81 0.80 73.4 0 1 163.56 146.46
  C 174.89 140.13 182.22 133.12 186.52 120.56
  C 191.24 106.77 185.75 92.07 175.74 81.78
  Q 168.20 74.03 157.50 74.21
  C 150.94 74.32 145.94 73.85 140.41 76.02
  Q 136.38 77.60 135.04 78.80
  C 131.41 82.06 127.07 83.61 123.39 86.33
  Q 120.38 88.55 117.13 90.44
  C 114.64 91.88 112.99 94.42 109.42 94.93
  A 1.03 1.02 -78.9 0 0 108.68 95.43
  Q 107.27 97.90 104.87 99.41
  A 1.02 0.99 77.8 0 0 104.42 100.13
  C 104.09 102.82 106.14 104.43 107.33 106.43
  Z
  M 172.90 149.77
  L 172.90 153.57
  A 1.15 1.15 0.0 0 0 174.06 154.72
  L 175.28 154.72
  A 2.75 2.72 -0.1 0 0 178.02 152.00
  L 178.02 151.34
  A 2.75 2.72 -0.1 0 0 175.26 148.62
  L 174.04 148.62
  A 1.15 1.15 0.0 0 0 172.90 149.77
  Z
  M 170.11 151.74
  Q 169.63 150.82 169.10 149.51
  Q 168.89 148.99 168.53 148.84
  Q 168.11 148.66 167.58 148.75
  Q 166.94 148.86 167.21 149.45
  Q 168.10 151.41 166.71 153.38
  A 0.78 0.78 0.0 0 0 167.35 154.61
  Q 168.47 154.61 168.51 153.85
  Q 168.54 153.40 168.20 153.09
  Q 167.92 152.83 167.96 152.14
  A 0.87 0.58 46.6 0 1 169.36 152.46
  Q 169.90 153.90 171.10 154.73
  A 0.54 0.53 -71.4 0 0 171.94 154.31
  L 172.14 149.22
  A 0.50 0.50 0.0 0 0 171.16 149.06
  Q 170.84 150.23 171.01 151.45
  A 0.48 0.48 0.0 0 1 170.11 151.74
  Z"
    />
    <path fill="#e23186" d="
  M 174.21 57.62
  Q 174.62 58.00 175.03 57.56
  L 170.68 63.10
  Q 170.40 63.46 170.35 63.91
  L 170.19 65.19
  Q 170.13 65.70 169.66 65.91
  C 166.87 67.19 164.70 68.56 161.48 68.37
  Q 151.19 67.78 143.26 69.92
  L 125.93 69.67
  L 131.72 64.88
  Q 144.57 64.56 158.29 64.51
  C 165.64 64.48 170.04 63.31 174.21 57.62
  Z"
    />
    <path fill="#df7308" d="
  M 131.72 64.88
  L 125.93 69.67
  Q 123.43 69.51 119.83 69.47
  C 118.36 69.46 117.16 70.43 115.50 69.69
  Q 115.05 69.48 114.56 69.54
  L 113.61 69.65
  L 118.39 64.85
  L 131.72 64.88
  Z"
    />
    <path fill="#fbac04" d="
  M 125.93 69.67
  L 143.26 69.92
  L 104.91 95.20
  A 0.37 0.37 0.0 0 1 104.44 94.63
  L 122.13 77.17
  A 0.24 0.24 0.0 0 0 121.96 76.75
  L 107.72 76.75
  Q 106.80 76.75 107.46 76.11
  L 113.11 70.55
  Q 113.98 69.77 113.61 69.65
  L 114.56 69.54
  Q 115.05 69.48 115.50 69.69
  C 117.16 70.43 118.36 69.46 119.83 69.47
  Q 123.43 69.51 125.93 69.67
  Z"
    />
    <path fill="#f765b7" d="
  M 163.31 149.26
  Q 162.27 148.06 161.64 150.16
  Q 161.45 150.79 161.09 150.23
  C 159.31 147.41 155.80 148.50 155.45 151.76
  Q 155.05 151.66 154.75 152.11
  Q 154.90 150.90 152.94 150.98
  A 0.56 0.56 0.0 0 1 152.87 149.86
  L 154.79 149.69
  A 0.32 0.31 -33.8 0 0 154.91 149.10
  Q 151.43 147.29 150.89 150.68
  Q 149.70 150.17 149.03 149.43
  Q 148.32 148.23 145.21 148.88
  Q 144.85 148.96 144.74 149.32
  Q 144.64 149.66 144.93 149.67
  L 143.93 149.77
  C 142.58 148.48 139.19 147.94 138.75 150.46
  Q 138.59 151.35 138.25 150.51
  L 137.62 148.93
  A 0.41 0.41 0.0 0 0 136.83 149.03
  Q 136.46 151.81 138.73 153.15
  Q 138.23 153.34 137.89 153.25
  Q 135.60 151.73 134.49 149.10
  A 0.75 0.75 0.0 0 0 133.05 149.33
  L 132.73 153.28
  L 131.80 152.77
  Q 131.39 152.54 130.96 152.72
  Q 130.44 152.93 130.18 153.43
  Q 129.19 153.47 128.12 153.51
  Q 127.65 153.52 127.43 153.32
  Q 127.15 153.05 127.25 152.58
  A 0.52 0.52 0.0 0 1 127.67 152.17
  L 129.66 151.78
  A 0.45 0.45 0.0 0 0 129.54 150.89
  L 127.75 151.04
  Q 127.16 151.09 127.24 150.50
  L 127.29 150.12
  Q 127.34 149.76 127.69 149.76
  L 129.91 149.73
  A 0.48 0.48 0.0 0 0 129.93 148.77
  L 126.48 148.61
  Q 125.59 148.57 125.78 149.44
  Q 126.27 151.74 125.73 154.02
  L 125.04 153.95
  Q 125.85 152.54 123.92 150.96
  Q 124.01 151.10 124.05 150.47
  Q 124.75 150.26 124.77 150.23
  Q 125.23 149.34 124.27 149.05
  C 120.64 147.96 119.14 150.19 120.21 153.29
  L 118.90 153.03
  L 117.60 149.50
  A 1.02 1.02 0.0 0 0 115.81 149.26
  L 115.26 150.03
  L 115.28 149.50
  Q 115.31 148.80 114.70 149.15
  L 113.89 149.62
  Q 108.95 147.16 109.18 150.40
  L 108.17 139.48
  L 108.09 133.38
  A 0.58 0.58 0.0 0 1 108.72 132.79
  L 111.33 133.04
  A 0.57 0.57 0.0 0 0 111.96 132.48
  L 112.02 127.85
  A 0.60 0.59 86.3 0 0 111.34 127.25
  L 109.13 127.55
  A 1.19 1.19 0.0 0 1 107.77 126.38
  Q 107.70 116.69 107.77 106.94
  Q 107.78 106.48 107.33 106.43
  C 106.14 104.43 104.09 102.82 104.42 100.13
  A 1.02 0.99 77.8 0 1 104.87 99.41
  Q 107.27 97.90 108.68 95.43
  A 1.03 1.02 -78.9 0 1 109.42 94.93
  C 112.99 94.42 114.64 91.88 117.13 90.44
  Q 120.38 88.55 123.39 86.33
  C 127.07 83.61 131.41 82.06 135.04 78.80
  Q 136.38 77.60 140.41 76.02
  C 145.94 73.85 150.94 74.32 157.50 74.21
  Q 168.20 74.03 175.74 81.78
  C 185.75 92.07 191.24 106.77 186.52 120.56
  C 182.22 133.12 174.89 140.13 163.56 146.46
  A 0.81 0.80 73.4 0 0 163.15 147.23
  L 163.31 149.26
  Z
  M 154.33 106.49
  L 153.67 106.85
  Q 153.23 107.08 152.95 107.49
  Q 146.79 116.59 140.60 125.68
  C 139.14 127.82 139.39 129.88 139.33 132.34
  A 0.65 0.64 0.9 0 0 139.98 133.00
  L 152.30 133.00
  A 0.52 0.52 0.0 0 1 152.82 133.56
  L 152.49 139.10
  A 0.61 0.61 0.0 0 0 153.10 139.75
  L 158.25 139.75
  Q 159.00 139.75 159.00 139.00
  L 159.00 133.62
  Q 159.00 133.00 159.62 133.00
  L 162.29 133.00
  Q 163.08 133.00 163.06 132.21
  L 162.98 127.93
  A 0.54 0.54 0.0 0 0 162.43 127.40
  L 159.85 127.47
  Q 159.05 127.50 159.06 126.69
  L 159.28 109.67
  Q 161.64 114.93 160.90 121.44
  Q 160.84 122.02 161.30 122.36
  C 165.15 125.23 167.33 118.86 168.42 116.44
  C 170.33 112.22 169.59 106.53 168.42 102.18
  Q 168.31 101.78 167.90 101.66
  Q 167.39 101.52 167.01 100.74
  Q 162.13 90.75 151.23 89.05
  C 147.57 88.48 139.28 90.68 136.17 92.75
  C 131.89 95.61 128.61 99.28 129.18 104.85
  A 0.82 0.81 4.9 0 0 129.77 105.54
  C 135.49 107.13 138.43 115.10 138.51 120.27
  A 1.27 1.26 -17.1 0 0 140.47 121.30
  Q 143.41 119.39 145.36 116.04
  C 147.01 113.21 149.54 107.82 152.24 106.06
  Q 152.82 105.69 153.32 105.74
  Q 154.10 105.81 154.33 106.49
  Z
  M 131.56 107.94
  Q 125.76 104.45 120.45 108.15
  C 112.79 113.49 112.73 137.73 123.79 140.04
  C 140.20 143.48 140.00 113.01 131.56 107.94
  Z"
    />
    <path fill="#fc78c5" d="
  M 159.28 109.67
  L 158.95 107.44
  Q 158.87 106.90 158.33 106.85
  L 154.33 106.49
  Q 154.10 105.81 153.32 105.74
  Q 152.82 105.69 152.24 106.06
  C 149.54 107.82 147.01 113.21 145.36 116.04
  Q 143.41 119.39 140.47 121.30
  A 1.27 1.26 -17.1 0 1 138.51 120.27
  C 138.43 115.10 135.49 107.13 129.77 105.54
  A 0.82 0.81 4.9 0 1 129.18 104.85
  C 128.61 99.28 131.89 95.61 136.17 92.75
  C 139.28 90.68 147.57 88.48 151.23 89.05
  Q 162.13 90.75 167.01 100.74
  Q 167.39 101.52 167.90 101.66
  Q 168.31 101.78 168.42 102.18
  C 169.59 106.53 170.33 112.22 168.42 116.44
  C 167.33 118.86 165.15 125.23 161.30 122.36
  Q 160.84 122.02 160.90 121.44
  Q 161.64 114.93 159.28 109.67
  Z"
    />
    <path fill="#f3f3f3" d="
  M 107.33 106.43
  Q 107.78 106.48 107.77 106.94
  Q 107.70 116.69 107.77 126.38
  A 1.19 1.19 0.0 0 0 109.13 127.55
  L 111.34 127.25
  A 0.60 0.59 86.3 0 1 112.02 127.85
  L 111.96 132.48
  A 0.57 0.57 0.0 0 1 111.33 133.04
  L 108.72 132.79
  A 0.58 0.58 0.0 0 0 108.09 133.38
  L 108.17 139.48
  L 102.44 139.69
  Q 101.51 139.73 101.51 138.79
  L 101.49 133.65
  A 0.65 0.65 0.0 0 0 100.84 133.00
  L 88.98 133.00
  Q 88.34 133.00 88.29 132.36
  C 88.10 129.87 87.85 127.86 89.37 125.66
  Q 95.67 116.46 101.88 107.22
  Q 102.16 106.81 102.66 106.78
  L 107.33 106.43
  Z
  M 99.94 127.31
  Q 100.28 127.57 100.84 127.51
  A 0.74 0.73 -3.0 0 0 101.50 126.78
  L 101.50 117.77
  Q 101.50 116.58 100.84 117.56
  L 94.71 126.68
  A 0.47 0.47 0.0 0 0 95.17 127.41
  Q 97.45 127.08 99.94 127.31
  Z"
    />
    <path fill="#f3f3f3" d="
  M 131.56 107.94
  C 140.00 113.01 140.20 143.48 123.79 140.04
  C 112.73 137.73 112.79 113.49 120.45 108.15
  Q 125.76 104.45 131.56 107.94
  Z
  M 128.56 113.23
  C 126.45 110.04 123.17 112.11 122.62 115.11
  C 121.84 119.38 120.48 134.35 126.16 134.77
  A 2.84 2.83 8.6 0 0 129.12 132.59
  C 130.21 127.92 131.34 117.47 128.56 113.23
  Z"
    />
    <path fill="#f3f3f3" d="
  M 154.33 106.49
  L 158.33 106.85
  Q 158.87 106.90 158.95 107.44
  L 159.28 109.67
  L 159.06 126.69
  Q 159.05 127.50 159.85 127.47
  L 162.43 127.40
  A 0.54 0.54 0.0 0 1 162.98 127.93
  L 163.06 132.21
  Q 163.08 133.00 162.29 133.00
  L 159.62 133.00
  Q 159.00 133.00 159.00 133.62
  L 159.00 139.00
  Q 159.00 139.75 158.25 139.75
  L 153.10 139.75
  A 0.61 0.61 0.0 0 1 152.49 139.10
  L 152.82 133.56
  A 0.52 0.52 0.0 0 0 152.30 133.00
  L 139.98 133.00
  A 0.65 0.64 0.9 0 1 139.33 132.34
  C 139.39 129.88 139.14 127.82 140.60 125.68
  Q 146.79 116.59 152.95 107.49
  Q 153.23 107.08 153.67 106.85
  L 154.33 106.49
  Z
  M 146.01 126.64
  A 0.39 0.39 0.0 0 0 146.32 127.25
  L 152.35 127.47
  A 0.39 0.39 0.0 0 0 152.75 127.08
  L 152.75 117.68
  A 0.39 0.39 0.0 0 0 152.03 117.47
  L 146.01 126.64
  Z"
    />
    <path fill="#f765b7" d="
  M 128.56 113.23
  C 131.34 117.47 130.21 127.92 129.12 132.59
  A 2.84 2.83 8.6 0 1 126.16 134.77
  C 120.48 134.35 121.84 119.38 122.62 115.11
  C 123.17 112.11 126.45 110.04 128.56 113.23
  Z"
    />
    <path fill="#000000" d="
  M 237.88 121.50
  L 237.91 183.76
  L 180.70 183.76
  Q 178.81 182.03 180.18 179.75
  Q 180.44 179.32 180.94 179.29
  Q 183.48 179.15 183.82 177.05
  L 230.05 176.72
  A 0.49 0.49 0.0 0 0 230.54 176.22
  L 230.25 117.49
  Q 230.69 117.94 230.47 119.00
  Q 230.43 119.18 230.49 119.29
  Q 230.71 119.72 230.75 119.25
  L 230.84 117.92
  Q 230.88 117.43 231.33 117.25
  L 235.84 115.41
  A 1.40 1.40 0.0 0 1 237.77 116.67
  L 237.88 121.50
  Z"
    />
    <path fill="#e23186" d="
  M 99.94 127.31
  Q 97.45 127.08 95.17 127.41
  A 0.47 0.47 0.0 0 1 94.71 126.68
  L 100.84 117.56
  Q 101.50 116.58 101.50 117.77
  L 101.50 126.78
  A 0.74 0.73 -3.0 0 1 100.84 127.51
  Q 100.28 127.57 99.94 127.31
  Z"
    />
    <path fill="#f765b7" d="
  M 146.01 126.64
  L 152.03 117.47
  A 0.39 0.39 0.0 0 1 152.75 117.68
  L 152.75 127.08
  A 0.39 0.39 0.0 0 1 152.35 127.47
  L 146.32 127.25
  A 0.39 0.39 0.0 0 1 146.01 126.64
  Z"
    />
    <path fill="#f3f3f3" d="
  M 79.12 148.55
  Q 80.50 149.10 83.29 148.31
  A 1.71 1.71 0.0 0 1 85.22 150.83
  L 84.99 151.21
  Q 84.73 151.65 84.75 152.15
  Q 84.78 152.99 85.44 153.58
  A 0.48 0.48 0.0 0 0 86.24 153.23
  L 86.34 149.36
  A 0.62 0.62 0.0 0 1 86.95 148.76
  L 89.96 148.74
  A 0.92 0.92 0.0 0 1 90.80 149.29
  Q 91.40 150.63 90.42 151.63
  A 0.64 0.62 -38.3 0 0 90.32 152.39
  Q 91.73 154.79 90.02 154.56
  L 88.56 152.31
  A 0.41 0.41 0.0 0 0 87.82 152.46
  L 87.54 153.92
  Q 87.41 154.56 86.77 154.52
  L 84.96 154.41
  Q 84.46 154.38 84.20 153.96
  L 83.09 152.16
  A 0.49 0.49 0.0 0 0 82.20 152.31
  L 81.87 153.76
  Q 81.71 154.49 80.96 154.53
  L 76.50 154.77
  A 0.71 0.71 0.0 0 1 75.75 154.06
  L 75.75 149.24
  Q 75.75 148.86 76.14 148.82
  L 79.12 148.55
  Z
  M 79.14 151.75
  L 77.30 152.08
  A 0.37 0.36 -6.5 0 0 77.00 152.45
  Q 77.00 152.65 77.00 152.85
  Q 76.99 153.40 77.54 153.47
  L 80.26 153.81
  A 0.65 0.65 0.0 0 0 80.99 153.17
  L 81.01 149.86
  Q 81.01 149.40 80.55 149.45
  L 77.30 149.84
  A 0.34 0.33 -4.7 0 0 77.00 150.18
  Q 77.00 150.37 76.99 150.58
  A 0.61 0.61 0.0 0 0 77.89 151.15
  Q 78.49 150.83 79.21 151.16
  Q 80.11 151.58 79.14 151.75
  Z
  M 82.5901 151.1758
  A 0.91 0.80 113.3 0 0 83.6848 150.6564
  A 0.91 0.80 113.3 0 0 83.3099 149.5042
  A 0.91 0.80 113.3 0 0 82.2152 150.0236
  A 0.91 0.80 113.3 0 0 82.5901 151.1758
  Z
  M 88.25 149.66
  Q 87.95 149.74 87.71 150.34
  A 0.46 0.46 0.0 0 0 88.11 150.97
  L 89.04 151.01
  A 0.55 0.55 0.0 0 0 89.49 150.11
  Q 89.23 149.80 88.88 149.72
  Q 88.43 149.61 88.25 149.66
  Z"
    />
    <path fill="#f3f3f3" d="
  M 109.18 150.40
  Q 108.95 147.16 113.89 149.62
  Q 113.77 151.25 112.87 152.14
  Q 112.55 152.46 112.09 152.45
  Q 110.46 152.43 110.13 154.04
  Q 110.03 154.51 109.54 154.50
  L 101.75 154.32
  A 0.54 0.53 -7.4 0 1 101.25 153.94
  Q 100.90 152.82 99.95 152.27
  A 0.56 0.55 -79.0 0 0 99.13 152.83
  L 99.30 154.08
  Q 99.43 155.02 98.64 154.49
  L 97.55 153.74
  Q 97.23 153.52 96.93 153.76
  C 95.31 155.05 92.80 155.02 91.95 152.80
  C 90.65 149.41 95.10 146.99 97.22 150.16
  Q 97.55 150.65 97.73 150.09
  C 98.44 147.91 101.39 148.26 102.69 149.51
  A 0.54 0.52 -48.8 0 1 102.73 150.22
  Q 101.64 151.61 102.25 153.12
  A 0.79 0.79 0.0 0 0 103.01 153.61
  L 108.35 153.46
  Q 108.89 153.44 108.94 152.91
  L 109.18 150.40
  Z
  M 100.31 149.69
  Q 100.06 149.37 99.40 149.85
  A 0.64 0.63 -63.0 0 0 99.77 151.00
  L 100.26 151.00
  A 0.68 0.68 0.0 0 0 100.90 150.55
  Q 101.25 149.61 100.31 149.69
  Z
  M 94.6860 153.4798
  A 1.86 1.57 89.2 0 0 96.2298 151.5981
  A 1.86 1.57 89.2 0 0 94.6340 149.7602
  A 1.86 1.57 89.2 0 0 93.0902 151.6419
  A 1.86 1.57 89.2 0 0 94.6860 153.4798
  Z
  M 112.42 150.50
  A 1.00 0.79 0.0 0 0 111.42 149.71
  A 1.00 0.79 0.0 0 0 110.42 150.50
  A 1.00 0.79 0.0 0 0 111.42 151.29
  A 1.00 0.79 0.0 0 0 112.42 150.50
  Z"
    />
    <path fill="#f3f3f3" d="
  M 130.18 153.43
  Q 130.65 153.98 130.31 154.45
  Q 130.09 154.75 129.56 154.80
  Q 127.34 155.00 125.73 154.02
  Q 126.27 151.74 125.78 149.44
  Q 125.59 148.57 126.48 148.61
  L 129.93 148.77
  A 0.48 0.48 0.0 0 1 129.91 149.73
  L 127.69 149.76
  Q 127.34 149.76 127.29 150.12
  L 127.24 150.50
  Q 127.16 151.09 127.75 151.04
  L 129.54 150.89
  A 0.45 0.45 0.0 0 1 129.66 151.78
  L 127.67 152.17
  A 0.52 0.52 0.0 0 0 127.25 152.58
  Q 127.15 153.05 127.43 153.32
  Q 127.65 153.52 128.12 153.51
  Q 129.19 153.47 130.18 153.43
  Z"
    />
    <path fill="#f3f3f3" d="
  M 172.90 149.77
  A 1.15 1.15 0.0 0 1 174.04 148.62
  L 175.26 148.62
  A 2.75 2.72 -0.1 0 1 178.02 151.34
  L 178.02 152.00
  A 2.75 2.72 -0.1 0 1 175.28 154.72
  L 174.06 154.72
  A 1.15 1.15 0.0 0 1 172.90 153.57
  L 172.90 149.77
  Z
  M 175.3535 153.5900
  A 1.94 1.23 89.6 0 0 176.5700 151.6414
  A 1.94 1.23 89.6 0 0 175.3265 149.7100
  A 1.94 1.23 89.6 0 0 174.1100 151.6586
  A 1.94 1.23 89.6 0 0 175.3535 153.5900
  Z"
    />
    <path fill="#f3f3f3" d="
  M 118.90 153.03
  L 119.24 154.16
  A 0.41 0.40 12.2 0 1 118.58 154.58
  L 116.93 153.13
  A 0.70 0.69 42.8 0 0 115.97 153.16
  L 114.64 154.49
  Q 114.27 154.85 113.88 154.52
  Q 113.63 154.30 113.78 154.01
  Q 114.92 151.70 115.26 150.03
  L 115.81 149.26
  A 1.02 1.02 0.0 0 1 117.60 149.50
  L 118.90 153.03
  Z
  M 116.08 150.91
  L 116.26 152.16
  Q 116.36 152.83 116.80 152.31
  Q 117.61 151.35 116.69 150.57
  A 0.38 0.37 -74.0 0 0 116.08 150.91
  Z"
    />
    <path fill="#f3f3f3" d="
  M 124.05 150.47
  C 123.31 149.66 122.12 149.39 121.45 150.48
  Q 120.64 151.79 121.91 153.38
  A 0.92 0.92 0.0 0 0 123.45 152.40
  Q 122.82 151.12 123.92 150.96
  Q 125.85 152.54 125.04 153.95
  Q 121.71 155.50 120.21 153.29
  C 119.14 150.19 120.64 147.96 124.27 149.05
  Q 125.23 149.34 124.77 150.23
  Q 124.75 150.26 124.05 150.47
  Z"
    />
    <path fill="#f3f3f3" d="
  M 137.89 153.25
  Q 137.23 155.70 135.92 153.90
  C 135.41 153.20 135.36 152.20 134.85 151.39
  A 0.40 0.39 31.7 0 0 134.12 151.56
  L 133.95 153.74
  A 0.81 0.63 -68.2 0 1 132.80 154.42
  Q 132.61 154.21 132.73 153.28
  L 133.05 149.33
  A 0.75 0.75 0.0 0 1 134.49 149.10
  Q 135.60 151.73 137.89 153.25
  Z"
    />
    <path fill="#f3f3f3" d="
  M 143.93 149.77
  C 145.15 153.96 140.66 156.84 138.73 153.15
  Q 136.46 151.81 136.83 149.03
  A 0.41 0.41 0.0 0 1 137.62 148.93
  L 138.25 150.51
  Q 138.59 151.35 138.75 150.46
  C 139.19 147.94 142.58 148.48 143.93 149.77
  Z
  M 141.2247 153.4298
  A 1.81 1.45 90.8 0 0 142.6999 151.6402
  A 1.81 1.45 90.8 0 0 141.2753 149.8102
  A 1.81 1.45 90.8 0 0 139.8001 151.5998
  A 1.81 1.45 90.8 0 0 141.2247 153.4298
  Z"
    />
    <path fill="#f3f3f3" d="
  M 149.03 149.43
  Q 146.40 150.44 147.54 153.83
  A 0.69 0.68 -77.0 0 1 146.41 154.54
  L 146.16 154.29
  A 0.80 0.78 29.1 0 1 145.95 153.59
  Q 146.50 150.76 144.93 149.67
  Q 144.64 149.66 144.74 149.32
  Q 144.85 148.96 145.21 148.88
  Q 148.32 148.23 149.03 149.43
  Z"
    />
    <path fill="#f3f3f3" d="
  M 154.75 152.11
  Q 152.09 151.56 152.25 154.24
  A 0.46 0.46 0.0 0 1 151.66 154.71
  Q 151.17 154.56 151.15 153.98
  Q 151.08 152.40 150.89 150.68
  Q 151.43 147.29 154.91 149.10
  A 0.32 0.31 -33.8 0 1 154.79 149.69
  L 152.87 149.86
  A 0.56 0.56 0.0 0 0 152.94 150.98
  Q 154.90 150.90 154.75 152.11
  Z"
    />
    <path fill="#f3f3f3" d="
  M 163.31 149.26
  L 163.00 152.55
  A 0.97 0.97 0.0 0 0 164.92 152.85
  Q 165.19 151.61 164.98 149.75
  Q 164.88 148.79 165.90 149.07
  Q 166.25 149.17 166.25 149.54
  L 166.25 153.09
  A 1.74 1.74 0.0 0 1 164.53 154.83
  Q 162.56 154.86 161.81 153.15
  A 0.40 0.40 0.0 0 0 161.13 153.07
  L 160.57 153.82
  Q 160.26 154.24 159.75 154.37
  Q 156.13 155.32 155.45 151.76
  C 155.80 148.50 159.31 147.41 161.09 150.23
  Q 161.45 150.79 161.64 150.16
  Q 162.27 148.06 163.31 149.26
  Z
  M 158.4389 153.3866
  A 1.82 1.57 93.5 0 0 160.1171 151.6658
  A 1.82 1.57 93.5 0 0 158.6611 149.7534
  A 1.82 1.57 93.5 0 0 156.9829 151.4742
  A 1.82 1.57 93.5 0 0 158.4389 153.3866
  Z"
    />
    <path fill="#f3f3f3" d="
  M 170.11 151.74
  A 0.48 0.48 0.0 0 0 171.01 151.45
  Q 170.84 150.23 171.16 149.06
  A 0.50 0.50 0.0 0 1 172.14 149.22
  L 171.94 154.31
  A 0.54 0.53 -71.4 0 1 171.10 154.73
  Q 169.90 153.90 169.36 152.46
  A 0.87 0.58 46.6 0 0 167.96 152.14
  Q 167.92 152.83 168.20 153.09
  Q 168.54 153.40 168.51 153.85
  Q 168.47 154.61 167.35 154.61
  A 0.78 0.78 0.0 0 1 166.71 153.38
  Q 168.10 151.41 167.21 149.45
  Q 166.94 148.86 167.58 148.75
  Q 168.11 148.66 168.53 148.84
  Q 168.89 148.99 169.10 149.51
  Q 169.63 150.82 170.11 151.74
  Z"
    />
    <path fill="#ec429b" d="
  M 79.21 151.16
  Q 78.49 150.83 77.89 151.15
  A 0.61 0.61 0.0 0 1 76.99 150.58
  Q 77.00 150.37 77.00 150.18
  A 0.34 0.33 -4.7 0 1 77.30 149.84
  L 80.55 149.45
  Q 81.01 149.40 81.01 149.86
  L 80.99 153.17
  A 0.65 0.65 0.0 0 1 80.26 153.81
  L 77.54 153.47
  Q 76.99 153.40 77.00 152.85
  Q 77.00 152.65 77.00 152.45
  A 0.37 0.36 -6.5 0 1 77.30 152.08
  L 79.14 151.75
  Q 80.11 151.58 79.21 151.16
  Z"
    />
    <ellipse fill="#e23186" cx="0.00" cy="0.00" transform="translate(82.95,150.34) rotate(113.3)" rx="0.91" ry="0.80"/>
    <path fill="#e23186" d="
  M 88.88 149.72
  Q 89.23 149.80 89.49 150.11
  A 0.55 0.55 0.0 0 1 89.04 151.01
  L 88.11 150.97
  A 0.46 0.46 0.0 0 1 87.71 150.34
  Q 87.95 149.74 88.25 149.66
  Q 88.43 149.61 88.88 149.72
  Z"
    />
    <path fill="#ec429b" d="
  M 100.31 149.69
  Q 101.25 149.61 100.90 150.55
  A 0.68 0.68 0.0 0 1 100.26 151.00
  L 99.77 151.00
  A 0.64 0.63 -63.0 0 1 99.40 149.85
  Q 100.06 149.37 100.31 149.69
  Z"
    />
    <ellipse fill="#e23186" cx="0.00" cy="0.00" transform="translate(94.66,151.62) rotate(89.2)" rx="1.86" ry="1.57"/>
    <ellipse fill="#e23186" cx="111.42" cy="150.50" rx="1.00" ry="0.79"/>
    <path fill="#ec429b" d="
  M 124.05 150.47
  Q 124.01 151.10 123.92 150.96
  Q 122.82 151.12 123.45 152.40
  A 0.92 0.92 0.0 0 1 121.91 153.38
  Q 120.64 151.79 121.45 150.48
  C 122.12 149.39 123.31 149.66 124.05 150.47
  Z"
    />
    <ellipse fill="#ec429b" cx="0.00" cy="0.00" transform="translate(141.25,151.62) rotate(90.8)" rx="1.81" ry="1.45"/>
    <ellipse fill="#ec429b" cx="0.00" cy="0.00" transform="translate(158.55,151.57) rotate(93.5)" rx="1.82" ry="1.57"/>
    <ellipse fill="#e23186" cx="0.00" cy="0.00" transform="translate(175.34,151.65) rotate(89.6)" rx="1.94" ry="1.23"/>
    <path fill="#f765b7" d="
  M 116.08 150.91
  A 0.38 0.37 -74.0 0 1 116.69 150.57
  Q 117.61 151.35 116.80 152.31
  Q 116.36 152.83 116.26 152.16
  L 116.08 150.91
  Z"
    />
    <path fill="#3f3f40" d="
  M 129.00 176.72
  L 180.74 176.79
  L 183.82 177.05
  Q 183.48 179.15 180.94 179.29
  Q 180.44 179.32 180.18 179.75
  Q 178.81 182.03 180.70 183.76
  L 153.27 183.78
  L 123.92 183.73
  L 129.00 176.72
  Z"
    />
    <path fill="#9c9a9d" d="
  M 76.01 183.66
  L 58.60 183.87
  Q 58.33 183.88 58.46 184.12
  Q 59.10 185.30 57.87 186.24
  A 0.70 0.69 -19.1 0 0 57.60 186.79
  L 57.62 196.20
  Q 57.62 196.70 57.85 197.14
  Q 59.09 199.54 59.41 202.27
  Q 59.47 202.79 59.06 203.09
  L 58.15 203.74
  Q 57.75 204.03 58.23 204.13
  L 59.77 204.44
  Q 59.91 204.47 59.94 204.56
  Q 59.98 204.68 60.02 204.81
  Q 60.09 205.01 59.88 205.02
  L 53.48 205.23
  Q 38.02 204.85 22.50 205.02
  Q 20.07 205.05 16.16 204.37
  A 1.07 1.05 -8.5 0 1 15.40 203.82
  C 12.87 198.99 13.95 188.00 14.25 183.67
  L 76.01 183.66
  Z"
    />
    <path fill="#adadae" d="
  M 76.01 183.66
  L 123.92 183.73
  L 153.27 183.78
  L 148.11 184.40
  Q 147.50 184.47 147.58 185.08
  L 150.01 205.12
  L 104.06 205.05
  A 1.59 1.58 4.2 0 0 102.49 206.40
  L 102.05 209.26
  Q 101.97 209.79 102.50 209.84
  L 111.56 210.54
  A 0.93 0.92 -60.0 0 0 112.18 210.37
  Q 112.70 210.02 113.00 210.02
  Q 124.58 209.89 150.50 210.08
  Q 150.99 210.08 150.99 210.57
  L 151.00 211.87
  Q 135.17 212.10 119.43 211.89
  C 116.34 211.84 113.81 211.57 110.91 211.93
  Q 106.40 212.50 102.01 210.97
  A 0.60 0.60 0.0 0 0 101.22 211.44
  L 100.55 215.80
  A 0.76 0.76 0.0 0 0 101.30 216.68
  L 150.68 216.56
  A 0.92 0.92 0.0 0 1 151.33 216.83
  C 153.85 219.34 154.36 221.69 157.83 223.92
  Q 163.57 227.59 160.05 230.22
  C 158.24 226.83 155.19 226.04 152.93 222.78
  Q 152.60 222.31 152.60 221.74
  Q 152.60 219.79 151.01 218.41
  A 1.26 1.23 -23.2 0 0 150.21 218.10
  Q 116.81 217.91 104.08 217.98
  C 98.67 218.01 99.76 221.65 97.53 224.57
  Q 95.39 227.37 92.56 229.55
  L 92.49 228.64
  Q 92.44 228.01 91.84 228.22
  Q 91.54 228.33 91.17 227.83
  A 0.77 0.77 0.0 0 1 91.22 226.85
  L 98.98 218.43
  Q 99.36 218.01 99.35 217.44
  Q 99.19 211.92 101.49 206.97
  A 1.19 1.19 0.0 0 0 100.41 205.27
  L 53.48 205.23
  L 59.88 205.02
  Q 60.09 205.01 60.02 204.81
  Q 59.98 204.68 59.94 204.56
  Q 59.91 204.47 59.77 204.44
  L 58.23 204.13
  Q 57.75 204.03 58.15 203.74
  L 59.06 203.09
  Q 59.47 202.79 59.41 202.27
  Q 59.09 199.54 57.85 197.14
  Q 57.62 196.70 57.62 196.20
  L 57.60 186.79
  A 0.70 0.69 -19.1 0 1 57.87 186.24
  Q 59.10 185.30 58.46 184.12
  Q 58.33 183.88 58.60 183.87
  L 76.01 183.66
  Z
  M 125.22 195.49
  L 124.92 195.39
  Q 124.37 195.22 124.33 194.64
  L 124.13 191.73
  A 1.31 1.31 0.0 0 0 121.51 191.82
  L 121.49 196.56
  A 1.08 1.08 0.0 0 0 122.08 197.52
  L 125.31 199.16
  A 2.15 2.15 0.0 0 0 128.44 197.27
  L 128.51 190.98
  A 1.17 1.17 0.0 0 0 126.17 190.90
  L 125.91 195.01
  Q 125.87 195.69 125.22 195.49
  Z"
    />
    <path fill="#c9c9cb" d="
  M 153.27 183.78
  L 180.70 183.76
  L 237.91 183.76
  L 238.23 204.32
  A 0.80 0.79 -3.6 0 1 237.52 205.12
  Q 224.41 206.51 211.07 205.90
  C 208.97 205.81 204.72 206.10 201.62 205.71
  Q 199.32 205.42 197.86 205.46
  Q 175.81 205.94 153.77 205.55
  A 1.27 1.27 0.0 0 0 152.48 206.80
  L 152.40 212.27
  Q 152.17 209.55 152.23 206.81
  Q 152.25 205.75 151.70 205.43
  Q 151.10 205.07 150.01 205.12
  L 147.58 185.08
  Q 147.50 184.47 148.11 184.40
  L 153.27 183.78
  Z"
    />
    <path fill="#000000" d="
  M 125.91 195.01
  L 126.17 190.90
  A 1.17 1.17 0.0 0 1 128.51 190.98
  L 128.44 197.27
  A 2.15 2.15 0.0 0 1 125.31 199.16
  L 122.08 197.52
  A 1.08 1.08 0.0 0 1 121.49 196.56
  L 121.51 191.82
  A 1.31 1.31 0.0 0 1 124.13 191.73
  L 124.33 194.64
  Q 124.37 195.22 124.92 195.39
  L 125.22 195.49
  Q 125.87 195.69 125.91 195.01
  Z"
    />
    <path fill="#9c9a9d" d="
  M 150.01 205.12
  Q 151.10 205.07 151.70 205.43
  Q 152.25 205.75 152.23 206.81
  Q 152.17 209.55 152.40 212.27
  L 152.74 216.24
  Q 152.79 216.86 152.22 216.60
  C 150.76 215.94 151.37 213.22 151.00 211.87
  L 150.99 210.57
  Q 150.99 210.08 150.50 210.08
  Q 124.58 209.89 113.00 210.02
  Q 112.70 210.02 112.18 210.37
  A 0.93 0.92 -60.0 0 1 111.56 210.54
  L 102.50 209.84
  Q 101.97 209.79 102.05 209.26
  L 102.49 206.40
  A 1.59 1.58 4.2 0 1 104.06 205.05
  L 150.01 205.12
  Z"
    />
    <path fill="#9c9a9d" d="
  M 160.05 230.22
  Q 158.40 231.21 157.25 231.19
  Q 129.78 230.61 102.31 230.92
  Q 97.65 230.97 93.01 230.42
  Q 92.31 230.34 92.56 229.55
  Q 95.39 227.37 97.53 224.57
  C 99.76 221.65 98.67 218.01 104.08 217.98
  Q 116.81 217.91 150.21 218.10
  A 1.26 1.23 -23.2 0 1 151.01 218.41
  Q 152.60 219.79 152.60 221.74
  Q 152.60 222.31 152.93 222.78
  C 155.19 226.04 158.24 226.83 160.05 230.22
  Z"
    />
    <path fill="#c9c9cb" d="
  M 179.96 241.58
  L 190.20 252.29
  L 188.56 252.96
  Q 188.14 253.13 187.70 253.12
  L 60.99 253.04
  L 72.07 241.43
  Q 91.89 241.64 112.39 241.04
  C 114.47 240.97 119.27 240.03 122.60 240.51
  Q 125.76 240.97 127.08 240.97
  Q 154.19 240.95 179.96 241.58
  Z"
    />
    <path fill="#adadae" d="
  M 72.07 241.43
  L 60.99 253.04
  Q 61.14 253.60 60.89 254.06
  Q 60.33 255.12 61.53 255.12
  L 190.73 254.96
  Q 191.46 254.96 191.31 254.24
  Q 191.11 253.30 190.20 252.29
  L 179.96 241.58
  Q 183.07 241.96 183.91 242.84
  C 186.24 245.29 193.29 251.25 192.13 254.85
  Q 191.56 256.63 189.70 256.64
  Q 126.43 256.99 63.75 256.48
  Q 61.73 256.46 60.39 256.21
  Q 59.85 256.11 59.75 255.57
  C 59.46 254.10 59.40 252.71 60.39 251.41
  Q 63.50 247.35 67.31 243.87
  Q 67.69 243.52 67.91 243.06
  Q 68.78 241.18 72.07 241.43
  Z"
    />
    <path fill="#f3f3f3" d="
  M 190.20 252.29
  Q 191.11 253.30 191.31 254.24
  Q 191.46 254.96 190.73 254.96
  L 61.53 255.12
  Q 60.33 255.12 60.89 254.06
  Q 61.14 253.60 60.99 253.04
  L 187.70 253.12
  Q 188.14 253.13 188.56 252.96
  L 190.20 252.29
  Z"
    />
</svg>
