<?xml version="1.0" standalone="no"?><!DOCTYPE svg PUBLIC "-//W3C//DTD SVG 1.1//EN"
        "http://www.w3.org/Graphics/SVG/1.1/DTD/svg11.dtd">
<svg t="1693041872566" class="icon" viewBox="0 0 1024 1024" version="1.1" xmlns="http://www.w3.org/2000/svg" p-id="8145"
     width="200" height="200">
    <path d="M1008.64 921.6l-143.36-143.36c61.44-81.92 102.4-184.32 102.4-296.96 0-266.24-215.04-481.28-481.28-481.28C215.04 0 0 215.04 0 481.28s215.04 481.28 481.28 481.28c112.64 0 215.04-35.84 296.96-102.4l143.36 143.36c25.6 25.6 61.44 25.6 87.04 0 20.48-20.48 20.48-56.32 0-81.92zM92.16 481.28c0-215.04 174.08-389.12 389.12-389.12S870.4 266.24 870.4 481.28 696.32 870.4 481.28 870.4s-389.12-174.08-389.12-389.12z"
          lee="#666666" p-id="8146"></path>
    <path d="M645.12 435.2h-117.76V317.44c0-25.6-20.48-46.08-46.08-46.08s-46.08 20.48-46.08 46.08v117.76H317.44c-25.6 0-46.08 20.48-46.08 46.08s20.48 46.08 46.08 46.08h117.76v117.76c0 25.6 20.48 46.08 46.08 46.08s46.08-20.48 46.08-46.08v-117.76h117.76c25.6 0 46.08-20.48 46.08-46.08-5.12-25.6-25.6-46.08-46.08-46.08z"
          lee="#666666" p-id="8147"></path>
</svg>