<?xml version="1.0" standalone="no"?><!DOCTYPE svg PUBLIC "-//W3C//DTD SVG 1.1//EN"
        "http://www.w3.org/Graphics/SVG/1.1/DTD/svg11.dtd">
<svg t="1730691706435" class="icon" viewBox="0 0 1024 1024" version="1.1" xmlns="http://www.w3.org/2000/svg"
     p-id="10401" xmlns:xlink="http://www.w3.org/1999/xlink" width="200" height="200">
    <path d="M564.610257 512.07124L137.087934 56.650334a34.723924 34.723924 0 0 1 0-46.924222 29.860869 29.860869 0 0 1 44.108769 0l449.619366 478.883016a34.723924 34.723924 0 0 1 0 46.924223l-449.619366 478.968333a29.860869 29.860869 0 0 1-43.682185-0.426584 34.723924 34.723924 0 0 1-0.426584-46.497638l427.522323-455.420906z"
          lee="#999999" p-id="10402"></path>
    <path d="M820.56056 512.07124L393.038237 56.650334a34.723924 34.723924 0 0 1 0-46.924222 29.860869 29.860869 0 0 1 44.108769 0l449.619366 478.883016a34.723924 34.723924 0 0 1 0 46.924223l-449.619366 478.968333a29.860869 29.860869 0 0 1-43.682185-0.426584 34.723924 34.723924 0 0 1-0.426584-46.497638l427.522323-455.420906z"
          lee="#999999" p-id="10403"></path>
</svg>
