<?xml version="1.0" standalone="no"?><!DOCTYPE svg PUBLIC "-//W3C//DTD SVG 1.1//EN"
        "http://www.w3.org/Graphics/SVG/1.1/DTD/svg11.dtd">
<svg t="1734078798945" class="icon" viewBox="0 0 1024 1024" version="1.1" xmlns="http://www.w3.org/2000/svg"
     p-id="18644" width="200" height="200">
    <path d="M915.8027339851852 910.717787654321H108.45487913086419c-18.72549609876543 0-33.878066567901236 12.812045274074075-33.878066567901236 28.613179417283952v41.14560442469135c0 15.801134143209877 15.152570469135801 28.613179417283952 33.878066567901236 28.613179417283952h807.3491493925925c18.72549609876543 0 33.878066567901236-12.812045274074075 33.878066567901236-28.613179417283952v-41.14560442469135C949.6808005530866 923.5298329283951 934.5282300839508 910.717787654321 915.8027339851852 910.717787654321zM759.3163586370372 618.764454874074h-179.21587832098763V445.46720553086425c88.58654846419752-28.66237187160494 152.65713114074074-111.81574320987652 152.65713114074074-209.94692235061729 0-121.85359296790124-98.782331891358-220.63463032098764-220.63463032098764-220.63463032098764S291.48835081481485 113.66798475061734 291.48835081481485 235.52028318024696c0 98.13117914074074 64.07058267654321 181.28455047901238 152.65713114074074 209.94692235061729v173.29854388148146H264.9088910222222c-104.94303952592593 0-190.33207845925924 85.39033347160493-190.33207845925924 190.3489074567901 0 18.708667101234568 15.152570469135801 33.878066567901236 33.878066567901236 33.878066567901236h807.3491493925925c18.72549609876543 0 33.878066567901236-15.169399466666666 33.878066567901236-33.878066567901236-0.0012945382716049384-104.95986852345676-85.39033347160493-190.3502019950617-190.36573645432097-190.3502019950617z"
          p-id="18645"></path>
</svg>
