<?xml version="1.0" standalone="no"?><!DOCTYPE svg PUBLIC "-//W3C//DTD SVG 1.1//EN"
        "http://www.w3.org/Graphics/SVG/1.1/DTD/svg11.dtd">
<svg t="1692168695777" class="icon" viewBox="0 0 1084 1024" version="1.1" xmlns="http://www.w3.org/2000/svg"
     p-id="12216"
     width="211.71875" height="200">
    <path d="M1003.998929 0.002711H79.901883C36.231423-0.3587 0.301176 36.264251 0 81.711647V765.892223c0 45.055867 35.538719 81.678819 79.540472 81.678818h419.748412v98.604887h-137.095126a16.564657 16.564657 0 0 0-11.8362 4.939279 17.980182 17.980182 0 0 0-4.758574 12.318082v43.309049c0 9.517148 6.776451 17.257361 16.926067 17.257361H723.72493a17.076656 17.076656 0 0 0 17.257361-17.257361V963.463406a17.679007 17.679007 0 0 0-16.564657-17.257361h-139.474413v-98.936179h419.748412c43.67046 0.331293 79.209179-36.291658 79.540472-81.708936V81.350236c-1.023997-45.085985-36.562716-81.317408-80.233176-81.317408z m11.504908 776.099364H70.083559V73.610023h945.420278v702.492052z m-192.601787-331.714789v-35.90013a57.795595 57.795595 0 0 0-7.77033-26.413099 69.661913 69.661913 0 0 0-44.694457-33.129314l-26.051688-5.963276c-0.361411-1.054115-1.023997-2.108229-1.35529-3.162344l12.860198-22.527934 0.662586-1.084232c0.331293-0.692704 0.692704-1.054115 0.692704-1.385408l0.301175-0.36141c3.764695-6.686098 5.782571-11.625378 6.806569-14.456428 12.167494-33.069079-1.35529-57.73536-11.866318-68.306623l-21.985818-22.889344-0.331293-0.331294a53.187608 53.187608 0 0 0-15.932189-11.263967 59.572531 59.572531 0 0 0-25.720395-5.631983c-19.275237 0-33.852136 8.794327-37.225302 11.263967l-23.702518 15.841836c-0.692704-0.361411-1.686583-0.722821-2.379288-1.054115l-5.722336-26.413099a70.053441 70.053441 0 0 0-7.469154-21.142526c-17.618772-32.376375-44.333046-34.846015-52.103376-34.846015h-37.25542c-23.039932 2.108229-41.652583 18.311476-51.470908 44.363164-0.993879 2.46964-2.34917 7.047509-9.818324 38.038476-0.993879 0.331293-2.017876 1.054115-2.71058 1.054115l-2.017876 1.054114-22.678522-14.787721a54.542898 54.542898 0 0 0-11.143497-6.324687 69.33062 69.33062 0 0 0-27.437095-6.354805h-1.716701c-23.341108 0-37.556595 13.372196-42.285052 18.672886l-23.371226 24.274752-1.023997 1.415526c-11.143497 14.456428-12.860197 28.882739-12.860197 35.538719-0.993879 21.503937 9.155738 39.122708 12.197611 44.03187l14.878074 26.081806c0 0.331293-0.301176 0.692704-0.301176 1.054114l-26.081805 5.963277a88.395034 88.395034 0 0 0-12.528905 4.216458l-0.692703 0.361411c-21.654525 10.23997-31.141555 27.105803-33.852136 33.129314-5.722336 11.956671-6.083747 23.220638-5.722336 28.159917v28.521328c0 7.047509 0.993879 12.348199 1.325172 14.095017v0.692704c4.06587 17.618772 15.239485 28.521328 18.974062 31.683672 13.191491 11.986788 29.786265 16.203246 34.846015 17.618772l24.033812 6.324687-11.8362 20.419704c-5.089867 8.463034-7.800448 14.456428-8.794328 16.564658a79.209179 79.209179 0 0 0-6.445157 30.629557c0 22.527934 12.197611 36.984362 15.570778 40.508116l21.985817 22.527933c7.137861 7.378802 14.245605 11.263967 16.624893 12.348199 8.432916 4.216458 17.257361 5.963277 26.714274 5.963277 19.305355 0 34.213546-9.155738 37.586713-11.625378l24.033812-16.203246 5.089867 2.108229 7.77033 32.406493 0.331293 1.054115c4.06587 12.679492 9.487031 20.781115 11.535025 23.582048 16.89595 23.612166 39.604589 24.997574 43.971636 24.997573h36.924126l2.017877-0.331293c37.25542-5.270573 52.464787-38.399887 55.50666-56.319834l5.782571-26.443216 2.017877-1.054115 22.347228 14.787721c0.993879 0.722821 2.71058 1.776936 5.722336 3.523755l0.361411 0.36141c9.155738 5.270573 18.281358 7.047509 21.323231 7.378802 3.734577 0.722821 7.439037 1.054115 11.173614 1.054115a58.729239 58.729239 0 0 0 40.628587-15.841836l23.341108-24.274752a59.030415 59.030415 0 0 0 16.926067-39.092591c1.35529-21.142526-8.432916-39.454002-11.143496-43.67046l-14.576899-25.358984c0.331293-0.692704 0.331293-1.054115 0.692704-1.415525l23.672401-6.324688c7.800448-1.746818 13.884194-4.216458 14.908192-4.939279h0.331293c32.526963-13.372196 40.297293-41.562231 39.604589-57.042656z m-76.167305 2.108229a39.694942 39.694942 0 0 1-6.083747 1.776936l-51.44079 13.372196-4.427281 14.787721s-3.373167 10.932674-8.794327 21.473819l-6.776451 13.733607 28.792386 49.995147 0.331293 0.361411c1.35529 2.46964 2.71058 6.686098 2.710581 8.131741v0.301175l-20.299235 21.142526c-0.692704 0.361411-2.047994 0.722821-3.734577 0.361411h-0.692704c-0.662586 0-2.017876-0.692704-3.011756-1.054115a2.529875 2.529875 0 0 0-1.385407-0.692703l-34.183429-22.558052-13.854077-9.848441-14.245605 9.517148c-0.993879 0.692704-7.77033 4.216458-21.323232 9.155738l-14.215487 4.909162-11.836201 55.295837v1.415525c-0.692704 2.800933-2.379287 6.324687-5.752453 7.378802h-27.768389c-0.331293-0.331293-0.662586-0.331293-1.023997-1.054114l0.36141 0.36141-0.692703-0.692703c-0.331293-0.722821-1.35529-2.46964-2.379288-5.662101l-13.552901-56.681245-13.854077-4.577869a198.836121 198.836121 0 0 1-24.395222-10.541146l-13.854077-8.131741-48.398917 32.406493 0.301176-0.36141-0.662586 0.36141a12.739727 12.739727 0 0 1-6.083747 1.776936c-0.662586 0-1.35529 0-2.017877-0.36141 0 0-0.361411 0-0.36141-0.361411l-19.967941-20.781115v-1.385408s0.361411-2.46964 1.35529-4.577869v-0.361411l0.36141-0.722821c0.301176-0.692704 1.686583-3.493637 4.397164-8.071506l26.382981-45.447396-6.083747-13.372196a133.270196 133.270196 0 0 1-8.13174-20.781115l-4.397164-14.757604-51.44079-13.402313h-1.35529c-2.379287-0.722821-6.776451-2.108229-8.794327-3.885165l-0.692704-0.692704v-29.936853l0.331293-0.692704a9.938794 9.938794 0 0 1 4.758574-3.885165c0.662586-0.361411 1.35529-0.692704 2.017877-0.692704l54.15137-12.679492 4.758574-15.149132c1.35529-4.577869 3.373167-9.848442 4.065871-11.263967l0.662586-1.054114c1.686583-3.885165 3.403284-8.131741 4.06587-9.155738l7.107744-13.733607-29.454972-50.717968-0.662586-1.054115c-0.692704-1.054115-3.041873-5.993394-2.710581-9.155737l20.630528-21.112409h1.023997l0.331293 0.331293h1.35529a9.938794 9.938794 0 0 1 3.734577 1.054115l0.662587 0.36141c0.361411 0 1.35529 0.692704 1.716701 1.054115l47.706212 31.683671 13.552902-7.378801a125.891394 125.891394 0 0 1 10.842321-5.270573l0.993879-0.361411a90.653851 90.653851 0 0 1 11.866318-4.577869l15.239485-4.216458 3.704459-15.871953c4.397164-17.950065 9.155738-38.36977 10.511028-42.947639 1.35529-3.885165 2.71058-5.631983 3.373167-5.993394h29.123679c0.662586 0.361411 2.017876 1.776936 3.70446 4.93928l0.331293 0.361411a10.661616 10.661616 0 0 1 1.023997 3.523754l8.463034 40.116588 3.403284 15.510542 14.54678 4.93928s11.8362 3.855047 22.347229 9.848442l13.552901 7.740212 47.706213-31.683671-0.331293 0.36141 0.662586-0.36141a12.739727 12.739727 0 0 1 6.113864-1.776936c0.662586 0 1.35529 0 2.017877 0.36141l20.299234 21.142526c0 0.692704 0 2.108229-0.993879 4.909163l-0.361411-0.331294-0.301176 1.746819c-0.361411 0.692704-1.054115 2.108229-2.047994 3.885165l-28.099682 48.579622 6.776451 13.733606s6.41504 12.679492 9.456913 23.582049l4.397164 15.510542 54.181488 12.649375h1.35529c0.993879 0.391528 4.06587 1.445643 6.083747 4.607986v30.268146c-2.379287-1.385408-4.06587-0.331293-6.776451 1.054115z m-204.799398-117.940359c-52.464787 0-95.47266 44.363164-95.47266 99.29759 0 54.573016 42.67658 99.29759 95.47266 99.297591 52.464787 0 95.47266-44.363164 95.472661-99.297591s-43.007874-99.29759-95.472661-99.29759z m0 135.559131c-19.275237 0-35.207426-16.203246-35.207426-36.622951 0-20.058294 15.570778-36.622951 35.237544-36.622951 19.275237 0 35.177308 16.203246 35.177308 36.622951 0 20.058294-15.902071 36.622951-35.207426 36.622951z"
          p-id="12217"></path>
</svg>