<?xml version="1.0" standalone="no"?><!DOCTYPE svg PUBLIC "-//W3C//DTD SVG 1.1//EN"
        "http://www.w3.org/Graphics/SVG/1.1/DTD/svg11.dtd">
<svg t="1692169389583" class="icon" viewBox="0 0 1024 1024" version="1.1" xmlns="http://www.w3.org/2000/svg" p-id="7182"
     width="200" height="200">
    <path d="M766 280h-61.35v-65.18a56.05 56.05 0 0 0-56-56H246.39a56.06 56.06 0 0 0-56 56V721a56.05 56.05 0 0 0 56 56h76.94v49.58A40.48 40.48 0 0 0 363.77 867H513.3v-31.1H363.77a9.35 9.35 0 0 1-9.34-9.34V320.39a9.35 9.35 0 0 1 9.34-9.34H766a9.35 9.35 0 0 1 9.34 9.34v274.36h31.1V320.39A40.48 40.48 0 0 0 766 280z m-442.67 40.39v394.36h-70.72V221h389.84v59H363.77a40.48 40.48 0 0 0-40.44 40.39z"
          p-id="7183"></path>
    <path d="M776.73 642.78l-89.64 85.78-85.79-89.63-22.47 21.5 85.79 89.64-89.64 85.78 21.51 22.47 89.63-85.78 85.79 89.63 22.47-21.5-85.79-89.64 89.64-85.78-21.5-22.47zM417.71 396.23h295.43v31.1H417.71zM417.71 477.21h295.43v31.1H417.71zM417.71 557.91h147.72v31.1H417.71z"
          p-id="7184"></path>
</svg>