<?xml version="1.0" standalone="no"?><!DOCTYPE svg PUBLIC "-//W3C//DTD SVG 1.1//EN"
        "http://www.w3.org/Graphics/SVG/1.1/DTD/svg11.dtd">
<svg t="1734078123396" class="icon" viewBox="0 0 1024 1024" version="1.1" xmlns="http://www.w3.org/2000/svg" p-id="5246"
     width="200" height="200">
    <path d="M771.8 917.9c-4 0-7.9-1.4-11.6-4.1v-92.5H583.1c-15.9-25.5-111.9-184.7-151.4-250.1l32.7-64.6 150.9 249.1h144.9v-90.8c3.7-2.7 7.6-4.1 11.6-4.1 5.1 0 10.1 2.3 14.6 6.7l7.2 7.1 1.3-1.3L952.7 780c4.3 4.5 6.5 9.7 6.1 14.2-0.3 3.3-2.1 6-5.1 8L787.1 910.4l-0.7 0.7c-4.5 4.4-9.5 6.8-14.6 6.8zM97.2 563.3c-16.2 0-33.4-16.9-33.4-32.8 0-15.9 17.2-32.8 33.4-32.8h54.5v-0.2h170.1l174.4-301.3h264.1v-86.1c3.7-2.7 7.6-4.1 11.6-4.1 5.1 0 10.2 2.3 14.6 6.7l0.7 0.7 165.6 111.9c4.3 4.5 6.6 9.6 6.1 14.2-0.3 3.3-2.1 6-5.2 8.1l-166.5 108-0.7 0.7c-4.5 4.4-9.5 6.7-14.6 6.7-4 0-7.9-1.4-11.6-4.1v-97.2H528l-3 5.1L353.6 563h-12.8l0.2 0.3H97.2z"
          p-id="5247"></path>
</svg>
