<?xml version="1.0" standalone="no"?><!DOCTYPE svg PUBLIC "-//W3C//DTD SVG 1.1//EN"
        "http://www.w3.org/Graphics/SVG/1.1/DTD/svg11.dtd">
<svg t="1693669239768" class="icon" viewBox="0 0 1024 1024" version="1.1" xmlns="http://www.w3.org/2000/svg"
     p-id="15811"
     width="200" height="200">
    <path d="M154.112 690.688h103.936v50.176H154.112zM754.176 690.688h103.936v50.176h-103.936zM527.872 553.984V225.28c0-11.776-9.728-21.504-21.504-21.504-11.776 0-21.504 9.728-21.504 21.504v328.704c0 11.776 9.728 21.504 21.504 21.504 11.776 0.512 21.504-9.216 21.504-21.504z"
          lee="#000000" p-id="15812"></path>
    <path d="M505.856 160.768c-9.728 0-18.944 3.584-26.112 10.752L345.6 306.176c-9.728 9.728-9.728 25.6 0 35.328 9.728 9.728 25.6 9.728 35.328 0l125.44-125.44 125.44 125.44c9.728 9.728 25.6 9.728 35.328 0s9.728-25.6 0-35.328l-134.144-134.144c-8.192-7.68-17.408-11.264-27.136-11.264z"
          lee="#000000" p-id="15813"></path>
    <path d="M858.624 860.16H153.6v-289.28h240.64c13.824 0 25.088 11.264 25.088 25.088s-11.264 25.088-25.088 25.088H203.776v189.44h604.672v-189.44H619.52c-13.824 0-25.088-11.264-25.088-25.088s11.264-25.088 25.088-25.088h239.104V860.16z"
          lee="#000000" p-id="15814"></path>
    <path d="M505.856 741.888C430.08 741.888 368.64 679.936 368.64 604.16c0-13.824 11.264-25.088 25.088-25.088s25.088 11.264 25.088 25.088c0 48.128 39.424 87.552 87.552 87.552S593.92 652.288 593.92 604.16c0-13.824 11.264-25.088 25.088-25.088s25.088 11.264 25.088 25.088c-0.512 75.776-62.464 137.728-138.24 137.728z"
          lee="#000000" p-id="15815"></path>
</svg>