<?xml version="1.0" standalone="no"?><!DOCTYPE svg PUBLIC "-//W3C//DTD SVG 1.1//EN" "http://www.w3.org/Graphics/SVG/1.1/DTD/svg11.dtd"><svg t="1730334386134" class="icon" viewBox="0 0 1024 1024" version="1.1" xmlns="http://www.w3.org/2000/svg" p-id="8892" xmlns:xlink="http://www.w3.org/1999/xlink" width="200" height="200"><path d="M554.053004 498.563518c11.667451 10.868904 27.944061 19.008482 45.849605 19.008483s34.178334-8.139579 46.120883-19.008483a65.310216 65.310216 0 0 0 18.976642-46.104325 65.408283 65.408283 0 0 0-110.948404-46.681267 66.522684 66.522684 0 0 0-18.976642 46.681267 62.975707 62.975707 0 0 0 18.976642 45.55413v0.550195z m32.275575-60.229825a19.725519 19.725519 0 0 1 27.141693 0 18.963906 18.963906 0 0 1 5.684077 14.124226 19.486082 19.486082 0 0 1-5.684077 13.548558 21.295868 21.295868 0 0 1-27.141693 0 21.09846 21.09846 0 0 1-5.70955-13.548558 21.365916 21.365916 0 0 1 5.70955-14.124226z m-208.870426 60.229825c11.91835 10.868904 27.944061 19.008482 46.096684 19.008483 17.902997 0 34.179607-8.139579 45.849606-19.008483a66.665327 66.665327 0 0 0 19.279759-46.104325 68.010249 68.010249 0 0 0-19.289948-46.679993 65.507624 65.507624 0 0 0-45.849606-18.457014 67.077973 67.077973 0 0 0-46.096684 18.457014 67.755528 67.755528 0 0 0-19.000841 46.679993 64.118126 64.118126 0 0 0 19.004662 45.55413v0.550195z m32.550673-60.229825a19.694953 19.694953 0 0 1 27.117494 0c3.806791 3.53042 5.40898 8.660481 5.40898 14.124226a19.163862 19.163862 0 0 1-5.40898 13.548558 21.261481 21.261481 0 0 1-27.117494 0 19.748444 19.748444 0 0 1-5.69554-13.547284 20.078307 20.078307 0 0 1 5.684077-14.124226zM970.452755 15.071784H52.970304A38.304798 38.304798 0 0 0 15.010651 53.312903v917.374194a38.311166 38.311166 0 0 0 37.953285 38.266591h917.488819a38.609189 38.609189 0 0 0 38.53532-38.266591V53.312903a38.602821 38.602821 0 0 0-38.53532-38.242392z m-38.486923 917.376742H91.505624v-617.823437h840.460208v617.823437z m0-663.959603H91.505624V91.555295h75.417507v56.999975c0 20.887043 16.826805 38.51749 37.983851 38.517489s37.985125-17.631721 37.985125-38.517489V91.555295h128.575031v56.999975c0 20.887043 16.801333 38.51749 37.985124 38.517489 21.158319 0 37.959653-17.631721 37.959653-38.517489V91.555295h128.327952v56.999975c0 20.887043 17.377001 38.51749 38.258949 38.517489a38.620651 38.620651 0 0 0 38.260222-38.517489V91.555295h128.297386v56.999975a38.858814 38.858814 0 0 0 38.53532 38.517489c20.606851 0 37.983851-17.631721 37.983851-38.517489V91.555295h74.887689v176.933628z m-201.865626 230.074595c11.943822 10.868904 28.244631 19.008482 46.397254 19.008483 17.653372 0 34.454705-8.139579 45.594886-19.008483a65.56621 65.56621 0 0 0 19.255561-46.104325 66.883112 66.883112 0 0 0-19.255561-46.681267 66.199189 66.199189 0 0 0-91.718316 0h-0.273824a67.755528 67.755528 0 0 0-19.002114 46.681267 64.113032 64.113032 0 0 0 19.002114 45.555404v0.548921z m32.301048-60.229825h0.275097c3.805517-2.980224 8.137031-5.410253 13.821109-5.410253a20.261705 20.261705 0 0 1 13.270914 5.410253 19.009756 19.009756 0 0 1 5.731201 14.124226 19.544668 19.544668 0 0 1-5.731201 13.548558 19.868162 19.868162 0 0 1-13.270914 4.884257 21.623184 21.623184 0 0 1-14.096206-4.884257 22.333852 22.333852 0 0 1-5.428084-13.547284 22.597488 22.597488 0 0 1 5.434452-14.124226z m-32.02595 233.081565a65.114082 65.114082 0 1 0 0-92.260869h-0.275098a65.475784 65.475784 0 0 0-19.002114 46.132345 66.470466 66.470466 0 0 0 19.002114 46.131072h0.275098z m32.02595-59.703828l0.275097-0.276371a20.441283 20.441283 0 0 1 13.821109-5.40898 18.976642 18.976642 0 0 1 13.270914 5.40898v0.276371a17.830402 17.830402 0 0 1 5.731201 13.572757c0 5.435725-1.928231 10.570881-5.731201 13.57403a18.085122 18.085122 0 0 1-13.270914 5.685352 19.441506 19.441506 0 0 1-13.821109-5.685352h-0.275097a20.041372 20.041372 0 0 1-5.428084-13.571483 21.141763 21.141763 0 0 1 5.434452-13.572757zM377.451785 844.795542a67.549205 67.549205 0 0 0 46.092863 18.983011 65.953384 65.953384 0 0 0 45.849606-18.976643c11.668725-12.226562 19.279759-28.75025 19.279759-46.104325a64.684878 64.684878 0 0 0-19.279759-46.13744 63.665998 63.665998 0 0 0-45.849606-19.008482 65.158658 65.158658 0 0 0-46.096684 19.008482 64.465819 64.465819 0 0 0-19.004662 46.129798 67.438402 67.438402 0 0 0 19.004662 46.104326z m32.550673-59.703828c3.255322-3.782592 8.138305-5.410253 13.546011-5.410253 5.434452 0 10.316161 1.627661 13.571483 5.410253 3.806791 3.004423 5.40898 7.888679 5.40898 13.598229 0 5.40898-1.602189 10.018139-5.40898 13.548559a19.694953 19.694953 0 0 1-27.117494 0 18.809801 18.809801 0 0 1-5.684078-13.548559 17.592239 17.592239 0 0 1 5.684078-13.598229zM201.101465 671.417806a65.114082 65.114082 0 0 0 111.223502-46.131072 64.332091 64.332091 0 0 0-19.004662-46.129798 65.491067 65.491067 0 0 0-92.21884 0 64.332091 64.332091 0 0 0-19.004661 46.129798 65.287291 65.287291 0 0 0 19.004661 46.131072z m32.549399-59.703829v-0.276371a19.730614 19.730614 0 0 1 27.142967 0v0.276371a19.766274 19.766274 0 0 1 5.407706 13.572757 18.822537 18.822537 0 0 1-5.407706 13.574031 19.040322 19.040322 0 0 1-27.142967 0c-3.805517-3.004423-5.407706-8.138305-5.407706-13.574031s1.602189-10.042337 5.407706-13.572757z m-32.550672 233.081565a67.136559 67.136559 0 0 0 46.122156 18.976643c17.902997 0 33.903236-7.58811 46.096684-18.976643a66.208104 66.208104 0 0 0 19.004661-46.104325c0-18.206114-7.060839-34.734897-19.004661-46.129798a65.428661 65.428661 0 0 0-92.21884 0c-11.943822 11.394901-19.004662 27.923683-19.004662 46.129798a66.208104 66.208104 0 0 0 19.004662 46.104325z m32.550672-59.703828c3.255322-3.782592 8.138305-5.410253 13.571484-5.410253s10.290689 1.627661 13.571483 5.410253a18.418806 18.418806 0 0 1 5.407706 13.598229 19.753538 19.753538 0 0 1-5.407706 13.548559 19.726793 19.726793 0 0 1-27.142967 0c-3.805517-3.53042-5.407706-8.139579-5.407706-13.548559 0-5.70955 1.602189-10.593806 5.407706-13.598229z m320.400866-113.673908a64.965071 64.965071 0 0 0 110.949678-46.131072 64.409781 64.409781 0 0 0-18.976642-46.129798 65.186677 65.186677 0 0 0-91.967942 0 64.316808 64.316808 0 0 0-18.976642 46.129798 65.264367 65.264367 0 0 0 18.976642 46.131072z m32.275575-59.703829v-0.276371a19.72934 19.72934 0 0 1 27.141693 0v0.276371a17.788373 17.788373 0 0 1 5.684078 13.572757c0 5.435725-1.877287 10.570881-5.684078 13.574031a19.039049 19.039049 0 0 1-27.141693 0 19.027586 19.027586 0 0 1-5.709549-13.574031 20.019721 20.019721 0 0 1 5.709549-13.572757z m-32.275575 233.081565a64.965071 64.965071 0 0 0 110.948404-46.104325c0-18.206114-7.060839-34.734897-18.976642-46.129798a65.124271 65.124271 0 0 0-91.967941 0c-11.943822 11.394901-18.976642 27.923683-18.976643 46.129798a66.183906 66.183906 0 0 0 18.976643 46.104325z m32.275575-59.703828c3.255322-3.782592 8.137031-5.410253 13.571484-5.410253s10.316161 1.627661 13.570209 5.410253c3.806791 3.004423 5.684078 7.888679 5.684078 13.598229a17.774364 17.774364 0 0 1-5.684078 13.548559 19.725519 19.725519 0 0 1-27.141693 0 20.009532 20.009532 0 0 1-5.709549-13.548559 18.602204 18.602204 0 0 1 5.709549-13.598229z m-208.870426-113.673908a65.157384 65.157384 0 0 0 91.943743 0c11.668725-12.226562 19.279759-28.224253 19.279759-46.131072a65.717768 65.717768 0 0 0-19.286127-46.129798 64.779125 64.779125 0 0 0-45.849606-18.98301 66.321455 66.321455 0 0 0-46.096684 18.98301 65.480879 65.480879 0 0 0-19.004662 46.129798 66.481928 66.481928 0 0 0 19.004662 46.131072z m32.550673-59.703829v-0.276371a19.698774 19.698774 0 0 1 27.117495 0v0.276371c3.806791 3.53042 5.40898 8.138305 5.40898 13.572757s-1.602189 10.570881-5.40898 13.574031a19.01103 19.01103 0 0 1-27.117495 0 17.957762 17.957762 0 0 1-5.694266-13.574031 18.822537 18.822537 0 0 1 5.684077-13.572757z" lee="#3B3F51" p-id="8893"></path></svg>
