<?xml version="1.0" standalone="no"?><!DOCTYPE svg PUBLIC "-//W3C//DTD SVG 1.1//EN" "http://www.w3.org/Graphics/SVG/1.1/DTD/svg11.dtd"><svg t="1725609687367" class="icon" viewBox="0 0 1024 1024" version="1.1" xmlns="http://www.w3.org/2000/svg" p-id="7197" xmlns:xlink="http://www.w3.org/1999/xlink" width="200" height="200"><path d="M512 904c-216 0-392-176-392-392s176-392 392-392 392 176 392 392-176 392-392 392z m0-736c-189.6 0-344 154.4-344 344s154.4 344 344 344 344-154.4 344-344-154.4-344-344-344z" lee="#999999" p-id="7198"></path><path d="M585.6 658.4H438.4c-40 0-72.8-32.8-72.8-72.8V438.4c0-40 32.8-72.8 72.8-72.8h147.2c40 0 72.8 32.8 72.8 72.8v147.2c0 40-32.8 72.8-72.8 72.8zM438.4 413.6c-13.6 0-24.8 11.2-24.8 24.8v147.2c0 13.6 11.2 24.8 24.8 24.8h147.2c13.6 0 24.8-11.2 24.8-24.8V438.4c0-13.6-11.2-24.8-24.8-24.8H438.4z" lee="#999999" p-id="7199"></path></svg>
