<?xml version="1.0" standalone="no"?><!DOCTYPE svg PUBLIC "-//W3C//DTD SVG 1.1//EN" "http://www.w3.org/Graphics/SVG/1.1/DTD/svg11.dtd"><svg t="1724900326821" class="icon" viewBox="0 0 1024 1024" version="1.1" xmlns="http://www.w3.org/2000/svg" p-id="5232" xmlns:xlink="http://www.w3.org/1999/xlink" width="200" height="200"><path d="M176.162932 305.637957a303.894181 303.894181 0 1 0 607.787365 0 303.894181 303.894181 0 1 0-607.787365 0z" fill="#0078E2" p-id="5233"></path><path d="M473.667937 929.320394c0-143.015721 106.843999-261.012825 245.067838-278.709845-64.67843-27.776944-144.331492-41.065432-238.678661-41.065432-289.889906 0-442.028172 124.501086-442.028173 414.403969h452.007267a280.511793 280.511793 0 0 1-16.368271-94.628692z" fill="#0078E2" p-id="5234"></path><path d="M767.545088 712.108367c-119.966768 0-217.213025 97.247256-217.213025 217.212027 0 33.987423 8.023408 66.020157 21.950813 94.679606H962.806302a215.961146 215.961146 0 0 0 21.951812-94.691586c0-119.966768-97.248254-217.213025-217.213026-217.213025z m-20.380474 237.757222l-35.25228 41.334976a2.875129 2.875129 0 0 1-5.059429-1.725078l-3.10474-62.019934a2.875129 2.875129 0 0 1 4.241814-2.683454l38.345041 20.698935a2.875129 2.875129 0 0 1 0.829594 4.395553z m78.414161 16.432163a6.478026 6.478026 0 0 1-9.353155 4.305706l-81.876296-43.403472L869.763922 768.762391 711.325328 913.655931l-69.240701-36.441266a4.34464 4.34464 0 0 1 0.269544-7.806775l227.408753-100.633519-44.184149 197.536359z" fill="#0078E2" p-id="5235"></path></svg>