<?xml version="1.0" standalone="no"?><!DOCTYPE svg PUBLIC "-//W3C//DTD SVG 1.1//EN"
        "http://www.w3.org/Graphics/SVG/1.1/DTD/svg11.dtd">
<svg t="1728980066813" class="icon" viewBox="0 0 1024 1024" version="1.1" xmlns="http://www.w3.org/2000/svg"
     p-id="12580" width="200" height="200">
    <path d="M409.269 134H220.8c-47.938 0-86.8 38.862-86.8 86.8v188.469c0 47.938 38.862 86.8 86.8 86.8h188.469c47.938 0 86.8-38.862 86.8-86.8V220.8c0-47.938-38.862-86.8-86.8-86.8z m2.8 275.269a2.8 2.8 0 0 1-2.8 2.8H220.8a2.8 2.8 0 0 1-2.8-2.8V220.8a2.8 2.8 0 0 1 2.8-2.8h188.469a2.8 2.8 0 0 1 2.8 2.8v188.469z m-2.8 118.662H220.8c-47.938 0-86.8 38.862-86.8 86.8V803.2c0 47.938 38.862 86.8 86.8 86.8h188.469c47.938 0 86.8-38.862 86.8-86.8V614.731c0-47.938-38.862-86.8-86.8-86.8z m2.8 275.269a2.8 2.8 0 0 1-2.8 2.8H220.8a2.8 2.8 0 0 1-2.8-2.8V614.731a2.8 2.8 0 0 1 2.8-2.8h188.469a2.8 2.8 0 0 1 2.8 2.8V803.2zM803.2 527.931H614.731c-47.938 0-86.8 38.862-86.8 86.8V803.2c0 47.938 38.862 86.8 86.8 86.8H803.2c47.938 0 86.8-38.862 86.8-86.8V614.731c0-47.938-38.862-86.8-86.8-86.8zM806 803.2a2.8 2.8 0 0 1-2.8 2.8H614.731a2.8 2.8 0 0 1-2.8-2.8V614.731a2.8 2.8 0 0 1 2.8-2.8H803.2a2.8 2.8 0 0 1 2.8 2.8V803.2zM803.2 134H614.731c-47.938 0-86.8 38.862-86.8 86.8v188.469c0 47.938 38.862 86.8 86.8 86.8H803.2c47.938 0 86.8-38.862 86.8-86.8V220.8c0-47.938-38.862-86.8-86.8-86.8z m2.8 275.269a2.8 2.8 0 0 1-2.8 2.8H614.731a2.8 2.8 0 0 1-2.8-2.8V220.8a2.8 2.8 0 0 1 2.8-2.8H803.2a2.8 2.8 0 0 1 2.8 2.8v188.469z"
          p-id="12581"></path>
</svg>
