<?xml version="1.0" standalone="no"?><!DOCTYPE svg PUBLIC "-//W3C//DTD SVG 1.1//EN"
        "http://www.w3.org/Graphics/SVG/1.1/DTD/svg11.dtd">
<svg t="1692168670644" class="icon" viewBox="0 0 1024 1024" version="1.1" xmlns="http://www.w3.org/2000/svg"
     p-id="11628"
     width="200" height="200">
    <path d="M544.548571 146.285714a18.285714 18.285714 0 0 0-18.285714-18.285714h-28.525714a18.285714 18.285714 0 0 0-18.285714 18.285714v81.92c-29.622857 4.973714-56.978286 16.603429-80.457143 33.353143l-57.929143-57.929143a18.285714 18.285714 0 0 0-25.892572 0l-20.114285 20.114286a18.285714 18.285714 0 0 0 0 25.892571l57.929143 57.929143a193.974857 193.974857 0 0 0-33.353143 80.457143H237.714286a18.285714 18.285714 0 0 0-18.285715 18.285714v28.525715c0 10.093714 8.192 18.285714 18.285715 18.285714h81.92c4.973714 29.622857 16.603429 56.978286 33.353143 80.457143l-57.929143 57.929143a18.285714 18.285714 0 0 0 0 25.892571l20.114285 20.114286a18.285714 18.285714 0 0 0 25.892572 0l57.929143-57.929143c23.478857 16.676571 50.834286 28.379429 80.457143 33.353143V694.857143c0 10.093714 8.192 18.285714 18.285714 18.285714h28.525714a18.285714 18.285714 0 0 0 18.285714-18.285714V612.937143c29.622857-4.973714 56.978286-16.676571 80.457143-33.353143l57.929143 57.929143a18.285714 18.285714 0 0 0 25.892572 0l20.114285-20.114286a18.285714 18.285714 0 0 0 0-25.892571l-57.929143-57.929143c16.676571-23.478857 28.379429-50.834286 33.353143-80.457143h81.92a18.285714 18.285714 0 0 0 18.285715-18.285714v-28.525715a18.285714 18.285714 0 0 0-18.285715-18.285714H704.365714a193.974857 193.974857 0 0 0-33.353143-80.457143l57.929143-57.929143a18.285714 18.285714 0 0 0 0-25.892571l-20.114285-20.114286a18.285714 18.285714 0 0 0-25.892572 0l-57.929143 57.929143a193.974857 193.974857 0 0 0-80.457143-33.353143V146.285714z m89.380572 274.285715a121.929143 121.929143 0 1 1-243.858286 0 121.929143 121.929143 0 0 1 243.858286 0z"
          p-id="11629"></path>
    <path d="M146.285714 0a146.285714 146.285714 0 0 0-146.285714 146.285714v548.571429a146.285714 146.285714 0 0 0 146.285714 146.285714h731.428572a146.285714 146.285714 0 0 0 146.285714-146.285714V146.285714a146.285714 146.285714 0 0 0-146.285714-146.285714H146.285714z m731.428572 73.142857a73.142857 73.142857 0 0 1 73.142857 73.142857v548.571429a73.142857 73.142857 0 0 1-73.142857 73.142857H146.285714a73.142857 73.142857 0 0 1-73.142857-73.142857V146.285714a73.142857 73.142857 0 0 1 73.142857-73.142857h731.428572zM804.571429 1005.714286a18.285714 18.285714 0 0 1-18.285715 18.285714h-548.571428a18.285714 18.285714 0 0 1-18.285715-18.285714v-36.571429a18.285714 18.285714 0 0 1 18.285715-18.285714h548.571428a18.285714 18.285714 0 0 1 18.285715 18.285714v36.571429z"
          p-id="11630"></path>
</svg>