<?xml version="1.0" standalone="no"?><!DOCTYPE svg PUBLIC "-//W3C//DTD SVG 1.1//EN"
        "http://www.w3.org/Graphics/SVG/1.1/DTD/svg11.dtd">
<svg t="1733390420884" class="icon" viewBox="0 0 1024 1024" version="1.1" xmlns="http://www.w3.org/2000/svg"
     p-id="13019" width="200" height="200">
    <path d="M411.306667 325.973333c9.813333-21.333333 15.36-44.8 15.36-69.973333 0-94.293333-76.373333-170.666667-170.666667-170.666667S85.333333 161.706667 85.333333 256s76.373333 170.666667 170.666667 170.666667c25.173333 0 48.64-5.546667 69.973333-15.36L426.666667 512l-100.693334 100.693333C304.64 602.88 281.173333 597.333333 256 597.333333c-94.293333 0-170.666667 76.373333-170.666667 170.666667s76.373333 170.666667 170.666667 170.666667 170.666667-76.373333 170.666667-170.666667c0-19.456-9.685333-61.866667-32.554667-94.08l97.877333-96.597333L810.666667 896h128L394.112 351.317333l17.194667-25.344zM256 341.333333a85.333333 85.333333 0 1 1-0.042667-170.624A85.333333 85.333333 0 0 1 256 341.333333z m0 512a85.333333 85.333333 0 1 1-0.042667-170.624A85.333333 85.333333 0 0 1 256 853.333333zM810.666667 128l-279.466667 278.912L597.333333 470.144 938.666667 128h-128z"
          lee="#525A65" p-id="13020"></path>
</svg>
