<?xml version="1.0" standalone="no"?><!DOCTYPE svg PUBLIC "-//W3C//DTD SVG 1.1//EN"
        "http://www.w3.org/Graphics/SVG/1.1/DTD/svg11.dtd">
<svg t="1692168621054" class="icon" viewBox="0 0 1024 1024" version="1.1" xmlns="http://www.w3.org/2000/svg"
     p-id="10486"
     width="200" height="200">
    <path d="M976 800v-64h-67.2c-3.2-28.8-16-57.6-32-80l48-48-44.8-44.8-48 48c-22.4-16-51.2-28.8-80-32V512h-64v67.2c-28.8 6.4-54.4 16-80 32L560 563.2 515.2 608l48 48c-16 22.4-28.8 51.2-32 80H464v64h67.2c6.4 28.8 16 54.4 32 80L515.2 928l44.8 44.8 48-48c22.4 16 51.2 28.8 80 32V1024h64v-67.2c28.8-6.4 54.4-16 80-32l48 48 44.8-44.8-48-48c16-22.4 28.8-51.2 32-76.8H976z m-256 96c-70.4 0-128-57.6-128-128s57.6-128 128-128 128 57.6 128 128-57.6 128-128 128zM208 128h64v64H208zM208 384h64v64H208zM208 640h64v64H208z"
          p-id="10487"></path>
    <path d="M400 832v-64H124.8l-12.8-12.8v-166.4l12.8-12.8H400v-64H124.8l-12.8-12.8v-166.4l12.8-12.8h678.4l12.8 12.8V448h64V307.2l-19.2-19.2 19.2-19.2V51.2L828.8 0H99.2L48 51.2v217.6l19.2 19.2-19.2 19.2v217.6l19.2 19.2-19.2 19.2v217.6L99.2 832H400zM112 76.8l12.8-12.8h678.4l12.8 12.8v166.4l-12.8 12.8H124.8L112 243.2V76.8z"
          p-id="10488"></path>
</svg>