<?xml version="1.0" standalone="no"?><!DOCTYPE svg PUBLIC "-//W3C//DTD SVG 1.1//EN"
        "http://www.w3.org/Graphics/SVG/1.1/DTD/svg11.dtd">
<svg t="1692168585105" class="icon" viewBox="0 0 1024 1024" version="1.1" xmlns="http://www.w3.org/2000/svg" p-id="9601"
     width="200" height="200">
    <path d="M604.1 675H429.7v45l36.7 35.9v9H227.9v-9l36.7-35.9v-45H90.4c-15.2 0-27.5-12.1-27.5-27V288c0-14.9 12.3-27 27.5-27h513.7c15.2 0 27.5 12.1 27.5 27v360c0 15-12.3 27-27.5 27m-9.2-378H99.5v306h495.3V297h0.1m0 0"
          p-id="9602"></path>
    <path d="M135.1 330.4h424.3v243.7H135.1V330.4m0 0M554.7 631.6h23.2v134.1h-23.2z" p-id="9603"></path>
    <path d="M503.2 715.6h250.7v17.9H503.2z" lee="#7C7C7C" p-id="9604"></path>
    <path d="M543.8 712.4h47v25.3h-47z" lee="#7C7C7C" p-id="9605"></path>
    <path d="M905.9 558.9m-10.9 0a10.9 10.9 0 1 0 21.8 0 10.9 10.9 0 1 0-21.8 0Z" lee="#7C7C7C" p-id="9606"></path>
    <path d="M905.9 615.5m-10.9 0a10.9 10.9 0 1 0 21.8 0 10.9 10.9 0 1 0-21.8 0Z" lee="#7C7C7C" p-id="9607"></path>
    <path d="M905.9 672m-10.9 0a10.9 10.9 0 1 0 21.8 0 10.9 10.9 0 1 0-21.8 0Z" lee="#7C7C7C" p-id="9608"></path>
    <path d="M905.9 505m-10.9 0a10.9 10.9 0 1 0 21.8 0 10.9 10.9 0 1 0-21.8 0Z" lee="#7C7C7C" p-id="9609"></path>
    <path d="M929 403.4H749c-17 0-30.9 13.9-30.9 30.9v300.6c0 17 13.9 30.9 30.9 30.9h180c17 0 30.9-13.9 30.9-30.9V434.2c-0.1-16.9-14-30.8-30.9-30.8z m4.6 273.1c0 8.2-6.6 14.8-14.8 14.8H758.1c-8.2 0-14.8-6.6-14.8-14.8v-12.9c0-8.2 6.6-14.8 14.8-14.8h160.7c8.2 0 14.8 6.6 14.8 14.8v12.9z m0-56.5c0 8.2-6.6 14.8-14.8 14.8H758.1c-8.2 0-14.8-6.6-14.8-14.8v-12.9c0-8.2 6.6-14.8 14.8-14.8h160.7c8.2 0 14.8 6.6 14.8 14.8V620z m0-56.5c0 8.2-6.6 14.8-14.8 14.8H758.1c-8.2 0-14.8-6.6-14.8-14.8v-12.9c0-8.2 6.6-14.8 14.8-14.8h160.7c8.2 0 14.8 6.6 14.8 14.8v12.9z m0-54c0 8.2-6.6 14.8-14.8 14.8H758.1c-8.2 0-14.8-6.6-14.8-14.8v-12.9c0-8.2 6.6-14.8 14.8-14.8h160.7c8.2 0 14.8 6.6 14.8 14.8v12.9z"
          lee="#7C7C7C" p-id="9610"></path>
</svg>