<?xml version="1.0" standalone="no"?><!DOCTYPE svg PUBLIC "-//W3C//DTD SVG 1.1//EN"
        "http://www.w3.org/Graphics/SVG/1.1/DTD/svg11.dtd">
<svg t="1692168727987" class="icon" viewBox="0 0 1206 1024" version="1.1" xmlns="http://www.w3.org/2000/svg"
     p-id="12361"
     width="235.546875" height="200">
    <path d="M1018.214834 656.945323a125.932038 125.932038 0 0 0-40.256893-26.977501c-15.364444-6.571333-31.865412-9.912544-49.434542-9.912545-17.13332 0-33.617197 3.349756-48.947459 9.912545a127.350557 127.350557 0 0 0-39.86381 27.011683 126.803658 126.803658 0 0 0-26.866413 39.923626c-6.588424 15.2619-9.946725 31.805594-9.929634 49.169638a123.445357 123.445357 0 0 0 9.929634 49.144001 130.931037 130.931037 0 0 0 26.721143 40.034715 125.333867 125.333867 0 0 0 40.017625 27.302224 123.96662 123.96662 0 0 0 49.152547 9.972361h0.076908c17.184592 0 33.728286-3.358302 49.161092-9.903999a124.590427 124.590427 0 0 0 40.367982-27.327859 129.615061 129.615061 0 0 0 26.79805-40.085987c6.588424-15.313172 9.903999-31.856866 9.869818-49.126911 0.034181-17.338407-3.289939-33.865011-9.878363-49.169638a126.162761 126.162761 0 0 0-26.917685-39.966353z m-19.671273 118.369451a79.223446 79.223446 0 0 1-16.287336 24.388277 73.378463 73.378463 0 0 1-24.05501 16.253154 74.532078 74.532078 0 0 1-29.430002 5.870619c-10.476534-0.017091-20.00454-1.922692-29.156552-5.844983a74.232993 74.232993 0 0 1-23.884105-16.261699 79.189265 79.189265 0 0 1-16.27879-24.396823 73.378463 73.378463 0 0 1-5.870619-29.242005c0.025636-10.570532 1.939782-20.115629 5.853528-29.182189 4.024835-9.348555 9.314373-17.227318 16.176247-24.106282s14.715001-12.185593 24.012284-16.227518c9.109286-3.905201 18.645838-5.810802 29.156552-5.827893a73.788637 73.788637 0 0 1 29.395821 5.896255 74.711529 74.711529 0 0 1 24.234462 16.184792 75.45497 75.45497 0 0 1 16.150611 24.029375c3.896655 9.134922 5.810802 18.705655 5.836437 29.242005-0.059817 10.536351-1.982509 20.098538-5.853528 29.224915z m205.813472 34.873356l-0.299085-1.068162a48.400561 48.400561 0 0 0-16.483878-24.789906 74.668803 74.668803 0 0 0-9.613458-6.417518l-1.897056-0.991254-1.461246-0.555444c-6.562788-2.4525-11.125976-5.879164-15.219174-11.442153-3.777021-5.332265-5.400628-10.852527-5.477535-18.312571 0.111089-7.716403 1.965418-13.09994 6.648241-19.073102 5.434809-6.690967 11.049069-10.843982 18.594566-13.561386 7.06696-2.708859 12.997396-7.229321 18.833834-14.441552 5.374992-6.861873 8.280393-15.84298 8.21203-25.328259 0-2.255958-0.128179-4.366647-0.43581-7.007143a156.36184 156.36184 0 0 0-9.92109-36.924228c-5.622805-13.8092-11.980506-23.798651-19.927632-31.361239a40.547433 40.547433 0 0 0-24.92663-11.467788 41.342146 41.342146 0 0 0-4.520462-0.179451c-6.810602 0-13.740837 1.803058-19.090193 4.870819-5.938981 2.640497-11.920689 3.836838-18.799653 3.853929-1.281795 0-2.649042-0.034181-3.956472-0.136725-7.348955-0.675078-11.929234-2.72595-16.859871-7.468589-5.19554-5.366446-7.92149-10.553441-9.058015-17.321317a40.598705 40.598705 0 0 1-0.461446-5.785166 33.771013 33.771013 0 0 1 3.025036-13.945924c1.965418-4.341011 2.683223-7.554042 3.443754-10.93798l0.264904-1.213432c0.555444-2.572134 0.845984-5.19554 0.845985-7.818947a36.693504 36.693504 0 0 0-5.477536-19.15001 75.942052 75.942052 0 0 0-16.885506-18.953468 90.469057 90.469057 0 0 0-21.611055-13.185393 121.984111 121.984111 0 0 0-21.568329-7.306228 91.819214 91.819214 0 0 0-22.388678-2.854129c-9.399826 0-19.175646 4.375192-26.157153 11.655784-5.03318 5.101542-8.622204 9.93818-11.271247 15.287536l-0.59817 1.315976-0.316176 0.880165c-2.495227 6.639696-6.19534 11.382335-12.262501 15.868616-6.024434 4.272648-11.732692 6.041525-19.637092 6.118433-7.246412-0.111089-11.835236-1.657788-16.928233-5.725349-5.981708-4.964817-9.946725-10.074905-12.399226-15.817344a51.442686 51.442686 0 0 0-10.015087-16.84278c-6.554243-7.77622-17.663128-12.800855-28.327659-12.800855l-0.794713 0.025636c-5.494626 0.025636-11.305428 0.72635-19.466186 2.392683-7.844582 1.683423-15.569531 4.024835-22.89285 6.930236-7.92149 3.03358-15.620802 7.041325-22.841578 11.946325-9.092196 6.092797-16.013886 14.082649-19.919087 22.978303a33.70265 33.70265 0 0 0-3.289939 14.868816c0 2.443955 0.230723 4.947727 0.72635 7.425863 0.521263 2.854129 1.196342 5.716804 1.948328 8.06676 0.239268 1.828694 0.598171 4.648641 0.991254 8.314574 0.179451 1.674878 0.281995 3.486481 0.281995 5.46899a67.892383 67.892383 0 0 1-3.144669 20.611256c-0.863075 2.614861-1.905601 4.4521-3.375392 5.973162-5.622805 5.263903-10.95507 7.938581-17.825489 8.912745a44.469724 44.469724 0 0 1-6.263703 0.461446c-5.434809 0-10.37399-0.974164-16.030976-3.221577l-0.640898-0.247814-0.16236-0.034181a70.097069 70.097069 0 0 0-13.475933-3.213032 30.489619 30.489619 0 0 0-4.443555-0.29054c-8.48548 0-15.355898 3.17885-19.628546 5.836438-6.434608 3.973563-12.023233 9.476734-17.329862 17.124775a120.616864 120.616864 0 0 0-10.185994 18.680018 133.998798 133.998798 0 0 0-6.955871 20.645437c-1.905601 7.784765-2.837039 14.800454-2.845584 21.491422a51.357233 51.357233 0 0 0 5.981708 23.790106c4.691368 9.186194 12.091595 15.98825 20.696708 19.073102 7.451499 3.093397 14.074104 7.836037 20.226718 14.475733 4.930636 5.528807 6.63115 9.861272 6.784965 17.022231-0.128179 6.955872-2.076507 11.8096-7.143868 17.825489-6.272248 7.160959-12.629949 11.920689-19.799452 14.885907a38.607651 38.607651 0 0 0-18.304026 13.886107c-4.067561 5.665532-6.622605 12.484679-7.665131 20.115629a50.998331 50.998331 0 0 0-0.623807 8.297483c0.017091 5.19554 0.623807 10.51926 1.965418 16.765872 1.734695 8.177849 4.30683 16.2617 7.648041 24.012284 3.520662 8.041124 7.186595 14.945724 11.202884 21.098338 6.306429 9.519461 13.322118 15.543895 21.961413 18.979104a48.07584 48.07584 0 0 0 18.321116 3.74284 46.059149 46.059149 0 0 0 12.595767-1.751786l0.589626-0.187997 0.14527-0.068362a66.721677 66.721677 0 0 1 17.415315-3.255758c0.828894-0.042726 1.606516-0.085453 2.358502-0.085453 3.554843 0 7.477135 0.495627 11.476333 1.418519 2.965218 0.72635 4.400828 1.555244 6.332065 3.537753 4.862274 5.400628 7.058415 9.878363 7.596769 15.424261 0.119634 1.358702 0.179451 2.657587 0.179451 3.879564-0.042726 4.879364-0.837439 8.844382-2.572134 12.510315-3.392483 7.425863-6.229521 14.373189-6.400428 24.020829a40.795247 40.795247 0 0 0 7.425863 23.320115c4.221377 5.973162 9.604914 11.22852 16.98805 16.500968a112.797917 112.797917 0 0 0 21.542693 11.997596c7.246412 3.136124 14.621003 5.776621 21.893051 7.827492 8.203485 2.426864 16.150611 3.674478 23.593564 3.700114h0.213632c8.365846 0 16.500968-2.110688 23.388478-6.03298 8.169304-4.460645 14.920088-12.185593 18.534748-21.226517l0.341812-0.837439 0.017091-0.051272c2.529408-6.913145 6.870419-12.698311 13.578476-18.27839 6.058615-4.811002 11.219975-6.784966 18.261299-6.870418 7.442953 0.102544 12.322318 1.897056 17.979305 6.571333 6.588424 5.61426 24.268643 34.753722 24.268643 34.753722 0.751986 0.751986 1.563789 1.495427 2.512317 2.349957a37.8813 37.8813 0 0 0 24.824087 9.613458c6.673877-0.025636 13.604112-0.888711 21.773416-2.819948a121.51412 121.51412 0 0 0 22.149409-7.519861 136.34021 136.34021 0 0 0 18.628747-10.24581c5.221176-3.512117 11.219975-7.853128 16.355698-14.646639l0.410174-0.538354 0.017091-0.034181 0.427265-0.623807 0.051271-0.059817c3.563389-5.46899 7.801856-14.304827 7.750585-25.225716a45.375526 45.375526 0 0 0-4.469191-19.363642 36.377328 36.377328 0 0 1-3.272848-15.193538c0-1.674878 0.102544-3.349756 0.316176-5.067361 0.888711-6.750784 3.4523-11.79251 9.263101-17.979304a8.34021 8.34021 0 0 1 3.930837-2.529408 55.467521 55.467521 0 0 1 11.860872-2.495227 42.683757 42.683757 0 0 1 10.37399 0.307631c3.982108 0.683624 7.605314 1.469791 9.972361 2.119234 6.391882 2.298685 12.407771 3.401028 18.346752 3.401028 7.331865-0.042726 14.159557-1.854329 22.192136-5.88771 7.878764-4.016289 14.783363-10.168903 20.577075-18.329661a105.534415 105.534415 0 0 0 11.929234-22.038321c3.127579-7.938581 5.392082-15.800254 6.690967-23.34575a80.462514 80.462514 0 0 0 1.409974-14.364644c0-3.238667-0.256359-6.417518-0.743441-9.493825l-0.324721-1.589425z m-93.383003-19.679818a75.514787 75.514787 0 0 0 33.514654 26.0717l1.606516 1.042526a34.471727 34.471727 0 0 1-0.640897 5.61426 66.926764 66.926764 0 0 1-3.828293 13.253755 54.860805 54.860805 0 0 1-6.161159 11.476334c-1.854329 2.614861-3.119033 3.272849-3.170305 3.30703a22.303225 22.303225 0 0 1-1.204887 0.538354 10.143267 10.143267 0 0 1-1.632152-0.521264l-0.649442-0.247813-0.743441-0.230723-0.153816-0.042727a140.399226 140.399226 0 0 0-15.612257-3.460845 82.530476 82.530476 0 0 0-21.559783-0.734895 97.160024 97.160024 0 0 0-20.765071 4.34101 52.6903 52.6903 0 0 0-23.320115 14.945724c-11.476334 11.929234-18.483477 26.498965-20.303625 42.04286a80.325789 80.325789 0 0 0-0.657988 10.399627c0 11.074705 2.230322 21.901596 6.682422 32.12177-0.666533 0.538354-1.572335 1.196342-2.72595 1.939782-3.46939 2.281594-7.348955 4.392283-11.553241 6.306429a71.071233 71.071233 0 0 1-17.654583 5.272448l-5.964617-10.886708a88.358368 88.358368 0 0 0-18.868015-22.175045 70.216703 70.216703 0 0 0-45.905335-17.022231h-0.991254c-16.389879 0-32.574671 5.930436-45.520796 16.748782-11.544696 9.408372-20.354897 21.02143-25.576073 33.762467a36.402964 36.402964 0 0 1-8.77602-1.640697 123.394085 123.394085 0 0 1-15.492623-5.528807 64.200814 64.200814 0 0 1-12.014687-6.639695 35.386074 35.386074 0 0 1-3.341211-2.666133c0.239268-0.521263 0.495627-1.127979 0.794713-1.768876 4.477735-9.305828 6.810602-20.115629 6.77642-31.25015 0-2.443955-0.085453-4.905-0.307631-7.400227-1.136524-14.894452-7.912945-29.677816-19.030376-41.555779a55.86915 55.86915 0 0 0-29.130916-16.817144c-7.118232-1.623606-14.185193-2.461045-21.02143-2.461045-1.649242 0-3.255758 0.042726-4.717004 0.14527a104.244075 104.244075 0 0 0-26.413512 4.725549 8.118032 8.118032 0 0 1-0.692169-0.974164c-2.392683-3.665932-4.751185-8.092396-6.947327-13.125576a80.624875 80.624875 0 0 1-4.546097-14.339007 33.26684 33.26684 0 0 1-0.845985-5.921891c12.236865-5.537352 23.285934-13.963015 32.848121-25.003538 11.724147-13.185393 18.098939-29.771814 17.970759-46.580413a68.131651 68.131651 0 0 0-18.346752-46.879498c-9.545096-10.3569-20.491622-18.380933-32.608853-23.807197 0-1.486882 0.179451-4.734094 1.384338-9.562187 1.025436-4.127378 2.43541-8.323119 4.212832-12.433407a66.055144 66.055144 0 0 1 6.178249-11.117431 83.50464 83.50464 0 0 0 30.019628 5.520262c3.982108 0 8.058215-0.273449 12.117231-0.837439 15.740437-2.093598 30.361439-9.288738 42.598304-21.158155a59.287269 59.287269 0 0 0 14.544095-24.405367c2.478136-8.135123 3.973563-15.569531 4.571734-22.739035 0.316176-3.614661 0.487082-7.058415 0.487082-10.245811 0-3.435209-0.179451-6.827692-0.555445-10.074905a197.567261 197.567261 0 0 0-1.444155-11.305427l-0.410174-2.247413-0.504173-1.503972c-0.017091-0.051272-0.042726-0.136725-0.068362-0.179452a12.817945 12.817945 0 0 1 1.281795-0.957073 62.107217 62.107217 0 0 1 12.792309-6.648241 92.468656 92.468656 0 0 1 14.638093-4.46919c1.820148-0.375993 3.349756-0.632352 4.571734-0.837439 5.212631 12.253956 13.501569 23.140664 24.661726 32.309767 12.22832 10.168903 27.960211 15.774618 44.333 15.774618h0.888711c16.441151 0 31.9765-4.964817 44.828626-14.381735a77.18112 77.18112 0 0 0 26.686962-33.771012 73.43828 73.43828 0 0 1 18.372388 5.451899c3.74284 1.649242 7.032779 3.640296 10.023633 6.075706 1.358702 1.119434 2.529408 2.221777 3.537753 3.349756a76.514587 76.514587 0 0 0-6.084251 30.019628c0 4.170105 0.307631 8.34021 0.948528 12.382135 2.358502 15.629348 9.698912 29.993992 21.235062 41.444689a69.174177 69.174177 0 0 0 44.811536 20.346351c2.409774 0.14527 4.691368 0.230723 7.118233 0.230724a87.931104 87.931104 0 0 0 34.898991-7.03278c1.469791 2.067962 3.640296 5.665532 5.870619 11.254156 2.939582 7.272048 4.956272 14.40737 6.144069 21.722144-12.595767 5.34081-23.952467 14.039923-32.907938 25.285534a72.976834 72.976834 0 0 0-16.330062 46.435142c-0.085453 16.218973 4.708459 31.429601 13.749382 43.931371zM474.127245 561.656719v-52.630482a29.635089 29.635089 0 0 0-29.600908-29.609454 29.635089 29.635089 0 0 0-29.600908 29.609454v52.630482a29.65218 29.65218 0 0 0 29.600908 29.600908 29.643634 29.643634 0 0 0 29.600908-29.600908z m-163.257895 8.391482l-2.418319-6.793511-0.74344-2.050871h-85.79478l1.110889 3.9052 3.691568 13.031578C265.698912 715.779692 392.784565 811.888644 535.781561 811.888644c14.450097 0 29.182188-1.033981 45.016623-3.187396l2.965218-0.410174-0.367448-3.025035a385.931237 385.931237 0 0 1-2.896855-46.093331c0-9.100741 0.444355-19.047466 1.341611-30.472528l0.316176-4.007744-3.9052 0.692169a239.097403 239.097403 0 0 1-42.470125 3.879565c-100.825956 0.017091-191.201015-63.978637-224.912211-159.215969z m-166.564924 352.450764a49.878897 49.878897 0 0 1-49.921623-49.913078V144.287336a49.998531 49.998531 0 0 1 49.921623-49.930169h776.844382c13.279391 0 25.934976 5.255358 35.326257 14.612457a49.947259 49.947259 0 0 1 14.612458 35.317712v232.534615c32.566126 0.162361 64.166633 4.289739 94.374257 11.946325v-244.48094A144.27879 144.27879 0 0 0 921.148808 0H144.304426C64.593898 0.017091 0.034181 64.585353 0 144.287336v728.307096c0 38.274384 15.202083 74.976434 42.273583 102.022298A144.287336 144.287336 0 0 0 144.295881 1016.890313h524.946124a390.725149 390.725149 0 0 1-58.184925-94.391348H144.304426zM534.833033 591.249082a29.626544 29.626544 0 0 0 29.592363-29.600908V421.266039a29.65218 29.65218 0 0 0-29.583818-29.609453 29.643634 29.643634 0 0 0-29.600908 29.609453v140.39068a29.600908 29.600908 0 0 0 29.592363 29.592363z m231.52627-168.453435l2.358502 6.61406 1.247613 3.435209 3.195941-1.803057a374.130182 374.130182 0 0 1 69.686895-30.207624l3.025035-0.948528-1.042526-2.9994C799.925229 267.715602 678.00948 180.929568 541.464183 180.929568a319.91882 319.91882 0 0 0-244.583483 113.413179l-2.802858 3.315575-2.802857 3.32412-3.59757-2.418319-3.563389-2.384138-43.427198-28.994192-15.902797-10.630349-4.811002-3.204486v242.558248l4.486281-2.238868 14.783363-7.408772L407.354296 402.227118l15.791708-7.870218 4.802457-2.367048-4.417918-2.956672-14.689365-9.784365-39.000735-26.011883-9.51946-6.349156 3.896655-4.17865 3.930837-4.17865c44.674811-47.605848 107.85019-74.925162 173.324253-74.925162 100.825956 0.008545 191.201015 63.978637 224.886575 159.190333zM595.52173 473.905067v87.751652c0 15.330262 12.023233 28.267842 27.421858 29.395821l3.161759 0.230723 1.478337-2.811402a381.991855 381.991855 0 0 1 26.259697-42.965752l0.880165-1.264704v-70.327793c0-16.321517-13.279391-29.600908-29.600908-29.600908s-29.600908 13.270846-29.600908 29.592363z"
          p-id="12362"></path>
</svg>