<?xml version="1.0" standalone="no"?><!DOCTYPE svg PUBLIC "-//W3C//DTD SVG 1.1//EN"
        "http://www.w3.org/Graphics/SVG/1.1/DTD/svg11.dtd">
<svg t="1692173330812" class="icon" viewBox="0 0 1024 1024" version="1.1" xmlns="http://www.w3.org/2000/svg"
     p-id="27682"
     width="200" height="200">
    <path d="M288 128C268.8 128 256 140.8 256 160s12.8 32 32 32 32-12.8 32-32S307.2 128 288 128z m128 0c-19.2 0-32 12.8-32 32s12.8 32 32 32 32-12.8 32-32S435.2 128 416 128zM960 256H64V128c0-35.2256 28.8256-64 64-64h768c35.2256 0 64 28.8256 64 64V256z m0 640c0 35.2256-28.8256 64-64 64h-768c-35.2256 0-64-28.8256-64-64V320h896V896zM896 0h-768A128.3584 128.3584 0 0 0 0 128v768C0 966.4 57.6 1024 128 1024h768c70.4 0 128-57.6 128-128v-768C1024 57.6 966.4 0 896 0zM160 128c-19.2 0-32 12.8-32 32s12.8 32 32 32 32-12.8 32-32S179.2 128 160 128z m32 320c0-19.2 16.0256-32 32-32h576c16.0256 0 32 12.8 32 32a32.0512 32.0512 0 0 1-32 32H224c-19.2 0-32-12.8-32-32z m0 192c0-19.2 16.0256-32 32-32h576c16.0256 0 32 12.8 32 32a32.0512 32.0512 0 0 1-32 32H224c-19.2 0-32-12.8-32-32z m0 192c0-19.2 16.0256-32 32-32h320c19.2 0 32 12.8 32 32a32.0512 32.0512 0 0 1-32 32h-320c-19.2 0-32-12.8-32-32z"
          lee="#97999F" p-id="27683"></path>
</svg>