<?xml version="1.0" standalone="no"?><!DOCTYPE svg PUBLIC "-//W3C//DTD SVG 1.1//EN"
        "http://www.w3.org/Graphics/SVG/1.1/DTD/svg11.dtd">
<svg t="1692169448256" class="icon" viewBox="0 0 1024 1024" version="1.1" xmlns="http://www.w3.org/2000/svg" p-id="8845"
     width="200" height="200">
    <path d="M928 222v622.8a83.19 83.19 0 0 1-83.2 83.2H222A126 126 0 0 1 96 802V222A125.93 125.93 0 0 1 222 96h580a126 126 0 0 1 126 126z"
          p-id="8846"></path>
    <path d="M731.1 928H222A126 126 0 0 1 96 802V370q12.42-0.5 25-0.5 15.06 0 29.93 0.72C445.31 384.42 685.22 606.47 727 892.83q2.55 17.43 4.1 35.17z"
          lee="#FFFFFF" opacity=".2" p-id="8847"></path>
    <path d="M928 222v622.8a82.87 82.87 0 0 1-6.69 32.74A635.16 635.16 0 0 1 774.7 894.6q-24.06 0-47.69-1.77c-291-21.67-527.21-240-576.13-522.58a638.8 638.8 0 0 1 8.24-257.47A125.48 125.48 0 0 1 222 96h580a126 126 0 0 1 126 126z"
          lee="#FFFFFF" opacity=".14" p-id="8848"></path>
    <path d="M571.47 702.69H618l-0.52-0.68-50.14-66.78a31.22 31.22 0 0 1 20.16-49.58v-66.28a31.24 31.24 0 0 1 31.2-31.2h43.7V323.69A50.74 50.74 0 0 0 611.68 273H348.1a50.74 50.74 0 0 0-50.74 50.74v375.71a50.74 50.74 0 0 0 50.74 50.74h194.72a30.91 30.91 0 0 1-2.55-12.33v-4a31.24 31.24 0 0 1 31.2-31.17zM353.65 390.28a19 19 0 0 1 19-19h214.46a19 19 0 0 1 19 19v4a19 19 0 0 1-19 19H372.67a19 19 0 0 1-19-19z m154.19 186.29a19 19 0 0 1-19 19H372.67a19 19 0 0 1-19-19v-4a19 19 0 0 1 19-19h116.14a19 19 0 0 1 19 19zM372.67 497.3a19 19 0 0 1-19-19v-4a19 19 0 0 1 19-19h214.44a19 19 0 0 1 19 19v4a19 19 0 0 1-19 19z"
          lee="#FFFFFF" p-id="8849"></path>
    <path d="M605.52 519.37v70.72a13.2 13.2 0 0 1-13.2 13.2 13.21 13.21 0 0 0-10.56 21.13l50.14 66.78a13.2 13.2 0 0 0 21.11 0l50.15-66.78a13.21 13.21 0 0 0-10.56-21.13 13.2 13.2 0 0 1-13.2-13.2v-70.72a13.2 13.2 0 0 0-13.21-13.2h-47.46a13.2 13.2 0 0 0-13.21 13.2z"
          lee="#FFFFFF" p-id="8850"></path>
    <path d="M558.27 720.68m13.2 0l141.97 0q13.2 0 13.2 13.2l0 3.97q0 13.2-13.2 13.2l-141.97 0q-13.2 0-13.2-13.2l0-3.97q0-13.2 13.2-13.2Z"
          lee="#FFFFFF" p-id="8851"></path>
</svg>