<?xml version="1.0" standalone="no"?><!DOCTYPE svg PUBLIC "-//W3C//DTD SVG 1.1//EN" "http://www.w3.org/Graphics/SVG/1.1/DTD/svg11.dtd"><svg t="1725609645936" class="icon" viewBox="0 0 1024 1024" version="1.1" xmlns="http://www.w3.org/2000/svg" p-id="5987" xmlns:xlink="http://www.w3.org/1999/xlink" width="200" height="200"><path d="M220.16 865.166222V158.947556h338.147556v184.32c0 16.952889 13.767111 30.72 30.72 30.72h184.433777v148.48h61.44V312.433778h-0.796444c0.682667-9.102222-2.616889-18.090667-8.988445-24.576L643.413333 106.496c-6.712889-6.599111-16.042667-9.784889-25.372444-8.874667H220.16c-34.019556 0-61.553778 27.534222-61.553778 61.44v706.218667c0 33.905778 27.534222 61.44 61.553778 61.44h367.729778v-61.44H220.16z m399.587556-691.541333l139.036444 138.808889H619.747556v-138.808889z" lee="#333333" p-id="5988"></path><path d="M802.702222 903.850667L923.648 782.791111 882.915556 743.196444l-91.363556 91.477334V575.032889h-58.026667v259.640889l-91.363555-91.477334-40.846222 40.846223 121.059555 121.059555 40.732445 40.732445 39.594666-41.984zM408.007111 482.417778c-5.461333-3.185778-16.839111-7.395556-32.768-12.288-14.904889-4.778667-19.228444-6.712889-20.366222-7.281778-4.551111-2.389333-6.712889-5.461333-6.712889-9.443556 0-4.664889 1.820444-7.736889 5.802667-9.671111 3.527111-1.934222 8.760889-2.844444 16.042666-2.844444 8.305778 0 14.449778 1.479111 18.204445 4.323555 3.868444 2.844444 6.599111 7.736889 8.078222 14.336l0.568889 2.616889H423.253333l-0.341333-3.754666c-1.251556-14.336-6.712889-25.144889-16.042667-32.085334-8.533333-6.371556-20.593778-9.557333-35.84-9.557333-14.108444 0-25.372444 3.072-34.474666 9.443556-10.126222 6.712889-15.246222 16.270222-15.246223 28.330666 0 12.060444 5.233778 21.390222 15.815112 27.648 3.868444 2.161778 12.970667 5.575111 28.785777 10.581334 17.976889 5.461333 22.414222 7.395556 23.324445 7.850666 6.485333 3.185778 9.557333 7.281778 9.557333 12.401778 0 2.389333-0.682667 5.916444-6.144 9.216-4.664889 2.616889-11.377778 3.982222-19.569778 3.982222-9.102222 0-15.928889-1.592889-20.252444-4.664889-4.437333-3.299556-7.395556-9.216-8.647111-17.635555l-0.455111-2.958222h-26.396445l0.227556 3.640888c0.910222 16.497778 7.054222 28.899556 18.204444 36.750223 8.988444 6.257778 21.504 9.329778 37.205334 9.329777 16.156444 0 29.013333-3.413333 38.343111-10.126222 9.443556-6.940444 14.222222-16.725333 14.222222-28.785778 0.113778-12.515556-5.802667-22.414222-17.521778-29.354666zM515.185778 419.043556l-31.288889 93.184-31.402667-93.184h-29.127111l45.966222 129.137777H498.346667l45.966222-129.137777zM603.704889 500.167111h32.426667V519.964444c-3.413333 1.820444-6.940444 3.299556-10.695112 4.323556-4.778667 1.251556-10.012444 1.934222-15.587555 1.934222-13.767111 0-24.007111-3.754667-30.264889-11.150222-5.916444-7.054222-8.988444-17.521778-8.988444-31.061333 0-14.336 3.299556-24.917333 10.126222-32.540445 5.916444-7.054222 13.994667-10.467556 24.689778-10.467555 8.647111 0 15.587556 1.706667 20.48 5.233777 4.892444 3.527111 8.192 8.760889 9.671111 15.587556l0.568889 2.730667h26.965333l-0.682667-3.982223c-2.389333-14.336-8.305778-25.372444-17.749333-32.768-9.671111-7.509333-22.528-11.150222-39.253333-11.150222-19.228444 0-34.588444 6.712889-45.738667 20.024889-10.581333 12.288-15.928889 28.330667-15.928889 47.445333 0 19.000889 5.347556 34.816 15.928889 46.762667 11.377778 13.084444 27.534222 19.683556 48.014222 19.683556 11.264 0 21.276444-1.365333 30.72-4.323556 8.988444-2.958222 16.611556-6.940444 23.324445-12.174222l1.251555-1.024v-56.775111h-59.278222v23.893333z" lee="#333333" p-id="5989"></path></svg>
