<?xml version="1.0" standalone="no"?><!DOCTYPE svg PUBLIC "-//W3C//DTD SVG 1.1//EN" "http://www.w3.org/Graphics/SVG/1.1/DTD/svg11.dtd"><svg t="1734080899754" class="icon" viewBox="0 0 1024 1024" version="1.1" xmlns="http://www.w3.org/2000/svg" p-id="55928" xmlns:xlink="http://www.w3.org/1999/xlink" width="200" height="200"><path d="M513.024 919.232v-56a7.552 7.552 0 0 1 2.56-5.696c0.448-0.768 1.28-1.28 2.56-1.728a6.016 6.016 0 0 1 2.56-0.64h400c1.28 0 2.368 0.256 3.2 0.64a11.136 11.136 0 0 1 2.56 1.728 7.552 7.552 0 0 1 2.56 5.632v56.064a7.552 7.552 0 0 1-2.56 5.632 11.136 11.136 0 0 1-2.56 1.728 7.552 7.552 0 0 1-3.2 0.64h-400a6.016 6.016 0 0 1-2.56-0.64c-1.28-0.384-2.112-0.96-2.56-1.728a7.296 7.296 0 0 1-2.56-5.632z m-376.32-250.624l468.48-468.352c0.448-0.704 1.28-1.28 2.56-1.728a5.952 5.952 0 0 1 2.56-0.64c1.28 0 2.368 0.256 3.2 0.64a11.2 11.2 0 0 1 2.56 1.728l198.4 198.016a25.92 25.92 0 0 1 1.28 2.624 7.552 7.552 0 0 1 0 6.144 25.92 25.92 0 0 1-1.28 2.56l-468.48 468.288a17.024 17.024 0 0 1-8.32 4.48l-204.8 36.672a32.768 32.768 0 0 1-28.8-8.832 9.92 9.92 0 0 1-1.92-2.88 98.176 98.176 0 0 1-2.56-3.2 15.488 15.488 0 0 0-1.92-3.392 272 272 0 0 1-1.28-3.584 11.392 11.392 0 0 1-0.64-3.712 11.968 11.968 0 0 1-0.64-3.84v-3.84c0-1.28 0.256-2.56 0.64-3.84l36.48-204.8a13.888 13.888 0 0 1 4.48-8.512z m63.36 38.4l-23.68 130.88 131.2-23.488 410.24-410.624-107.52-107.456-410.24 410.688z m472.96 24.128v-56a7.488 7.488 0 0 1 2.56-5.696c0.448-0.768 1.28-1.28 2.56-1.728a5.888 5.888 0 0 1 2.56-0.64h240c1.28 0 2.368 0.256 3.2 0.64a10.88 10.88 0 0 1 2.56 1.728 7.488 7.488 0 0 1 2.56 5.632v56.064a7.552 7.552 0 0 1-2.56 5.632 11.136 11.136 0 0 1-2.56 1.728 7.552 7.552 0 0 1-3.2 0.64h-240a5.952 5.952 0 0 1-2.56-0.64c-1.28-0.384-2.112-0.96-2.56-1.728a7.232 7.232 0 0 1-2.56-5.632z m-5.76-592.576l39.68-39.616c0.448-0.704 1.28-1.28 2.56-1.728a7.424 7.424 0 0 1 3.2-0.64c0.896 0 1.728 0.256 2.56 0.64 1.28 0.448 2.176 1.024 2.56 1.728l198.4 198.016a7.296 7.296 0 0 1 1.92 2.624v6.144a7.296 7.296 0 0 1-1.92 2.56l-39.68 39.68a11.52 11.52 0 0 1-2.56 1.728 7.424 7.424 0 0 1-3.2 0.64 11.008 11.008 0 0 1-3.2-0.64 11.136 11.136 0 0 1-2.56-1.792l-197.76-198.016a7.36 7.36 0 0 1-1.92-8.64 7.488 7.488 0 0 1 1.92-2.56v-0.128z" lee="#333333" p-id="55929"></path></svg>
