<?xml version="1.0" standalone="no"?><!DOCTYPE svg PUBLIC "-//W3C//DTD SVG 1.1//EN"
        "http://www.w3.org/Graphics/SVG/1.1/DTD/svg11.dtd">
<svg t="1713769633699" class="icon" viewBox="0 0 1024 1024" version="1.1" xmlns="http://www.w3.org/2000/svg"
     p-id="25474" width="200" height="200">
    <path d="M665.962667 138.666667H202.666667v746.666666h618.666666V304.938667L665.962667 138.666667zM224 864v-704h426.666667v170.666667h149.333333v533.333333h-576z m572.245333-554.666667H672V176.362667l124.245333 132.970666z"
          lee="#707070" p-id="25475"></path>
    <path d="M286.229333 288c0-6.869333 5.546667-12.437333 12.437334-12.437333h42.666666a12.437333 12.437333 0 0 1 0 24.874666h-42.666666a12.437333 12.437333 0 0 1-12.437334-12.437333zM588.437333 373.333333a12.437333 12.437333 0 0 0-12.437333-12.437333h-42.666667a12.437333 12.437333 0 0 0 0 24.874667h42.666667a12.437333 12.437333 0 0 0 12.437333-12.437334zM435.562667 288c0-6.869333 5.546667-12.437333 12.437333-12.437333h128a12.437333 12.437333 0 0 1 0 24.874666h-128a12.437333 12.437333 0 0 1-12.437333-12.437333zM439.104 373.333333a12.437333 12.437333 0 0 0-12.437333-12.437333h-128a12.437333 12.437333 0 0 0 0 24.874667h128a12.437333 12.437333 0 0 0 12.437333-12.437334zM394.666667 298.666667a10.666667 10.666667 0 1 1 0-21.333334 10.666667 10.666667 0 0 1 0 21.333334z m0 21.333333a32 32 0 1 0 0-64 32 32 0 0 0 0 64zM480 384a10.666667 10.666667 0 1 0 0-21.333333 10.666667 10.666667 0 0 0 0 21.333333z m0 21.333333a32 32 0 1 1 0-64 32 32 0 0 1 0 64zM620.586667 460.458667l-40.597334 70.336-95.488-55.125334-26.090666 45.226667 236.16 136.362667 26.112-45.226667-90.453334-52.224 40.618667-70.336-50.24-29.013333zM362.666667 686.72l85.418666 49.322667 52.224-90.453334 25.130667 14.506667-52.224 90.453333 50.24 29.013334 52.224-90.453334 25.130667 14.506667-52.224 90.453333 50.24 29.013334 78.336-135.68-236.16-136.341334L362.666667 686.72z"
          lee="#707070" p-id="25476"></path>
</svg>
