<?xml version="1.0" standalone="no"?><!DOCTYPE svg PUBLIC "-//W3C//DTD SVG 1.1//EN" "http://www.w3.org/Graphics/SVG/1.1/DTD/svg11.dtd"><svg t="1713769056799" class="icon" viewBox="0 0 1024 1024" version="1.1" xmlns="http://www.w3.org/2000/svg" p-id="7327" xmlns:xlink="http://www.w3.org/1999/xlink" width="200" height="200"><path d="M64 160v704h896V160H64M0 96h1024v832H0z" fill="#303133" p-id="7328"></path><path d="M187.904 704h215.04v-48.64h-73.6V327.168H284.8a231.488 231.488 0 0 1-81.92 28.8v37.376h67.584v262.016H188.032zM512 509.44a39.488 39.488 0 0 0 39.424-40.96A40.064 40.064 0 0 0 512 426.496a40.064 40.064 0 0 0-39.424 41.984A39.488 39.488 0 0 0 512 509.44z m0 201.216a39.168 39.168 0 0 0 39.424-40.96A40.064 40.064 0 0 0 512 627.712a40.064 40.064 0 0 0-39.424 41.984A39.168 39.168 0 0 0 512 710.656zM632.32 704h215.04v-48.64h-73.6V327.168h-44.672a231.488 231.488 0 0 1-81.92 28.8v37.376h67.584v262.016H632.32z" fill="#303133" p-id="7329"></path></svg>