<?xml version="1.0" standalone="no"?><!DOCTYPE svg PUBLIC "-//W3C//DTD SVG 1.1//EN" "http://www.w3.org/Graphics/SVG/1.1/DTD/svg11.dtd"><svg t="1734078373106" class="icon" viewBox="0 0 1024 1024" version="1.1" xmlns="http://www.w3.org/2000/svg" p-id="17657" xmlns:xlink="http://www.w3.org/1999/xlink" width="200" height="200"><path d="M896.45407 901.127a127.301 127.301 0 0 1-126.077-149.305l-116.458-67.77a189.321 189.321 0 0 1-283.119-0.291l-116.355 67.18a128.202 128.202 0 1 1-31.855-64.37l111.61-64.426A189.495 189.495 0 0 1 476.63907 372.11V250.865a127.992 127.992 0 1 1 71.675 0V372.11A189.541 189.541 0 0 1 690.50907 622.944l110.995 64.58a127.93 127.93 0 1 1 94.95 213.603z m86.687-334.47c0 0.625 0 1.25-0.046 1.88h-0.138a35.69 35.69 0 0 1-70.965-3.533h-0.48c0.117-3.988 0.301-7.96 0.301-11.98a399.07 399.07 0 0 0-198.168-344.919l0.395-0.768a35.776 35.776 0 1 1 35.689-61.083 470.638 470.638 0 0 1 233.76 406.734c0 2.744-0.123 5.463-0.205 8.192 0.036 0.69 0.205 1.351 0.205 2.048 0 1.172-0.236 2.283-0.348 3.43z m-668.176-361.44l0.297 0.584a399.1 399.1 0 0 0-202.12 347.187c0 3.989 0.183 7.936 0.301 11.893h-0.47a35.669 35.669 0 0 1-71.164 1.936v-0.175c-0.108-1.131-0.344-2.242-0.344-3.414 0-0.702 0.17-1.362 0.205-2.048-0.087-2.729-0.205-5.448-0.205-8.192a470.648 470.648 0 0 1 233.817-406.816 35.694 35.694 0 1 1 39.683 59.046z m-17.515 690.79a35.51 35.51 0 0 1 22.87 8.458l0.645-1.024a399.372 399.372 0 0 0 387.975-2.846l0.343 0.512a35.725 35.725 0 1 1 30.57 64.221 470.336 470.336 0 0 1-454.946-0.061 35.771 35.771 0 0 1 12.543-69.26z" lee="#8191B8" p-id="17658"></path></svg>
