<?xml version="1.0" standalone="no"?><!DOCTYPE svg PUBLIC "-//W3C//DTD SVG 1.1//EN"
        "http://www.w3.org/Graphics/SVG/1.1/DTD/svg11.dtd">
<svg t="1737077512604" class="icon" viewBox="0 0 1024 1024" version="1.1" xmlns="http://www.w3.org/2000/svg" p-id="7022"
     xmlns:xlink="http://www.w3.org/1999/xlink" width="200" height="200">
    <path d="M1017.6 890.88L552.96 85.76c-12.8-23.04-42.24-30.72-64-17.92-7.68 3.84-12.8 10.24-17.92 17.92L6.4 890.88c-12.8 23.04-5.12 51.2 17.92 65.28 7.68 3.84 15.36 6.4 23.04 6.4h929.28c25.6 0 47.36-21.76 47.36-47.36 0-8.96-2.56-16.64-6.4-24.32zM120.32 875.52L512 195.84l387.84 679.68H120.32z"
          lee="#EF7E1E" p-id="7023"></path>
    <path d="M368.64 823.04c1.28 0 1.28 1.28 0 0l1.28 2.56 2.56 1.28H384l2.56-1.28s1.28 0 1.28-1.28h1.28l1.28-1.28 204.8-181.76s0-1.28 1.28-1.28l1.28 1.28 1.28-1.28v-1.28s0-1.28 1.28-1.28v-1.28-1.28V631.04v-2.56-1.28l-1.28-1.28s0-1.28-1.28-1.28l-1.28-1.28-1.28-1.28-1.28-1.28h-2.56l-58.88-20.48 89.6-144.64v-1.28-1.28-1.28-1.28-1.28-1.28-1.28-1.28-1.28-2.56l-1.28-1.28s0-1.28-1.28-1.28l-1.28-1.28-1.28-2.56-2.56-1.28H604.16l-2.56 1.28-1.28 1.28-215.04 189.44-1.28 1.28v1.28l-1.28 1.28V643.84l1.28 1.28 1.28 1.28 2.56 1.28 2.56 1.28 61.44 20.48-83.2 138.24v15.36z"
          lee="#EF7E1E" p-id="7024"></path>
</svg>
