<?xml version="1.0" standalone="no"?><!DOCTYPE svg PUBLIC "-//W3C//DTD SVG 1.1//EN"
        "http://www.w3.org/Graphics/SVG/1.1/DTD/svg11.dtd">
<svg t="1692169509426" class="icon" viewBox="0 0 1024 1024" version="1.1" xmlns="http://www.w3.org/2000/svg"
     p-id="10044"
     width="200" height="200">
    <path d="M872.96 1024H271.36c-66.56 0-120.32-53.76-120.32-120.32V120.32C151.04 53.76 204.8 0 271.36 0h371.2c33.28 0 61.44 12.8 84.48 35.84l230.4 230.4c23.04 23.04 35.84 53.76 35.84 84.48v552.96c0 66.56-53.76 120.32-120.32 120.32zM271.36 46.08c-40.96 0-76.8 33.28-76.8 74.24v783.36c0 40.96 33.28 74.24 74.24 74.24H870.4c40.96 0 74.24-33.28 74.24-74.24V350.72c0-20.48-7.68-38.4-23.04-53.76l-230.4-230.4c-12.8-12.8-33.28-23.04-53.76-23.04H271.36z"
          p-id="10045"></path>
    <path d="M263.68 693.76h437.76c12.8 0 23.04 10.24 23.04 23.04s-10.24 23.04-23.04 23.04H263.68c-12.8 0-23.04-10.24-23.04-23.04s10.24-23.04 23.04-23.04zM263.68 829.44h616.96c12.8 0 23.04 10.24 23.04 23.04s-10.24 23.04-23.04 23.04H263.68c-12.8 0-23.04-10.24-23.04-23.04 0-15.36 10.24-23.04 23.04-23.04zM81.92 179.2h304.64c28.16 0 53.76 23.04 53.76 53.76V537.6c0 28.16-23.04 53.76-53.76 53.76H81.92c-28.16 0-53.76-23.04-53.76-53.76V232.96C30.72 202.24 53.76 179.2 81.92 179.2z"
          lee="#C3C3CC" p-id="10046"></path>
    <path d="M245.76 273.92c-5.12-2.56-7.68-5.12-12.8-5.12s-7.68 2.56-10.24 5.12L163.84 332.8v2.56c-2.56 2.56-2.56 7.68-2.56 10.24 0 5.12 2.56 7.68 5.12 10.24h2.56c2.56 2.56 7.68 2.56 10.24 2.56 5.12 0 7.68-2.56 10.24-5.12l30.72-30.72v107.52c0 5.12 2.56 7.68 5.12 12.8 2.56 2.56 7.68 5.12 12.8 5.12s7.68-2.56 12.8-5.12c2.56-2.56 5.12-7.68 5.12-12.8v-107.52l30.72 30.72h2.56c2.56 2.56 7.68 5.12 12.8 2.56 5.12 0 7.68-2.56 10.24-5.12 2.56-2.56 5.12-7.68 5.12-10.24 0-5.12-2.56-7.68-5.12-10.24l-66.56-56.32z m-120.32 220.16c2.56 2.56 7.68 5.12 12.8 5.12H332.8c5.12 0 7.68-2.56 12.8-5.12 2.56-2.56 5.12-7.68 5.12-12.8v-48.64c0-5.12-2.56-7.68-5.12-12.8-2.56-2.56-7.68-5.12-12.8-5.12s-7.68 2.56-12.8 5.12c-2.56 2.56-5.12 7.68-5.12 12.8v33.28H153.6v-33.28c0-5.12-2.56-7.68-5.12-12.8-2.56-2.56-7.68-5.12-12.8-5.12s-7.68 2.56-12.8 5.12c-2.56 2.56-5.12 7.68-5.12 12.8v48.64c2.56 5.12 2.56 10.24 7.68 12.8z"
          lee="#FFFFFF" p-id="10047"></path>
    <path d="M921.6 302.08h-168.96c-33.28 0-61.44-28.16-61.44-61.44V71.68c0-12.8 7.68-23.04 17.92-28.16 10.24-5.12 23.04-2.56 33.28 7.68l197.12 197.12c7.68 7.68 10.24 20.48 7.68 33.28-2.56 12.8-12.8 20.48-25.6 20.48z m-184.32-192v133.12c0 7.68 7.68 15.36 15.36 15.36h133.12l-148.48-148.48z"
          lee="#C3C3CC" p-id="10048"></path>
</svg>