<?xml version="1.0" standalone="no"?><!DOCTYPE svg PUBLIC "-//W3C//DTD SVG 1.1//EN"
        "http://www.w3.org/Graphics/SVG/1.1/DTD/svg11.dtd">
<svg t="1692170087495" class="icon" viewBox="0 0 1024 1024" version="1.1" xmlns="http://www.w3.org/2000/svg"
     p-id="15921"
     width="200" height="200">
    <path d="M631.466667 546.133333h238.933333v68.266667H631.466667z m0-136.533333h238.933333v68.266667H631.466667z m0 273.066667h238.933333v68.266666H631.466667zM18.773333 288.426667v546.133333h546.133334v-546.133333z m347.306667 426.666666L291.84 605.866667l-73.386667 110.933333H123.733333l122.026667-179.2-107.52-162.133333h90.453333l63.146667 93.866666 64-93.866666h90.453333L341.333333 536.746667 459.946667 716.8z m587.946667-535.04L823.466667 51.2A201.386667 201.386667 0 0 0 699.733333 0H262.826667a72.533333 72.533333 0 0 0-72.533334 72.533333v146.773334h58.026667V72.533333a15.36 15.36 0 0 1 14.506667-14.506666h451.413333v232.96h231.253333v660.48a15.36 15.36 0 0 1-14.506666 14.506666H262.826667a15.36 15.36 0 0 1-14.506667-14.506666v-48.64h-58.026667v48.64a72.533333 72.533333 0 0 0 72.533334 72.533333h669.866666a72.533333 72.533333 0 0 0 72.533334-72.533333V329.386667a277.333333 277.333333 0 0 0-51.2-147.626667z m-181.76 51.2V85.333333l10.24 8.533334 129.706666 129.706666 8.533334 10.24z"
          p-id="15922"></path>
</svg>