<?xml version="1.0" standalone="no"?><!DOCTYPE svg PUBLIC "-//W3C//DTD SVG 1.1//EN"
        "http://www.w3.org/Graphics/SVG/1.1/DTD/svg11.dtd">
<svg t="1693042161971" class="icon" viewBox="0 0 1201 1024" version="1.1" xmlns="http://www.w3.org/2000/svg"
     p-id="10170"
     width="234.5703125" height="200">
    <path d="M399.257391 938.261011H88.553242V85.488174H1064.686376V255.940367a40.949476 40.949476 0 0 0 44.020686 42.485082 40.949476 40.949476 0 0 0 44.532555-42.485082V85.488174A87.529505 87.529505 0 0 0 1064.686376 0.006142H88.553242A87.529505 87.529505 0 0 0 0 85.488174v852.772837A87.529505 87.529505 0 0 0 88.553242 1023.743042H399.257391a42.99695 42.99695 0 1 0 0-85.482031z m358.307915-640.859299a40.437608 40.437608 0 0 0-45.556292-41.461345h-445.325552a41.973213 41.973213 0 1 0 0 83.434558h445.325552a40.949476 40.949476 0 0 0 44.532555-41.973213zM266.683462 470.413248a41.461344 41.461344 0 1 0 0 82.922689h223.174644a41.461344 41.461344 0 1 0 0-82.922689zM952.075317 351.147899a40.949476 40.949476 0 0 1 41.461344 40.949476v480.644474l135.645139-131.038323a41.973213 41.973213 0 0 1 70.637846 17.915396 41.461344 41.461344 0 0 1-11.261106 39.925739l-204.747379 200.140564a41.973213 41.973213 0 0 1-58.353004 0l-204.74738-200.140564a40.949476 40.949476 0 0 1-11.772974-39.925739 41.973213 41.973213 0 0 1 30.200239-28.664633 40.949476 40.949476 0 0 1 40.437607 10.749237l135.645139 131.038323V392.097375a41.461344 41.461344 0 0 1 41.973213-40.949476z m-460.681605 333.226361a41.973213 41.973213 0 1 1 0 83.434557H266.683462a41.973213 41.973213 0 1 1 0-83.434557z"
          lee="#8a8a8a" p-id="10171"></path>
</svg>