<?xml version="1.0" standalone="no"?><!DOCTYPE svg PUBLIC "-//W3C//DTD SVG 1.1//EN"
        "http://www.w3.org/Graphics/SVG/1.1/DTD/svg11.dtd">
<svg t="1692169409781" class="icon" viewBox="0 0 1024 1024" version="1.1" xmlns="http://www.w3.org/2000/svg" p-id="7481"
     width="200" height="200">
    <path d="M0 0m170.666667 0l682.666666 0q170.666667 0 170.666667 170.666667l0 682.666666q0 170.666667-170.666667 170.666667l-682.666666 0q-170.666667 0-170.666667-170.666667l0-682.666666q0-170.666667 170.666667-170.666667Z"
          fill="#62CE84" p-id="7482"></path>
    <path d="M260.551111 403.256889c1.393778-56.177778 22.414222-102.570667 66.730667-137.272889 34.929778-27.335111 75.377778-35.783111 119.210666-32.398222v67.982222h-4.380444c-11.690667 0.512-23.466667 0.284444-34.986667 1.763556-18.005333 2.332444-33.564444 10.581333-47.075555 22.499555a100.835556 100.835556 0 0 0-32.568889 56.177778c-1.422222 6.769778-1.820444 13.738667-2.730667 20.963555h30.293334a9.272889 9.272889 0 0 1 7.054222 15.303112l-65.137778 76.117333a9.272889 9.272889 0 0 1-14.108444 0L217.884444 418.56a9.272889 9.272889 0 0 1 7.025778-15.303111h35.640889zM557.226667 204.8h222.549333c20.48 0 37.091556 16.611556 37.091556 37.091556v148.394666c0 20.48-16.583111 37.091556-37.091556 37.091556H557.226667c-20.48 0-37.091556-16.611556-37.091556-37.091556V241.891556c0-20.48 16.611556-37.091556 37.091556-37.091556zM241.863111 594.318222h222.577778a37.091556 37.091556 0 0 1 37.091555 37.091556v148.366222c0 20.48-16.611556 37.091556-37.091555 37.091556H241.891556c-20.48 0-37.091556-16.583111-37.091556-37.091556v-148.366222c0-20.48 16.611556-37.091556 37.091556-37.091556z m519.168 24.433778c-1.649778 58.424889-24.092444 106.012444-71.424 140.629333-34.048 24.888889-72.874667 32.142222-114.517333 28.984889v-68.067555c6.599111 0 13.112889 0.227556 19.626666-0.056889 7.395556-0.369778 14.904889-0.483556 22.101334-1.962667 27.306667-5.546667 48.270222-20.679111 63.288889-43.946667 10.752-16.64 15.928889-35.072 16.241777-55.296H666.453333a9.272889 9.272889 0 0 1-7.025777-15.303111l65.251555-76.231111a9.272889 9.272889 0 0 1 14.108445 0l64.995555 75.946667a9.272889 9.272889 0 0 1-7.025778 15.303111h-35.669333z"
          fill="#FFFFFF" p-id="7483"></path>
</svg>
