<?xml version="1.0" standalone="no"?><!DOCTYPE svg PUBLIC "-//W3C//DTD SVG 1.1//EN" "http://www.w3.org/Graphics/SVG/1.1/DTD/svg11.dtd"><svg t="1730691701082" class="icon" viewBox="0 0 1024 1024" version="1.1" xmlns="http://www.w3.org/2000/svg" p-id="10258" xmlns:xlink="http://www.w3.org/1999/xlink" width="200" height="200">
    <path d="M320 554.667A85.333 85.333 0 01405.333 640v170.667A85.333 85.333 0 01320 896H149.333A85.333 85.333 0 0164 810.667V640a85.333 85.333 0 0185.333-85.333H320zM768 768a42.667 42.667 0 110 85.333H512A42.667 42.667 0 11512 768h256zM277.333 640H192a42.667 42.667 0 00-42.56 39.467l-.107 3.2V768a42.667 42.667 0 0039.467 42.56l3.2.107h85.333a42.667 42.667 0 0042.56-39.467L320 768v-85.333A42.667 42.667 0 00277.333 640zm576-42.667a42.667 42.667 0 110 85.334H512a42.667 42.667 0 110-85.334h341.333zM320 128a85.333 85.333 0 0185.333 85.333V384A85.333 85.333 0 01320 469.333H149.333A85.333 85.333 0 0164 384V213.333A85.333 85.333 0 01149.333 128H320zm448 213.333a42.667 42.667 0 110 85.334H512a42.667 42.667 0 110-85.334h256zm-490.667-128H192a42.667 42.667 0 00-42.56 39.467l-.107 3.2v85.333a42.667 42.667 0 0039.467 42.56l3.2.107h85.333a42.667 42.667 0 0042.56-39.467l.107-3.2V256a42.667 42.667 0 00-42.667-42.667zm576-42.666a42.667 42.667 0 110 85.333H512a42.667 42.667 0 110-85.333h341.333z"
    ></path>
</svg>
