<?xml version="1.0" standalone="no"?><!DOCTYPE svg PUBLIC "-//W3C//DTD SVG 1.1//EN"
        "http://www.w3.org/Graphics/SVG/1.1/DTD/svg11.dtd">
<svg t="1702018628141" class="icon" viewBox="0 0 1024 1024" version="1.1" xmlns="http://www.w3.org/2000/svg" p-id="1532"
     width="200" height="200">
    <path d="M860.288 64C898.336 64 928 96 928 134.528v754.944C928 927.968 898.336 960 860.288 960H163.712C125.664 960 96 928 96 889.472V134.528C96 96.032 125.664 64 163.712 64h696.576z m0 64H163.712C162.144 128 160 130.336 160 134.528v754.944c0 4.192 2.144 6.528 3.712 6.528h696.576c1.568 0 3.712-2.336 3.712-6.528V134.528c0-4.192-2.144-6.528-3.712-6.528zM789.12 710.912v64H239.488v-64H789.12z m0-231.84v162.88l-146.592-0.032V672l-70.016-58.592 70.016-64v32.32h88.128v-102.656h58.464z m-271.456 99.712v64H239.488v-64h278.144z m6.08-354.432c57.664 0 83.136 28 83.136 98.56 0 49.6-12.576 78.272-40 90.816l-3.616 1.472 19.392 24.384 12.352 15.584h-51.168l-2.88-4.064-21.024-29.664h-2.08c-51.584-1.824-75.584-28.288-77.216-91.36l-0.096-7.136c0-70.496 25.632-98.56 83.2-98.56z m-211.584 1.76c17.28 0 37.408 3.04 47.776 7.168l8.384 3.36V285.44l-18.08-6.848c-8.96-3.424-24.768-6.112-37.824-6.112-19.52 0-21.856 1.6-21.856 13.824 0 9.856 0.8 10.56 24.64 16.16 45.728 10.752 62.24 26.656 62.24 66.08 0 41.152-26.944 62.432-73.888 62.432-20.352 0-43.68-3.392-55.168-7.488l-8.864-3.2v-49.216l17.984 6.656c10.048 3.712 29.28 6.88 46.08 6.88 20.16 0 25.504-3.776 25.504-15.808 0-13.44-1.952-15.104-29.184-21.696-42.624-10.336-57.92-24.64-57.92-60.8 0-39.552 24.864-60.192 70.176-60.192z m402.88 2.72v152.768h74.08v46.912h-122.88V228.8h48.832z m-191.328 33.664c-32.448 0-40.832 13.024-40.832 60.448 0 48.16 7.904 60.16 40.832 60.16 33.184 0 41.088-11.968 41.088-60.16 0-47.456-8.384-60.448-41.088-60.448z"
          p-id="1533"></path>
</svg>