<?xml version="1.0" standalone="no"?><!DOCTYPE svg PUBLIC "-//W3C//DTD SVG 1.1//EN"
        "http://www.w3.org/Graphics/SVG/1.1/DTD/svg11.dtd">
<svg t="1693041651724" class="icon" viewBox="0 0 1024 1024" version="1.1" xmlns="http://www.w3.org/2000/svg" p-id="6179"
     width="200" height="200">
    <path d="M409.6 204.8a51.2 51.2 0 0 1 51.2 51.2v512a51.2 51.2 0 0 1-51.2 51.2H256a51.2 51.2 0 0 1-51.2-51.2V256a51.2 51.2 0 0 1 51.2-51.2h153.6z m0 51.2H256v512h153.6V256zM768 307.2a51.2 51.2 0 0 1 51.2 51.2v307.2a51.2 51.2 0 0 1-51.2 51.2h-153.6a51.2 51.2 0 0 1-51.2-51.2V358.4a51.2 51.2 0 0 1 51.2-51.2h153.6z m0 51.2h-153.6v307.2h153.6V358.4z"
          lee="#999999" p-id="6180"></path>
</svg>