<?xml version="1.0" standalone="no"?><!DOCTYPE svg PUBLIC "-//W3C//DTD SVG 1.1//EN"
        "http://www.w3.org/Graphics/SVG/1.1/DTD/svg11.dtd">
<svg t="1692168611652" class="icon" viewBox="0 0 1125 1024" version="1.1" xmlns="http://www.w3.org/2000/svg"
     p-id="10338"
     width="219.7265625" height="200">
    <path d="M877.840146 969.599501H239.91646c-27.191252 0-45.186786 10.923289-45.186786 27.191252s18.121503 27.209247 45.186786 27.209247h637.923686c27.191252 0 45.16879-10.923289 45.168791-27.209247s-17.995534-27.191252-45.168791-27.191252zM1034.617239 0.000126H90.625509A90.571523 90.571523 0 0 0 0.017996 90.337707v659.518327a90.553527 90.553527 0 0 0 90.625509 90.337581h943.973734a90.571523 90.571523 0 0 0 90.643505-90.337581V90.337707A90.499541 90.499541 0 0 0 1034.617239 0.000126z m-9.483646 784.479316H99.983187a45.600683 45.600683 0 0 1-45.600683-45.636675V99.71338a45.600683 45.600683 0 0 1 45.600683-45.600683h925.150406a45.618679 45.618679 0 0 1 45.618678 45.600683v639.129387a45.618679 45.618679 0 0 1-45.618678 45.636675z m9.483646 0"
          p-id="10339"></path>
    <path d="M811.778541 377.726386l-52.187049-6.352424a197.950875 197.950875 0 0 0-16.429922-40.651911l32.391961-41.389729c7.774071-10.005517 5.794562-25.679627-4.264942-35.703139l-33.849599-33.723631c-10.041508-10.023512-25.769605-12.003021-35.829108-4.246946l-40.363983 31.474189a208.748195 208.748195 0 0 0-41.767635-17.779588l-6.24445-50.675423c-1.547616-12.596874-14.162485-22.296467-28.324971-22.296467h-47.86812c-14.162485 0-26.759359 9.735584-28.324971 22.296467l-6.08249 49.5597a207.524499 207.524499 0 0 0-43.189282 17.491659l-39.590175-30.772363c-10.041508-7.756075-25.769605-5.776566-35.829108 4.246946l-33.939578 33.759622c-10.041508 10.023512-12.039012 25.697623-4.246946 35.70314l30.736373 39.104295a203.601472 203.601472 0 0 0-17.85157 42.901353l-49.991594 6.082491c-12.596874 1.547616-22.368449 14.108499-22.368449 28.234993v47.724156c0 14.108499 9.771575 26.669381 22.368449 28.216997l50.387495 6.20846a204.141338 204.141338 0 0 0 17.563642 41.78563l-31.690136 40.471956c-7.792066 10.023512-5.812557 25.697623 4.246946 35.703139L383.088929 638.841585c10.059504 10.023512 25.769605 12.003021 35.829108 4.22895l41.209773-32.03205a209.432025 209.432025 0 0 0 40.795876 16.645869l6.56837 52.510968c1.547616 12.596874 14.162485 22.296467 28.32497 22.296467h47.868121c14.162485 0 26.759359-9.735584 28.32497-22.296467l6.460397-52.924866a210.025878 210.025878 0 0 0 39.590175-16.375936l42.63142 33.16577c10.059504 7.774071 25.769605 5.794562 35.847104-4.228951l33.831604-33.723631c10.059504-10.041508 12.039012-25.697623 4.246946-35.721135l-32.985814-42.199527a202.143834 202.143834 0 0 0 16.699856-39.590175l53.536714-6.496388c12.596874-1.547616 22.386444-14.126494 22.386444-28.234993v-47.634178c-0.143964-14.396427-9.915539-26.993301-22.530409-28.504926zM560.398926 571.700247a142.614607 142.614607 0 1 1 143.082491-142.596612 142.794563 142.794563 0 0 1-143.082491 142.596612z m0-31.096283"
          p-id="10340"></path>
</svg>