<?xml version="1.0" standalone="no"?><!DOCTYPE svg PUBLIC "-//W3C//DTD SVG 1.1//EN"
        "http://www.w3.org/Graphics/SVG/1.1/DTD/svg11.dtd">
<svg t="1692174518494" class="icon" viewBox="0 0 1024 1024" version="1.1" xmlns="http://www.w3.org/2000/svg"
     p-id="30621"
     width="200" height="200">
    <path d="M237.76 355.072h-60.032V211.84c0-49.728 40.32-90.048 90.048-90.048h570.24c49.664 0 89.984 40.32 89.984 90.048v600.192c0 49.728-40.32 90.048-90.048 90.048H267.776c-49.728 0-90.048-40.32-90.048-90.048v-118.4h60.032v118.4c0 16.576 13.44 30.016 30.016 30.016h570.24c16.512 0 29.952-13.44 29.952-30.016V211.904a30.016 30.016 0 0 0-30.016-30.016H267.776a30.016 30.016 0 0 0-30.016 30.016v143.168z m325.12 62.08a30.016 30.016 0 1 1 37.376-47.04l139.072 110.528a30.016 30.016 0 0 1-18.688 53.568H126.08a30.016 30.016 0 0 1 0-60.032h508.608l-71.68-57.024z"
          p-id="30622"></path>
</svg>