<?xml version="1.0" standalone="no"?><!DOCTYPE svg PUBLIC "-//W3C//DTD SVG 1.1//EN"
        "http://www.w3.org/Graphics/SVG/1.1/DTD/svg11.dtd">
<svg t="1730334112291" class="icon" viewBox="0 0 1024 1024" version="1.1" xmlns="http://www.w3.org/2000/svg" p-id="4279"
     width="200" height="200">
    <path d="M345.088 62.998261h334.002087V131.33913c0 26.045217 24.353391 47.104 54.182956 47.104 30.052174 0 54.316522-21.147826 54.316522-47.104V62.998261h86.149565v-0.044522c58.10087 0 105.382957 41.004522 105.382957 91.492174V892.66087c0 50.398609-47.326609 91.492174-105.382957 91.492173H149.904696C91.714783 984.153043 44.521739 943.193043 44.521739 892.66087V154.490435c0-50.44313 47.326609-91.492174 105.382957-91.492174h86.149565V131.33913c0 26.045217 24.397913 47.104 54.227478 47.104 16.65113 0 31.565913-6.544696 41.494261-16.829217a32.189217 32.189217 0 0 1-12.599652 2.493217c-14.336 0-26.000696-8.770783-26.000696-19.72313V20.969739c0-10.863304 11.709217-19.767652 26.000696-19.767652 14.380522 0 25.911652 8.770783 25.911652 19.767652v42.028522z m409.199304 101.064348v0.089043c-14.336 0-25.911652-8.770783-25.911652-19.678609V21.058783c0-10.907826 11.575652-19.812174 25.911652-19.812174 14.291478 0 26.000696 8.815304 26.000696 19.72313v123.325218c0 10.907826-11.709217 19.812174-26.000696 19.812173z m-409.154782-101.064348h-0.667826V131.33913a43.408696 43.408696 0 0 1-12.688696 30.274783c7.969391-3.428174 13.356522-9.883826 13.356522-17.274435V62.998261zM910.469565 878.725565l-0.044522-0.089043 0.089044-556.655305H113.129739v556.655305c0 16.384 16.384 29.606957 36.685913 29.606956h723.968c20.257391 0 36.685913-13.356522 36.685913-29.517913zM446.374957 730.423652v-0.089043L303.326609 567.206957a43.809391 43.809391 0 0 1 0-56.097392 31.788522 31.788522 0 0 1 49.241043 0l118.427826 135.123478 230.177392-262.633739a31.788522 31.788522 0 0 1 49.107478 0 43.631304 43.631304 0 0 1 0.089043 56.097392l-254.886956 290.726956a31.788522 31.788522 0 0 1-49.107478 0z"
          lee="#707070" p-id="4280"></path>
</svg>
