<?xml version="1.0" standalone="no"?><!DOCTYPE svg PUBLIC "-//W3C//DTD SVG 1.1//EN" "http://www.w3.org/Graphics/SVG/1.1/DTD/svg11.dtd">
<svg t="1723281696058" class="icon" viewBox="0 0 1024 1024" version="1.1" xmlns="http://www.w3.org/2000/svg" p-id="4300"
     width="200" height="200"><path d="M937.649063 195.379898H86.350937C39.831914 195.379898 0.290744 232.595116 0.290744 281.440091v553.576377c0 46.519023 37.215219 86.060193 86.060193 86.060193h295.395798l83.734242 83.734242c25.585463 25.585463 67.452584 25.585463 90.712095 0l83.734242-83.734242h295.395798c46.519023 0 86.060193-37.215219 86.060193-86.060193V281.440091c2.325951-46.519023-34.889267-86.060193-83.734242-86.060193zM242.189665 595.443498c-34.889267 0-62.800681-27.911414-62.800681-65.126633 0-34.889267 27.911414-65.126633 62.800681-65.126632s65.126633 27.911414 65.126633 65.126632c0 37.215219-30.237365 65.126633-65.126633 65.126633z m283.766042 0c-34.889267 0-65.126633-27.911414-65.126633-65.126633 0-34.889267 27.911414-65.126633 65.126633-65.126632 34.889267 0 65.126633 27.911414 65.126633 65.126632-2.325951 37.215219-30.237365 65.126633-65.126633 65.126633z m281.440091 0c-34.889267 0-65.126633-27.911414-65.126633-65.126633 0-34.889267 27.911414-65.126633 65.126633-65.126632s65.126633 27.911414 65.126632 65.126632c0 37.215219-30.237365 65.126633-65.126632 65.126633z" p-id="4301"></path></svg>
