<?xml version="1.0" standalone="no"?><!DOCTYPE svg PUBLIC "-//W3C//DTD SVG 1.1//EN" "http://www.w3.org/Graphics/SVG/1.1/DTD/svg11.dtd"><svg t="1723300290070" class="icon" viewBox="0 0 1024 1024" version="1.1" xmlns="http://www.w3.org/2000/svg" p-id="4269" xmlns:xlink="http://www.w3.org/1999/xlink" width="200" height="200"><path d="M886.4 681.6c-6.4-3.2-12.8-9.6-19.2-12.8l-22.4-28.8c-16-19.2-25.6-44.8-25.6-70.4v-144c0-121.6-86.4-224-208-262.4-6.4-64-48-112-99.2-112s-89.6 48-99.2 112c-121.6 38.4-208 140.8-208 262.4v144c0 25.6-9.6 51.2-25.6 70.4l-22.4 25.6c-3.2 6.4-9.6 9.6-19.2 16-19.2 12.8-28.8 35.2-28.8 60.8 0 38.4 22.4 67.2 51.2 67.2h172.8c9.6 89.6 86.4 160 179.2 160s169.6-70.4 179.2-160H864c28.8 0 51.2-28.8 51.2-67.2 0-25.6-9.6-48-28.8-60.8zM512 92.8c25.6 0 48 25.6 57.6 60.8-19.2-3.2-38.4-6.4-57.6-6.4s-38.4 3.2-57.6 6.4c9.6-35.2 32-60.8 57.6-60.8z m0 838.4c-70.4 0-128-51.2-137.6-121.6h275.2c-9.6 70.4-67.2 121.6-137.6 121.6z m352-160H160c-3.2 0-12.8-9.6-12.8-28.8 0-12.8 6.4-25.6 12.8-28.8 9.6-6.4 19.2-12.8 28.8-22.4l22.4-25.6c22.4-28.8 35.2-60.8 35.2-96v-144c0-131.2 121.6-236.8 268.8-236.8s268.8 105.6 268.8 236.8v144c0 35.2 12.8 70.4 35.2 96l22.4 25.6c9.6 9.6 19.2 16 28.8 25.6 6.4 3.2 9.6 12.8 9.6 28.8-3.2 16-12.8 25.6-16 25.6z" p-id="4270"></path></svg>