<?xml version="1.0" standalone="no"?><!DOCTYPE svg PUBLIC "-//W3C//DTD SVG 1.1//EN"
        "http://www.w3.org/Graphics/SVG/1.1/DTD/svg11.dtd">
<svg t="1693669757920" class="icon" viewBox="0 0 1024 1024" version="1.1" xmlns="http://www.w3.org/2000/svg"
     p-id="16779"
     width="200" height="200">
    <path d="M106.666667 85.333333h810.666666a21.333333 21.333333 0 1 1 0 42.666667h-810.666666a21.333333 21.333333 0 0 1 0-42.666667z m0 768h341.333333a21.333333 21.333333 0 1 1 0 42.666667h-341.333333a21.333333 21.333333 0 1 1 0-42.666667z m0-256h341.333333a21.333333 21.333333 0 1 1 0 42.666667h-341.333333a21.333333 21.333333 0 1 1 0-42.666667z m0-256h810.666666a21.333333 21.333333 0 1 1 0 42.666667h-810.666666a21.333333 21.333333 0 0 1 0-42.666667zM725.333333 541.568l-157.696 157.696a21.333333 21.333333 0 0 1-30.208-30.165333l193.536-193.536a21.290667 21.290667 0 0 1 16.469334-6.186667c5.888-0.384 11.946667 1.706667 16.469333 6.186667l193.493333 193.536a21.333333 21.333333 0 0 1-30.165333 30.165333L768 540.032V917.333333a21.333333 21.333333 0 1 1-42.666667 0v-375.765333z"
          lee="#000000" fill-opacity=".65" p-id="16780"></path>
</svg>