<?xml version="1.0" standalone="no"?><!DOCTYPE svg PUBLIC "-//W3C//DTD SVG 1.1//EN" "http://www.w3.org/Graphics/SVG/1.1/DTD/svg11.dtd"><svg t="1734078904958" class="icon" viewBox="0 0 1024 1024" version="1.1" xmlns="http://www.w3.org/2000/svg" p-id="19721" xmlns:xlink="http://www.w3.org/1999/xlink" width="200" height="200"><path d="M206.312107 289.338027c-14.631253 0-26.103467-11.50464-26.103467-26.14272 0-14.63296 11.506347-26.1376 26.103467-26.1376l364.977493-1.565014c14.631253 0 26.103467 11.502933 26.103467 26.134187 0 14.63808-11.50464 26.14272-26.103467 26.14272l-364.977493 1.568427z m0.544426 168.415573c-14.63296 0-26.103467-11.50464-26.103466-26.14272 0-14.63296 11.502933-26.1376 26.103466-26.1376l364.977494-1.56672c14.636373 0 26.103467 11.50464 26.103466 26.1376 0 14.63808-11.50464 26.14272-26.103466 26.14272l-364.977494 1.56672zM31.418027 1022.63296c-6.772053 0-13.581653-2.62144-18.276694-7.31648-4.698453-4.69504-7.826773-11.50464-7.826773-18.310827L1.1264 32.52736c0-6.8096 2.623147-13.615787 7.31648-18.31424 4.698453-4.69504 11.502933-7.860907 18.274987-7.860907L774.946133 3.217067c6.772053 0 13.576533 2.623147 18.276694 7.31648 4.693333 4.70016 7.826773 11.50464 7.826773 18.315946l1.056427 282.948267c0 14.63808-11.50464 26.14272-26.105174 26.14272-14.598827 0-26.103467-11.50464-26.103466-26.14272l-1.05472-256.810667-695.476907 3.677867 4.189867 911.653547 258.449066-1.05472c14.63808 0 26.103467 11.50464 26.103467 26.135893 0 14.63808-11.50464 26.144427-26.103467 26.144427l-284.552533 1.053013-0.034133 0.03584z m0 0" p-id="19722"></path><path d="M417.39776 665.739947l-27.526827-29.487787c-10.847573-11.137707-10.847573-29.963947 0-41.685333 10.30656-11.762347 27.670187-11.762347 38.519467 0l74.30656 79.254186c4.877653 5.285547 8.1152 12.928 8.1152 20.57216s-2.727253 15.254187-8.1152 20.57216l-73.21088 79.872c-5.971627 6.442667-13.038933 9.393493-20.06016 9.393494-7.026347 0-14.093653-2.950827-18.9696-8.809814-10.84928-11.776-10.84928-29.902507 0-41.685333l27.014827-29.231787-170.71104 1.053014c-15.182507 0-27.122347-12.926293-27.122347-29.341014 0-16.421547 11.93984-29.34272 27.122347-29.34272l170.71104-1.05472-0.073387-0.078506z m0 0M786.884267 482.763093c107.327147 10.410667 191.136427 99.13344 191.136426 207.008427v208.0256h21.2224c11.726507 0 21.22752 9.321813 21.22752 20.788907 0 11.472213-9.499307 20.7872-21.22752 20.7872h-148.647253c0 45.94688-38.0416 83.227307-84.933973 83.227306-46.890667 0-84.939093-37.244587-84.939094-83.227306h-148.645546c-11.726507 0-21.22752-9.314987-21.22752-20.7872 0-11.467093 9.499307-20.788907 21.22752-20.788907h21.220693v-208.0256c0-107.874987 83.810987-196.558507 191.138133-207.008427V460.919467c0-11.50464 9.4976-20.7872 21.225814-20.7872 11.721387 0 21.2224 9.316693 21.2224 20.7872v21.843626z m148.686506 415.034027v-208.0256c0-91.927893-76.05248-166.418773-169.9072-166.418773-93.85984 0-169.910613 74.530133-169.910613 166.418773v208.0256h339.817813z m-127.42144 41.613653h-84.939093c0 22.970027 19.003733 41.61536 42.48576 41.61536 23.483733 0 42.487467-18.645333 42.487467-41.61536h-0.034134z m0 0" p-id="19723"></path></svg>