<?xml version="1.0" standalone="no"?><!DOCTYPE svg PUBLIC "-//W3C//DTD SVG 1.1//EN"
        "http://www.w3.org/Graphics/SVG/1.1/DTD/svg11.dtd">
<svg t="1692168606224" class="icon" viewBox="0 0 1024 1024" version="1.1" xmlns="http://www.w3.org/2000/svg"
     p-id="10190"
     width="200" height="200">
    <path d="M220.416 485.76H304.64c4.416 21.376 12.672 41.792 24.448 60.224l-60.16 60.16a38.4 38.4 0 0 0 27.136 65.408c10.24 0 19.968-4.032 27.136-11.264l59.584-59.648c17.984 11.904 38.208 20.608 59.84 25.536v84.992a38.336 38.336 0 0 0 76.672 0V626.88c21.376-4.416 41.792-12.672 60.16-24.32l60.16 60.16a38.144 38.144 0 0 0 54.272 0 38.016 38.016 0 0 0 0-54.272l-59.648-59.648c11.84-17.92 20.544-38.144 25.472-59.776h84.992a38.336 38.336 0 0 0 0-76.672H660.48a179.2 179.2 0 0 0-24.448-60.288l60.16-60.16a38.016 38.016 0 0 0 0-54.208 38.4 38.4 0 0 0-54.208 0l-59.648 59.648a181.44 181.44 0 0 0-59.84-25.472V186.88a38.336 38.336 0 0 0-76.608 0v84.224c-21.76 4.48-42.176 12.864-60.352 24.448l-60.16-60.16a38.4 38.4 0 0 0-54.144 0 38.4 38.4 0 0 0 0 54.272l59.648 59.648c-11.904 17.92-20.608 38.144-25.536 59.84H220.416a38.336 38.336 0 0 0 0 76.608z m367.04-36.736A104.96 104.96 0 0 1 482.56 553.92a104.96 104.96 0 0 1-104.896-104.96c0-57.792 47.04-104.832 104.96-104.832 57.728 0 104.832 47.04 104.832 104.896z"
          lee="#252525" p-id="10191"></path>
    <path d="M898.112 39.36a64 64 0 0 1 64 64v696.448a64 64 0 0 1-64 64H67.008a64 64 0 0 1-64-64V103.36a64 64 0 0 1 64-64h831.104z m0 64H67.008v696.448h831.104V103.36zM930.56 924.16a32 32 0 0 1 5.76 63.488l-5.76 0.512h-896a32 32 0 0 1-5.76-63.488l5.76-0.512h896z"
          lee="#252525" p-id="10192"></path>
</svg>