<?xml version="1.0" standalone="no"?><!DOCTYPE svg PUBLIC "-//W3C//DTD SVG 1.1//EN"
        "http://www.w3.org/Graphics/SVG/1.1/DTD/svg11.dtd">
<svg t="1692168648857" class="icon" viewBox="0 0 1024 1024" version="1.1" xmlns="http://www.w3.org/2000/svg"
     p-id="11199"
     width="200" height="200">
    <path d="M975.168 128c26.944 0 48.832 19.072 48.832 42.688v618.624c0 23.552-21.824 42.688-48.768 42.688H585.152v64h195.072c13.44 0 24.32 9.6 24.32 21.312v21.376c0 11.776-10.88 21.312-24.32 21.312H243.776c-13.44 0-24.32-9.6-24.32-21.312v-21.376c0-11.776 10.88-21.312 24.32-21.312h195.072v-64H48.768C21.888 832 0 812.864 0 789.312V170.688C0 147.072 21.888 128 48.832 128h926.336zM960 192H64v512h896V192z m-242.56 64c17.024 0.128 33.984 2.688 50.496 7.488 17.536 4.992 34.56 12.352 50.496 21.952l-33.6 73.792a102.336 102.336 0 0 0-27.648-18.56 66.56 66.56 0 0 0-26.688-6.016 40.128 40.128 0 0 0-26.752 8.64 28.16 28.16 0 0 0-10.368 22.72 24 24 0 0 0 5.248 15.872c3.84 4.544 8.448 8.192 13.568 10.88 6.08 3.2 12.48 5.888 19.008 7.936 7.04 2.24 14.08 4.672 20.928 7.232 27.648 10.304 47.872 24.064 60.672 41.216 12.8 17.216 19.2 39.68 19.2 67.328 0.192 17.344-2.688 34.56-8.512 50.624a106.24 106.24 0 0 1-24.64 38.848c-11.52 11.328-25.088 19.84-39.68 25.088-17.28 6.208-35.264 9.216-53.376 8.96-41.152 0-79.296-13.696-114.368-41.024l36.224-76.16c11.2 11.392 23.872 20.8 37.568 27.904 11.52 5.952 24.128 9.024 36.8 9.152 13.824 0 24.064-3.52 30.848-10.624a36.16 36.16 0 0 0 7.552-38.4 30.08 30.08 0 0 0-8.576-11.008 66.688 66.688 0 0 0-15.808-9.408 438.528 438.528 0 0 0-23.488-9.6 429.952 429.952 0 0 1-32.192-12.8 99.648 99.648 0 0 1-28.096-18.56 85.888 85.888 0 0 1-19.84-29.248 113.92 113.92 0 0 1-7.552-44.608 142.08 142.08 0 0 1 8-48.96 110.72 110.72 0 0 1 22.4-37.632c10.112-10.752 22.208-19.072 35.392-24.32a120.96 120.96 0 0 1 46.72-8.704z m-418.112 14.72a186.88 186.88 0 0 1 145.28 0c21.312 9.216 40.768 23.04 57.216 40.768 16 17.344 28.672 38.08 37.312 60.992a219.584 219.584 0 0 1 0 151.04 189.12 189.12 0 0 1-37.312 60.992 170.688 170.688 0 0 1-57.216 40.768 186.624 186.624 0 0 1-145.28 0C234.048 596.864 191.296 526.272 192 448c-0.896-78.336 41.856-149.056 107.328-177.28z m137.28 105.408c-26.88-27.904-65.664-36.096-99.776-20.992a95.04 95.04 0 0 0-48.896 52.8c-4.992 12.608-7.488 26.24-7.424 40.064a106.88 106.88 0 0 0 7.36 40c9.472 24.128 27.072 43.136 48.96 52.8 34.112 15.36 72.96 7.168 99.776-20.928a100.48 100.48 0 0 0 20.032-31.872c9.792-25.6 9.792-54.464 0-80a100.48 100.48 0 0 0-20.032-31.872z"
          p-id="11200"></path>
</svg>