<?xml version="1.0" standalone="no"?><!DOCTYPE svg PUBLIC "-//W3C//DTD SVG 1.1//EN"
        "http://www.w3.org/Graphics/SVG/1.1/DTD/svg11.dtd">
<svg t="1734078155691" class="icon" viewBox="0 0 1024 1024" version="1.1" xmlns="http://www.w3.org/2000/svg" p-id="6945"
     xmlns:xlink="http://www.w3.org/1999/xlink" width="200" height="200">
    <path d="M373.333333 148.309333a64 64 0 0 1 64 64v128a64 64 0 0 1-64 64h-42.666666v52.352c0 5.888 2.090667 10.922667 6.250666 15.082667a20.565333 20.565333 0 0 0 15.082667 6.250667h85.333333c24.256 0 45.589333 7.061333 64 21.205333 18.410667-14.144 39.744-21.205333 64-21.205333h106.666667a20.565333 20.565333 0 0 0 15.082667-6.250667 20.565333 20.565333 0 0 0 6.250666-15.082667v-52.352h-64a64 64 0 0 1-64-64v-128a64 64 0 0 1 64-64h213.333334a64 64 0 0 1 64 64v128a64 64 0 0 1-64 64h-64v52.352c0 29.461333-10.410667 54.613333-31.253334 75.434667-20.821333 20.821333-45.952 31.232-75.413333 31.232h-106.666667a20.565333 20.565333 0 0 0-15.082666 6.250667 20.565333 20.565333 0 0 0-6.250667 15.082666v32.981334h64a64 64 0 0 1 64 64v128a64 64 0 0 1-64 64h-213.333333a64 64 0 0 1-64-64v-128a64 64 0 0 1 64-64h64v-32.981334a20.565333 20.565333 0 0 0-6.250667-15.082666 20.565333 20.565333 0 0 0-15.082667-6.250667h-85.333333c-29.44 0-54.613333-10.410667-75.434667-31.232S245.333333 486.122667 245.333333 456.661333v-52.352h-85.333333a64 64 0 0 1-64-64v-128a64 64 0 0 1 64-64z m213.333334 554.666667h-170.666667v85.333333h170.666667v-85.333333z m-234.666667-469.333333h-170.666667v85.333333h170.666667v-85.333333z m469.333333 0h-170.666666v85.333333h170.666666v-85.333333z"
          p-id="6946"></path>
</svg>
