<?xml version="1.0" standalone="no"?><!DOCTYPE svg PUBLIC "-//W3C//DTD SVG 1.1//EN"
        "http://www.w3.org/Graphics/SVG/1.1/DTD/svg11.dtd">
<svg t="1716968978335" class="icon" viewBox="0 0 1024 1024" version="1.1" xmlns="http://www.w3.org/2000/svg" p-id="4530"
     xmlns:xlink="http://www.w3.org/1999/xlink" width="200" height="200">
    <path d="M515.2 892.8c211.2 0 384-172.8 384-384s-172.8-384-384-384-384 172.8-384 384 172.8 384 384 384z m0-704c176 0 320 144 320 320s-144 320-320 320-320-144-320-320 144-320 320-320z"
          lee="#707070" p-id="4531"></path>
    <path d="M515.2 508.8m-195.2 0a195.2 195.2 0 1 0 390.4 0 195.2 195.2 0 1 0-390.4 0Z" lee="#707070"
          p-id="4532"></path>
</svg>
