<?xml version="1.0" standalone="no"?><!DOCTYPE svg PUBLIC "-//W3C//DTD SVG 1.1//EN"
        "http://www.w3.org/Graphics/SVG/1.1/DTD/svg11.dtd">
<svg t="1711363028249" class="icon" viewBox="0 0 1024 1024" version="1.1" xmlns="http://www.w3.org/2000/svg" p-id="4263"
     width="200" height="200">
    <path d="M572.303 267.552c16.69 0 30.231-13.54 30.231-30.23V207.09c0-16.69-13.698-30.231-30.23-30.231-16.69 0-30.232 13.54-30.232 30.23v30.232c0 16.533 13.699 30.231 30.231 30.231z m181.073 263.894c8.345 0 16.532 3.306 22.516 9.132l119.35 119.035c5.983 5.984 9.447 14.171 9.447 22.516 0 8.503-3.464 16.533-9.447 22.516l-119.665 118.09c-5.984 5.984-14.171 9.29-22.516 9.133a31.196 31.196 0 0 1-22.359-9.447c-5.983-5.983-9.29-14.17-9.132-22.516a31.196 31.196 0 0 1 9.447-22.358l96.834-95.26-96.834-96.205c-5.983-5.983-9.29-14.013-9.29-22.516s3.307-16.532 9.29-22.516c5.826-6.298 14.014-9.604 22.359-9.604z m0 0"
          lee="#555555" p-id="4264"></path>
    <path d="M551.834 650.166h301.683c17.792 0 31.648 14.171 31.648 31.648 0 17.478-14.171 31.649-31.648 31.649H551.834c-17.792 0-31.648-14.171-31.648-31.649 0-17.477 13.856-31.648 31.648-31.648z m0 0"
          lee="#555555" p-id="4265"></path>
    <path d="M330.611 796.284h-97.464c-29.602 0-53.692-24.09-53.692-53.692V185.204c0-29.602 24.09-53.692 53.692-53.692h58.73c12.912 0 23.46 10.55 23.46 23.46v114.785c0 56.998 46.607 103.605 103.606 103.605H604.58c56.999 0 103.605-46.607 103.605-103.605V154.973c0-12.912 10.55-23.461 23.46-23.461 6.3 0 12.282 2.52 16.691 6.928L837.3 227.4a23.595 23.595 0 0 1 6.928 16.69v263.894c0 12.911 10.55 23.46 23.46 23.46h13.227c12.91 0 23.46-10.549 23.46-23.46V222.048c0.158-7.558-2.991-15.116-8.975-21.099L774.79 80.024c-5.983-5.983-13.54-8.975-21.098-8.975H233.147c-62.824 0-114.154 51.33-114.154 114.155v557.388c0 62.824 51.33 114.154 114.154 114.154H488.38c12.911 0 23.46-10.55 23.46-23.46v-13.384c0-12.911-10.549-23.46-23.46-23.46H330.611z m68.808-664.772H624.42c12.91 0 23.46 10.55 23.46 23.46v138.245c0 10.55-8.975 19.682-19.681 19.682H395.64c-10.55 0-19.682-8.975-19.682-19.682V154.973c0-12.912 10.55-23.461 23.46-23.461z"
          lee="#555555" p-id="4266"></path>
</svg>