<?xml version="1.0" standalone="no"?><!DOCTYPE svg PUBLIC "-//W3C//DTD SVG 1.1//EN" "http://www.w3.org/Graphics/SVG/1.1/DTD/svg11.dtd">
<svg t="1752550749820" class="icon" viewBox="0 0 1024 1024" version="1.1" xmlns="http://www.w3.org/2000/svg" p-id="5941"
     width="200" height="200"><path d="M908.77952 372.00384c32.6912 11.60192 56.16128 42.8032 56.16128 79.45216 0 36.74112-23.47008 67.9424-56.16128 79.45216v341.98528h-56.1664v-341.89312c-32.69632-11.60192-56.1664-42.8032-56.1664-79.45728 0-36.736 23.47008-67.93728 56.1664-79.45216V86.272h56.1664v285.73184zM566.79424 929.14688c-11.60704 32.69632-42.8032 56.16128-79.45216 56.16128-36.74112 0-67.9424-23.46496-79.45728-56.16128H65.90464v-56.1664h341.98016c11.60192-32.69632 42.8032-56.16128 79.45728-56.16128 36.736 0 67.93728 23.46496 79.45216 56.16128h285.73696v56.1664h-285.73696zM731.50464 751.87712h-665.6v-665.6h665.6v665.6zM654.69952 163.08224H142.70464v511.98976h511.99488V163.08224z" fill="#333333" p-id="5942"></path></svg>
