<?xml version="1.0" standalone="no"?><!DOCTYPE svg PUBLIC "-//W3C//DTD SVG 1.1//EN"
        "http://www.w3.org/Graphics/SVG/1.1/DTD/svg11.dtd">
<svg t="1713769124762" class="icon" viewBox="0 0 1092 1024" version="1.1" xmlns="http://www.w3.org/2000/svg" p-id="9329"
     xmlns:xlink="http://www.w3.org/1999/xlink" width="213.28125" height="200">
    <path d="M889.856 16c47.552 0 86.144 38.592 86.144 86.144V480h-83.584l0.064-375.872H136.128v756.352l334.08-0.064v83.584h-336A86.144 86.144 0 0 1 48 857.856V102.144C48 54.592 86.592 16 134.144 16h755.712z m-330.88 458.752c-3.008-16.32 6.144-22.656 20.352-14.208l386.944 231.424c14.08 8.448 12.672 18.56-3.2 22.592 0 0-78.144 19.456-133.44 42.496l87.232 130.624a17.92 17.92 0 0 1-4.608 24.576l-41.216 28.672a17.088 17.088 0 0 1-24-4.608l-87.36-130.816c-43.2 46.208-95.744 121.984-95.744 121.984-9.472 13.568-19.648 11.328-22.656-4.992z"
          fill="#63686F" p-id="9330"></path>
</svg>
