<?xml version="1.0" standalone="no"?><!DOCTYPE svg PUBLIC "-//W3C//DTD SVG 1.1//EN"
        "http://www.w3.org/Graphics/SVG/1.1/DTD/svg11.dtd">
<svg t="1734514418080" class="icon" viewBox="0 0 1024 1024" version="1.1" xmlns="http://www.w3.org/2000/svg" p-id="5476"
     xmlns:xlink="http://www.w3.org/1999/xlink" width="200" height="200">
    <path d="M819.2 918.162286H204.8v73.142857h614.4v-73.142857z m-348.16-491.52h368.64v-204.8H471.04v204.8z m61.44-143.36h245.76v81.92h-245.76v-81.92zM1024 37.522286H0v804.571428h1024v-804.571428zM73.142857 109.714286h877.714286v658.285714H73.142857V109.714286z m336.457143 214.528c0-57.344-45.056-102.4-102.4-102.4a101.412571 101.412571 0 0 0-102.4 102.4c0 57.344 45.056 102.4 102.4 102.4 57.344 0 102.4-45.056 102.4-102.4z m-102.4-40.96c22.528 0 40.96 18.432 40.96 40.96 0 22.528-18.432 40.96-40.96 40.96-22.528 0-40.96-18.432-40.96-40.96 0-22.528 18.432-40.96 40.96-40.96z m-102.4 348.16h634.88v-61.44H471.04v-20.48h368.64v-61.44H204.8v143.36z"
          lee="#888888" p-id="5477"></path>
</svg>
