<?xml version="1.0" standalone="no"?><!DOCTYPE svg PUBLIC "-//W3C//DTD SVG 1.1//EN"
        "http://www.w3.org/Graphics/SVG/1.1/DTD/svg11.dtd">
<svg t="1711363100068" class="icon" viewBox="0 0 1024 1024" version="1.1" xmlns="http://www.w3.org/2000/svg" p-id="7299"
     width="200" height="200">
    <path d="M461.824 802.816H237.056c-4.096 0-7.168-1.536-10.24-4.096-0.512-0.512-1.024-1.024-1.024-1.536-2.56-2.56-3.584-6.144-3.584-9.728v-269.824c0-8.192 6.656-14.848 14.848-14.848h262.144c49.664-57.344 123.392-93.696 205.312-93.696 76.288 0 144.896 31.232 194.56 81.92V309.248l-186.88-183.808H184.32c-32.768 0-58.88 26.624-58.88 58.88v655.36c0 32.768 26.624 58.88 58.88 58.88h357.888c-33.792-24.576-61.44-57.856-80.384-95.744zM221.696 241.664c0-8.192 6.656-14.848 14.848-14.848h381.44c8.192 0 14.848 6.656 14.848 14.848v90.112c0 8.192-6.656 14.848-14.848 14.848H237.056c-8.192 0-14.848-6.656-14.848-14.848V241.664z"
          p-id="7300"></path>
    <path d="M707.072 431.104c-137.216 0-248.32 111.104-248.32 248.32s111.104 248.32 248.32 248.32 248.32-111.104 248.32-248.32c-0.512-137.216-111.104-248.32-248.32-248.32z m99.328 342.528c-4.096 5.12-10.752 8.192-16.896 8.192-5.12 0-9.728-1.536-13.824-5.12L689.664 706.56c-5.12-4.096-8.192-10.24-8.192-16.896v-102.4c0-12.288 9.728-22.016 22.016-22.016s22.016 9.728 22.016 22.016v92.16l77.824 63.488c9.216 7.68 10.752 20.992 3.072 30.72z"
          p-id="7301"></path>
</svg>