<?xml version="1.0" standalone="no"?><!DOCTYPE svg PUBLIC "-//W3C//DTD SVG 1.1//EN" "http://www.w3.org/Graphics/SVG/1.1/DTD/svg11.dtd"><svg t="1736389537378" class="icon" viewBox="0 0 1024 1024" version="1.1" xmlns="http://www.w3.org/2000/svg" p-id="21060" xmlns:xlink="http://www.w3.org/1999/xlink" width="200" height="200"><path d="M748.238596 772.491228h-485.052631V188.631579h485.052631v244.322807l60.182457-60.182456v-188.631579c0-33.235088-26.947368-60.182456-60.182457-60.182456h-485.052631c-33.235088 0-60.182456 26.947368-60.182456 60.182456v663.803509c0 33.235088 26.947368 60.182456 60.182456 60.182456h485.950877c33.235088 0 60.182456-26.947368 60.182456-60.182456V532.659649L748.238596 592.842105v179.649123z m-242.526315 102.4c-17.066667 0-30.540351-13.473684-30.540351-30.540351s13.473684-30.540351 30.540351-30.540351 30.540351 13.473684 30.540351 30.540351-13.473684 30.540351-30.540351 30.540351z" lee="#F16B33" p-id="21061"></path><path d="M906.329825 376.364912l-20.65965-20.659649c-4.491228-4.491228-10.778947-7.185965-17.066666-7.185965s-12.575439 2.694737-17.066667 7.185965L639.550877 566.792982c-3.592982 3.592982-5.389474 8.084211-6.287719 12.575439l-8.982456 51.2c-0.898246 3.592982 1.796491 6.287719 5.389473 6.287719h0.898246l51.2-8.982456c4.491228-0.898246 8.982456-3.592982 12.575439-6.287719l211.985965-211.985965c8.982456-8.982456 8.982456-24.252632 0-33.235088zM472.477193 724.884211c17.066667 0 30.540351-13.473684 30.540351-30.540351v-37.726316c0-6.287719 5.389474-10.778947 10.778947-10.778948H592.842105c7.185965 0 13.473684-6.287719 13.473684-13.473684s-6.287719-13.473684-13.473684-13.473684h-78.147368c-20.659649 0-37.726316 17.066667-37.726316 37.726316v37.726316c0 1.796491-1.796491 3.592982-3.592982 3.592982s-3.592982-1.796491-3.592983-3.592982v-84.435088c0-19.761404-16.168421-35.929825-35.929824-35.929825s-35.929825 16.168421-35.929825 35.929825v29.642105c0 4.491228-3.592982 8.982456-8.982456 8.982456h-80.842105c-7.185965 0-13.473684 6.287719-13.473685 13.473685s6.287719 13.473684 13.473685 13.473684h80.842105c19.761404 0 35.929825-16.168421 35.929824-35.929825v-29.642105c0-4.491228 3.592982-8.982456 8.982457-8.982456s8.982456 3.592982 8.982456 8.982456v84.435088c-0.898246 17.066667 12.575439 30.540351 29.642105 30.540351z" lee="#F16B33" p-id="21062"></path></svg>
