<?xml version="1.0" standalone="no"?><!DOCTYPE svg PUBLIC "-//W3C//DTD SVG 1.1//EN"
        "http://www.w3.org/Graphics/SVG/1.1/DTD/svg11.dtd">
<svg t="1693669124305" class="icon" viewBox="0 0 1024 1024" version="1.1" xmlns="http://www.w3.org/2000/svg"
     p-id="12769"
     width="200" height="200">
    <path d="M384 682.581333c54.272 0 102.698667 34.218667 120.746667 85.418667H896a42.666667 42.666667 0 0 1 0 85.333333h-391.253333a128.042667 128.042667 0 0 1-241.493334 0H128a42.666667 42.666667 0 0 1 0-85.333333h135.253333A128.042667 128.042667 0 0 1 384 682.581333z m256-298.666666c54.272 0 102.698667 34.218667 120.746667 85.418666H896a42.666667 42.666667 0 0 1 0 85.333334h-135.253333a128.042667 128.042667 0 0 1-241.493334 0H128a42.666667 42.666667 0 0 1 0-85.333334h391.253333A128.042667 128.042667 0 0 1 640 383.914667zM263.253333 170.666667a128.042667 128.042667 0 0 1 241.493334 0H896a42.666667 42.666667 0 0 1 0 85.333333h-391.253333a128.042667 128.042667 0 0 1-241.493334 0H128a42.666667 42.666667 0 1 1 0-85.333333h135.253333zM384 256a42.666667 42.666667 0 1 0 0-85.333333 42.666667 42.666667 0 0 0 0 85.333333z m256 298.666667a42.666667 42.666667 0 1 0 0-85.333334 42.666667 42.666667 0 0 0 0 85.333334z m-256 298.666666a42.666667 42.666667 0 1 0 0-85.333333 42.666667 42.666667 0 0 0 0 85.333333z"
          lee="#5D6E7F" p-id="12770"></path>
</svg>