<?xml version="1.0" standalone="no"?><!DOCTYPE svg PUBLIC "-//W3C//DTD SVG 1.1//EN" "http://www.w3.org/Graphics/SVG/1.1/DTD/svg11.dtd"><svg t="1724804097861" class="icon" viewBox="0 0 1024 1024" version="1.1" xmlns="http://www.w3.org/2000/svg" p-id="7581" xmlns:xlink="http://www.w3.org/1999/xlink" width="200" height="200"><path d="M928 64H96c-17.6 0-32 14.4-32 32v346.6c0 17.6 14.4 32 32 32h832c17.6 0 32-14.4 32-32V96c0-17.6-14.4-32-32-32z m-32 346.6H128V128h768v282.6zM442.6 549.4H96c-17.6 0-32 14.4-32 32V928c0 17.6 14.4 32 32 32h346.6c17.6 0 32-14.4 32-32V581.4c0-17.8-14.2-32-32-32z m-32 346.6H128V613.4h282.6V896zM928 643H582.4c-17.6 0-32 14.4-32 32s14.4 32 32 32H928c17.6 0 32-14.4 32-32s-14.4-32-32-32zM928 802.4H582.4c-17.6 0-32 14.4-32 32s14.4 32 32 32H928c17.6 0 32-14.4 32-32s-14.4-32-32-32z" lee="#999999" p-id="7582"></path></svg>
