<?xml version="1.0" standalone="no"?><!DOCTYPE svg PUBLIC "-//W3C//DTD SVG 1.1//EN"
        "http://www.w3.org/Graphics/SVG/1.1/DTD/svg11.dtd">
<svg t="1692168656233" class="icon" viewBox="0 0 1024 1024" version="1.1" xmlns="http://www.w3.org/2000/svg"
     p-id="11344"
     width="200" height="200">
    <path d="M936.89839 0.148458H87.10161A27.302708 27.302708 0 0 0 56.95487 27.451166v735.466691a27.302708 27.302708 0 0 0 27.302708 27.302708h398.164489V967.119359H302.110434a27.302708 27.302708 0 1 0 0 56.880641h419.210326a27.302708 27.302708 0 0 0 0-56.880641h-182.018052v-176.329988h398.164488a27.302708 27.302708 0 0 0 27.302708-27.302708V27.451166a27.302708 27.302708 0 0 0-27.871514-27.302708zM910.164488 735.615149H113.835512V57.0291h796.328976z"
          p-id="11345"></path>
    <path d="M337.376432 424.478042h35.834803a126.275023 126.275023 0 0 0 22.752257 51.761383l-25.027482 25.027482a26.733901 26.733901 0 0 0 0 38.678836 22.752256 22.752256 0 0 0 18.201805 7.394484 27.871514 27.871514 0 0 0 19.339418-7.394484L433.504715 512.074229a133.1007 133.1007 0 0 0 52.898996 21.614644V568.95487a26.733901 26.733901 0 0 0 53.467803 0v-34.128384a134.80712 134.80712 0 0 0 52.898996-22.752257l25.027483 25.027482a22.752256 22.752256 0 0 0 18.201805 7.394484 27.871514 27.871514 0 0 0 19.339418-7.394484 26.733901 26.733901 0 0 0 0-38.678836l-25.027482-25.027482a163.24744 163.24744 0 0 0 21.614643-52.898996h35.265998a26.733901 26.733901 0 1 0 0-53.467803h-35.834804a134.80712 134.80712 0 0 0-22.752257-52.898996l26.165095-26.165095a25.596289 25.596289 0 0 0 0-37.541223 27.302708 27.302708 0 0 0-38.678836 0l-26.165095 26.165095a137.082345 137.082345 0 0 0-53.467802-21.614644v-35.265998a26.733901 26.733901 0 0 0-53.467803 0v36.403611a138.219958 138.219958 0 0 0-51.761383 22.752256l-25.027483-25.027482a27.302708 27.302708 0 0 0-38.678836 0 26.733901 26.733901 0 0 0 0 37.541223l26.165095 26.165095a145.614441 145.614441 0 0 0-21.045837 52.898997h-36.40361a26.733901 26.733901 0 0 0-26.733902 27.871514 27.871514 27.871514 0 0 0 27.871515 26.165095zM512 307.872727A88.164994 88.164994 0 1 1 423.835006 398.312947 88.7338 88.7338 0 0 1 512 307.872727z"
          p-id="11346"></path>
</svg>