<?xml version="1.0" standalone="no"?><!DOCTYPE svg PUBLIC "-//W3C//DTD SVG 1.1//EN"
        "http://www.w3.org/Graphics/SVG/1.1/DTD/svg11.dtd">
<svg t="1692168690893" class="icon" viewBox="0 0 1024 1024" version="1.1" xmlns="http://www.w3.org/2000/svg"
     p-id="12061"
     width="200" height="200">
    <path d="M972.8 0H51.2A51.2 51.2 0 0 0 0 51.2v682.654897a51.2 51.2 0 0 0 51.2 51.2h370.334897a154.412138 154.412138 0 0 1-99.469242 102.4H307.2A68.254897 68.254897 0 0 0 307.2 1024h409.6a68.254897 68.254897 0 0 0 0-136.545103h-14.795034a154.412138 154.412138 0 0 1-99.469242-102.4H972.8a51.2 51.2 0 0 0 51.2-51.2V51.2A51.2 51.2 0 0 0 972.8 0zM34.145103 51.2A17.054897 17.054897 0 0 1 51.2 34.145103h170.654897v614.4H34.145103zM716.8 921.6a34.145103 34.145103 0 0 1 0 68.254897H307.2a34.145103 34.145103 0 1 1 0-68.254897z m-84.744828-34.145103h-240.110344a193.853793 193.853793 0 0 0 65.006344-102.4h110.168276a193.853793 193.853793 0 0 0 64.935724 102.4z m357.799725-153.6a17.054897 17.054897 0 0 1-17.054897 17.054896H51.2a17.054897 17.054897 0 0 1-17.054897-17.054896v-51.2h955.709794v51.2z m0-85.345104H256V34.145103h716.8a17.054897 17.054897 0 0 1 17.054897 17.054897v597.345103z"
          lee="#364A68" p-id="12062"></path>
    <path d="M85.309793 102.36469h17.054897a17.054897 17.054897 0 1 0 0-34.145104h-17.054897a17.054897 17.054897 0 0 0 0 34.145104z"
          lee="#364A68" p-id="12063"></path>
    <path d="M170.654897 136.545103H85.309793a17.054897 17.054897 0 0 0 0 34.145104h85.345104a17.054897 17.054897 0 1 0 0-34.145104z"
          lee="#364A68" p-id="12064"></path>
    <path d="M170.654897 204.8H85.309793a17.054897 17.054897 0 1 0 0 34.145103h85.345104a17.054897 17.054897 0 1 0 0-34.145103z"
          lee="#364A68" p-id="12065"></path>
    <path d="M170.654897 273.054897H85.309793a17.054897 17.054897 0 0 0 0 34.145103h85.345104a17.054897 17.054897 0 1 0 0-34.145103z"
          lee="#364A68" p-id="12066"></path>
    <path d="M170.654897 341.345103H85.309793a17.054897 17.054897 0 1 0 0 34.145104h85.345104a17.054897 17.054897 0 1 0 0-34.145104z"
          lee="#364A68" p-id="12067"></path>
    <path d="M443.745103 85.345103H324.290207a34.145103 34.145103 0 0 0-34.145104 34.145104v426.654896a34.145103 34.145103 0 0 0 34.145104 34.145104h119.454896a34.145103 34.145103 0 0 0 34.145104-34.145104V119.490207a34.145103 34.145103 0 0 0-34.145104-34.145104z m0 460.8H324.290207v-68.254896h119.454896z m0-102.4H324.290207v-51.2h119.454896z m0-85.345103H324.290207V307.2h119.454896z m0-85.345103H324.290207v-51.2h119.454896z m0-85.345104H324.290207V119.490207h119.454896z"
          lee="#364A68" p-id="12068"></path>
    <path d="M682.654897 85.345103H563.2a34.145103 34.145103 0 0 0-34.145103 34.145104v256a34.145103 34.145103 0 0 0 34.145103 34.145103h119.454897a34.145103 34.145103 0 0 0 34.145103-34.145103v-256a34.145103 34.145103 0 0 0-34.145103-34.145104z m0 290.145104H563.2V307.2h119.454897z m0-102.4H563.2v-51.2h119.454897z m0-85.345104H563.2V119.490207h119.454897z"
          lee="#364A68" p-id="12069"></path>
    <path d="M921.6 85.345103h-119.454897a34.145103 34.145103 0 0 0-34.145103 34.145104v341.309793a34.145103 34.145103 0 0 0 34.145103 34.145103H921.6a34.145103 34.145103 0 0 0 34.145103-34.145103V119.490207a34.145103 34.145103 0 0 0-34.145103-34.145104z m0 375.454897h-119.454897v-68.254897H921.6z m0-102.4h-119.454897V307.2H921.6z m0-85.345103h-119.454897v-51.2H921.6z m0-85.345104h-119.454897V119.490207H921.6z"
          lee="#364A68" p-id="12070"></path>
</svg>