<?xml version="1.0" standalone="no"?><!DOCTYPE svg PUBLIC "-//W3C//DTD SVG 1.1//EN"
        "http://www.w3.org/Graphics/SVG/1.1/DTD/svg11.dtd">
<svg t="1692169443058" class="icon" viewBox="0 0 1024 1024" version="1.1" xmlns="http://www.w3.org/2000/svg" p-id="8688"
     width="200" height="200">
    <path d="M624.309677 841.00129H397.708387c-13.212903 0-23.783226-10.570323-23.783226-23.783225V292.665806c0-13.212903 10.570323-23.783226 23.783226-23.783225h333.625807c13.212903 0 23.783226 10.570323 23.783225 23.783225v272.185807c0 13.212903 10.570323 23.783226 23.783226 23.783226s23.783226-10.570323 23.783226-23.783226V292.665806c0-39.63871-31.710968-71.349677-71.349677-71.349677H397.708387c-39.63871 0-71.349677 31.710968-71.349677 71.349677v524.552259c0 39.63871 31.710968 71.349677 71.349677 71.349677h227.261936c13.212903 0 23.783226-10.570323 23.783225-23.783226-0.660645-13.212903-11.230968-23.783226-24.443871-23.783226z"
          p-id="8689"></path>
    <path d="M714.157419 818.539355l64.743226 64.743226 64.743226-64.743226c9.249032-9.249032 9.249032-24.443871 0-33.692903-9.249032-9.249032-24.443871-9.249032-33.692903 0l-31.050323 31.050322-31.050322-31.050322c-9.249032-9.249032-24.443871-9.249032-33.692904 0-9.249032 9.249032-9.249032 24.443871 0 33.692903z"
          p-id="8690"></path>
    <path d="M802.683871 833.073548V673.858065c0-13.212903-10.570323-23.783226-23.783226-23.783226s-23.783226 10.570323-23.783226 23.783226v159.215483c0 13.212903 10.570323 23.783226 23.783226 23.783226s23.783226-10.570323 23.783226-23.783226"
          p-id="8691"></path>
    <path d="M349.48129 714.157419h-47.566451c-13.212903 0-23.783226-10.570323-23.783226-23.783225V197.532903c0-13.212903 10.570323-23.783226 23.783226-23.783226h301.914838c13.212903 0 23.783226 10.570323 23.783226 23.783226v47.566452c0 13.212903 10.570323 23.783226 23.783226 23.783226s23.783226-10.570323 23.783226-23.783226v-47.566452c0-39.63871-31.710968-71.349677-71.349678-71.349677H301.914839c-39.63871 0-71.349677 31.710968-71.349678 71.349677v492.841291c0 39.63871 31.710968 71.349677 71.349678 71.349677h47.566451c13.212903 0 23.783226-10.570323 23.783226-23.783226s-10.570323-23.783226-23.783226-23.783226z"
          p-id="8692"></path>
    <path d="M445.274839 412.242581h238.492903c13.212903 0 23.783226-10.570323 23.783226-23.783226s-10.570323-23.783226-23.783226-23.783226H445.274839c-13.212903 0-23.783226 10.570323-23.783226 23.783226 0 12.552258 10.570323 23.783226 23.783226 23.783226"
          p-id="8693"></path>
    <path d="M445.274839 554.941935h238.492903c13.212903 0 23.783226-10.570323 23.783226-23.783225s-10.570323-23.783226-23.783226-23.783226H445.274839c-13.212903 0-23.783226 10.570323-23.783226 23.783226s10.570323 23.783226 23.783226 23.783225"
          p-id="8694"></path>
    <path d="M445.274839 698.301935H587.974194c13.212903 0 23.783226-10.570323 23.783225-23.783225S601.187097 650.735484 587.974194 650.735484H445.274839c-13.212903 0-23.783226 10.570323-23.783226 23.783226s10.570323 23.783226 23.783226 23.783225"
          p-id="8695"></path>
</svg>