<?xml version="1.0" standalone="no"?><!DOCTYPE svg PUBLIC "-//W3C//DTD SVG 1.1//EN" "http://www.w3.org/Graphics/SVG/1.1/DTD/svg11.dtd"><svg t="1734676283020" class="icon" viewBox="0 0 1131 1024" version="1.1" xmlns="http://www.w3.org/2000/svg" p-id="2334" xmlns:xlink="http://www.w3.org/1999/xlink" width="220.8984375" height="200"><path d="M269.473684 323.368421H80.842105a80.842105 80.842105 0 0 1-80.842105-80.842105V80.842105a80.842105 80.842105 0 0 1 80.842105-80.842105h808.421053a80.842105 80.842105 0 0 1 80.842105 80.842105v161.684211a80.842105 80.842105 0 0 1-80.842105 80.842105H377.263158v80.842105h673.68421a80.842105 80.842105 0 0 1 80.842106 80.842106v107.789473a80.842105 80.842105 0 0 1-80.842106 80.842106H377.263158v80.842105h673.68421a80.842105 80.842105 0 0 1 80.842106 80.842105v107.789474a80.842105 80.842105 0 0 1-80.842106 80.842105H350.315789a80.842105 80.842105 0 0 1-80.842105-80.842105V323.368421z m754.526316 538.947368H377.263158v53.894737h646.736842v-53.894737z m0-350.315789H377.263158v53.894737h646.736842v-53.894737zM862.315789 107.789474H107.789474v107.789473h754.526315V107.789474z" lee="#878F95" p-id="2335"></path></svg>
