<?xml version="1.0" standalone="no"?><!DOCTYPE svg PUBLIC "-//W3C//DTD SVG 1.1//EN"
        "http://www.w3.org/Graphics/SVG/1.1/DTD/svg11.dtd">
<svg t="1693041680998" class="icon" viewBox="0 0 1024 1024" version="1.1" xmlns="http://www.w3.org/2000/svg" p-id="7153"
     width="200" height="200">
    <path d="M812.8 804H211.2c-32 0-57.6-25.6-57.6-57.6V612.8c0-32 25.6-57.6 57.6-57.6h601.6c32 0 57.6 25.6 57.6 56.8v134.4c0 32-25.6 57.6-57.6 57.6zM211.2 603.2c-4.8 0-9.6 4.8-9.6 9.6v133.6c0 4.8 4.8 9.6 9.6 9.6h601.6c4.8 0 9.6-4.8 9.6-9.6V612c0-4.8-4-8.8-9.6-8.8H211.2z m468-133.6H344.8c-32 0-57.6-25.6-57.6-57.6V278.4c0-32 25.6-57.6 57.6-57.6h334.4c32 0 57.6 25.6 57.6 57.6v133.6c0 32-25.6 57.6-57.6 57.6zM344.8 268.8c-4.8 0-9.6 4.8-9.6 9.6v133.6c0 4.8 4.8 9.6 9.6 9.6h334.4c4.8 0 9.6-4.8 9.6-9.6V278.4c0-4.8-4.8-9.6-9.6-9.6H344.8z"
          lee="#999999" p-id="7154"></path>
    <path d="M512 268.8c-13.6 0-24-10.4-24-24V129.6c0-13.6 10.4-24 24-24s24 10.4 24 24v115.2c0 13.6-10.4 24-24 24zM512 588c-13.6 0-24-10.4-24-24V448.8c0-13.6 10.4-24 24-24s24 10.4 24 24v115.2c0 13.6-10.4 24-24 24zM512 921.6c-13.6 0-24-10.4-24-24V783.2c0-13.6 10.4-24 24-24s24 10.4 24 24v114.4c0 13.6-10.4 24-24 24z"
          lee="#999999" p-id="7155"></path>
</svg>