<?xml version="1.0" standalone="no"?><!DOCTYPE svg PUBLIC "-//W3C//DTD SVG 1.1//EN"
        "http://www.w3.org/Graphics/SVG/1.1/DTD/svg11.dtd">
<svg t="1734514388592" class="icon" viewBox="0 0 1024 1024" version="1.1" xmlns="http://www.w3.org/2000/svg" p-id="3579"
     width="200" height="200">
    <path d="M302.9376 650.7776h610.7136l90.7904-285.4528H403.9296l14.9248 16h562.624l-80.5248 253.4144h-575.104z"
          fill="#EA5532" p-id="3580"></path>
    <path d="M472.192 562.9312l-0.192 0.5632c0 0.256 0.2304 0.3712 0.4352 0.3072l0.0128-0.0128-0.256-0.8576z"
          fill="#EB4F38" p-id="3581"></path>
    <path d="M512.9216 603.776l-16.9856-178.5728h43.7376l10.2784 132.16 89.1776-132.16h42.7776L555.9936 603.776h-43.072zM646.848 603.776l54.4-178.5728h40.3456l-54.4 178.5728h-40.3456zM725.6064 603.776l54.4128-178.5728h64.7168c24.512 0 40.2304 0.896 47.1424 2.688 10.6368 2.6752 18.432 8.512 23.424 17.4848 4.992 8.96 5.312 20.544 0.9856 34.7648-3.3536 10.9696-8.3712 20.1856-15.104 27.6608a79.4496 79.4496 0 0 1-22.336 17.6c-8.1536 4.2496-15.9872 7.0912-23.5008 8.4608-10.1376 1.7152-24.32 2.5472-42.5728 2.5472h-26.3168l-20.5184 67.3792h-40.3328z m85.5296-148.352l-15.4368 50.6624h22.0672c15.8848 0 26.8032-0.9216 32.7424-2.8032a39.424 39.424 0 0 0 15.2704-8.768c4.2624-3.9808 7.1936-8.6144 8.8064-13.8752 1.984-6.5152 1.472-11.8528-1.5104-16.0896-2.9696-4.224-7.5776-6.8608-13.7984-7.9104-4.5696-0.8064-14.1184-1.216-28.6464-1.216H811.136z"
          fill="#EB4F38" p-id="3582"></path>
    <path d="M286.2336 439.04l-39.1552-53.9008-1.9968-0.0384-40.1408 53.9392zM395.6096 439.04l-48.6784-71.5776h-84.1216l52.0192 71.5776zM241.6896 648.6784c-0.0384 0.1024-0.1536 0.1792-0.2688 0.2304v0.0128h-0.0256l0.0256 0.064c0 0.4992-0.7296 0.6144-0.9088 0.1408l-62.3488-184.6656h-83.2l146.4064 187.2256 153.9968-187.2256h-81.4592l-72.2176 184.2176zM228.9792 367.4624h-82.5728L95.1808 439.04h80.4736z"
          fill="#EB4F38" p-id="3583"></path>
    <path d="M240.3712 728.192L15.6416 441.3952l91.5072-126.8992h282.9312l82.688 137.7152L240.3712 728.192zM46.912 440.768l194.1504 247.7952 201.088-238.8096-66.2144-110.2592h-256l-73.024 101.2736z"
          fill="#EB4F38" p-id="3584"></path>
    <path d="M242.4832 602.4064l45.12-137.9712h-82.816z" fill="#EB4F38" p-id="3585"></path>
</svg>
