<?xml version="1.0" standalone="no"?><!DOCTYPE svg PUBLIC "-//W3C//DTD SVG 1.1//EN"
        "http://www.w3.org/Graphics/SVG/1.1/DTD/svg11.dtd">
<svg t="1692168590285" class="icon" viewBox="0 0 1030 1024" version="1.1" xmlns="http://www.w3.org/2000/svg" p-id="9750"
     width="201.171875" height="200">
    <path d="M172.8 217.6c-12.8-12.8-12.8-32 0-44.8 12.8-12.8 32-12.8 44.8 0l44.8 44.8c25.6 25.6 25.6 64 0 89.6L217.6 352c-12.8 12.8-32 12.8-44.8 0-12.8-12.8-12.8-32 0-44.8l44.8-44.8-44.8-44.8z m198.4 12.8h128c19.2 0 32 12.8 32 32s-12.8 32-32 32h-128c-19.2 0-32-12.8-32-32s12.8-32 32-32z"
          lee="#0080CC" p-id="9751"></path>
    <path d="M102.4 652.8c-25.6 0-38.4-19.2-38.4-38.4V115.2c0-32 19.2-51.2 44.8-51.2h748.8c25.6 0 44.8 19.2 44.8 44.8v166.4l64 32V64c0-38.4-25.6-64-64-64H64C32 0 0 25.6 0 64v588.8c0 38.4 25.6 64 64 64h473.6v-64H102.4zM256 832v64h518.4v-64H256z"
          p-id="9752"></path>
    <path d="M998.4 569.6h-44.8c-6.4 25.6-12.8 51.2-32 70.4l32 32c6.4 6.4 6.4 19.2 0 32s-19.2 6.4-32 0L896 672c-19.2 12.8-44.8 25.6-70.4 32v44.8c0 12.8-12.8 25.6-25.6 25.6s-25.6-12.8-25.6-25.6V704c-25.6-6.4-51.2-12.8-70.4-32l-32 32c-6.4 6.4-12.8 6.4-19.2 6.4s-19.2-6.4-19.2-19.2 0-19.2 6.4-19.2l32-32c-12.8-19.2-25.6-44.8-32-70.4h-38.4c-12.8 0-25.6-12.8-25.6-25.6s12.8-25.6 25.6-25.6h44.8c6.4-25.6 12.8-51.2 32-70.4L640 416c-6.4-6.4-6.4-19.2 0-32s19.2-6.4 32 0l32 32c19.2-12.8 44.8-25.6 70.4-32v-44.8c0-12.8 12.8-19.2 25.6-19.2s25.6 12.8 25.6 19.2V384c25.6 6.4 51.2 12.8 70.4 32l32-32c6.4-6.4 12.8-6.4 19.2-6.4s12.8 6.4 19.2 19.2 0 19.2-6.4 19.2l-32 32c12.8 19.2 25.6 44.8 32 70.4h44.8c12.8 0 25.6 12.8 25.6 25.6s-19.2 25.6-32 25.6zM800 640c51.2 0 96-44.8 96-96 0-38.4-25.6-76.8-57.6-89.6-38.4-12.8-76.8-6.4-102.4 19.2-25.6 25.6-38.4 70.4-19.2 102.4 6.4 38.4 44.8 64 83.2 64z"
          p-id="9753"></path>
</svg>