<?xml version="1.0" standalone="no"?><!DOCTYPE svg PUBLIC "-//W3C//DTD SVG 1.1//EN"
        "http://www.w3.org/Graphics/SVG/1.1/DTD/svg11.dtd">
<svg t="1692168676137" class="icon" viewBox="0 0 1024 1024" version="1.1" xmlns="http://www.w3.org/2000/svg"
     p-id="11774"
     width="200" height="200">
    <path d="M896 0a128 128 0 0 1 128 128v768a128 128 0 0 1-128 128H128a128 128 0 0 1-128-128V128a128 128 0 0 1 128-128h768z m0 48H128a80 80 0 0 0-79.84 74.752L48 128v768a80 80 0 0 0 74.752 79.84L128 976h768a80 80 0 0 0 79.84-74.752L976 896V128a80 80 0 0 0-74.752-79.84L896 48z"
          lee="#979797" p-id="11775"></path>
    <path d="M449.024 364.224c-28.48 0-51.52 22.912-51.52 51.072 0 28.224 23.04 51.072 51.52 51.072 28.48 0 51.52-22.848 51.52-51.072 0-28.16-23.04-51.072-51.52-51.072z m180.288 244.8l14.56-14.464a40.576 40.576 0 0 0 0-57.76l-25.184-24.928c8.128-13.984 14.464-28.96 18.944-44.864h27.2c22.72 0 41.216-18.304 41.216-40.864V405.76c0-22.56-18.464-40.896-41.248-40.896h-26.88a190.784 190.784 0 0 0-18.24-44.512l24.192-23.936c16.128-16 16.128-41.888 0-57.792l-14.56-14.464a41.504 41.504 0 0 0-58.304 0l-23.744 23.488a196.096 196.096 0 0 0-46.72-19.36v-27.424C500.544 178.24 482.08 160 459.328 160H438.72C416 160 397.504 178.272 397.504 200.832v27.456a197.152 197.152 0 0 0-46.72 19.36l-23.744-23.488a41.504 41.504 0 0 0-58.304 0l-14.56 14.464a40.608 40.608 0 0 0 0 57.76l24.192 23.936a191.552 191.552 0 0 0-18.24 44.544h-26.88C210.432 364.864 192 383.168 192 405.728v20.448c0 22.528 18.432 40.832 41.216 40.832h27.2c4.448 15.904 10.784 30.88 18.88 44.864l-25.12 24.96a40.608 40.608 0 0 0 0 57.76l14.56 14.4a41.504 41.504 0 0 0 58.304 0l25.312-25.056c14.08 7.904 29.184 14.08 45.12 18.368v26.176c0 22.56 18.464 40.832 41.248 40.832h20.608c22.752 0 41.216-18.272 41.216-40.832v-26.176a194.144 194.144 0 0 0 45.12-18.368l25.344 25.056a41.504 41.504 0 0 0 58.304 0z m-180.288-80.128c-62.592 0-113.376-50.304-113.376-112.32 0-62.08 50.784-112.32 113.376-112.32 62.624 0 113.376 50.24 113.376 112.32 0 62.016-50.752 112.32-113.376 112.32z m362.976 219.456h-13.024a91.648 91.648 0 0 0-8.832-21.6l11.68-11.648a19.616 19.616 0 0 0 0-28.032l-7.04-7.008a20.16 20.16 0 0 0-28.32 0l-11.456 11.424a95.04 95.04 0 0 0-22.656-9.408V668.8c0-10.976-8.96-19.84-20-19.84h-9.984a19.872 19.872 0 0 0-20 19.84v13.28a94.848 94.848 0 0 0-22.72 9.408l-11.52-11.424a20.128 20.128 0 0 0-28.224 0l-7.104 7.008a19.776 19.776 0 0 0 0 28.032l11.744 11.648c-3.808 6.72-6.752 13.952-8.864 21.6h-13.024a19.904 19.904 0 0 0-20 19.808v9.888c0 10.944 8.992 19.808 20 19.808h13.216c2.144 7.712 5.248 15.008 9.152 21.76l-12.224 12.096a19.776 19.776 0 0 0 0 28.032l7.104 6.976c7.808 7.776 20.48 7.776 28.256 0l12.32-12.16c6.784 3.84 14.112 6.848 21.888 8.928v12.704c0 10.912 8.928 19.808 20 19.808h9.984a19.936 19.936 0 0 0 20-19.84v-12.672c7.68-2.08 15.04-5.088 21.888-8.896l12.224 12.128c7.872 7.776 20.48 7.776 28.32 0l7.04-6.976a19.616 19.616 0 0 0 0-28.032l-12.16-12.064c3.904-6.784 6.976-14.08 9.12-21.792h13.216a19.872 19.872 0 0 0 20-19.84v-9.856a19.84 19.84 0 0 0-20-19.84z m-104.64 79.552a54.72 54.72 0 0 1-55.008-54.496c0-30.08 24.64-54.496 55.04-54.496 30.336 0 54.976 24.416 54.976 54.496 0 30.08-24.64 54.496-55.008 54.496z m0-79.872a24.864 24.864 0 0 0-24.96 24.768c0 13.696 11.136 24.736 24.96 24.736a24.864 24.864 0 0 0 24.992-24.736 24.896 24.896 0 0 0-24.96-24.768z"
          lee="#979797" p-id="11776"></path>
</svg>