<?xml version="1.0" standalone="no"?>
<!DOCTYPE svg PUBLIC "-//W3C//DTD SVG 20010904//EN"
        "http://www.w3.org/TR/2001/REC-SVG-20010904/DTD/svg10.dtd">
<svg version="1.0" xmlns="http://www.w3.org/2000/svg"
     width="1082.000000pt" height="1071.000000pt" viewBox="0 0 1082.000000 1071.000000"
     preserveAspectRatio="xMidYMid meet">

    <g transform="translate(0.000000,1071.000000) scale(0.100000,-0.100000)"
       lee="#000000" stroke="none">
        <path d="M5378 10592 l-14 -47 -54 -3 c-30 -2 -59 -7 -63 -12 -5 -4 12 -20 37
-35 51 -30 55 -44 31 -102 -30 -72 -12 -83 47 -26 41 40 36 41 110 -19 37 -29
44 -18 24 37 -22 55 -16 76 35 115 21 18 39 35 39 40 0 4 -26 6 -59 3 l-58 -6
-18 46 c-24 64 -41 67 -57 9z"/>
        <path d="M4947 10613 c-3 -5 -10 -27 -17 -51 l-11 -43 -56 3 c-74 4 -78 -11
-14 -57 28 -20 51 -39 51 -42 0 -3 -7 -30 -16 -60 -10 -33 -12 -59 -7 -64 5
-5 30 9 62 36 l53 45 43 -30 c43 -30 65 -37 65 -22 0 4 -14 31 -30 61 -28 51
-29 55 -12 70 9 9 28 29 42 45 l25 28 -59 -4 -58 -5 -21 49 c-19 46 -30 57
-40 41z"/>
        <path d="M5838 10575 c-22 -45 -22 -45 -73 -45 -29 0 -55 -3 -59 -7 -4 -4 14
-26 39 -48 l46 -40 -25 -55 c-34 -72 -21 -83 44 -35 55 40 52 41 112 -13 40
-36 49 -21 28 48 l-18 61 49 33 c27 18 46 36 42 39 -3 4 -30 7 -59 7 l-52 0
-17 50 c-9 28 -21 50 -26 50 -5 0 -19 -20 -31 -45z"/>
        <path d="M4487 10563 c-4 -3 -7 -18 -7 -32 0 -62 -8 -69 -76 -76 -35 -4 -64
-12 -64 -17 0 -5 25 -21 56 -35 54 -24 56 -26 49 -57 -23 -113 -18 -118 50
-55 l45 41 45 -27 c63 -36 81 -31 56 15 -49 88 -49 76 5 132 l49 51 -45 -7
c-25 -3 -54 -8 -65 -11 -16 -5 -26 4 -47 40 -27 44 -38 52 -51 38z"/>
        <path d="M6301 10539 c-12 -19 -21 -40 -21 -48 0 -14 -14 -13 -97 5 -42 8 -42
-6 -2 -43 50 -46 52 -55 19 -107 -17 -26 -30 -51 -30 -56 0 -17 33 -10 80 15
l45 23 47 -46 c26 -25 51 -43 55 -39 4 4 1 29 -6 55 -7 26 -15 54 -17 62 -3
10 14 26 46 45 27 16 50 32 50 36 0 12 -29 19 -75 19 l-42 0 -6 46 c-7 64 -21
74 -46 33z"/>
        <path d="M4024 10413 c-4 -32 -12 -61 -18 -65 -6 -4 -30 -8 -53 -8 -31 0 -43
-4 -43 -15 0 -8 19 -24 43 -36 65 -33 66 -34 55 -85 -17 -79 -3 -86 51 -24
l48 54 53 -22 c30 -12 57 -19 62 -14 5 5 -7 29 -27 55 -19 25 -35 49 -35 54 0
4 13 28 30 53 16 25 26 48 21 53 -5 5 -27 -1 -51 -13 -23 -12 -48 -19 -56 -16
-7 3 -22 23 -34 46 -11 22 -24 40 -29 40 -5 0 -13 -26 -17 -57z"/>
        <path d="M6750 10430 c-36 -45 -54 -49 -111 -20 -55 29 -61 6 -15 -55 20 -25
36 -52 36 -58 -1 -7 -14 -28 -30 -47 -29 -33 -39 -60 -22 -60 5 0 30 7 56 16
l48 16 42 -41 c23 -22 45 -41 50 -41 4 0 5 26 1 58 -7 66 -3 74 60 95 53 19
54 34 3 47 -24 6 -49 13 -55 15 -8 3 -13 23 -13 54 0 27 -4 52 -9 55 -5 4 -24
-12 -41 -34z"/>
        <path d="M3606 10342 c-4 -6 -4 -33 0 -60 7 -57 4 -61 -66 -69 -72 -8 -66 -37
13 -62 41 -14 40 -12 37 -93 -2 -66 8 -73 41 -25 12 17 31 42 42 54 19 21 19
21 60 2 75 -33 86 -21 37 41 -16 21 -30 42 -30 47 0 4 16 31 34 59 19 29 33
54 30 57 -3 3 -28 -5 -56 -17 l-50 -21 -43 49 c-26 30 -45 45 -49 38z"/>
        <path d="M7159 10300 l-34 -41 -52 27 c-29 15 -55 25 -58 22 -8 -8 35 -98 46
-98 21 0 6 -43 -27 -80 -20 -21 -33 -43 -30 -48 3 -5 26 -5 53 -1 79 13 82 12
105 -36 31 -63 46 -58 50 17 l3 61 45 16 c89 31 91 44 13 62 l-58 14 -1 60
c-1 32 -6 61 -11 62 -5 2 -25 -15 -44 -37z"/>
        <path d="M7630 10153 c-14 -9 -36 -28 -50 -40 -31 -28 -31 -28 -76 2 -66 45
-81 29 -39 -40 31 -51 31 -54 -5 -100 -41 -51 -40 -69 3 -59 66 16 88 11 107
-23 43 -79 60 -78 60 6 l0 57 52 10 c28 5 53 14 55 20 2 6 -19 21 -47 33 -54
23 -57 30 -39 94 14 51 9 61 -21 40z"/>
        <path d="M3181 10094 c2 -73 -1 -77 -63 -94 -21 -6 -38 -17 -38 -25 0 -9 15
-17 38 -20 70 -12 70 -13 77 -70 4 -30 11 -55 17 -55 5 0 17 14 26 31 38 69
41 71 99 58 29 -7 56 -9 60 -6 3 4 -5 20 -19 35 -14 15 -33 39 -42 53 -15 24
-15 27 14 72 48 77 37 87 -38 35 l-46 -31 -36 41 c-19 23 -39 42 -43 42 -5 0
-7 -30 -6 -66z"/>
        <path d="M2777 9893 c3 -27 7 -54 7 -62 1 -9 -17 -20 -46 -28 -27 -8 -48 -20
-48 -27 0 -6 26 -18 58 -26 l57 -15 11 -58 c7 -32 14 -61 17 -64 11 -11 25 8
43 57 l18 49 58 -6 c32 -3 58 -2 58 2 0 4 -16 25 -35 46 -40 44 -41 53 -19
109 9 23 13 44 10 48 -7 6 -11 4 -64 -35 l-30 -23 -45 40 c-25 22 -48 40 -51
40 -3 0 -3 -21 1 -47z"/>
        <path d="M7988 9905 l-38 -35 -41 30 c-69 50 -83 36 -43 -42 21 -40 17 -54
-21 -89 -54 -49 -48 -63 25 -55 l60 7 22 -45 c22 -46 46 -66 52 -43 2 6 8 35
12 62 l9 50 58 14 c32 7 56 18 54 24 -2 6 -20 16 -42 24 -52 18 -66 31 -60 59
3 13 7 35 10 49 7 35 -12 32 -57 -10z"/>
        <path d="M8247 9708 c-3 -12 6 -67 19 -110 3 -10 -10 -30 -35 -54 -22 -20 -38
-41 -34 -47 3 -5 26 -7 54 -4 l48 6 26 -57 c25 -54 27 -56 41 -37 8 11 17 36
21 57 l6 38 51 0 c46 0 88 13 76 23 -3 2 -26 16 -52 31 -27 15 -48 32 -48 39
0 7 9 31 19 53 27 58 13 74 -31 35 -20 -17 -43 -31 -52 -31 -9 0 -33 16 -55
35 -42 39 -47 41 -54 23z"/>
        <path d="M2383 9688 c4 -13 9 -41 12 -63 5 -38 4 -41 -40 -73 -25 -18 -43 -37
-40 -43 4 -5 33 -9 65 -9 l59 0 7 -37 c8 -44 21 -73 33 -73 5 0 16 20 26 45
20 54 43 69 96 60 51 -9 50 4 -2 49 l-42 35 17 44 c18 47 21 77 7 77 -4 0 -25
-13 -46 -30 -21 -16 -42 -30 -46 -30 -5 0 -26 16 -48 35 -45 41 -66 45 -58 13z"/>
        <path d="M7234 9527 c-33 -34 -97 -110 -143 -167 -46 -58 -108 -132 -136 -165
-65 -75 -163 -206 -235 -313 -30 -45 -58 -82 -62 -82 -11 0 -48 62 -48 80 0
21 -71 90 -93 90 -14 0 -12 -8 15 -47 67 -98 123 -172 130 -172 4 -1 46 58 94
130 48 71 112 161 143 199 31 37 94 115 140 172 127 156 250 292 257 285 5 -4
-106 -199 -165 -292 -76 -119 -144 -227 -206 -330 -37 -60 -95 -146 -130 -191
l-63 -81 99 -98 c54 -54 99 -93 99 -88 0 5 -9 18 -20 28 -11 10 -20 21 -20 25
0 4 25 26 55 49 l55 42 10 -26 c21 -55 4 -107 -41 -126 -36 -14 -38 -33 -4
-27 49 10 15 -53 -48 -86 -31 -17 -34 -22 -27 -50 34 -141 238 -396 425 -530
59 -43 62 -49 53 -129 -4 -40 -7 -79 -7 -89 -1 -22 -89 -128 -107 -128 -8 0
-17 -8 -21 -17 -14 -41 -46 -63 -90 -63 -68 0 -118 31 -139 86 -20 52 -24 54
-300 172 l-121 52 -79 -21 c-96 -25 -216 -21 -308 11 -33 11 -67 20 -77 20
-25 0 -33 -37 -26 -125 12 -163 108 -270 362 -405 233 -124 317 -219 405 -460
25 -68 51 -117 139 -259 56 -92 105 -229 116 -326 4 -33 9 -63 11 -66 2 -4 57
9 121 28 292 86 638 173 692 173 55 0 110 -21 152 -59 35 -31 43 -48 64 -127
13 -49 49 -241 80 -425 30 -184 71 -391 90 -460 19 -70 35 -145 35 -169 0 -56
-36 -121 -156 -285 -52 -71 -111 -157 -131 -190 -67 -110 -105 -165 -115 -165
-17 0 -68 61 -93 109 -48 97 -70 273 -41 330 16 30 30 41 121 91 111 60 122
80 100 176 -19 83 -19 165 0 211 35 84 28 208 -20 361 -13 43 -38 99 -55 124
-58 87 -164 135 -243 109 -18 -6 -63 -30 -98 -53 -35 -23 -147 -95 -248 -161
-102 -66 -228 -141 -282 -167 -111 -52 -129 -65 -129 -90 0 -27 29 -46 105
-71 97 -31 447 -161 520 -194 117 -52 143 -100 126 -236 -17 -127 -24 -148
-177 -454 -134 -268 -147 -300 -179 -428 -19 -76 -42 -149 -51 -163 -22 -33
-77 -64 -199 -112 -55 -22 -158 -67 -230 -101 -134 -64 -250 -100 -267 -83 -6
6 -9 67 -7 144 4 122 6 138 32 190 46 94 123 125 230 94 55 -16 58 -16 96 3
25 13 57 46 91 93 29 40 92 114 140 163 48 50 99 108 113 130 29 44 144 383
153 449 4 29 2 45 -7 53 -8 5 -63 13 -124 17 -441 25 -624 37 -646 42 -22 4
-38 -5 -90 -51 -93 -83 -203 -158 -320 -218 -119 -61 -342 -138 -475 -164
l-91 -18 -6 -140 c-7 -171 -29 -259 -96 -398 -97 -200 -226 -356 -510 -616
-108 -100 -113 -106 -108 -138 10 -60 218 -410 323 -544 125 -159 243 -295
359 -414 75 -77 146 -157 156 -177 11 -22 19 -58 19 -86 0 -57 6 -66 101 -141
36 -28 89 -82 117 -119 50 -66 152 -265 152 -296 0 -23 -43 -31 -175 -31 -246
0 -352 67 -399 253 -9 35 -29 89 -46 120 -35 66 -37 87 -13 138 18 36 18 37
-7 53 -66 43 -89 74 -135 179 -135 312 -308 520 -728 880 -92 79 -167 150
-167 159 0 21 61 151 120 254 49 84 110 232 110 265 0 8 -11 19 -25 26 -22 10
-33 5 -102 -39 -43 -28 -135 -85 -204 -128 -70 -43 -153 -101 -186 -129 -81
-69 -221 -231 -245 -284 -40 -88 -18 -241 63 -445 62 -157 290 -612 354 -707
79 -119 93 -148 105 -226 15 -93 19 -104 39 -104 76 0 182 -78 236 -174 37
-66 101 -242 107 -291 3 -28 1 -30 -47 -38 -27 -4 -102 -8 -165 -9 -132 -2
-202 14 -268 62 -34 24 -44 40 -57 87 -34 120 -88 290 -106 333 -13 29 -36 57
-65 78 -69 51 -73 62 -84 223 -12 187 -18 202 -162 449 -30 52 -83 147 -119
210 -59 107 -196 318 -261 401 -50 65 -36 111 73 234 78 89 93 113 103 166 3
20 24 94 45 165 49 163 58 267 37 417 -9 59 -22 133 -30 165 -41 160 -65 472
-47 617 23 182 56 271 159 428 149 229 303 321 631 378 225 38 248 44 356 79
104 35 155 63 155 86 0 14 -5 13 -35 -5 -76 -44 -260 -96 -450 -126 -288 -46
-461 -124 -587 -264 l-45 -50 -22 72 c-35 112 -41 127 -90 202 -38 58 -301
335 -318 335 -7 0 8 -131 18 -158 5 -13 6 -22 2 -20 -182 91 -227 102 -408 95
-304 -11 -522 -104 -730 -312 -124 -124 -177 -210 -216 -350 -31 -113 -38
-315 -14 -422 50 -230 190 -442 477 -721 139 -135 194 -272 177 -443 -15 -160
-88 -248 -238 -289 -24 -6 -55 -16 -70 -21 -25 -10 -25 -11 -6 -22 18 -11 16
-12 -20 -17 -22 -3 11 -6 74 -7 108 -2 117 0 172 28 97 49 213 178 246 275 24
70 9 63 -32 -15 -46 -87 -141 -193 -209 -232 -41 -23 -63 -29 -111 -29 -68 0
-64 9 15 33 70 21 118 61 154 127 78 144 72 341 -15 485 -18 30 -87 113 -154
183 -226 240 -289 320 -360 462 -67 132 -80 196 -80 380 1 186 12 244 71 364
137 276 453 478 812 519 166 18 314 -12 427 -88 35 -23 67 -40 70 -37 3 3 3
40 -1 81 l-6 76 67 -65 c84 -82 189 -211 220 -270 31 -62 65 -175 65 -219 0
-38 -51 -139 -73 -145 -7 -2 -33 -8 -58 -14 -90 -22 -159 -54 -206 -97 l-48
-43 0 -89 c0 -68 4 -95 18 -116 9 -14 17 -32 17 -39 1 -13 111 -90 118 -83 3
3 -25 38 -60 79 -53 60 -67 83 -72 120 -14 91 20 148 117 198 47 24 149 60
154 54 2 -2 -10 -37 -26 -78 -85 -212 -87 -550 -3 -918 21 -94 26 -140 26
-255 -1 -132 -3 -146 -36 -255 -20 -63 -45 -147 -57 -185 -17 -60 -31 -82 -92
-150 -131 -146 -137 -183 -51 -303 145 -203 160 -227 340 -547 165 -294 169
-304 178 -475 3 -63 10 -129 16 -147 5 -20 32 -52 68 -83 59 -51 60 -52 99
-178 22 -70 50 -161 62 -202 28 -99 70 -141 171 -171 64 -20 86 -21 222 -16
83 3 165 10 181 15 28 8 30 12 26 48 -4 51 -71 237 -112 315 -41 76 -111 140
-191 172 l-62 24 -12 59 c-17 84 -34 120 -119 254 -80 127 -296 558 -350 701
-42 110 -73 219 -81 290 -10 89 12 138 112 254 121 140 182 191 343 286 47 29
123 77 169 107 94 63 110 61 88 -10 -12 -41 -39 -94 -164 -328 -22 -41 -43
-92 -47 -112 -8 -42 -1 -51 124 -158 168 -143 257 -224 387 -354 184 -184 279
-326 407 -606 36 -78 51 -100 85 -124 47 -32 47 -31 27 -66 -21 -37 -18 -62
15 -125 17 -32 41 -96 54 -142 41 -145 105 -207 245 -240 81 -19 226 -23 324
-10 55 8 57 10 57 38 0 16 -17 67 -37 112 -80 177 -164 291 -266 361 -54 37
-54 38 -61 98 -9 87 -40 133 -194 287 -123 124 -292 323 -419 496 -97 133
-253 405 -253 442 0 14 37 55 108 119 148 136 301 292 354 361 164 217 258
470 258 698 l0 84 78 16 c297 65 594 208 791 381 61 53 67 56 104 50 22 -4
123 -11 226 -17 102 -5 251 -14 331 -19 80 -5 151 -10 159 -10 10 0 12 -9 8
-37 -11 -69 -124 -400 -147 -434 -13 -19 -63 -74 -111 -124 -47 -49 -112 -125
-143 -167 -37 -51 -66 -80 -83 -84 -14 -4 -62 -1 -107 5 -93 14 -115 9 -170
-40 -86 -75 -118 -195 -99 -364 13 -111 16 -117 46 -105 12 5 59 20 104 34 45
14 128 48 185 77 57 28 155 71 218 96 128 51 182 82 204 115 8 13 24 59 36
103 57 211 77 259 210 522 151 298 170 353 170 493 0 96 -15 135 -65 169 -54
36 -239 111 -549 220 -71 25 -131 52 -134 58 -2 8 32 29 84 53 96 44 109 52
359 215 285 186 289 188 344 183 107 -10 177 -97 226 -281 30 -113 31 -183 4
-284 -21 -77 -21 -85 -3 -244 6 -55 6 -56 -32 -85 -22 -17 -59 -42 -84 -56
-25 -15 -61 -43 -80 -62 -31 -33 -35 -43 -38 -106 -5 -85 20 -206 57 -275 29
-55 103 -135 125 -135 7 0 55 66 106 147 51 82 135 204 185 273 51 69 102 145
115 169 28 56 24 103 -24 286 -20 77 -63 300 -96 495 -32 195 -66 378 -74 406
-30 97 -131 174 -229 174 -46 0 -358 -75 -602 -145 -148 -42 -198 -56 -200
-53 -1 2 -7 38 -13 80 -16 109 -60 216 -143 349 -39 63 -79 137 -89 164 -33
92 -77 193 -105 242 -54 91 -179 195 -325 268 -91 45 -213 130 -261 182 -32
34 -52 69 -67 113 -23 66 -30 174 -12 185 5 3 24 -2 42 -11 93 -48 222 -57
330 -22 l67 22 68 -28 c38 -15 125 -53 195 -83 l127 -56 26 -53 c21 -44 35
-57 77 -78 29 -14 66 -26 84 -26 37 0 87 37 109 81 8 15 27 35 42 45 64 39 85
78 99 186 8 63 10 107 4 118 -5 9 -35 36 -67 60 -153 114 -314 291 -382 420
-48 91 -48 94 4 131 48 35 79 88 89 154 7 44 -15 140 -37 162 -11 11 -17 8
-38 -24 -30 -47 -67 -68 -101 -60 -34 9 -88 54 -88 74 0 8 24 47 53 87 30 39
82 118 117 176 35 58 80 130 100 160 65 97 217 353 254 429 28 57 34 77 25 87
-20 24 -35 16 -95 -49z"/>
        <path d="M2155 9400 l-47 -41 -43 36 c-69 56 -83 43 -43 -41 l23 -46 -53 -47
c-30 -25 -51 -49 -48 -52 4 -3 27 -2 54 2 84 14 86 13 102 -39 20 -61 39 -60
59 3 l16 50 53 3 c28 2 52 7 52 11 0 10 -40 46 -66 59 -21 11 -21 13 -8 69 8
32 14 61 14 66 0 16 -21 5 -65 -33z"/>
        <path d="M8600 9422 c0 -10 7 -40 16 -66 l16 -48 -48 -43 -49 -44 65 -1 65 0
15 -48 c21 -65 42 -63 54 7 l9 53 59 -6 c34 -4 58 -3 58 2 0 6 -21 28 -47 49
l-46 40 29 51 c38 68 24 83 -35 37 -24 -19 -48 -35 -54 -35 -5 0 -29 16 -53
35 -49 40 -54 42 -54 17z"/>
        <path d="M5560 9239 c0 -6 38 -50 85 -97 47 -47 83 -87 81 -89 -2 -2 -46 6
-97 19 -131 32 -304 32 -404 1 -104 -33 -190 -88 -285 -183 -116 -115 -170
-220 -203 -395 l-14 -70 -28 63 c-16 34 -32 62 -35 62 -12 0 -71 -303 -82
-420 -5 -63 -12 -117 -15 -120 -11 -11 -43 50 -59 112 -10 38 -21 68 -25 68
-3 0 -13 -21 -20 -47 -23 -80 -16 -245 20 -433 46 -241 50 -256 88 -355 41
-109 68 -156 135 -236 42 -51 47 -60 27 -54 -13 4 -33 14 -44 21 -11 8 -27 14
-37 14 -10 0 -32 14 -50 31 -20 19 -26 29 -15 25 13 -4 16 -2 10 7 -4 6 -22
36 -40 66 l-33 55 0 -35 c0 -54 81 -209 216 -414 60 -92 80 -115 125 -141 30
-18 61 -34 69 -37 9 -3 5 -6 -10 -6 -51 -2 -106 21 -150 63 -47 45 -89 76
-102 76 -18 0 -6 -61 23 -118 33 -67 80 -113 159 -156 82 -45 79 -24 -6 39
-91 67 -106 83 -140 148 -30 58 -20 61 26 6 19 -23 48 -47 65 -54 31 -14 215
-32 215 -22 0 3 -28 20 -61 38 -34 18 -81 52 -105 76 -38 37 -145 190 -184
262 -14 27 -24 26 103 5 22 -4 37 -3 37 3 0 6 -22 13 -48 16 -27 3 -64 13 -83
21 l-34 16 35 -5 c19 -2 52 -9 72 -14 44 -10 46 -16 -30 89 -66 91 -96 150
-132 255 -39 110 -100 438 -106 565 -5 97 -4 103 10 85 9 -11 33 -41 53 -67
20 -26 38 -46 39 -45 1 1 10 63 19 138 20 164 67 395 80 392 4 -1 17 -23 26
-49 10 -26 25 -54 32 -62 12 -11 15 -2 20 65 11 165 97 352 214 465 81 79 199
146 303 173 129 34 385 5 503 -55 31 -17 60 -30 63 -30 12 0 -161 186 -194
209 -47 32 -31 36 40 12 105 -36 204 -114 244 -193 13 -26 24 -54 24 -61 0 -8
7 -20 15 -27 21 -17 19 -3 -9 75 -13 36 -20 65 -15 65 5 0 23 -13 41 -28 18
-15 46 -33 61 -40 17 -7 35 -28 46 -53 18 -40 31 -36 23 7 -8 42 -55 84 -115
104 -32 11 -83 39 -115 64 -75 58 -179 114 -244 132 -64 17 -78 17 -78 3z"/>
        <path d="M6170 9151 c0 -24 47 -81 66 -81 9 0 14 -11 14 -27 l0 -28 18 22 17
22 61 -29 c86 -42 167 -147 144 -189 -15 -29 -12 -41 8 -41 15 0 19 8 20 36 4
91 -65 177 -190 240 -62 31 -93 42 -98 34 -7 -12 -32 10 -29 26 4 22 -2 34
-16 34 -8 0 -15 -9 -15 -19z"/>
        <path d="M8950 9081 c0 -75 3 -72 -67 -86 -67 -13 -51 -44 30 -60 l52 -10 19
-58 c10 -32 24 -56 30 -54 6 2 20 27 30 56 l19 53 44 -6 c23 -3 54 -8 68 -12
38 -9 30 7 -25 50 -28 22 -50 44 -50 50 0 6 11 28 25 48 14 20 25 42 25 47 0
17 -32 13 -69 -10 l-34 -20 -41 40 c-23 23 -45 41 -49 41 -4 0 -7 -31 -7 -69z"/>
        <path d="M1810 9104 l-31 -36 -49 21 c-27 12 -53 21 -59 21 -14 0 -2 -29 26
-63 13 -16 23 -33 23 -38 0 -5 -18 -29 -40 -53 -22 -24 -40 -47 -40 -51 0 -4
27 -5 60 -1 l60 7 25 -56 c13 -31 29 -54 33 -51 5 3 15 32 21 65 l12 59 61 11
c33 6 63 13 65 15 11 11 -11 26 -62 41 l-54 15 6 65 c7 78 -7 85 -57 29z"/>
        <path d="M6120 9115 c0 -9 9 -34 21 -56 11 -23 18 -47 15 -55 -3 -8 -2 -13 3
-10 12 8 61 -32 61 -50 0 -8 9 -14 20 -14 15 0 20 7 20 28 0 22 -7 30 -31 39
-23 9 -36 25 -57 72 -25 57 -52 81 -52 46z"/>
        <path d="M5143 8969 c-34 -13 -120 -124 -149 -194 l-16 -40 21 19 c11 11 21
26 21 34 0 8 41 54 91 103 86 84 93 101 32 78z"/>
        <path d="M8525 8862 c-22 -63 -24 -64 -112 -49 -58 10 -57 -9 2 -51 25 -18 48
-39 51 -47 4 -8 -6 -37 -20 -65 -14 -27 -26 -54 -26 -60 0 -18 31 -10 75 20
24 17 48 30 54 30 5 0 31 -18 57 -40 25 -23 49 -39 52 -36 3 3 -3 26 -12 50
-25 66 -18 95 31 131 23 16 40 35 39 40 -2 6 -29 10 -61 10 l-59 0 -16 52
c-24 79 -33 81 -55 15z"/>
        <path d="M1503 8768 l-42 -41 -55 29 c-30 16 -58 25 -62 22 -3 -4 8 -28 25
-54 17 -26 31 -52 31 -57 0 -6 -16 -29 -35 -53 -19 -23 -35 -45 -35 -48 0 -10
55 -7 89 5 38 13 53 3 82 -53 27 -53 45 -45 41 18 -4 60 7 75 71 98 26 10 46
23 44 29 -2 6 -25 18 -52 26 l-49 16 3 53 c1 28 -1 52 -6 52 -5 0 -27 -19 -50
-42z"/>
        <path d="M9266 8778 c-3 -18 -7 -46 -8 -63 -3 -25 -9 -31 -43 -40 -81 -21 -85
-39 -13 -55 29 -6 56 -16 60 -23 4 -7 8 -39 8 -72 l1 -60 27 31 c15 17 36 43
47 58 l20 27 44 -15 c81 -29 94 -13 36 44 -19 19 -35 38 -35 43 0 4 14 28 30
52 47 68 39 80 -30 45 -53 -27 -61 -26 -93 20 -16 22 -32 40 -37 40 -5 0 -11
-15 -14 -32z"/>
        <path d="M2586 8758 c-8 -13 -17 -34 -21 -47 -7 -22 -10 -23 -66 -17 -32 4
-59 5 -59 2 0 -3 20 -19 45 -37 49 -35 53 -48 29 -104 -8 -20 -14 -41 -12 -46
2 -5 23 5 48 21 53 35 68 37 121 9 23 -11 43 -19 45 -16 2 2 -4 25 -13 52
l-16 49 42 36 c23 20 39 39 35 43 -4 3 -32 4 -64 0 l-57 -6 -16 42 c-9 22 -19
41 -22 41 -2 0 -11 -10 -19 -22z"/>
        <path d="M3932 8681 l-17 -41 -70 7 -70 6 43 -41 43 -40 -15 -37 c-27 -63 -22
-68 35 -39 51 25 51 25 73 6 11 -11 31 -23 44 -27 25 -7 27 2 13 52 -9 30 -6
36 31 72 l40 40 -48 3 c-44 3 -48 5 -56 35 -12 48 -27 49 -46 4z"/>
        <path d="M7585 8659 l-19 -41 -48 6 c-58 8 -64 -8 -17 -43 32 -24 32 -26 13
-104 l-7 -29 49 25 49 25 34 -24 c19 -13 36 -22 39 -20 2 2 -2 23 -8 46 -10
38 -9 44 11 66 12 13 30 26 41 30 33 10 19 24 -27 24 -42 0 -46 2 -65 40 -11
22 -22 40 -24 40 -1 0 -11 -18 -21 -41z"/>
        <path d="M1205 8424 c-24 -41 -30 -45 -53 -40 -106 24 -114 18 -57 -41 l35
-36 -21 -31 c-30 -46 -43 -75 -36 -82 4 -4 26 1 50 10 59 22 74 20 91 -12 8
-15 23 -36 35 -46 21 -19 21 -19 22 5 5 106 8 113 58 127 70 22 64 46 -15 58
l-41 6 -9 61 c-5 33 -14 62 -20 64 -7 2 -24 -17 -39 -43z"/>
        <path d="M3210 8404 l-22 -65 -57 1 c-101 3 -105 -2 -31 -48 28 -17 50 -38 50
-46 0 -8 -9 -38 -20 -66 -11 -28 -20 -53 -20 -56 0 -11 47 10 81 37 20 16 40
29 45 29 4 0 31 -19 61 -41 29 -23 57 -39 61 -35 3 4 -3 36 -16 71 -12 35 -22
68 -22 73 0 5 25 24 54 43 30 18 53 36 50 41 -3 4 -36 8 -73 8 l-69 0 -18 60
c-11 33 -22 60 -26 60 -3 0 -16 -30 -28 -66z"/>
        <path d="M9556 8460 c-3 -8 -7 -37 -8 -64 l-3 -50 -53 -12 c-79 -17 -83 -28
-20 -52 l53 -20 3 -68 3 -69 48 55 47 54 42 -17 c84 -33 104 -17 52 43 -37 44
-37 58 0 100 26 31 38 60 25 60 -2 0 -28 -9 -57 -21 -59 -23 -49 -28 -105 47
-16 22 -22 26 -27 14z"/>
        <path d="M8180 8338 c-6 -24 -21 -76 -32 -117 l-22 -74 -128 5 c-70 3 -128 2
-128 -2 0 -4 44 -36 98 -71 53 -34 101 -66 105 -69 4 -4 -13 -55 -38 -113 -46
-108 -51 -127 -37 -127 4 0 50 31 102 70 52 38 100 70 107 70 7 0 40 -24 74
-52 104 -89 120 -100 126 -95 3 3 -11 48 -31 99 -57 150 -62 133 59 212 58 38
105 72 105 77 0 5 -44 5 -97 2 -54 -4 -113 -8 -132 -8 l-35 0 -35 118 c-19 64
-39 117 -43 117 -4 0 -12 -19 -18 -42z"/>
        <path d="M2116 8223 c-19 -80 -22 -83 -97 -83 -38 0 -69 -4 -69 -9 0 -5 22
-28 49 -50 l49 -42 -21 -59 c-12 -32 -18 -62 -14 -66 4 -4 30 9 59 28 l51 36
50 -34 c55 -38 72 -42 64 -16 -36 110 -36 114 36 159 21 13 35 28 32 33 -3 6
-34 10 -69 10 l-63 0 -16 60 c-19 65 -31 75 -41 33z"/>
        <path d="M9098 8155 l-23 -47 -57 6 c-48 6 -58 4 -58 -8 0 -8 10 -21 22 -27
12 -6 31 -20 42 -30 18 -17 19 -23 8 -52 -13 -36 -16 -70 -6 -80 3 -3 27 8 52
24 l46 29 31 -30 c46 -44 56 -39 40 19 -15 56 -9 71 41 102 43 26 32 39 -33
39 -42 0 -43 1 -54 45 -6 25 -15 48 -20 51 -5 3 -19 -16 -31 -41z"/>
        <path d="M996 8073 c-4 -5 -14 -23 -21 -40 -16 -37 -29 -40 -101 -22 -25 6
-47 9 -51 6 -3 -4 11 -25 31 -47 43 -47 45 -70 11 -114 -14 -18 -25 -41 -25
-50 0 -19 12 -17 79 10 51 21 63 17 100 -32 18 -25 37 -42 42 -37 4 4 4 35 0
68 -5 33 -7 63 -5 67 2 3 29 20 59 37 30 17 55 36 55 41 0 6 -28 10 -64 10
-70 0 -68 -2 -81 73 -6 36 -14 45 -29 30z"/>
        <path d="M9806 8063 c-3 -10 -8 -35 -12 -57 l-7 -39 -63 6 c-36 4 -66 2 -69
-3 -3 -5 15 -24 41 -42 25 -18 53 -38 60 -43 12 -8 13 -23 5 -75 -5 -36 -7
-67 -4 -70 3 -3 26 20 53 50 l48 54 38 -16 c95 -41 114 -29 60 37 -20 24 -36
46 -36 49 0 4 19 27 41 51 23 25 39 48 35 52 -3 4 -29 1 -56 -6 -57 -15 -70
-9 -90 39 -14 33 -36 39 -44 13z"/>
        <path d="M3946 7847 c-25 -93 -20 -90 -130 -88 -53 1 -96 0 -96 -3 0 -3 26
-22 58 -42 31 -20 67 -45 79 -56 l22 -20 -24 -62 c-12 -33 -26 -69 -30 -78
-13 -31 20 -20 81 27 31 25 62 45 68 45 6 0 35 -18 64 -40 29 -22 57 -40 62
-40 10 0 3 54 -11 82 -33 63 -33 63 44 120 l72 53 -91 3 -91 3 -22 74 c-12 41
-25 76 -30 79 -4 3 -16 -23 -25 -57z"/>
        <path d="M8702 7686 c-24 -78 -37 -106 -52 -111 -11 -3 -54 -1 -95 4 -93 13
-115 14 -115 2 0 -4 38 -35 84 -67 47 -33 87 -63 89 -69 2 -5 -14 -52 -36
-103 -22 -51 -37 -95 -34 -99 3 -3 36 17 72 43 37 27 80 57 96 68 30 18 30 18
53 -7 12 -13 43 -37 67 -53 24 -15 54 -37 67 -48 l22 -19 0 22 c0 12 -16 55
-35 95 -19 40 -35 78 -35 85 0 6 41 38 91 70 50 33 89 63 87 67 -2 5 -52 9
-111 9 l-108 0 -34 103 c-18 57 -35 106 -38 108 -2 2 -18 -43 -35 -100z"/>
        <path d="M2845 7738 c-3 -7 -18 -51 -33 -98 l-29 -85 -112 -5 c-130 -6 -130
-5 -6 -80 39 -23 71 -43 73 -45 1 -1 -16 -48 -39 -104 -22 -57 -38 -105 -35
-108 3 -3 46 24 96 61 50 36 96 66 102 66 6 0 47 -27 90 -61 44 -34 82 -59 85
-56 3 3 -9 41 -25 84 -48 126 -51 118 55 189 51 34 90 63 88 65 -2 3 -54 0
-116 -4 -129 -11 -120 -16 -144 88 -24 102 -25 105 -36 105 -5 0 -12 -6 -14
-12z"/>
        <path d="M10014 7673 c-25 -114 -26 -115 -93 -106 -58 8 -54 -16 9 -55 l51
-32 -7 -65 c-4 -36 -4 -65 0 -65 4 0 27 21 51 48 l44 47 55 -29 c31 -17 58
-27 61 -24 4 3 -5 29 -19 57 -14 28 -26 56 -26 64 0 7 16 27 35 44 43 38 46
58 8 49 -95 -21 -89 -23 -117 32 -32 63 -44 71 -52 35z"/>
        <path d="M761 7647 c-27 -63 -38 -69 -98 -53 -29 8 -54 11 -58 8 -3 -3 16 -27
41 -53 l47 -48 -26 -40 c-46 -69 -30 -91 35 -51 48 29 70 25 114 -22 34 -37
39 -40 42 -22 2 11 -2 40 -7 65 -12 48 -7 55 58 91 52 29 44 38 -51 53 -27 4
-38 11 -38 23 0 31 -21 92 -31 92 -5 0 -18 -19 -28 -43z"/>
        <path d="M7800 7586 c0 -11 -61 -232 -91 -330 l-31 -99 -224 5 c-123 2 -224 2
-224 -1 0 -3 35 -28 78 -54 203 -127 278 -177 286 -189 5 -9 -5 -45 -28 -102
-33 -79 -109 -290 -123 -341 -5 -18 18 -1 87 65 6 6 180 143 238 188 l42 33
63 -55 c135 -119 322 -263 325 -250 2 7 -4 23 -12 36 -9 13 -51 110 -94 216
l-79 191 21 19 c11 11 89 61 171 112 173 108 194 122 195 134 0 4 -10 6 -22 3
-13 -3 -117 -7 -232 -8 -169 -1 -210 1 -216 12 -8 16 -95 327 -105 376 -5 27
-25 57 -25 39z m59 -271 c16 -55 35 -120 41 -144 l11 -44 200 8 c109 4 199 5
199 2 0 -3 -74 -53 -165 -112 -91 -59 -165 -112 -165 -117 0 -5 9 -27 20 -49
12 -22 34 -72 49 -112 16 -40 41 -101 55 -136 14 -36 26 -69 26 -73 0 -5 -21
8 -47 30 -84 68 -245 197 -264 211 -17 12 -23 10 -59 -22 -21 -20 -83 -69
-137 -108 -54 -40 -101 -77 -105 -83 -4 -6 -10 -8 -13 -4 -3 3 22 77 55 164
34 88 62 168 63 179 2 14 -31 43 -125 110 -69 49 -135 95 -145 102 -14 9 17
12 152 13 94 0 176 4 183 9 13 8 74 195 102 311 l13 54 14 -44 c7 -25 26 -90
42 -145z"/>
        <path d="M3559 7414 c-6 -16 -31 -105 -55 -199 -25 -93 -56 -212 -70 -263 -13
-51 -24 -95 -24 -99 0 -7 -525 3 -580 11 l-35 6 40 -23 c22 -13 67 -41 100
-63 33 -21 131 -82 217 -134 87 -52 158 -100 158 -107 0 -11 -79 -222 -105
-278 -34 -75 -106 -277 -100 -283 3 -3 23 12 43 33 21 22 71 67 112 101 41 34
124 102 184 152 127 107 108 107 246 -8 47 -39 128 -106 180 -149 52 -43 106
-90 119 -105 14 -14 30 -26 38 -26 17 0 16 4 -3 42 -9 16 -38 89 -65 160 -27
72 -69 177 -94 234 -25 56 -45 109 -45 118 0 8 55 48 123 89 67 40 181 110
252 153 l130 79 -299 5 -300 5 -22 85 c-12 47 -45 175 -73 284 -28 109 -53
201 -56 204 -2 3 -9 -8 -16 -24z m28 -126 c6 -29 29 -117 52 -196 23 -79 48
-169 55 -200 l13 -57 251 3 c139 2 252 0 252 -5 0 -8 -290 -196 -377 -244 -24
-13 -43 -30 -43 -38 0 -7 32 -93 71 -190 40 -97 82 -206 94 -243 l22 -67 -41
35 c-154 132 -360 299 -369 302 -13 2 -81 -51 -267 -207 -114 -97 -148 -122
-138 -105 7 10 162 428 172 460 6 18 -3 28 -51 59 -32 21 -89 59 -128 85 -38
26 -103 66 -143 90 -52 31 -69 46 -60 52 7 4 110 8 228 8 118 -1 220 -1 226
-1 19 1 33 47 129 404 16 59 32 107 36 107 3 0 10 -24 16 -52z"/>
        <path d="M10206 7261 c-9 -16 -16 -39 -16 -49 0 -34 -24 -44 -84 -37 -47 6
-56 5 -56 -8 0 -8 20 -27 44 -41 25 -15 48 -31 51 -36 3 -5 -1 -33 -10 -62
-26 -90 -20 -96 38 -43 43 40 67 43 105 16 29 -20 72 -36 72 -26 0 3 -9 23
-20 45 -29 57 -26 76 18 104 41 25 68 53 60 62 -3 2 -31 1 -62 -4 -53 -8 -59
-7 -71 12 -8 12 -17 33 -20 48 -4 15 -13 32 -20 38 -11 9 -17 5 -29 -19z"/>
        <path d="M585 7226 c-10 -25 -24 -47 -31 -50 -8 -3 -37 -1 -65 5 -28 6 -53 8
-57 4 -4 -4 9 -21 28 -39 65 -60 65 -60 34 -111 -38 -66 -21 -79 46 -37 58 36
65 35 119 -22 19 -19 38 -33 42 -31 4 3 1 33 -7 66 -16 70 -14 77 47 111 22
12 38 27 36 32 -2 6 -31 12 -64 14 l-60 3 -9 47 c-12 64 -36 68 -59 8z"/>
        <path d="M2157 7210 l-15 -40 -56 0 c-31 0 -56 -4 -56 -10 0 -5 3 -10 8 -10 4
0 22 -14 41 -31 33 -30 33 -32 22 -71 -7 -22 -15 -46 -18 -54 -8 -22 17 -17
59 12 l38 27 34 -27 c50 -37 56 -34 41 24 l-13 51 43 32 c25 18 44 35 45 40 0
4 -23 7 -51 7 -50 0 -50 0 -70 45 -11 25 -24 45 -28 45 -4 0 -15 -18 -24 -40z"/>
        <path d="M9222 7064 l-23 -46 -59 7 c-33 4 -60 4 -60 0 0 -4 20 -25 45 -47 37
-32 43 -43 36 -61 -17 -46 -21 -77 -11 -77 6 0 28 12 50 26 l39 26 34 -26 c30
-23 57 -33 57 -22 0 2 -7 23 -15 46 -20 56 -20 55 20 80 47 29 44 40 -10 40
-47 0 -50 3 -57 69 -5 40 -22 34 -46 -15z"/>
        <path d="M10337 6817 c-30 -51 -47 -60 -83 -47 -33 13 -84 13 -84 0 0 -5 20
-24 45 -42 56 -42 62 -59 36 -109 -39 -74 -22 -89 47 -39 23 17 47 30 53 30 6
0 27 -13 46 -30 41 -37 68 -40 59 -7 -3 12 -9 40 -12 62 -5 39 -4 41 42 68 25
15 44 30 41 33 -2 3 -33 8 -68 12 l-63 7 -8 44 c-11 65 -22 68 -51 18z"/>
        <path d="M425 6793 c-21 -61 -20 -61 -92 -49 -57 8 -56 -9 1 -57 l44 -37 -18
-49 c-27 -70 -6 -83 53 -31 19 17 39 30 43 30 5 0 33 -16 62 -36 29 -20 55
-34 59 -30 4 3 -3 30 -15 59 -12 29 -22 58 -22 64 0 7 20 29 45 50 25 20 45
41 45 46 0 9 -77 2 -106 -10 -9 -3 -23 15 -40 51 -14 31 -29 56 -33 56 -3 0
-15 -26 -26 -57z"/>
        <path d="M2687 6713 c-3 -4 -19 -51 -37 -103 -18 -52 -35 -98 -39 -102 -3 -3
-53 -2 -109 4 -57 5 -109 7 -115 5 -6 -2 32 -34 86 -72 53 -37 97 -74 97 -81
0 -7 -16 -46 -35 -87 -34 -73 -43 -107 -27 -107 4 0 41 27 82 60 41 33 80 60
86 60 7 0 47 -29 90 -65 43 -35 80 -63 82 -61 2 2 -8 42 -23 88 -14 45 -28 91
-31 100 -4 14 19 33 95 84 56 36 101 68 101 71 0 3 -53 3 -118 0 l-119 -7 -26
107 c-28 109 -32 120 -40 106z"/>
        <path d="M8706 6623 c-2 -10 -10 -38 -16 -62 l-11 -43 -65 7 c-79 8 -82 -2
-14 -51 28 -20 50 -39 50 -43 0 -4 -9 -24 -20 -46 -39 -77 -21 -95 46 -45 21
16 42 30 46 30 4 0 29 -13 55 -30 68 -43 77 -40 53 20 -11 28 -20 57 -20 64 0
7 22 28 50 47 27 19 50 37 50 41 0 4 -30 8 -66 10 l-66 3 -22 54 c-23 58 -41
74 -50 44z"/>
        <path d="M4757 6508 c-8 -29 -7 -30 56 -61 61 -31 114 -43 152 -33 36 9 21 26
-23 26 -62 0 -109 19 -141 55 -17 19 -32 35 -35 35 -2 0 -6 -10 -9 -22z"/>
        <path d="M4795 6430 c3 -6 21 -17 38 -26 l32 -15 -30 25 c-30 26 -51 34 -40
16z"/>
        <path d="M4335 6401 c-14 -63 59 -213 146 -300 42 -41 213 -131 252 -131 21 0
-49 47 -143 95 -48 25 -92 69 -152 153 -52 72 -64 99 -72 154 -8 57 -22 69
-31 29z"/>
        <path d="M4520 6402 c0 -48 57 -147 114 -200 59 -54 130 -82 205 -82 72 0 82
16 13 23 -123 11 -247 106 -293 225 -26 67 -39 78 -39 34z"/>
        <path d="M10435 6418 c-3 -7 -11 -31 -19 -53 l-13 -40 -61 0 c-89 0 -89 -2 8
-74 l24 -19 -23 -50 c-36 -78 -15 -94 48 -37 21 19 44 35 51 35 7 0 30 -16 51
-35 22 -19 43 -35 48 -35 5 0 3 21 -5 47 -20 68 -18 78 26 107 22 14 40 31 40
36 0 6 -21 10 -47 10 -63 0 -73 8 -88 66 -12 48 -31 68 -40 42z"/>
        <path d="M325 6364 l-16 -57 -55 6 c-29 3 -56 2 -59 -3 -6 -10 41 -57 65 -65
28 -9 30 -28 9 -75 -10 -23 -19 -46 -19 -51 0 -20 39 -7 78 27 l42 36 49 -36
c50 -37 77 -46 68 -23 -2 6 -13 36 -23 65 l-19 54 43 36 c23 20 42 41 42 45 0
4 -28 5 -63 1 l-62 -6 -22 51 c-12 28 -26 51 -31 51 -6 0 -18 -25 -27 -56z"/>
        <path d="M1930 6378 c-15 -42 -16 -43 -62 -46 -27 -2 -48 -7 -48 -12 0 -4 17
-19 38 -31 20 -12 38 -23 40 -24 1 -1 -6 -23 -15 -48 -9 -25 -14 -49 -11 -52
3 -4 25 4 47 17 l41 23 41 -23 c22 -13 43 -21 46 -18 3 3 0 26 -7 51 -12 43
-11 47 10 70 13 14 31 27 42 31 36 11 17 24 -38 24 l-56 0 -15 40 c-9 22 -21
40 -27 40 -7 0 -18 -19 -26 -42z"/>
        <path d="M4740 6367 c0 -29 63 -139 93 -161 38 -28 133 -63 143 -53 4 4 5 8 3
10 -2 1 -30 16 -63 32 -41 21 -72 48 -104 88 -25 31 -43 59 -40 62 3 3 27 -5
54 -17 41 -18 67 -22 157 -22 59 0 112 5 118 11 6 6 -27 9 -103 9 -102 -1
-120 2 -180 27 -77 31 -78 31 -78 14z"/>
        <path d="M4855 6250 c8 -12 90 -30 137 -30 24 1 56 6 71 13 25 11 19 12 -50 9
-43 -2 -97 1 -120 6 -24 5 -41 6 -38 2z"/>
        <path d="M4476 6214 c39 -39 154 -99 176 -92 16 6 -62 58 -85 58 -11 0 -31 13
-46 29 -16 17 -41 33 -56 37 -27 7 -27 6 11 -32z"/>
        <path d="M250 5941 c0 -60 -15 -91 -44 -91 -30 0 -76 -17 -76 -27 0 -5 26 -17
58 -28 l57 -20 -3 -58 c-3 -68 6 -71 61 -22 l38 34 52 -25 c45 -20 52 -22 55
-8 2 9 -10 33 -27 54 -17 22 -31 44 -31 50 0 6 19 31 41 55 23 25 39 48 36 51
-3 4 -26 1 -51 -5 -68 -17 -78 -14 -114 34 -18 25 -37 45 -42 45 -6 0 -10 -18
-10 -39z"/>
        <path d="M10513 5936 c-30 -50 -44 -54 -100 -31 -38 16 -73 20 -73 7 0 -4 20
-30 43 -57 l44 -49 -34 -53 c-18 -28 -33 -57 -33 -62 0 -7 22 -3 53 9 70 27
85 25 123 -11 18 -17 37 -28 42 -25 6 3 8 30 5 64 l-5 58 56 30 c31 16 56 32
56 36 0 7 -33 14 -90 20 -22 3 -26 9 -30 52 -3 27 -11 51 -17 53 -7 3 -25 -16
-40 -41z"/>
        <path d="M4540 5922 c0 -15 126 -130 170 -155 57 -32 139 -55 212 -59 76 -4
76 15 1 24 -81 9 -147 33 -225 82 -69 42 -88 63 -42 46 32 -12 224 -13 224 -1
0 14 -40 21 -128 21 -65 0 -96 5 -144 25 -69 28 -68 28 -68 17z"/>
        <path d="M5018 5703 c6 -2 18 -2 25 0 6 3 1 5 -13 5 -14 0 -19 -2 -12 -5z"/>
        <path d="M10532 5485 c-37 -51 -47 -53 -102 -25 -38 19 -70 26 -70 15 0 -3 18
-28 40 -56 22 -28 37 -56 33 -62 -3 -7 -20 -31 -36 -55 -16 -24 -26 -46 -23
-50 4 -3 35 2 70 11 36 9 66 17 69 17 2 0 16 -18 31 -40 14 -22 33 -40 42 -40
12 0 14 10 8 58 l-6 58 52 22 c62 26 61 42 -2 60 l-45 12 -7 60 c-4 33 -10 60
-14 60 -4 -1 -22 -21 -40 -45z"/>
        <path d="M246 5510 c-2 -8 -7 -36 -11 -62 -6 -46 -7 -47 -49 -53 -84 -13 -86
-34 -5 -60 l51 -17 -4 -59 c-4 -71 7 -75 55 -19 37 44 45 46 85 26 81 -41 93
-26 35 48 l-37 48 26 23 c29 25 64 75 53 75 -5 0 -32 -8 -61 -17 l-53 -16 -20
24 c-56 71 -59 74 -65 59z"/>
        <path d="M10524 5034 l-39 -46 -57 28 c-32 15 -60 25 -63 22 -4 -3 8 -28 24
-56 17 -27 31 -55 31 -61 0 -7 -16 -32 -36 -56 -20 -23 -36 -47 -35 -51 3 -12
50 -5 83 12 41 21 51 18 80 -31 39 -65 58 -60 58 14 0 62 8 70 66 71 12 0 27
6 33 13 8 11 0 19 -39 37 -56 26 -64 41 -50 88 9 33 5 62 -9 62 -4 0 -25 -21
-47 -46z"/>
        <path d="M232 5010 c3 -63 -6 -80 -44 -80 -58 0 -65 -37 -9 -46 55 -9 62 -16
68 -70 3 -27 6 -50 7 -52 8 -7 34 13 56 43 27 38 42 42 80 20 28 -16 70 -20
70 -6 0 5 -16 28 -35 51 -19 23 -35 46 -35 52 0 5 16 30 36 56 33 43 34 47 16
50 -11 2 -39 -6 -61 -18 -48 -24 -67 -18 -101 30 -36 50 -52 40 -48 -30z"/>
        <path d="M3350 4777 c-50 -17 -49 -40 7 -105 26 -31 47 -59 46 -63 -2 -4 25
-22 59 -39 42 -20 66 -39 74 -58 l12 -27 11 29 c16 39 8 56 -27 56 -41 0 -215
164 -192 180 40 26 73 12 162 -73 20 -19 51 -40 68 -46 l32 -11 -24 25 c-13
14 -28 25 -34 25 -6 0 -19 10 -30 21 -24 27 -114 99 -122 98 -4 0 -23 -5 -42
-12z"/>
        <path d="M10510 4598 c-60 -51 -63 -51 -111 -13 -75 59 -96 42 -48 -41 l31
-56 -35 -36 c-35 -37 -57 -82 -39 -82 5 0 31 7 57 15 27 8 52 12 57 9 4 -3 17
-22 27 -43 11 -20 27 -43 35 -50 14 -12 16 -8 16 30 0 78 7 89 54 89 22 0 48
5 56 10 13 9 12 13 -5 26 -11 9 -32 20 -47 26 -32 11 -34 27 -13 89 9 23 12
46 8 50 -5 4 -24 -6 -43 -23z"/>
        <path d="M270 4608 c1 -7 5 -32 9 -56 8 -38 6 -45 -13 -57 -11 -7 -34 -17 -49
-21 -47 -11 -30 -36 33 -48 l55 -11 3 -58 c3 -49 6 -58 20 -55 9 2 28 24 42
51 27 51 35 54 105 35 24 -7 48 -8 52 -4 4 4 -8 22 -27 40 -64 59 -64 59 -35
116 14 28 23 55 20 60 -10 17 -31 11 -56 -16 -44 -47 -53 -47 -98 -4 -42 41
-61 50 -61 28z"/>
        <path d="M3355 4547 c178 -158 308 -297 292 -313 -3 -3 -13 -1 -24 5 -10 6
-46 21 -80 34 l-63 25 21 -27 c11 -14 38 -48 60 -76 73 -93 159 -288 159 -361
0 -20 -5 -24 -28 -24 -15 0 -34 6 -41 13 -11 10 -13 9 -9 -3 2 -8 19 -18 38
-23 18 -4 41 -18 51 -30 28 -35 32 -15 13 80 -19 98 -67 221 -120 308 -19 32
-34 59 -34 61 0 2 11 -1 24 -8 66 -29 72 29 11 112 -70 96 -292 291 -329 290
-6 -1 21 -29 59 -63z"/>
        <path d="M360 4176 c0 -7 7 -33 15 -56 8 -23 15 -46 15 -50 0 -5 -22 -24 -50
-44 -27 -20 -50 -41 -50 -47 0 -6 23 -9 62 -7 l62 3 12 -49 c19 -76 30 -78 60
-12 24 53 28 57 53 52 72 -17 91 -18 91 -7 0 13 -23 37 -64 67 l-29 21 25 44
c32 55 43 89 29 89 -6 0 -36 -16 -66 -36 l-54 -36 -49 41 c-52 44 -62 49 -62
27z"/>
        <path d="M10407 4156 c-26 -20 -51 -36 -55 -36 -5 0 -26 13 -48 30 -21 16 -42
30 -46 30 -15 0 -8 -51 12 -89 l19 -39 -52 -38 c-72 -54 -64 -66 36 -50 41 6
48 5 53 -11 14 -43 38 -93 44 -93 5 0 14 26 22 58 l14 57 59 5 59 5 -31 25
c-17 14 -38 30 -48 35 -17 10 -17 13 -1 63 27 81 20 91 -37 48z"/>
        <path d="M3587 3824 c8 -157 -14 -264 -81 -397 -28 -56 -56 -102 -62 -104 -7
-2 -14 16 -18 44 -7 57 -30 132 -57 188 -25 52 -86 135 -99 135 -6 0 -10 -66
-10 -174 0 -222 -24 -379 -72 -469 -46 -86 -161 -181 -303 -251 -60 -30 -128
-59 -150 -65 -47 -13 -145 -15 -145 -3 0 5 16 16 36 26 86 41 264 169 325 233
57 61 129 179 129 211 0 28 -40 -10 -67 -65 -15 -31 -59 -90 -96 -129 -79 -84
-268 -215 -348 -243 -29 -9 -54 -22 -56 -28 -5 -15 83 -37 143 -36 84 1 250
65 362 141 76 52 177 156 202 207 38 80 62 220 67 403 l6 174 29 -45 c27 -42
64 -165 83 -275 10 -61 30 -52 92 41 104 155 158 433 105 547 l-20 45 5 -111z"/>
        <path d="M10100 3761 c0 -5 11 -33 25 -63 l25 -53 -45 -40 c-63 -55 -60 -67
16 -63 l60 3 18 -50 c10 -28 24 -50 31 -50 8 0 20 19 27 44 18 64 27 71 94 71
33 0 59 4 59 10 0 5 -22 21 -50 35 -57 29 -61 44 -30 114 11 24 20 45 20 47 0
11 -23 1 -69 -31 -28 -19 -54 -35 -59 -35 -5 0 -30 16 -55 35 -46 35 -67 43
-67 26z"/>
        <path d="M494 3745 c-4 -9 -2 -32 4 -49 20 -55 15 -69 -36 -101 -26 -16 -46
-34 -44 -40 1 -5 30 -10 63 -10 68 0 74 -5 84 -68 5 -32 10 -38 28 -35 18 2
23 11 27 53 l5 50 65 0 c92 1 88 19 -16 81 -18 11 -18 13 4 58 40 83 28 96
-38 41 -23 -19 -47 -35 -53 -35 -6 0 -28 17 -49 37 -33 32 -38 34 -44 18z"/>
        <path d="M5844 3614 c-15 -49 -31 -95 -37 -101 -6 -8 -24 -11 -46 -8 -106 13
-161 15 -161 6 0 -6 36 -38 80 -71 44 -33 80 -68 80 -77 0 -8 -16 -51 -36 -95
-19 -43 -34 -83 -32 -88 2 -5 39 17 82 50 44 33 86 60 93 60 8 0 49 -27 91
-60 42 -32 77 -58 79 -56 2 1 -11 45 -27 97 -16 52 -30 97 -30 101 0 5 33 33
74 63 41 30 78 60 82 66 5 8 -21 11 -97 8 l-104 -4 -26 93 c-15 52 -30 96 -32
99 -3 3 -18 -35 -33 -83z"/>
        <path d="M3461 3574 c-1 -65 8 -114 22 -114 12 0 3 103 -12 141 -8 20 -10 16
-10 -27z"/>
        <path d="M7204 3364 c-9 -33 -20 -63 -25 -69 -5 -5 -38 -8 -74 -7 -36 2 -65 0
-65 -3 0 -4 24 -29 54 -56 l54 -49 -24 -57 c-13 -32 -24 -63 -24 -70 0 -7 25
3 58 22 31 19 64 35 73 35 8 0 30 -16 49 -35 52 -54 61 -46 39 37 -11 39 -19
74 -19 77 0 3 20 18 43 33 24 15 52 37 63 49 l18 21 -69 -3 -70 -3 -25 62
c-14 33 -28 64 -32 68 -4 3 -14 -20 -24 -52z"/>
        <path d="M9958 3365 c-3 -3 1 -29 9 -57 18 -72 17 -75 -19 -93 -86 -42 -86
-62 2 -67 l55 -3 3 -52 c2 -29 5 -53 8 -53 17 0 45 24 63 56 l21 36 65 -7 c78
-9 83 2 21 45 -25 16 -47 34 -50 39 -3 5 5 29 19 53 14 23 25 49 25 56 0 19
-28 14 -68 -13 -20 -14 -42 -25 -48 -25 -7 0 -27 17 -45 38 -35 40 -53 54 -61
47z"/>
        <path d="M835 3320 c-67 -53 -68 -53 -124 -15 -28 19 -53 35 -57 35 -9 0 0
-38 20 -83 18 -41 19 -41 -59 -102 -16 -13 -26 -27 -22 -32 5 -4 36 -7 69 -5
78 3 93 -2 108 -38 6 -16 20 -36 31 -46 18 -17 19 -16 19 38 l0 55 51 6 c29 4
54 9 57 11 8 9 -17 33 -48 46 -35 14 -38 39 -14 99 23 58 14 67 -31 31z"/>
        <path d="M6451 3043 c-29 -104 -62 -215 -74 -247 l-22 -60 -125 2 c-69 1 -178
5 -242 8 -66 4 -118 3 -118 -2 1 -5 29 -25 63 -45 34 -20 126 -80 204 -133
l142 -96 -46 -103 c-57 -129 -144 -359 -141 -369 2 -5 93 63 203 151 110 88
205 159 212 158 7 -1 56 -38 109 -82 53 -44 139 -115 190 -157 51 -43 95 -74
98 -70 2 4 -9 39 -24 77 -16 39 -47 115 -69 170 -21 55 -51 126 -65 157 l-25
57 84 53 c46 29 136 85 200 123 187 112 197 102 -96 101 l-254 -1 -31 110
c-17 61 -48 172 -69 248 -21 75 -41 137 -44 137 -4 0 -31 -84 -60 -187z m99
-28 c17 -60 45 -154 61 -207 l30 -98 204 0 c116 0 205 -4 205 -9 0 -5 -21 -21
-47 -36 -105 -60 -303 -188 -303 -195 0 -5 31 -89 69 -187 94 -243 92 -236 45
-192 -22 19 -61 53 -89 74 -27 22 -85 70 -129 107 -43 38 -83 68 -88 68 -6 0
-60 -40 -122 -88 -184 -146 -236 -184 -236 -171 0 7 34 96 75 200 41 103 73
193 70 201 -3 7 -80 63 -170 123 -91 61 -165 111 -165 112 0 1 93 1 208 0
l207 -2 47 140 c26 77 55 173 64 213 10 40 21 69 25 65 4 -5 22 -57 39 -118z"/>
        <path d="M8057 3223 c-3 -5 -8 -22 -11 -40 -10 -46 -25 -54 -80 -44 -25 5 -48
5 -51 1 -2 -3 16 -23 40 -43 l44 -37 -20 -46 c-12 -25 -18 -48 -16 -51 3 -2
23 5 46 16 50 26 73 26 96 1 33 -36 43 -26 32 32 -10 48 -9 52 13 70 13 10 30
23 39 28 23 13 8 22 -41 24 -42 2 -43 3 -58 49 -14 45 -24 56 -33 40z"/>
        <path d="M2980 3150 c-19 -11 -71 -31 -114 -46 -112 -38 -203 -37 -311 3 -56
21 -88 28 -105 22 -15 -4 -18 -7 -8 -8 9 -1 32 -10 50 -20 82 -49 238 -65 339
-35 65 20 160 66 178 88 17 20 14 20 -29 -4z"/>
        <path d="M1009 2925 c-47 -37 -82 -43 -113 -20 -24 18 -56 19 -56 2 0 -7 11
-29 25 -49 14 -20 25 -42 25 -47 0 -6 -16 -28 -35 -50 -19 -21 -35 -42 -35
-46 0 -4 29 -4 64 0 l65 6 26 -40 c14 -23 33 -41 41 -41 14 0 16 9 12 51 -5
46 -3 51 19 60 13 5 42 9 64 9 61 0 48 26 -23 49 -21 7 -40 17 -44 22 -3 5 0
34 6 65 7 31 10 58 7 60 -2 2 -24 -12 -48 -31z"/>
        <path d="M9756 2951 c-3 -5 -1 -35 6 -67 7 -34 8 -59 2 -61 -38 -15 -99 -50
-101 -59 -2 -7 20 -14 58 -17 33 -4 65 -9 70 -13 5 -3 9 -25 9 -50 0 -55 18
-58 45 -6 l21 37 67 -3 c37 -2 67 1 67 5 0 5 -18 27 -40 48 -22 21 -40 44 -40
50 0 6 11 26 25 45 44 60 29 75 -40 40 -49 -25 -57 -25 -72 -1 -17 27 -70 63
-77 52z"/>
        <path d="M7605 2828 c-7 -20 -55 -188 -55 -193 0 -3 -45 -5 -100 -5 -55 0
-100 -4 -100 -9 0 -4 18 -20 40 -35 23 -15 58 -42 79 -61 l38 -35 -38 -102
c-22 -56 -39 -104 -39 -105 0 -13 32 6 96 57 41 33 82 60 90 60 8 0 50 -29 92
-65 42 -36 81 -65 86 -65 13 0 0 51 -32 133 -16 39 -28 77 -25 82 2 6 44 38
93 70 49 33 90 64 90 69 0 5 -52 7 -120 3 l-120 -5 -10 41 c-44 173 -53 197
-65 165z"/>
        <path d="M9537 2583 c-3 -4 -1 -30 4 -57 5 -26 6 -52 4 -57 -3 -4 -30 -16 -60
-25 -80 -26 -74 -45 18 -59 l46 -7 3 -56 c2 -30 8 -57 13 -59 6 -2 22 17 37
42 30 50 37 52 99 30 59 -21 67 -6 24 45 l-35 42 31 54 c37 65 25 77 -40 43
l-42 -22 -49 48 c-26 26 -50 43 -53 38z"/>
        <path d="M1248 2552 c-67 -56 -63 -55 -107 -33 -22 12 -45 21 -51 21 -18 0
-11 -29 16 -70 l26 -39 -31 -48 -32 -48 26 -3 c15 -2 41 2 57 9 29 12 32 11
72 -31 l41 -44 5 55 5 54 49 5 c27 3 51 10 53 16 2 6 -19 21 -47 33 -54 23
-61 39 -41 108 13 44 -1 49 -41 15z"/>
        <path d="M1501 2195 c-35 -49 -42 -52 -85 -30 -28 15 -56 20 -56 10 0 -3 11
-28 25 -55 l25 -49 -40 -37 c-22 -21 -40 -44 -40 -52 0 -14 2 -14 105 3 39 7
42 6 69 -34 37 -54 52 -48 48 17 l-4 51 56 27 c77 36 76 42 -12 64 l-44 11 4
56 c2 34 -1 58 -8 60 -6 2 -25 -17 -43 -42z"/>
        <path d="M9277 2233 c-4 -3 -7 -30 -7 -59 0 -59 -7 -66 -73 -78 -55 -10 -46
-36 18 -57 l50 -16 -3 -51 c-5 -64 7 -67 60 -15 l37 36 52 -17 c69 -22 85 -8
41 37 -18 18 -32 39 -32 46 0 7 14 33 30 58 17 24 30 46 30 49 0 10 -34 3 -70
-16 -22 -11 -42 -20 -45 -20 -2 0 -19 25 -36 55 -30 54 -39 62 -52 48z"/>
        <path d="M8177 2160 l-15 -40 -46 6 c-38 6 -46 4 -46 -9 0 -9 14 -26 31 -38
33 -23 34 -33 8 -96 -19 -48 -1 -62 39 -29 38 33 53 32 92 0 17 -15 33 -24 36
-21 3 3 0 23 -5 45 -14 50 -8 66 35 93 48 29 41 47 -15 39 -39 -5 -58 10 -65
50 -8 52 -28 52 -49 0z"/>
        <path d="M7417 2028 c-15 -46 -27 -89 -27 -97 0 -12 -20 -13 -110 -8 -67 3
-110 2 -110 -4 0 -5 38 -34 85 -64 47 -30 85 -57 85 -59 0 -2 -16 -47 -35
-100 -37 -104 -34 -115 23 -73 103 75 121 87 127 87 4 0 43 -30 87 -66 44 -36
82 -63 85 -60 4 3 -10 50 -30 104 -21 55 -37 102 -37 105 0 3 41 31 91 62 50
32 87 61 82 65 -4 4 -46 3 -92 -2 -124 -13 -122 -15 -156 97 -16 52 -31 95
-35 95 -3 0 -18 -37 -33 -82z"/>
        <path d="M1776 1862 c-32 -62 -38 -66 -81 -52 -64 21 -71 10 -29 -43 l38 -49
-27 -48 c-15 -26 -27 -51 -27 -54 0 -12 32 -6 71 14 42 22 59 19 93 -19 41
-45 59 -17 41 66 -4 19 4 28 51 54 30 17 52 35 47 40 -4 4 -33 9 -63 11 l-55
3 -7 54 c-9 77 -22 83 -52 23z"/>
        <path d="M8995 1873 c-17 -102 -9 -93 -86 -93 -38 0 -69 -4 -69 -10 0 -5 21
-21 48 -34 80 -42 77 -37 57 -96 -24 -72 -10 -82 49 -31 26 23 52 41 57 41 6
0 30 -11 53 -25 24 -14 45 -22 49 -19 3 3 -6 30 -21 60 l-26 54 37 38 c20 21
37 42 37 46 0 5 -25 6 -55 2 l-55 -6 -25 55 c-13 30 -28 55 -34 55 -6 0 -13
-17 -16 -37z"/>
        <path d="M6635 1687 c-7 -18 -17 -45 -20 -60 -7 -27 -8 -27 -71 -21 -41 4 -64
3 -64 -3 0 -8 79 -79 97 -88 1 0 -7 -31 -19 -68 -11 -38 -18 -71 -14 -74 3 -3
27 10 52 31 26 20 52 36 57 36 6 0 30 -12 54 -26 25 -14 47 -23 51 -19 3 3 -1
28 -11 54 -9 27 -17 53 -17 59 0 6 20 25 45 42 25 17 45 35 45 40 0 6 -27 10
-59 10 l-60 0 -22 60 c-12 33 -24 60 -26 60 -2 0 -10 -15 -18 -33z"/>
        <path d="M2096 1555 c-25 -56 -27 -57 -59 -51 -114 25 -122 19 -49 -40 26 -21
50 -43 54 -48 3 -5 -4 -31 -18 -58 -13 -26 -24 -52 -24 -58 0 -18 26 -11 70
21 l43 31 26 -21 c32 -26 70 -46 76 -40 2 3 -3 29 -12 59 -15 51 -15 55 2 65
53 31 79 51 77 60 -1 6 -27 12 -59 15 l-57 5 -12 49 c-19 75 -29 77 -58 11z"/>
        <path d="M8672 1593 c-5 -10 -13 -39 -16 -66 l-7 -48 -49 7 c-93 12 -101 -15
-16 -58 23 -11 42 -22 44 -23 2 -2 -4 -28 -13 -60 -9 -31 -15 -58 -13 -60 2
-2 24 9 48 25 54 36 61 36 111 8 21 -12 42 -18 46 -15 4 4 -3 31 -15 60 l-23
52 37 31 c26 22 35 37 31 48 -6 14 -15 16 -52 11 l-44 -7 -27 56 c-14 31 -28
56 -30 56 -2 0 -7 -8 -12 -17z"/>
        <path d="M2465 1284 l-25 -57 -38 6 c-20 4 -49 9 -64 13 -40 9 -36 -11 12 -55
22 -20 40 -41 40 -46 0 -6 -10 -29 -22 -52 -12 -23 -19 -45 -16 -49 4 -3 32 4
63 17 l55 23 38 -37 c21 -20 41 -37 46 -37 4 0 5 31 1 68 l-7 68 51 34 c28 19
51 39 51 43 0 5 -27 7 -60 5 l-60 -3 -10 35 c-6 19 -10 43 -10 52 0 39 -21 25
-45 -28z"/>
        <path d="M8320 1315 c-6 -14 -10 -33 -10 -41 0 -42 -19 -54 -83 -54 l-62 -1
32 -27 c17 -15 43 -35 57 -45 24 -17 25 -19 12 -61 -12 -40 -12 -45 5 -60 25
-21 26 -21 61 14 34 35 53 37 88 10 14 -11 28 -20 33 -20 13 0 7 30 -13 70
l-20 39 40 28 c56 40 52 53 -18 53 l-58 0 -18 55 c-20 65 -33 75 -46 40z"/>
        <path d="M2826 1100 c-2 -8 -7 -36 -11 -62 l-6 -48 -65 0 c-35 0 -64 -4 -64
-9 0 -5 20 -22 45 -38 52 -33 57 -42 44 -85 -22 -78 -2 -88 61 -31 l41 36 30
-36 c52 -63 76 -41 43 39 l-16 39 46 40 c25 23 46 44 46 48 0 3 -30 7 -67 9
-65 3 -67 4 -75 33 -11 42 -45 85 -52 65z"/>
        <path d="M7957 1050 c-24 -53 -32 -57 -97 -41 -61 14 -64 3 -15 -50 25 -26 45
-52 45 -57 0 -5 -7 -29 -15 -52 -8 -23 -15 -46 -15 -51 0 -16 25 -9 62 16 46
31 56 31 92 0 43 -37 50 -32 42 29 l-6 55 45 31 c25 17 45 35 45 40 0 6 -29
10 -65 10 l-65 0 0 44 c0 89 -21 99 -53 26z"/>
        <path d="M7563 849 c-20 -66 -14 -63 -94 -44 -13 3 -31 1 -39 -5 -12 -8 -7
-16 29 -48 47 -41 47 -37 16 -121 -9 -24 -13 -51 -10 -60 6 -14 9 -13 23 4 20
24 72 65 82 65 4 0 28 -16 54 -36 26 -20 49 -34 52 -31 2 2 -1 28 -8 57 -13
58 -17 51 57 103 33 23 27 30 -33 37 l-47 5 -24 68 c-13 37 -27 67 -32 67 -5
0 -17 -27 -26 -61z"/>
        <path d="M3222 868 c-7 -7 -12 -22 -12 -34 0 -13 -4 -34 -10 -49 -9 -25 -11
-25 -75 -19 -43 5 -65 3 -65 -4 0 -6 27 -27 60 -47 65 -39 66 -43 44 -125 -2
-8 0 -21 4 -27 6 -9 19 -1 47 27 22 22 45 40 52 40 8 0 32 -9 54 -20 64 -33
72 -10 21 59 l-26 35 47 41 c26 23 47 45 47 49 0 5 -29 5 -65 1 l-65 -7 -20
46 c-21 51 -21 51 -38 34z"/>
        <path d="M7160 688 c-11 -18 -20 -36 -20 -40 0 -11 -54 -10 -85 2 -41 15 -44
-14 -6 -54 17 -17 31 -38 31 -46 0 -7 -14 -35 -31 -62 -17 -27 -29 -52 -25
-55 3 -3 31 2 61 12 l55 19 38 -37 c21 -20 43 -37 48 -37 7 0 11 24 10 61 l-1
61 45 17 c67 25 64 46 -7 57 l-58 9 -3 63 c-3 72 -20 82 -52 30z"/>
        <path d="M3606 688 c-3 -13 -6 -42 -6 -65 l0 -43 -52 0 c-29 0 -60 -5 -68 -10
-13 -8 -12 -11 5 -24 11 -9 38 -22 60 -29 38 -13 40 -16 41 -58 1 -24 2 -51 3
-59 1 -9 15 -1 39 23 43 42 55 45 97 17 17 -11 38 -20 48 -20 16 0 15 6 -12
56 l-30 56 36 44 c20 25 33 47 29 51 -3 3 -27 2 -52 -4 -40 -9 -48 -8 -64 9
-10 11 -24 33 -30 49 -15 35 -35 38 -44 7z"/>
        <path d="M4010 511 l0 -69 -32 -7 c-43 -10 -92 -35 -83 -43 3 -4 32 -11 63
-17 l57 -10 3 -50 c4 -83 9 -85 55 -32 l42 48 47 -16 c26 -9 53 -15 58 -13 6
2 -5 24 -24 50 -20 26 -36 51 -36 56 0 5 14 30 31 56 39 58 29 72 -30 46 -24
-11 -49 -20 -56 -20 -8 0 -28 20 -46 45 -18 25 -36 45 -41 45 -4 0 -8 -31 -8
-69z"/>
        <path d="M6749 535 c-18 -25 -36 -45 -41 -45 -5 0 -26 9 -48 20 -73 37 -91 20
-40 -40 31 -35 38 -64 20 -75 -16 -10 -62 -86 -56 -92 3 -3 26 2 52 11 26 9
53 16 60 16 7 0 27 -21 44 -46 18 -25 34 -43 36 -41 3 3 8 33 12 67 l7 62 45
17 c42 15 69 51 38 51 -7 0 -30 5 -52 11 l-39 11 7 53 c3 30 2 56 -3 60 -5 3
-24 -15 -42 -40z"/>
        <path d="M4449 468 c-1 -7 -2 -39 -3 -72 l-1 -58 -52 -20 c-29 -11 -53 -23
-53 -27 0 -9 49 -21 86 -21 28 0 44 -31 44 -86 0 -48 15 -42 45 16 14 28 26
50 28 50 1 0 27 -7 57 -15 30 -8 58 -15 63 -15 16 0 5 22 -28 59 -38 42 -38
49 2 113 13 21 23 40 23 43 0 13 -34 3 -72 -21 l-42 -27 -39 47 c-40 47 -56
56 -58 34z"/>
        <path d="M6309 434 l-46 -46 -38 26 c-39 27 -75 34 -75 15 0 -6 14 -28 30 -49
17 -21 30 -42 30 -47 0 -5 -13 -24 -30 -43 -44 -53 -40 -61 29 -53 l60 6 14
-35 c15 -36 34 -55 44 -44 3 3 8 25 10 49 5 40 8 46 35 51 17 3 43 6 59 6 45
0 35 24 -22 55 l-51 27 7 64 c4 35 3 64 -2 64 -4 0 -29 -21 -54 -46z"/>
        <path d="M4866 422 c-3 -6 0 -30 9 -54 22 -64 19 -73 -36 -113 -29 -21 -48
-40 -43 -45 5 -5 34 -10 64 -12 l54 -3 13 -44 c19 -67 29 -69 51 -9 22 57 24
58 95 43 41 -8 47 1 19 31 -10 11 -27 32 -36 47 -18 26 -17 28 8 71 15 26 22
47 16 51 -5 3 -33 -6 -61 -20 l-52 -27 -47 47 c-27 27 -50 42 -54 37z"/>
        <path d="M5876 363 l-34 -37 -41 27 c-39 26 -71 35 -71 20 0 -5 12 -28 26 -53
l26 -45 -49 -42 c-58 -51 -51 -65 26 -52 30 4 57 6 61 4 4 -3 11 -20 14 -38 7
-38 31 -75 41 -65 4 3 9 26 12 50 8 59 18 68 74 68 26 0 51 4 54 10 3 5 -17
24 -45 41 -55 34 -54 31 -34 127 7 34 -20 28 -60 -15z"/>
        <path d="M5304 358 c20 -109 20 -105 -10 -121 -32 -17 -72 -57 -58 -58 5 0 33
0 61 1 l53 1 22 -47 c13 -26 28 -49 35 -51 6 -2 18 18 28 46 l17 51 48 0 c27
0 51 4 54 9 4 5 -13 25 -36 44 l-41 35 13 46 c7 26 10 50 6 53 -7 7 -10 6 -65
-35 l-30 -23 -44 41 c-24 22 -48 40 -52 40 -4 0 -5 -15 -1 -32z"/>
    </g>
</svg>
