<?xml version="1.0" standalone="no"?><!DOCTYPE svg PUBLIC "-//W3C//DTD SVG 1.1//EN"
        "http://www.w3.org/Graphics/SVG/1.1/DTD/svg11.dtd">
<svg t="1736387205540" class="icon" viewBox="0 0 1024 1024" version="1.1" xmlns="http://www.w3.org/2000/svg"
     p-id="18383" width="200" height="200">
    <path d="M415.6416 133.12a113.8688 113.8688 0 1 0 0 227.6864 113.8688 113.8688 0 0 0 0-227.6864zM240.3328 246.9888a175.3088 175.3088 0 1 1 350.5664 0 175.3088 175.3088 0 0 1-350.5664 0zM95.744 601.7536H463.872v61.44H157.184V890.88h547.5328v61.44H95.744v-350.5664z"
          lee="#496189" p-id="18384"></path>
    <path d="M680.6528 518.656a186.112 186.112 0 1 0 0 372.224 186.112 186.112 0 0 0 0-372.224zM433.152 704.7168a247.552 247.552 0 1 1 495.104 0 247.552 247.552 0 0 1-495.104 0z"
          lee="#496189" p-id="18385"></path>
    <path d="M514.3552 827.5968l297.0624-297.0624 43.4688 43.4688-297.0624 297.0112-43.4688-43.4176zM196.5056 616.6528l144.5888-240.9472 52.6848 31.6416-144.5888 240.9472-52.6848-31.6416zM573.5424 514.7136L490.1376 375.7056l-52.6848 31.6416 83.4048 138.9568 52.6848-31.5904z"
          lee="#496189" p-id="18386"></path>
</svg>
