<?xml version="1.0" standalone="no"?><!DOCTYPE svg PUBLIC "-//W3C//DTD SVG 1.1//EN"
        "http://www.w3.org/Graphics/SVG/1.1/DTD/svg11.dtd">
<svg t="1736386990433" class="icon" viewBox="0 0 1024 1024" version="1.1" xmlns="http://www.w3.org/2000/svg"
     p-id="14260" width="200" height="200">
    <path d="M96 938.666667c-17.066667 0-32-14.933333-32-32 0-232.533333 187.733333-418.133333 420.266667-418.133334 83.2 0 164.266667 25.6 234.666666 72.533334 14.933333 8.533333 23.466667 27.733333 14.933334 42.666666-8.533333 14.933333-27.733333 23.466667-42.666667 14.933334-2.133333-2.133333-4.266667-2.133333-6.4-4.266667-162.133333-110.933333-384-68.266667-492.8 93.866667-42.666667 57.6-64 128-64 198.4 0 17.066667-14.933333 32-32 32z"
          p-id="14261"></path>
    <path d="M484.266667 552.533333c-140.8 0-253.866667-113.066667-253.866667-253.866666S343.466667 42.666667 484.266667 42.666667s253.866667 113.066667 253.866666 253.866666c0 140.8-115.2 253.866667-253.866666 256z m0-445.866666c-104.533333 0-189.866667 85.333333-189.866667 189.866666s85.333333 189.866667 189.866667 189.866667 189.866667-85.333333 189.866666-189.866667-85.333333-189.866667-189.866666-189.866666zM763.733333 981.333333c-17.066667 0-32-14.933333-32-32v-70.4c0-29.866667 23.466667-53.333333 53.333334-53.333333 8.533333 0 19.2 2.133333 27.733333 6.4l57.6 34.133333 25.6-147.2-172.8 64 4.266667 2.133334c14.933333 8.533333 23.466667 27.733333 14.933333 42.666666-8.533333 14.933333-27.733333 23.466667-42.666667 14.933334-2.133333 0-2.133333-2.133333-4.266666-2.133334l-23.466667-12.8c-25.6-14.933333-34.133333-46.933333-19.2-72.533333 6.4-10.666667 17.066667-19.2 27.733333-23.466667l211.2-76.8c27.733333-10.666667 57.6 4.266667 68.266667 32 4.266667 8.533333 4.266667 17.066667 2.133333 27.733334L932.266667 896c-4.266667 29.866667-32 49.066667-61.866667 42.666667-6.4-2.133333-12.8-4.266667-17.066667-6.4l-53.333333-32v51.2c-4.266667 14.933333-19.2 29.866667-36.266667 29.866666z"
          p-id="14262"></path>
    <path d="M765.866667 898.133333c-8.533333 0-14.933333-2.133333-21.333334-6.4-12.8-10.666667-14.933333-32-4.266666-44.8l147.2-174.933333c10.666667-12.8 32-14.933333 44.8-4.266667s14.933333 32 4.266666 44.8L789.333333 887.466667c-6.4 6.4-14.933333 10.666667-23.466666 10.666666z"
          p-id="14263"></path>
</svg>
