<?xml version="1.0" standalone="no"?><!DOCTYPE svg PUBLIC "-//W3C//DTD SVG 1.1//EN" "http://www.w3.org/Graphics/SVG/1.1/DTD/svg11.dtd"><svg t="1736387082212" class="icon" viewBox="0 0 1027 1024" version="1.1" xmlns="http://www.w3.org/2000/svg" p-id="16288" xmlns:xlink="http://www.w3.org/1999/xlink" width="200.5859375" height="200"><path d="M712.360192 327.424H171.688192l169.216-169.216a51.2 51.2 0 0 0-72.448-72.448l-253.44 253.44a51.2 51.2 0 0 0 0 72.448l253.44 253.44a51.2 51.2 0 0 0 72.448-72.448L179.368192 429.824h532.992a213.504 213.504 0 0 1 212.736 227.84 218.624 218.624 0 0 1-220.416 198.656H249.768192a51.2 51.2 0 0 0 0 102.4h453.376a321.792 321.792 0 0 0 323.328-285.184 315.904 315.904 0 0 0-314.112-346.112z" p-id="16289"></path></svg>