<?xml version="1.0" standalone="no"?><!DOCTYPE svg PUBLIC "-//W3C//DTD SVG 1.1//EN"
        "http://www.w3.org/Graphics/SVG/1.1/DTD/svg11.dtd">
<svg t="1736386948115" class="icon" viewBox="0 0 1024 1024" version="1.1" xmlns="http://www.w3.org/2000/svg"
     p-id="13211" width="200" height="200">
    <path d="M506.13248 537.6a268.8 268.8 0 1 0-268.8-268.8A268.8 268.8 0 0 0 506.13248 537.6z m0-435.2a166.4 166.4 0 1 1-166.4 166.4 166.656 166.656 0 0 1 166.4-166.4zM482.58048 884.224H217.10848A113.152 113.152 0 0 1 102.42048 785.408 109.824 109.824 0 0 1 212.24448 665.6h475.136a51.2 51.2 0 0 0 51.2-51.2 51.2 51.2 0 0 0-51.2-51.2H218.64448A216.576 216.576 0 0 0 2.58048 742.4a212.736 212.736 0 0 0 209.664 245.76h270.336a51.2 51.2 0 0 0 51.2-51.2 51.2 51.2 0 0 0-51.2-52.736z"
          p-id="13212"></path>
    <path d="M1024.02048 733.696v-9.216-3.072a33.024 33.024 0 0 0-2.048-6.656v-1.792a54.784 54.784 0 0 0-9.984-14.592L900.37248 588.8a51.2 51.2 0 0 0-72.192 72.448l20.992 20.992H665.62048a51.2 51.2 0 0 0 0 102.4h307.2a46.336 46.336 0 0 0 10.24 0 51.2 51.2 0 0 0 25.6-13.568 51.2 51.2 0 0 0 13.568-25.6 44.032 44.032 0 0 0 0-9.984zM972.82048 813.056H665.62048a69.376 69.376 0 0 0-10.24 0 51.2 51.2 0 0 0-25.6 13.824 49.408 49.408 0 0 0-13.568 25.6 46.336 46.336 0 0 0 0 10.24v12.288a30.976 30.976 0 0 0 2.048 6.4v2.048a48.896 48.896 0 0 0 9.728 14.336l108.8 108.8a51.2 51.2 0 0 0 72.192-72.448l-20.992-21.248H972.82048a51.2 51.2 0 1 0 0-102.4z"
          p-id="13213"></path>
</svg>
