<?xml version="1.0" standalone="no"?><!DOCTYPE svg PUBLIC "-//W3C//DTD SVG 1.1//EN"
        "http://www.w3.org/Graphics/SVG/1.1/DTD/svg11.dtd">
<svg t="1692169500817" class="icon" viewBox="0 0 1024 1024" version="1.1" xmlns="http://www.w3.org/2000/svg" p-id="9902"
     width="200" height="200">
    <path d="M480 503.104v266.752l-81.024-81.024a32 32 0 0 0-45.248 45.248l134.528 134.528c0.384 0.448 0.576 1.088 1.024 1.536a32 32 0 0 0 45.248 0l135.744-135.744a32 32 0 0 0-45.248-45.248L544 770.112V503.104a32 32 0 0 0-64 0zM800 68.032h-576a32 32 0 0 1 0-64h576a32 32 0 0 1 0 64zM864 217.92h-704a32 32 0 0 1 0-64h704a32 32 0 1 1 0 64z"
          p-id="9903"></path>
    <path d="M864 377.216c36.8 0 66.752 29.952 66.752 66.752v448c0 36.8-29.952 66.752-66.752 66.752h-704a66.816 66.816 0 0 1-66.752-66.752v-448c0-36.8 29.952-66.752 66.752-66.752h704m0-61.248h-704a128 128 0 0 0-128 128v448a128 128 0 0 0 128 128h704a128 128 0 0 0 128-128v-448a128 128 0 0 0-128-128z"
          p-id="9904"></path>
</svg>