<?xml version="1.0" standalone="no"?><!DOCTYPE svg PUBLIC "-//W3C//DTD SVG 1.1//EN"
        "http://www.w3.org/Graphics/SVG/1.1/DTD/svg11.dtd">
<svg t="1713771486486" class="icon" viewBox="0 0 1024 1024" version="1.1" xmlns="http://www.w3.org/2000/svg"
     p-id="27610" width="200" height="200">
    <path d="M843.989333 85.333333C896.298667 85.333333 938.666667 127.701333 938.666667 180.010667V843.946667A94.677333 94.677333 0 0 1 843.989333 938.666667H180.053333A94.677333 94.677333 0 0 1 85.333333 843.989333V180.053333C85.333333 127.701333 127.701333 85.333333 180.010667 85.333333z m0 85.333334H180.053333A9.344 9.344 0 0 0 170.666667 180.010667V843.946667c0 5.162667 4.181333 9.344 9.344 9.344H843.946667c5.162667 0 9.344-4.181333 9.344-9.344V180.053333A9.344 9.344 0 0 0 843.989333 170.666667zM608 618.666667a42.666667 42.666667 0 0 1 0 85.333333h-192a42.666667 42.666667 0 0 1 0-85.333333h192z m120.96-149.333334c21.589333 0 39.04 17.493333 39.04 39.04v7.253334c0 21.589333-17.493333 39.04-39.04 39.04H295.04A39.04 39.04 0 0 1 256 515.626667v-7.253334c0-21.589333 17.493333-39.04 39.04-39.04h433.92z m-117.333333-149.333333c21.589333 0 39.04 17.493333 39.04 39.04v7.253333c0 21.589333-17.493333 39.04-39.04 39.04h-199.253334a39.04 39.04 0 0 1-39.04-39.04v-7.253333c0-21.589333 17.493333-39.04 39.04-39.04h199.253334z"
          lee="#000000" p-id="27611"></path>
</svg>
