<?xml version="1.0" standalone="no"?><!DOCTYPE svg PUBLIC "-//W3C//DTD SVG 1.1//EN"
        "http://www.w3.org/Graphics/SVG/1.1/DTD/svg11.dtd">
<svg t="1692168634857" class="icon" viewBox="0 0 1024 1024" version="1.1" xmlns="http://www.w3.org/2000/svg"
     p-id="10773"
     width="200" height="200">
    <path d="M352.886154 862.916923H214.252308V155.884308h595.495384v195.899077c0 23.709538 27.490462 46.631385 52.381539 46.631384 24.969846 0 49.309538-22.843077 49.309538-46.631384V137.058462A85.858462 85.858462 0 0 0 825.501538 51.042462h-630.153846a85.858462 85.858462 0 0 0-85.858461 85.858461v744.763077c0 47.497846 38.439385 85.937231 85.858461 85.937231h157.538462c23.709538 0 42.929231-26.072615 42.929231-52.302769s-19.219692-52.381538-42.929231-52.381539z m114.609231-468.125538H281.206154a42.929231 42.929231 0 1 0 0 85.858461h186.210461a42.929231 42.929231 0 1 0 0-85.858461z m389.828923 321.378461l-50.569846 6.852923a28.829538 28.829538 0 0 0-24.024616 21.425231c-2.205538 9.137231-5.435077 18.116923-9.609846 26.545231a28.750769 28.750769 0 0 0 2.914462 30.011077l32.68923 42.771692-14.020923 13.942154-39.384615-30.089846a28.672 28.672 0 0 0-32.295385-1.654154c-8.428308 5.12-17.329231 9.294769-26.624 12.445538a28.672 28.672 0 0 0-19.298461 23.315693l-6.931693 51.830153h-19.692307l-6.459077-48.04923a28.672 28.672 0 0 0-21.582769-24.024616 134.144 134.144 0 0 1-28.356924-10.476307 28.750769 28.750769 0 0 0-30.404923 2.756923l-40.723692 31.113846-14.020923-13.863385 29.302154-38.439384c7.089231-9.294769 7.876923-21.976615 1.890461-32.059077a132.489846 132.489846 0 0 1-12.603077-27.569231 28.672 28.672 0 0 0-23.47323-19.692308l-50.884923-6.852923V706.56l48.679384-6.537846a28.514462 28.514462 0 0 0 23.867077-21.110154 133.907692 133.907692 0 0 1 10.476308-27.569231 28.672 28.672 0 0 0-2.599385-30.641231l-31.901538-41.668923 14.020923-13.942153 40.172308 30.64123c9.137231 7.089231 21.582769 7.798154 31.66523 1.969231 8.507077-4.883692 17.171692-8.743385 25.836308-11.500308a28.750769 28.750769 0 0 0 19.692308-23.47323l7.246769-53.484308h19.692308l6.852923 51.2c1.575385 11.579077 9.924923 20.952615 21.188923 23.945846 8.822154 2.363077 17.329231 5.513846 25.521231 9.609846a28.908308 28.908308 0 0 0 30.326153-2.756923l43.638154-33.319384 13.942154 13.863384-31.428923 41.275077a28.593231 28.593231 0 0 0-1.811692 32.059077c4.726154 7.876923 8.507077 16.226462 11.421538 24.812308 3.544615 10.24 12.603077 17.723077 23.315692 19.140923l54.35077 7.325538v19.692308z m32.452923-73.097846l-62.542769-8.428308a8.428308 8.428308 0 0 1-0.551385-1.260307l35.524923-46.631385a28.672 28.672 0 0 0-2.520615-37.651692l-49.388308-49.388308a28.672 28.672 0 0 0-37.572923-2.520615l-50.176 38.281846-1.339077-0.551385-7.798154-57.974154a28.672 28.672 0 0 0-28.356923-24.891077H615.187692a28.750769 28.750769 0 0 0-28.356923 24.891077l-8.270769 61.282462-2.363077 1.024-45.686154-34.816a28.672 28.672 0 0 0-37.651692 2.520615l-49.309539 49.388308a28.672 28.672 0 0 0-2.520615 37.651692l36.627692 47.970462a104.290462 104.290462 0 0 0-1.417846 3.859692l-55.532307 7.404308a28.672 28.672 0 0 0-24.891077 28.356923v69.868308c0 14.336 10.633846 26.466462 24.812307 28.356923l58.840616 7.876923 2.048 4.726154-33.319385 43.716923a28.672 28.672 0 0 0 2.520615 37.572923l49.388308 49.467077c10.24 10.082462 26.230154 11.106462 37.651692 2.520615l47.261539-36.076308 4.647385 1.732923 7.325538 54.587077c1.890462 14.257231 14.020923 24.891077 28.356923 24.891077h69.868308a28.672 28.672 0 0 0 28.356923-24.891077l8.113231-59.943384 3.544615-1.575385 44.662154 34.028308c11.342769 8.664615 27.569231 7.561846 37.651692-2.520616l49.388308-49.388307a28.672 28.672 0 0 0 2.520615-37.651693l-37.730461-49.309538 0.866461-2.205539 57.186462-7.798153a28.672 28.672 0 0 0 24.812307-28.356923v-69.789539a28.672 28.672 0 0 0-24.812307-28.356923z m-234.496 101.612308a33.240615 33.240615 0 1 1 0-66.56 33.240615 33.240615 0 0 1 0 66.48123z m0-123.746462a90.584615 90.584615 0 0 0 0 180.932923 90.584615 90.584615 0 0 0 0-180.932923z"
          p-id="10774"></path>
</svg>