<?xml version="1.0" standalone="no"?><!DOCTYPE svg PUBLIC "-//W3C//DTD SVG 1.1//EN"
        "http://www.w3.org/Graphics/SVG/1.1/DTD/svg11.dtd">
<svg t="1734078176838" class="icon" viewBox="0 0 1170 1024" version="1.1" xmlns="http://www.w3.org/2000/svg" p-id="7914"
     xmlns:xlink="http://www.w3.org/1999/xlink" width="228.515625" height="200">
    <path d="M371.244373 512.24381l513.950477-352.889905L157.325897 345.965714l213.967238 166.278096z m80.847238 62.805333l350.403048 272.237714 221.671619-665.014857L452.04285 575.049143z m143.262477 234.788571l-190.025143 128.048762a48.761905 48.761905 0 0 1-75.971048-40.472381V603.184762L18.89085 361.959619a48.761905 48.761905 0 0 1 17.798095-85.77219L1107.93923 1.560381a48.761905 48.761905 0 0 1 58.368 62.659048l-293.059047 879.274666a48.761905 48.761905 0 0 1-76.214857 23.064381l-201.679238-156.720762z m-81.091048-63.000381l-87.381333-67.925333v126.878476l87.381333-58.953143z"
          lee="#6B9CFF" p-id="7915"></path>
</svg>
