<?xml version="1.0" standalone="no"?><!DOCTYPE svg PUBLIC "-//W3C//DTD SVG 1.1//EN"
        "http://www.w3.org/Graphics/SVG/1.1/DTD/svg11.dtd">
<svg t="1692168600982" class="icon" viewBox="0 0 1024 1024" version="1.1" xmlns="http://www.w3.org/2000/svg"
     p-id="10043"
     width="200" height="200">
    <path d="M893.376119 0a23.271669 23.271669 0 0 1 22.85278 19.036226l106.770419 576.485796a23.271669 23.271669 0 0 1 0.27926 2.140993l0.605064 6.329894a23.271669 23.271669 0 0 1 0.093086 2.140994V1000.681787a23.271669 23.271669 0 0 1-23.271669 23.27167H23.294941a23.271669 23.271669 0 0 1-23.271669-23.27167V605.063406l0.093086-1.070497 0.605064-6.329894a23.271669 23.271669 0 0 1 0.27926-2.140993L107.771101 19.082769A23.271669 23.271669 0 0 1 130.623881 0zM930.89005 651.606745H93.10995v279.260034h837.7801v-279.260034zM404.95032 814.508431a13.963002 13.963002 0 0 1 13.963002 13.963002v41.889005a13.963002 13.963002 0 0 1-13.963002 13.963002H293.246307a13.963002 13.963002 0 0 1-13.963002-13.963002v-41.889005a13.963002 13.963002 0 0 1 13.963002-13.963002h111.704013z m232.716695 0a13.963002 13.963002 0 0 1 13.963002 13.963002v41.889005a13.963002 13.963002 0 0 1-13.963002 13.963002h-111.704013a13.963002 13.963002 0 0 1-13.963002-13.963002v-41.889005a13.963002 13.963002 0 0 1 13.963002-13.963002h111.704013z m232.716695 0a13.963002 13.963002 0 0 1 13.963002 13.963002v41.889005a13.963002 13.963002 0 0 1-13.963002 13.963002h-111.704014a13.963002 13.963002 0 0 1-13.963001-13.963002v-41.889005a13.963002 13.963002 0 0 1 13.963001-13.963002h111.704014zM186.196627 744.693423a46.543339 46.543339 0 1 1 0 93.086678 46.543339 46.543339 0 0 1 0-93.086678z m218.753693-46.543339a13.963002 13.963002 0 0 1 13.963002 13.963002v41.889005a13.963002 13.963002 0 0 1-13.963002 13.963001H293.246307a13.963002 13.963002 0 0 1-13.963002-13.963001v-41.889005a13.963002 13.963002 0 0 1 13.963002-13.963002h111.704013z m232.716695 0a13.963002 13.963002 0 0 1 13.963002 13.963002v41.889005a13.963002 13.963002 0 0 1-13.963002 13.963001h-111.704013a13.963002 13.963002 0 0 1-13.963002-13.963001v-41.889005a13.963002 13.963002 0 0 1 13.963002-13.963002h111.704013z m232.716695 0a13.963002 13.963002 0 0 1 13.963002 13.963002v41.889005a13.963002 13.963002 0 0 1-13.963002 13.963001h-111.704014a13.963002 13.963002 0 0 1-13.963001-13.963001v-41.889005a13.963002 13.963002 0 0 1 13.963001-13.963002h111.704014z m-35.140221-605.063406H188.709968L102.511704 558.520067h818.930049L835.243489 93.086678z m-277.95682 277.53793l1.349757 1.210127 53.757556 57.387937a9.960275 9.960275 0 0 0 5.631744 3.025317l1.629017 0.13963h87.12913a20.385982 20.385982 0 0 1 0 40.771965h-104.257079a9.913731 9.913731 0 0 1-6.050634-2.094451l-1.25667-1.070496-65.626108-70.047725a10.332621 10.332621 0 0 1-0.884323-13.032135l1.210126-1.396301 14.521522-14.056088 1.3963-1.11704a9.913731 9.913731 0 0 1 11.449662 0.27926zM697.056316 167.55602c2.65297 0 5.212854 1.070497 7.12113 2.978774l60.878688 61.902641a10.286078 10.286078 0 0 1 0 14.428435l-60.878688 61.809554a9.913731 9.913731 0 0 1-14.195718 0 10.239535 10.239535 0 0 1-2.93223-7.167674v-42.354439h-67.394755a9.960275 9.960275 0 0 0-7.260761 3.118404l-194.644243 207.722922a9.960275 9.960275 0 0 1-7.260761 3.164947H295.852734a10.099905 10.099905 0 0 1-10.053361-10.239535V442.627153c0-5.631744 4.514704-10.239535 10.053361-10.239534h97.415208a9.960275 9.960275 0 0 0 7.260761-3.118404l194.690787-207.676378a9.960275 9.960275 0 0 1 7.260761-3.164947h84.522703v-40.632335c0-5.631744 4.514704-10.192991 10.053362-10.192991z m-370.112632 2.699514c4.04927 0 7.540021 2.466797 9.122495 5.957547v42.121722h74.422799c2.187537 0 4.328531 0.744693 6.050634 2.09445l1.210127 1.11704 64.136721 68.418709a10.332621 10.332621 0 0 1 0.884323 13.032134l-1.210127 1.396301-14.521521 14.056088a9.913731 9.913731 0 0 1-12.845962 0.83778l-1.349757-1.210127-52.314713-55.805463a9.960275 9.960275 0 0 0-5.631744-3.025317l-1.629017-0.13963H336.066179v49.242852a9.913731 9.913731 0 0 1-13.637198 4.933594l-2.606427-1.861733-60.878688-61.902641a10.332621 10.332621 0 0 1-1.861733-11.775465l1.861733-2.65297 60.878688-61.902641a9.960275 9.960275 0 0 1 7.12113-2.93223z"
          p-id="10044"></path>
</svg>