<?xml version="1.0" standalone="no"?><!DOCTYPE svg PUBLIC "-//W3C//DTD SVG 1.1//EN"
        "http://www.w3.org/Graphics/SVG/1.1/DTD/svg11.dtd">
<svg t="1692168639477" class="icon" viewBox="0 0 1063 1024" version="1.1" xmlns="http://www.w3.org/2000/svg"
     p-id="10914"
     width="207.6171875" height="200">
    <path d="M1063.896104 849.63925l-5.171717-115.994228h-51.717172a195.047619 195.047619 0 0 0-31.76912-49.500722l18.470419-48.023088-102.695527-52.455988-23.642136 36.20202V487.619048a58.366522 58.366522 0 0 0-54.672438-58.366523H533.425685V350.199134h66.493507a79.053391 79.053391 0 0 0 79.053391-79.053391v-192.092352A79.053391 79.053391 0 0 0 599.919192 0h-192.092352a79.053391 79.053391 0 0 0-79.053391 79.053391v192.092352a79.053391 79.053391 0 0 0 79.053391 79.053391h66.493506v79.053391H199.480519a58.366522 58.366522 0 0 0-58.366522 58.366523v154.412698h-62.060606A79.053391 79.053391 0 0 0 0 720.34632v192.092352a79.053391 79.053391 0 0 0 79.053391 79.053391h192.092352a79.053391 79.053391 0 0 0 79.053391-79.053391v-192.092352a79.053391 79.053391 0 0 0-79.053391-78.314574h-73.881674V488.357864h608.046176v138.158731l-31.769119-39.896104-98.262627 62.799422 23.642136 45.806638a167.7114 167.7114 0 0 0-26.597403 52.455989l-50.978355 7.388167 5.171718 115.994228h51.717171a158.106782 158.106782 0 0 0 31.76912 49.500722l-19.209235 48.023088 103.434343 53.194805 28.075036-43.590188a176.577201 176.577201 0 0 0 59.105339 0l31.76912 39.896104 97.52381-62.799423-23.642136-45.806638a187.659452 187.659452 0 0 0 27.336219-52.455988zM387.878788 271.145743v-192.092352A20.686869 20.686869 0 0 1 407.82684 59.105339h192.092352a19.948052 19.948052 0 0 1 19.948052 19.948052v192.092352a19.948052 19.948052 0 0 1-19.948052 19.948052h-192.092352a20.686869 20.686869 0 0 1-19.948052-19.948052zM291.093795 720.34632v192.092352a19.948052 19.948052 0 0 1-19.948052 19.948052h-192.092352a19.948052 19.948052 0 0 1-19.948052-19.948052v-192.092352a19.948052 19.948052 0 0 1 19.948052-19.209235h192.092352a19.948052 19.948052 0 0 1 19.948052 19.209235z m690.054834 101.217894v13.298701a141.113997 141.113997 0 0 1-30.291486 59.105339l-8.865801 10.343434 19.209235 36.940837-36.940837 23.642136-25.858586-32.507937-13.298701 3.694084a147.763348 147.763348 0 0 1-66.493506 3.694084h-13.298702l-22.903319 35.463203-43.590187-22.903319 14.776335-39.157287-9.604618-9.604617a121.165945 121.165945 0 0 1-21.425685-25.858586 138.15873 138.15873 0 0 1-14.776335-29.55267l-4.432901-13.298701h-41.373737v-43.590188l41.373737-5.910534v-13.298701a142.591631 142.591631 0 0 1 31.030303-59.105339l8.865801-10.343434L726.256854 664.935065l36.940837-23.642136 25.858586 32.507937h12.559885a138.897547 138.897547 0 0 1 67.232323-8.865801h13.298701l22.164502-35.463204 39.157287 19.948052-15.515151 39.157288 10.343434 8.8658a248.981241 248.981241 0 0 1 21.425686 25.858586 160.323232 160.323232 0 0 1 14.037518 30.291487l4.4329 13.298701h42.112554v43.590187z"
          lee="#FFFFFF" p-id="10915"></path>
    <path d="M798.660895 738.816739A79.792208 79.792208 0 0 0 886.580087 869.587302a80.531025 80.531025 0 0 0 23.642135-110.822511 79.792208 79.792208 0 0 0-111.561327-19.948052z m65.015873 100.479076a39.896104 39.896104 0 0 1-55.411256-11.821068 39.896104 39.896104 0 1 1 55.411256 11.821068z"
          lee="#FFFFFF" p-id="10916"></path>
</svg>