<?xml version="1.0" standalone="no"?><!DOCTYPE svg PUBLIC "-//W3C//DTD SVG 1.1//EN"
        "http://www.w3.org/Graphics/SVG/1.1/DTD/svg11.dtd">
<svg t="1693280063958" class="icon" viewBox="0 0 1024 1024" version="1.1" xmlns="http://www.w3.org/2000/svg"
     p-id="26646"
     width="200" height="200">
    <path d="M426.4 593.5c1.8 0 3.2 1.4 3.2 3.2v157.6c0 1.8-1.4 3.2-3.2 3.2H268.8c-1.8 0-3.2-1.4-3.2-3.2V596.7c0-1.8 1.4-3.2 3.2-3.2h157.6m0-48H268.8c-28.3 0-51.2 22.9-51.2 51.2v157.6c0 28.3 22.9 51.2 51.2 51.2h157.6c28.3 0 51.2-22.9 51.2-51.2V596.7c0-28.3-22.9-51.2-51.2-51.2zM737 593.5c1.7 0 3 1.3 3 3v158c0 1.7-1.3 3-3 3H579c-1.7 0-3-1.3-3-3v-158c0-1.7 1.3-3 3-3h158m0-48H579c-28.2 0-51 22.8-51 51v158c0 28.2 22.8 51 51 51h158c28.2 0 51-22.8 51-51v-158c0-28.2-22.8-51-51-51zM426.4 284c1.8 0 3.2 1.4 3.2 3.2v157.6c0 1.8-1.4 3.2-3.2 3.2H268.8c-1.8 0-3.2-1.4-3.2-3.2V287.3c0-1.8 1.4-3.2 3.2-3.2h157.6m0-48.1H268.8c-28.3 0-51.2 22.9-51.2 51.2v157.6c0 28.3 22.9 51.2 51.2 51.2h157.6c28.3 0 51.2-22.9 51.2-51.2V287.3c0-28.3-22.9-51.3-51.2-51.3zM656.6 267.7c1.2 0 1.9 0.6 2.1 0.9l94.8 94.8c0.2 0.2 0.9 0.9 0.9 2.1s-0.6 1.9-0.9 2.1l-94.8 94.8c-0.2 0.2-0.9 0.9-2.1 0.9s-1.9-0.6-2.1-0.9l-94.8-94.8c-1.2-1.2-1.2-3.1 0-4.2l94.8-94.8c0.2-0.3 0.9-0.9 2.1-0.9m0-48c-13.1 0-26.1 5-36.1 14.9l-94.8 94.8c-19.9 19.9-19.9 52.2 0 72.1l94.8 94.8c10 10 23 14.9 36.1 14.9 13.1 0 26.1-5 36.1-14.9l94.8-94.8c19.9-19.9 19.9-52.2 0-72.1l-94.8-94.8c-10-9.9-23.1-14.9-36.1-14.9z"
          p-id="26647"></path>
</svg>