<?xml version="1.0" standalone="no"?><!DOCTYPE svg PUBLIC "-//W3C//DTD SVG 1.1//EN"
        "http://www.w3.org/Graphics/SVG/1.1/DTD/svg11.dtd">
<svg t="1736759204945" class="icon" viewBox="0 0 1024 1024" version="1.1" xmlns="http://www.w3.org/2000/svg" p-id="4256"
     xmlns:xlink="http://www.w3.org/1999/xlink" width="200" height="200">
    <path d="M365.440412 148.287907v218.943863H146.560548C65.280599 367.23177 0.00064 432.54373 0.00064 511.99968v365.439772A146.175909 146.175909 0 0 0 146.560548 1023.99936H512.00032a146.175909 146.175909 0 0 0 146.559908-146.559908v-139.455913h37.055977c160.6399 0 328.383795-51.199968 328.383795-146.559909V148.319907c0-197.727876-658.559588-197.727876-658.559588 0z m218.943863 729.183545c1.759999 38.815976-26.495983 70.623956-65.311959 72.383954H146.528548c-38.815976 1.759999-70.623956-26.495983-72.383954-65.343959V511.99968c-1.759999-38.847976 26.495983-70.623956 65.343959-72.383955H512.00032c38.847976-1.759999 70.623956 26.495983 72.383955 65.311959v372.543768z m367.23177-284.255823c0 21.183987-88.287945 72.383955-255.99984 72.383955h-37.087977v-65.311959h37.087977c95.35994 0 190.687881-14.143991 255.99984-51.199968v44.127972z m0-146.559908v7.071995c0 21.183987-88.287945 72.383955-255.99984 72.383955h-37.087977V511.99968c-1.759999-22.943986-7.039996-44.159972-14.111991-65.311959h51.199968c95.35994 0 190.687881-14.143991 255.99984-51.199968v51.199968z m0-144.76791c0 21.215987-88.287945 72.415955-255.99984 72.415955s-255.99984-44.159972-255.99984-65.343959V243.647848a669.215582 669.215582 0 0 0 255.99984 51.199968c95.35994 0 190.687881-14.143991 255.99984-51.199968v58.239963z m-255.99984-81.183949c-167.711895 0-255.99984-51.199968-255.99984-72.415955 0-21.183987 88.287945-72.383955 255.99984-72.383954s255.99984 51.199968 255.99984 72.383954c0 21.215987-88.287945 72.415955-255.99984 72.415955z"
          lee="#117EE7" p-id="4257"></path>
    <path d="M490.816333 527.90367c-17.663989-7.071996-40.607975-1.791999-51.199968 14.079991l-153.599904 255.99984L204.800512 718.591551a36.223977 36.223977 0 0 0-51.199968 51.199968l109.439932 109.439931c7.071996 7.103996 14.143991 7.103996 30.047981 7.103996h7.039995c12.383992 0 22.975986-5.311997 30.015982-14.143991l174.78389-291.295818c5.311997-21.183987 0-40.639975-14.111991-52.959967z"
          lee="#117EE7" p-id="4258"></path>
</svg>
