<?xml version="1.0" standalone="no"?><!DOCTYPE svg PUBLIC "-//W3C//DTD SVG 1.1//EN"
        "http://www.w3.org/Graphics/SVG/1.1/DTD/svg11.dtd">
<svg t="1692760725354" class="icon" viewBox="0 0 1024 1024" version="1.1" xmlns="http://www.w3.org/2000/svg" p-id="5143"
     width="200" height="200">
    <path d="M620.4416 592.56832a188.78464 188.78464 0 1 0-170.45504-107.47904l-222.6176 222.6176a41.7792 41.7792 0 0 0 0 59.24864l30.208 29.57312a41.8816 41.8816 0 0 0 59.26912 0l89.12896-89.78432 11.14112 11.12064a41.8816 41.8816 0 0 0 59.24864 0l29.696-29.696a42.3936 42.3936 0 0 0 0-59.24864l-10.93632-10.91584 43.78624-43.76576a190.7712 190.7712 0 0 0 81.5104 18.3296z m-111.53408-48.7424l-43.88864 43.76576-29.9008 30.4128 40.61184 40.61184-28.93824 29.04064-10.58816-10.60864-30.22848-30.3104-29.98272 30.0032L286.72 766.42304l-29.16352-29.16352 222.6176-222.6176 21.1968-21.17632-12.94336-27.15648a145.408 145.408 0 1 1 68.8128 69.12l-27.136-12.82048zM911.36 430.77632l40.96-14.86848v-53.73952l-40.96 14.86848v53.73952z"
          lee="#666666" p-id="5144"></path>
    <path d="M911.36 901.12a10.24 10.24 0 0 1-10.24 10.24H122.88a10.24 10.24 0 0 1-10.24-10.24V122.88a10.24 10.24 0 0 1 10.24-10.24h829.2352v-20.48a20.50048 20.50048 0 0 0-20.48-20.48H102.4A30.76096 30.76096 0 0 0 71.68 102.4v819.2A30.76096 30.76096 0 0 0 102.4 952.32h819.2a30.76096 30.76096 0 0 0 30.72-30.72V459.42784l-40.96 15.03232z"
          lee="#666666" p-id="5145"></path>
    <path d="M931.84 256h-20.48v77.33248l40.96-14.86848V276.48a20.50048 20.50048 0 0 0-20.48-20.48zM620.11392 467.47648a63.61088 63.61088 0 1 0-63.61088-63.5904 63.61088 63.61088 0 0 0 63.61088 63.5904z m-19.6608-71.53664a21.1968 21.1968 0 1 1 4.9152 23.20384 21.1968 21.1968 0 0 1-4.9152-23.20384z"
          lee="#666666" p-id="5146"></path>
</svg>