<?xml version="1.0" standalone="no"?><!DOCTYPE svg PUBLIC "-//W3C//DTD SVG 1.1//EN"
        "http://www.w3.org/Graphics/SVG/1.1/DTD/svg11.dtd">
<svg t="1692168680689" class="icon" viewBox="0 0 1024 1024" version="1.1" xmlns="http://www.w3.org/2000/svg"
     p-id="11920"
     width="200" height="200">
    <path d="M1000.448 842.752c-22.528 3.072-44.032 16.384-56.32 37.888s-13.312 46.08-5.12 67.584c-20.48 17.408-44.032 31.744-69.632 39.936-14.336-18.432-36.864-29.696-61.44-29.696s-47.104 11.264-61.44 29.696c-25.6-8.192-50.176-22.528-69.632-39.936 8.192-21.504 7.168-46.08-5.12-67.584s-33.792-34.816-56.32-37.888c-3.072-13.312-4.096-26.624-4.096-39.936s1.024-27.648 4.096-39.936c22.528-3.072 44.032-16.384 56.32-37.888s13.312-46.08 5.12-67.584c20.48-17.408 44.032-31.744 69.632-39.936 14.336 18.432 36.864 29.696 61.44 29.696s47.104-11.264 61.44-29.696c25.6 8.192 50.176 22.528 69.632 39.936-8.192 21.504-7.168 46.08 5.12 67.584s33.792 34.816 56.32 37.888c3.072 13.312 4.096 26.624 4.096 39.936 0 13.312-1.024 26.624-4.096 39.936zM807.936 723.968c-43.008 0-78.848 34.816-78.848 78.848 0 43.008 34.816 78.848 78.848 78.848s78.848-34.816 78.848-78.848c0-43.008-35.84-78.848-78.848-78.848z m-378.88-340.992h-143.36c-22.528 0-40.96-18.432-40.96-40.96v-143.36c0-22.528 18.432-40.96 40.96-40.96h143.36c22.528 0 40.96 18.432 40.96 40.96v143.36c0 22.528-18.432 40.96-40.96 40.96z m-20.48-153.6c0-6.144-4.096-10.24-10.24-10.24h-81.92c-6.144 0-10.24 4.096-10.24 10.24v81.92c0 6.144 4.096 10.24 10.24 10.24h81.92c6.144 0 10.24-4.096 10.24-10.24v-81.92z m61.44 358.4c0 22.528-18.432 40.96-40.96 40.96h-143.36c-22.528 0-40.96-18.432-40.96-40.96v-143.36c0-22.528 18.432-40.96 40.96-40.96h143.36c22.528 0 40.96 18.432 40.96 40.96v143.36z m-61.44-112.64c0-6.144-4.096-10.24-10.24-10.24h-81.92c-6.144 0-10.24 4.096-10.24 10.24v81.92c0 6.144 4.096 10.24 10.24 10.24h81.92c6.144 0 10.24-4.096 10.24-10.24v-81.92z m122.88-92.16c-22.528 0-40.96-18.432-40.96-40.96v-143.36c0-22.528 18.432-40.96 40.96-40.96h143.36c22.528 0 40.96 18.432 40.96 40.96v143.36c0 22.528-18.432 40.96-40.96 40.96h-143.36z m122.88-153.6c0-6.144-4.096-10.24-10.24-10.24h-81.92c-6.144 0-10.24 4.096-10.24 10.24v81.92c0 6.144 4.096 10.24 10.24 10.24h81.92c6.144 0 10.24-4.096 10.24-10.24v-81.92z m-51.2 399.36c-62.464 0-112.64-50.176-112.64-112.64s50.176-112.64 112.64-112.64 112.64 50.176 112.64 112.64-50.176 112.64-112.64 112.64z m0-168.96c-30.72 0-56.32 25.6-56.32 56.32s25.6 56.32 56.32 56.32 56.32-25.6 56.32-56.32-25.6-56.32-56.32-56.32z m276.48 113.664V126.976c0-17.408-13.312-30.72-30.72-30.72h-737.28c-17.408 0-30.72 13.312-30.72 30.72v532.48c0 17.408 13.312 30.72 30.72 30.72h531.456c-2.048 3.072-3.072 7.168-5.12 10.24-15.36 26.624-41.984 43.008-70.656 47.104 0 1.024 0 2.048-1.024 4.096H80.896c-33.792 0-61.44-27.648-61.44-61.44v-593.92c0-33.792 27.648-61.44 61.44-61.44h798.72c33.792 0 61.44 27.648 61.44 61.44V593.92c-17.408-11.264-35.84-20.48-56.32-26.624-2.048 2.048-3.072 4.096-5.12 6.144z m-675.84 280.576h387.072c19.456 8.192 35.84 21.504 47.104 40.96 4.096 7.168 7.168 13.312 9.216 20.48H203.776c-17.408 0-30.72-13.312-30.72-30.72 0-16.384 13.312-30.72 30.72-30.72z"
          p-id="11921"></path>
</svg>