<?xml version="1.0" standalone="no"?><!DOCTYPE svg PUBLIC "-//W3C//DTD SVG 1.1//EN"
        "http://www.w3.org/Graphics/SVG/1.1/DTD/svg11.dtd">
<svg t="1692168594678" class="icon" viewBox="0 0 1024 1024" version="1.1" xmlns="http://www.w3.org/2000/svg" p-id="9897"
     width="200" height="200">
    <path d="M912.497778 120.604444H104.106667c-26.168889 0-47.217778 21.048889-47.217778 46.648889v535.893334c0 25.6 21.048889 46.648889 47.217778 46.648889h366.364444v87.04H287.857778c-20.48 0-37.546667 16.497778-37.546667 36.977777s17.066667 36.977778 37.546667 36.977778h440.888889c21.048889 0 37.546667-16.497778 37.546666-36.977778s-17.066667-36.977778-37.546666-36.977777H546.133333v-87.04h366.364445c26.168889 0 47.217778-21.048889 47.217778-46.648889V167.253333c0-25.6-21.048889-46.648889-47.217778-46.648889z m-27.875556 554.666667H131.982222V195.128889h752.071111l0.568889 480.142222z m0 0"
          lee="#3F3F3F" p-id="9898"></path>
    <path d="M362.951111 529.635556c4.551111 0 9.102222-0.568889 13.653333-2.844445l18.773334-7.395555c14.222222 19.342222 33.564444 34.702222 55.751111 44.373333l-2.844445 18.773333c-2.844444 20.48 11.377778 39.253333 31.857778 42.097778 1.706667 0.568889 3.413333 0.568889 5.688889 0.568889 18.204444 0 34.702222-13.084444 36.977778-31.857778l2.844444-18.773333c23.893333-2.844444 46.648889-11.946667 66.56-26.737778l15.36 11.946667c6.826667 5.12 14.791111 7.964444 23.324445 7.964444 11.377778 0 22.186667-5.12 29.582222-14.222222 13.084444-15.928889 10.24-39.253333-6.257778-52.337778l-16.497778-12.515555c6.826667-16.497778 10.24-34.133333 10.24-51.768889 0-5.688889-0.568889-11.377778-1.137777-16.497778l20.48-7.964445c19.342222-7.395556 28.444444-29.013333 21.048889-48.355555-7.964444-19.342222-29.582222-28.444444-48.924445-21.048889l-21.048889 8.533333c-14.222222-18.204444-32.426667-32.426667-53.475555-41.528889l3.413333-22.755555c2.844444-20.48-11.377778-39.253333-31.857778-42.097778-20.48-3.413333-39.822222 11.377778-42.666666 31.288889l-3.413334 22.755556c-22.755556 2.844444-44.373333 11.377778-63.146666 24.462222l-18.204445-14.222222c-16.497778-12.515556-39.822222-10.24-52.906667 6.257777-13.084444 15.928889-10.24 39.253333 6.257778 52.337778l17.066667 13.653333c-9.671111 21.617778-13.084444 44.942222-10.808889 68.266667l-19.342222 7.964445c-19.342222 7.395556-28.444444 29.013333-21.048889 48.355555 5.688889 14.222222 19.911111 23.324444 34.702222 23.324445z m145.066667-156.444445c35.84 0 64.853333 29.013333 64.853333 64.284445 0 35.271111-29.013333 64.284444-64.853333 64.284444-35.84 0-64.853333-29.013333-64.853334-64.284444 0-35.84 29.582222-64.284444 64.853334-64.284445z m0 0"
          lee="#3F3F3F" p-id="9899"></path>
</svg>