<?xml version="1.0" standalone="no"?><!DOCTYPE svg PUBLIC "-//W3C//DTD SVG 1.1//EN"
        "http://www.w3.org/Graphics/SVG/1.1/DTD/svg11.dtd">
<svg t="1740538296653" class="icon" viewBox="0 0 1024 1024" version="1.1" xmlns="http://www.w3.org/2000/svg"
     p-id="33425" width="200" height="200">
    <path d="M901.056 558.72a32 32 0 0 1 56.576 29.44l-2.688 5.12-204.8 320a32 32 0 0 1-48.768 6.144l-3.968-4.48-125.504-171.072-117.12 53.248a32 32 0 0 1-31.552-2.944l-4.352-3.648-112.128-113.024-183.488 299.2a32 32 0 0 1-38.848 13.12l-5.12-2.56a32 32 0 0 1-13.12-38.848l2.56-5.12 204.8-333.952a32 32 0 0 1 45.312-9.728l4.672 3.84L448.576 729.6l120.576-54.72a32 32 0 0 1 35.392 6.016l3.648 4.16 113.152 154.304 179.712-280.64z"
          fill="#979797" p-id="33426"></path>
    <path d="M225.024 457.28c44.8 0 80-9.792 105.472-29.248 25.536-19.52 38.272-46.464 38.272-80.768 0-24.192-6.784-44.672-20.288-61.504-13.44-16.832-38.08-35.2-73.728-55.232l-26.496-14.72c-19.84-11.2-33.28-20.672-40.512-28.288a37.952 37.952 0 0 1-10.752-26.752c0-12.352 5.12-22.336 15.36-29.888 10.24-7.616 23.872-11.392 40.896-11.392 22.016 0 51.904 7.04 89.728 21.248v-59.264a450.24 450.24 0 0 0-99.712-12.736c-36.864 0-66.496 9.28-88.896 27.776-22.4 18.496-33.6 43.008-33.6 73.472 0 22.848 6.784 42.816 20.48 59.904 13.696 17.088 37.12 34.944 70.272 53.632l24.704 13.76c20.032 11.328 33.6 21.12 40.768 29.376a44.672 44.672 0 0 1 10.752 30.336c0 15.168-5.76 27.2-17.088 36.032-11.456 8.832-27.072 13.248-46.912 13.248-28.352 0-62.4-8.32-102.272-25.024v63.488c39.36 8.32 73.856 12.544 103.552 12.544z m487.552 64.704l50.048-49.472a672.96 672.96 0 0 1-147.52-33.024c65.856-33.152 98.752-91.712 98.752-175.744 0-59.84-16.896-107.264-50.624-142.4-33.728-35.072-79.36-52.608-136.896-52.608-57.472 0-103.168 17.536-136.96 52.48-33.856 35.008-50.752 82.304-50.752 141.76 0 58.88 16.832 105.92 50.496 141.248 33.664 35.328 78.464 53.056 134.464 53.056 5.888 0 14.848-0.448 27.008-1.28 41.664 26.496 95.68 48.512 161.984 65.984z m-187.52-115.712c-31.424 0-56.768-13.12-75.968-39.424-19.2-26.24-28.736-60.928-28.736-104.128 0-43.52 9.6-78.208 28.864-104.192 19.264-26.048 44.992-39.04 77.12-39.04 32 0 57.6 12.992 76.928 39.04 19.2 25.984 28.8 60.544 28.8 103.68 0 44.352-9.6 79.488-28.8 105.28-19.264 25.856-45.312 38.784-78.144 38.784zM954.048 448v-52.48H787.2V78.016h-76.992V448h243.776z"
          fill="#131415" p-id="33427"></path>
</svg>
