<?xml version="1.0" standalone="no"?><!DOCTYPE svg PUBLIC "-//W3C//DTD SVG 1.1//EN"
        "http://www.w3.org/Graphics/SVG/1.1/DTD/svg11.dtd">
<svg t="1740538380720" class="icon" viewBox="0 0 1024 1024" version="1.1" xmlns="http://www.w3.org/2000/svg"
     p-id="35655" width="200" height="200">
    <path d="M960 480c-12.8-25.6-115.2-249.6-153.6-332.8-12.8-25.6-25.6-38.4-51.2-44.8H275.2c-25.6 0-44.8 19.2-57.6 44.8C166.4 256 115.2 364.8 64 480c-6.4 12.8-12.8 32-12.8 57.6v339.2c0 12.8 0 19.2 6.4 32 12.8 32 38.4 51.2 76.8 51.2h768c38.4-6.4 64-38.4 70.4-76.8V544c0-25.6-6.4-51.2-12.8-64zM864 576s-6.4 0 0 0h-204.8-6.4c-6.4 0 0 0 0 0 0 19.2-32 102.4-44.8 134.4-6.4 25.6-25.6 38.4-51.2 38.4H460.8c-6.4 0-19.2 0-25.6-6.4-12.8-6.4-19.2-12.8-25.6-25.6-12.8-32-44.8-108.8-44.8-121.6v-6.4h-6.4-204.8v-19.2c0-19.2 0-38.4 6.4-51.2 6.4-19.2 89.6-217.6 128-300.8 0-12.8 12.8-25.6 19.2-32 12.8-6.4 19.2-6.4 25.6-6.4h345.6c25.6 0 44.8 6.4 57.6 32 12.8 32 96 224 121.6 281.6 6.4 19.2 12.8 44.8 12.8 64 0 6.4-6.4 19.2-6.4 19.2z"
          p-id="35656"></path>
    <path d="M569.6 409.6v-121.6c0-19.199-19.2-25.599-38.4-25.6-31.999 0-76.8-6.4-76.8 25.6v115.2h-51.2c-25.599 6.4-38.399 19.2-25.6 44.799l76.8 76.8c44.8 44.8 51.2 64 89.6 25.6l76.8-76.8c12.8-12.8 31.999-25.6 32-44.8 0-25.6-51.199-19.2-83.2-19.2z"
          p-id="35657"></path>
</svg>
