<?xml version="1.0" standalone="no"?><!DOCTYPE svg PUBLIC "-//W3C//DTD SVG 1.1//EN" "http://www.w3.org/Graphics/SVG/1.1/DTD/svg11.dtd"><svg t="1740537429760" class="icon" viewBox="0 0 1024 1024" version="1.1" xmlns="http://www.w3.org/2000/svg" p-id="25630" xmlns:xlink="http://www.w3.org/1999/xlink" width="200" height="200"><path d="M942.08 1024H81.92c-45.2608 0-81.92-36.6592-81.92-81.92V491.52c0-45.2608 36.6592-81.92 81.92-81.92h860.16c45.2608 0 81.92 36.6592 81.92 81.92v450.56c0 45.2608-36.6592 81.92-81.92 81.92z" fill="#2481E3" p-id="25631"></path><path d="M1024 343.04H0v-61.44c0-45.2608 36.6592-81.92 81.92-81.92h860.16c45.2608 0 81.92 36.6592 81.92 81.92v61.44zM1024 143.36H0V81.92c0-45.2608 36.6592-81.92 81.92-81.92h860.16c45.2608 0 81.92 36.6592 81.92 81.92v61.44z" fill="#6EA4FE" p-id="25632"></path><path d="M234.2912 733.7984l50.9952 15.36c-3.4816 14.336-8.8064 26.2144-16.1792 35.84s-16.384 16.7936-27.4432 21.7088c-10.8544 4.9152-24.7808 7.3728-41.5744 7.3728-20.48 0-37.0688-3.072-49.9712-9.0112-12.9024-5.9392-24.1664-16.384-33.5872-31.3344-9.4208-14.9504-14.1312-33.9968-14.1312-57.344 0-31.1296 8.192-54.8864 24.7808-71.68 16.5888-16.7936 39.936-24.9856 70.2464-24.9856 23.7568 0 42.1888 4.7104 55.9104 14.336 13.5168 9.6256 23.552 24.3712 30.1056 44.032l-51.2 11.4688c-1.8432-5.7344-3.6864-9.8304-5.7344-12.4928a33.42336 33.42336 0 0 0-27.648-13.9264c-13.1072 0-23.3472 5.3248-30.3104 15.9744-5.3248 7.7824-7.9872 20.2752-7.9872 37.0688 0 20.8896 3.072 35.0208 9.4208 42.8032 6.3488 7.7824 15.1552 11.6736 26.624 11.6736 11.0592 0 19.456-3.072 25.1904-9.4208 5.7344-6.5536 10.0352-15.5648 12.4928-27.4432zM442.1632 779.6736h-65.9456l-9.216 30.9248h-59.392l70.656-188.0064h63.2832l70.656 188.0064h-60.8256l-9.216-30.9248zM430.08 739.1232l-20.6848-67.584-20.48 67.584H430.08zM659.456 779.6736h-65.9456l-9.216 30.9248h-59.392l70.656-188.0064h63.2832l70.656 188.0064h-60.8256l-9.216-30.9248z m-12.0832-40.5504l-20.6848-67.584-20.48 67.584h41.1648zM751.0016 748.544l55.296-3.4816c1.2288 9.0112 3.6864 15.7696 7.3728 20.48 5.9392 7.5776 14.5408 11.4688 25.6 11.4688 8.192 0 14.7456-1.8432 19.2512-5.7344 4.5056-3.8912 6.7584-8.3968 6.7584-13.5168 0-4.9152-2.048-9.216-6.3488-13.1072s-14.1312-7.5776-29.696-10.8544c-25.3952-5.7344-43.6224-13.312-54.4768-22.7328-10.8544-9.4208-16.384-21.504-16.384-36.2496 0-9.6256 2.8672-18.8416 8.3968-27.4432 5.5296-8.6016 13.9264-15.36 25.1904-20.2752 11.264-4.9152 26.624-7.3728 46.2848-7.3728 23.9616 0 42.3936 4.5056 54.8864 13.312 12.6976 9.0112 20.0704 23.1424 22.528 42.5984l-54.6816 3.2768c-1.4336-8.3968-4.5056-14.5408-9.216-18.432-4.7104-3.8912-11.0592-5.7344-19.2512-5.7344-6.7584 0-11.8784 1.4336-15.1552 4.3008-3.4816 2.8672-5.12 6.3488-5.12 10.4448 0 3.072 1.4336 5.7344 4.3008 7.9872 2.6624 2.4576 9.216 4.7104 19.456 6.9632 25.3952 5.5296 43.6224 11.0592 54.4768 16.5888 11.0592 5.5296 19.0464 12.4928 23.9616 20.8896 4.7104 8.192 7.168 17.408 7.168 27.648 0 12.0832-3.2768 23.1424-10.0352 33.3824-6.7584 10.24-15.9744 17.8176-27.8528 23.1424-11.8784 5.3248-27.0336 7.7824-45.2608 7.7824-31.9488 0-54.0672-6.144-66.3552-18.432-12.4928-12.288-19.456-27.8528-21.0944-46.8992z" fill="#FFFFFF" p-id="25633"></path></svg>