<?xml version="1.0" standalone="no"?><!DOCTYPE svg PUBLIC "-//W3C//DTD SVG 1.1//EN" "http://www.w3.org/Graphics/SVG/1.1/DTD/svg11.dtd"><svg t="1740536946516" class="icon" viewBox="0 0 1024 1024" version="1.1" xmlns="http://www.w3.org/2000/svg" p-id="5444" xmlns:xlink="http://www.w3.org/1999/xlink" width="200" height="200"><path d="M0 0h1024v1024H0z" fill="#FFFFFF" fill-opacity="0" p-id="5445"></path><path d="M236.986182 476.462545l237.195636 136.936728v273.873454L236.986182 1024 0 887.272727V613.399273l236.986182-136.936728z m543.185454 0l236.986182 136.936728v273.873454L780.171636 1024l-237.195636-136.727273V613.399273l237.195636-136.936728z m-543.185454 127.418182l-114.757818 66.490182 114.757818 62.557091 114.781091-62.557091-114.781091-66.490182z m543.185454 0l-114.781091 66.490182 114.781091 62.557091 114.757819-62.557091-114.757819-66.490182zM508.578909 0l236.986182 136.936727v273.664l-236.986182 136.936728-236.986182-136.727273V136.936727L508.578909 0z m0 129.070545l-114.757818 66.490182 114.757818 62.557091 114.781091-62.557091-114.781091-66.490182z" fill="#000000" p-id="5446"></path></svg>