<?xml version="1.0" standalone="no"?><!DOCTYPE svg PUBLIC "-//W3C//DTD SVG 1.1//EN" "http://www.w3.org/Graphics/SVG/1.1/DTD/svg11.dtd"><svg t="1740538496653" class="icon" viewBox="0 0 1025 1024" version="1.1" xmlns="http://www.w3.org/2000/svg" p-id="38757" xmlns:xlink="http://www.w3.org/1999/xlink" width="200.1953125" height="200"><path d="M463.5425273 752.41845821h-2.31799838l-89.64575693-2.31799837h-101.23684789c-14.68285456 0-26.27504463 11.59219007-26.27504463 26.27504463 0 12.36485619 8.50042646 22.41171401 20.09261653 25.50237849 0.77266613 0 1.54533225 0 2.31799839 0.77266613h103.55484625l93.50908756 2.31799838h3.0906645c13.13752232-1.54533225 23.18438013-12.36485619 23.18438012-26.27504462 0-14.68285456-11.59219007-26.27504463-26.27504462-26.27504464zM462.76986116 599.40308809H270.34302319c-14.68285456 0-26.27504463 11.59219007-26.27504463 26.27504462 0 12.36485619 8.50042646 22.41171401 20.09261655 25.50237852 0.77266613 0 1.54533225 0 2.31799836 0.77266611h197.06393383c14.68285456 0 26.27504463-11.59219007 26.27504461-26.27504463 0-14.68285456-12.36485619-26.27504463-27.04771075-26.27504462zM269.56815888 448.70681543h-0.77266613c-14.68285456 0-26.27504463 11.59219007-26.27504462 26.27504466s11.59219007 26.27504463 26.27504462 26.27504462h454.40901452c1.54533225 0 3.86442972 0 5.40976196-0.77266614 12.36485619-2.31799837 22.41171401-13.13752232 22.41171402-26.27504461 0-14.68285456-11.59219007-26.27504463-26.27504462-26.27504463h-2.31799838l-452.86258317 0.7726661c0.77266613 0 0 0 0 0zM985.95715175 954.11948787l-81.14423137-81.14423135c22.41171401-31.68480658 35.54923632-70.32470741 34.7765702-112.05637184-2.31799837-96.60085115-81.14423135-176.19975025-177.74508249-179.29041475-106.64660986-3.0917636-193.20060318 83.46332882-189.33727258 190.10993868 3.0917636 96.60085115 82.6895636 175.42598503 179.29041477 177.74508252 41.73166442 0.77266613 80.37156523-11.59219007 112.05637181-34.77657021l81.14423137 81.14423136c5.40976196 5.40976196 15.45661978 5.40976196 20.86528265 0l20.86528266-20.86528265c5.40976196-5.40976196 5.40976196-14.68285456-0.77266612-20.86528267zM624.28565775 765.55598053c0-75.73446938 64.14227932-136.01341809 140.65051393-130.60365612 64.91604454 4.63709583 117.46613381 57.18718511 121.33056352 121.33056353 5.40976196 76.5071355-55.64185284 140.65051393-130.60365613 140.65051392-72.64380489 0-131.37632223-58.73361645-131.37632222-131.37632223z" fill="#36B4EE" p-id="38758"></path><path d="M559.36961321 948.71082499H145.14693086V66.16893971h452.86258317v200.92946262c0 25.5023785 18.54728428 47.14142638 42.50433054 52.55118834 3.0917636 0.77266613 10.04685782 0.77266613 10.04685781 0.77266613h200.15569741v204.02012714h53.32385447V291.8281147c0.77266613-9.2741917-3.86442972-20.09261653-12.36485619-28.59414209l-1.54533224-1.54533226-147.60560815-143.74117842c-0.77266613 0-93.50908754-90.41842305-94.28175367-91.19108918-1.54533225-1.54533225-3.86442972-3.86442972-6.18242811-5.40976196-1.54533225-1.54533225-3.0917636-2.31799837-5.40976196-3.86442973-3.0917636-1.54533225-9.2741917-4.63709583-15.45661978-4.63709584H145.92069609c-25.5023785 0-47.14142638 18.54728428-52.55118836 42.50433054-0.77266613 3.0917636-0.77266613 6.95509422-0.77266613 10.81952395v881.76921917c0 25.5023785 18.54728428 47.14142638 42.50433054 51.77742311 3.0917636 0.77266613 6.95509422 0.77266613 10.81952395 0.77266613h413.45001622v-51.77742313z m91.9637553-844.6746506l170.78998828 163.06112883H651.33336851V104.03617439z" fill="#36B4EE" p-id="38759"></path></svg>