<?xml version="1.0" standalone="no"?><!DOCTYPE svg PUBLIC "-//W3C//DTD SVG 1.1//EN"
        "http://www.w3.org/Graphics/SVG/1.1/DTD/svg11.dtd">
<svg t="1740540160462" class="icon" viewBox="0 0 1024 1024" version="1.1" xmlns="http://www.w3.org/2000/svg"
     p-id="55229" width="200" height="200">
    <path d="M532.384 523.936a32 32 0 0 1-22.624-54.624l114.336-114.336a32 32 0 0 1 45.248 45.248l-114.336 114.336a32 32 0 0 1-22.624 9.376z"
          fill="#FE9C23" p-id="55230"></path>
    <path d="M896 96a32 32 0 0 1 30.272 42.368l-262.624 768a32 32 0 0 1-61.312-2.592l-96.224-384.288L121.92 445.152a32 32 0 0 1-5.088-61.408l768-285.728A32 32 0 0 1 896 96z m-257.888 687.2l205.76-601.6-597.856 222.368 292.288 56.544a32 32 0 0 1 24.96 23.648z"
          fill="#4078FD" p-id="55231"></path>
</svg>
