<?xml version="1.0" standalone="no"?><!DOCTYPE svg PUBLIC "-//W3C//DTD SVG 1.1//EN"
        "http://www.w3.org/Graphics/SVG/1.1/DTD/svg11.dtd">
<svg t="1740538084279" class="icon" viewBox="0 0 1024 1024" version="1.1" xmlns="http://www.w3.org/2000/svg"
     p-id="28581" width="200" height="200">
    <path d="M337.92 5.12C154.112 5.12 5.12 154.112 5.12 337.92v680.96h680.96c183.808 0 332.8-148.992 332.8-332.8V5.12H337.92z m537.6 680.96c0 104.448-84.992 189.44-189.44 189.44H148.48V337.92c0-104.448 84.992-189.44 189.44-189.44h537.6v537.6z"
          fill="#FCBE19" p-id="28582"></path>
    <path d="M196.096 344.064v496.128h143.36V593.92h404.48V445.952h-404.48V384c0-24.576 19.968-44.544 44.544-44.544h442.88v-143.36H344.064c-81.92 0-147.968 66.048-147.968 147.968z"
          fill="#404248" p-id="28583"></path>
</svg>
