<?xml version="1.0" standalone="no"?><!DOCTYPE svg PUBLIC "-//W3C//DTD SVG 1.1//EN" "http://www.w3.org/Graphics/SVG/1.1/DTD/svg11.dtd"><svg t="1740538518338" class="icon" viewBox="0 0 1024 1024" version="1.1" xmlns="http://www.w3.org/2000/svg" p-id="39810" xmlns:xlink="http://www.w3.org/1999/xlink" width="200" height="200"><path d="M841.045333 283.733333L526.506667 130.688A18.346667 18.346667 0 0 0 518.485333 128h-3.029333a22.954667 22.954667 0 0 0-8.832 2.304L182.954667 283.306667a22.186667 22.186667 0 0 0-12.245334 21.418666l14.165334 177.152c4.778667 45.482667 16.512 90.026667 34.816 131.968a552.106667 552.106667 0 0 0 73.472 122.026667 431.957333 431.957333 0 0 0 220.757333 157.269333h11.477333a358.485333 358.485333 0 0 0 118.613334-60.074666 493.525333 493.525333 0 0 0 95.232-97.92 520.704 520.704 0 0 0 66.986666-121.301334c16.981333-41.856 28.032-85.888 32.853334-130.858666l14.165333-177.109334a21.418667 21.418667 0 0 0-12.202667-21.077333V283.733333z m-55.125333 194.346667c-15.274667 135.04-111.701333 314.112-267.818667 360.789333-143.445333-42.112-263.210667-206.208-281.6-360.789333l-9.941333-155.306667 290.005333-137.386666 279.68 137.386666-10.325333 155.306667z" fill="#027AFF" p-id="39811"></path><path d="M679.936 687.744a23.338667 23.338667 0 0 0 2.688-31.744l-38.272-41.728c7.253333-8.234667 13.696-17.237333 19.157333-26.794667a173.696 173.696 0 0 0 23.722667-87.978666 176.384 176.384 0 1 0-85.333333 151.125333l8.021333-5.376 38.272 42.112a26.026667 26.026667 0 0 0 31.744 0.384z m-68.864-109.824l-27.52-29.056a23.722667 23.722667 0 0 0-32.170667 0 22.613333 22.613333 0 0 0-1.877333 31.36l27.904 30.592c-19.626667 12.202667-42.325333 18.432-65.408 18.005333a128.170667 128.170667 0 1 1 125.482667-129.322666 120.533333 120.533333 0 0 1-27.178667 78.805333l0.768-0.384z" fill="#0047AB" p-id="39812"></path></svg>