<?xml version="1.0" standalone="no"?><!DOCTYPE svg PUBLIC "-//W3C//DTD SVG 1.1//EN" "http://www.w3.org/Graphics/SVG/1.1/DTD/svg11.dtd"><svg t="1740537203249" class="icon" viewBox="0 0 2048 1024" version="1.1" xmlns="http://www.w3.org/2000/svg" p-id="15736" xmlns:xlink="http://www.w3.org/1999/xlink" width="400" height="200"><path d="M1804.3392 799.8464h-37.6064c0-302.848-249.8816-549.2224-557.0048-549.2224V213.0176c327.8848 0 594.6112 263.1936 594.6112 586.8288" fill="#499CD2" p-id="15737"></path><path d="M1830.3232 597.8368c-45.1072-189.9776-199.0656-348.544-392.0896-403.968l8.6528-30.1312c203.7248 58.496 366.208 226.0224 413.9008 426.8288l-30.464 7.2704z m42.3424-178.2784c-46.5152-101.4272-125.824-189.9008-223.1552-249.0624l13.0304-21.4272c101.632 61.7984 184.2944 154.0864 232.8832 260.0192l-22.7584 10.4704z" fill="#489CD2" p-id="15738"></path><path d="M152.576 783.7952c22.6304 12.2368 57.472 21.4016 96.5888 21.4016 85.5808 0 128.9984-40.96 128.9984-97.2032-0.6144-43.4176-23.8336-72.1408-80.6912-91.6992-36.6848-12.2368-48.3072-20.1728-48.3072-34.2272 0-14.6688 12.8256-23.8336 35.456-23.8336 25.0624 0 51.3536 9.7792 64.7936 16.512l15.8976-63.5904c-18.3296-9.1648-48.896-17.7408-83.7632-17.7408-73.984 0-121.6512 42.1888-121.6512 98.432-0.6144 34.8416 23.2192 68.48 85.5808 89.2672 34.2272 11.008 43.4176 18.944 43.4176 34.2272s-11.6224 24.448-39.7312 24.448c-27.52 0-62.976-11.6224-80.0768-22.016l-16.512 66.0224z m390.0416 22.016c79.4624 0 157.1072-50.1248 157.1072-158.9504 0-90.4704-61.1328-153.4464-152.2176-153.4464-96.5888 0-160.1792 61.7472-160.1792 158.336s67.2512 154.0608 154.6752 154.0608h0.6144z m1.2288-66.6368c-39.1168 0-60.5184-38.5024-60.5184-89.2672 0-44.6208 17.1264-89.856 61.1328-89.856 42.1888 0 59.2896 45.2352 59.2896 89.2672 0 53.7856-22.6304 89.856-59.2896 89.856h-0.6144z m182.784 59.904h92.928V626.688c0-8.5504 0.6144-17.1264 3.0464-23.2192 6.7328-17.1264 22.016-34.8416 47.6928-34.8416 33.6128 0 47.0784 26.2912 47.0784 64.7936v165.6832h92.928v-176.6656c0-88.0384-45.8496-128.9984-106.9824-128.9984-50.1248 0-80.0768 28.7232-92.3136 48.3072h-1.8432l-4.2752-41.5744h-80.6912c1.2288 26.9056 2.4576 58.0864 2.4576 95.36-0.0256-0.0256-0.0256 203.5456-0.0256 203.5456z m576.4864-176.6656c0-70.2976-31.1808-128.9984-130.816-128.9984-54.4 0-95.36 15.2832-116.1472 26.9056l17.1264 59.2896c19.5584-11.6224 51.968-22.016 82.5344-22.016 45.8496 0 54.4 22.6304 54.4 38.5024v3.6608c-105.7536 0-175.4624 36.6848-175.4624 114.3296 0 47.6928 36.0704 91.6992 96.5888 91.6992 35.456 0 66.0224-12.8256 85.5808-36.6848h1.8432l5.504 29.952h83.7632c-3.6608-16.512-4.8896-44.0064-4.8896-72.1408-0.0256 0.0256-0.0256-104.4992-0.0256-104.4992z m-89.856 67.84c0 5.504-0.6144 11.008-1.8432 15.8976-6.1184 18.944-25.6768 34.2272-48.3072 34.2272-20.7872 0-36.6848-11.6224-36.6848-35.456 0-35.456 37.9136-47.0784 86.8096-47.0784l0.0256 32.4096z m133.2736 108.8256h92.928v-151.0144c0-7.936 0.6144-14.6688 1.8432-20.7872 6.1184-29.3376 29.3376-47.0784 63.5904-47.0784 10.3936 0 17.7408 1.2288 25.0624 2.4576v-87.424a92.16 92.16 0 0 0-19.5584-1.8432c-29.3376 0-65.408 18.3296-80.6912 62.3616h-2.4576l-3.6608-55.6288h-79.4624c1.8432 25.6768 2.4576 54.4 2.4576 98.432-0.0512 0-0.0512 200.5248-0.0512 200.5248z" fill="#999999" p-id="15739"></path></svg>