<?xml version="1.0" standalone="no"?><!DOCTYPE svg PUBLIC "-//W3C//DTD SVG 1.1//EN" "http://www.w3.org/Graphics/SVG/1.1/DTD/svg11.dtd"><svg t="1740538469149" class="icon" viewBox="0 0 1024 1024" version="1.1" xmlns="http://www.w3.org/2000/svg" p-id="37690" xmlns:xlink="http://www.w3.org/1999/xlink" width="200" height="200"><path d="M8.904348 66.782609h959.443478v830.330434H8.904348z" fill="#337DFF" p-id="37691"></path><path d="M8.904348 17.808696h959.443478v129.113043H8.904348z" fill="#60D0FE" opacity=".8" p-id="37692"></path><path d="M140.243478 260.452174h714.573913v48.973913H140.243478z" fill="#2447F8" opacity=".8" p-id="37693"></path><path d="M140.243478 574.330435h207.026087V623.304348H140.243478z" fill="#FFFFFF" p-id="37694"></path><path d="M140.243478 416.278261h280.486957v48.973913H140.243478z" fill="#2447F8" opacity=".8" p-id="37695"></path><path d="M144.695652 730.156522h48.973913V779.130435H144.695652zM222.608696 730.156522h48.973913V779.130435H222.608696zM298.295652 730.156522h48.973913V779.130435h-48.973913z" fill="#FFFFFF" p-id="37696"></path><path d="M1010.643478 681.182609c0 204.8-256 333.913043-256 333.913043s-256-129.113043-256-333.913043v-202.573913L754.643478 400.695652l256 77.913044v202.573913z" fill="#60D0FE" opacity=".8" p-id="37697"></path><path d="M754.643478 674.504348m-160.278261 0a160.278261 160.278261 0 1 0 320.556522 0 160.278261 160.278261 0 1 0-320.556522 0Z" fill="#2447F8" opacity=".8" p-id="37698"></path><path d="M723.478261 745.73913l-71.234783-64.556521 24.486957-26.713044 46.747826 44.521739 111.304348-97.947826 24.486956 28.939131z" fill="#FFFFFF" p-id="37699"></path></svg>