<?xml version="1.0" standalone="no"?><!DOCTYPE svg PUBLIC "-//W3C//DTD SVG 1.1//EN" "http://www.w3.org/Graphics/SVG/1.1/DTD/svg11.dtd"><svg t="1740538621513" class="icon" viewBox="0 0 1024 1024" version="1.1" xmlns="http://www.w3.org/2000/svg" p-id="43650" xmlns:xlink="http://www.w3.org/1999/xlink" width="200" height="200"><path d="M428.544 152.576H162.816c-12.8 0-23.04 10.24-23.04 23.04v266.24c0 12.8 10.24 23.04 23.04 23.04h266.24c12.8 0 23.04-10.24 23.04-23.04v-266.24c0-12.8-10.752-23.04-23.552-23.04z m-23.04 266.24H186.368V199.168h219.136v219.648zM834.56 152.576h-266.24c-12.8 0-23.04 10.24-23.04 23.04v266.24c0 12.8 10.24 23.04 23.04 23.04h266.752c12.8 0 23.04-10.752 23.04-23.04v-266.24c-0.512-12.8-10.752-23.04-23.552-23.04z m-23.04 266.24h-219.648V199.168h219.648v219.648zM428.544 558.592h-266.24c-12.8 0-23.04 10.24-23.04 23.04v266.24c0 12.8 10.24 23.04 23.04 23.04h266.24c12.8 0 23.04-10.24 23.04-23.04v-266.24c0.512-12.8-10.24-23.04-23.04-23.04z m-23.04 266.24H186.368v-219.648h219.136v219.648zM678.4 558.592h46.592v310.784h-46.592z" fill="#BC3C3C" p-id="43651"></path><path d="M545.28 691.712h315.904v46.592h-315.904z" fill="#BC3C3C" p-id="43652"></path></svg>