<?xml version="1.0" standalone="no"?><!DOCTYPE svg PUBLIC "-//W3C//DTD SVG 1.1//EN"
        "http://www.w3.org/Graphics/SVG/1.1/DTD/svg11.dtd">
<svg t="1740537250674" class="icon" viewBox="0 0 2730 1024" version="1.1" xmlns="http://www.w3.org/2000/svg"
     p-id="18430" width="533.203125" height="200">
    <path d="M473.6 637.44V174.677333h146.432v460.544c0 56.234667-10.325333 100.778667-30.976 133.717334-34.816 55.637333-97.792 83.456-188.757333 83.456-90.965333 0-151.893333-22.442667-183.04-67.498667C186.197333 739.84 170.666667 678.4 170.666667 600.576V585.386667h138.325333v15.274666c1.28 51.2 7.253333 87.125333 17.92 107.946667 10.581333 20.736 33.28 31.146667 68.181333 31.146667 34.56 0 57.344-11.349333 68.437334-34.133334 6.656-13.397333 9.984-36.181333 9.984-68.181333z m706.048-56.064V174.677333h148.821333v406.698667c0 70.314667-11.52 125.013333-34.730666 164.266667C1250.645333 817.408 1168.384 853.333333 1047.04 853.333333c-121.344 0-203.776-35.84-247.210667-107.690666-23.125333-39.253333-34.730667-93.952-34.730666-164.266667V174.677333h148.821333v406.698667c0 45.482667 5.717333 78.677333 17.066667 99.584 17.834667 37.12 56.490667 55.637333 116.053333 55.637333 59.306667 0 97.792-18.517333 115.541333-55.637333 11.434667-20.906667 17.152-54.101333 17.152-99.584z m521.642667-139.605333c-45.994667 0-77.568 18.432-94.72 55.210666-8.789333 19.456-13.226667 44.288-13.226667 74.496V836.266667h-135.082667V347.989333h130.816v71.338667c17.408-25.173333 33.877333-43.264 49.493334-54.357333 27.818667-19.712 63.146667-29.610667 105.984-29.610667 53.589333 0 97.365333 13.226667 131.413333 39.765333 34.133333 26.453333 51.2 70.4 51.2 131.754667V836.266667h-138.922667V538.709333c0-25.770667-3.584-45.482667-10.922666-59.221333-13.312-25.173333-38.656-37.717333-76.032-37.717333z m490.24-94.72V836.266667h-137.386667V347.050667h137.386667z m0-176.384v118.016h-137.386667V170.666667h137.386667zM2560 745.130667v95.573333l-64.170667 2.304c-64 2.133333-107.776-8.362667-131.242666-31.402667-15.189333-14.677333-22.869333-37.290667-22.869334-67.754666v-301.226667h-72.277333V351.573333h72.277333v-136.533333h134.144v136.533333H2560v91.050667h-84.138667v258.56c0 20.053333 2.645333 32.512 8.021334 37.546667 5.461333 4.864 21.930667 7.338667 49.493333 7.338666a402.773333 402.773333 0 0 0 26.624-0.853333z"
          p-id="18431"></path>
</svg>
