<?xml version="1.0" standalone="no"?><!DOCTYPE svg PUBLIC "-//W3C//DTD SVG 1.1//EN" "http://www.w3.org/Graphics/SVG/1.1/DTD/svg11.dtd"><svg t="1757299597390" class="icon" viewBox="0 0 1024 1024" version="1.1" xmlns="http://www.w3.org/2000/svg" p-id="21291" xmlns:xlink="http://www.w3.org/1999/xlink" width="200" height="200"><path d="M896 853.333333V170.666667a42.666667 42.666667 0 0 0-42.666667-42.666667H170.666667a42.666667 42.666667 0 0 0-42.666667 42.666667v682.666666a42.666667 42.666667 0 0 0 42.666667 42.666667h682.666666a42.666667 42.666667 0 0 0 42.666667-42.666667z m-85.333333-42.666666H213.333333V213.333333h597.333334v597.333334z" fill="" p-id="21292"></path><path d="M442.922667 525.184l135.338666 67.669333a42.666667 42.666667 0 0 0 55.68-16.213333l128-213.333333-73.173333-43.904-107.648 179.456-135.338667-67.669334a42.752 42.752 0 0 0-55.68 16.213334l-128 213.333333 73.173334 43.904 107.648-179.456z" fill="" p-id="21293"></path></svg>