<?xml version="1.0" standalone="no"?><!DOCTYPE svg PUBLIC "-//W3C//DTD SVG 1.1//EN" "http://www.w3.org/Graphics/SVG/1.1/DTD/svg11.dtd"><svg t="1757298981406" class="icon" viewBox="0 0 1024 1024" version="1.1" xmlns="http://www.w3.org/2000/svg" p-id="7536" xmlns:xlink="http://www.w3.org/1999/xlink" width="200" height="200"><path d="M512 896A384 384 0 1 0 512 128a384 384 0 0 0 0 768z m469.312-384A469.312 469.312 0 1 1 42.688 512a469.312 469.312 0 0 1 938.624 0zM406.4 406.4a149.312 149.312 0 0 0 211.2 211.2l30.144-30.144 60.352 60.352-30.144 30.144a234.688 234.688 0 1 1 0-331.84l30.144 30.144-60.352 60.352-30.144-30.144a149.312 149.312 0 0 0-211.2 0z" p-id="7537"></path></svg>