<?xml version="1.0" standalone="no"?><!DOCTYPE svg PUBLIC "-//W3C//DTD SVG 1.1//EN" "http://www.w3.org/Graphics/SVG/1.1/DTD/svg11.dtd"><svg t="1757299025599" class="icon" viewBox="0 0 1024 1024" version="1.1" xmlns="http://www.w3.org/2000/svg" p-id="8495" xmlns:xlink="http://www.w3.org/1999/xlink" width="200" height="200"><path d="M355.84 57.429333H88.234667A66.901333 66.901333 0 0 0 21.376 124.330667v267.605333a66.901333 66.901333 0 0 0 66.901333 66.901333H355.84a66.901333 66.901333 0 0 0 66.901333-66.901333V124.330667A66.858667 66.858667 0 0 0 355.84 57.429333z m0 533.333334H88.234667A66.858667 66.858667 0 0 0 21.376 657.493333v267.605334a66.858667 66.858667 0 0 0 66.901333 66.901333H355.84a66.858667 66.858667 0 0 0 66.901333-66.901333V657.493333a66.858667 66.858667 0 0 0-66.901333-66.901333z m637.909333-381.952L804.522667 19.584a66.901333 66.901333 0 0 0-94.592 0l-189.354667 189.226667a66.901333 66.901333 0 0 0 0 94.592l189.226667 189.226666a66.901333 66.901333 0 0 0 94.592 0l189.354666-189.226666a66.901333 66.901333 0 0 0 0-94.592z m-236.501333 236.544l-189.226667-189.269334 189.226667-189.226666 189.184 189.226666z m133.802667 145.066666h-267.648a66.858667 66.858667 0 0 0-66.901334 66.901334v267.776a66.858667 66.858667 0 0 0 66.901334 66.901333h267.605333a66.858667 66.858667 0 0 0 66.901333-66.901333V657.493333a66.858667 66.858667 0 0 0-66.901333-66.901333z" fill="#409EFF" p-id="8496"></path></svg>