<?xml version="1.0" standalone="no"?><!DOCTYPE svg PUBLIC "-//W3C//DTD SVG 1.1//EN" "http://www.w3.org/Graphics/SVG/1.1/DTD/svg11.dtd"><svg t="1757299060381" class="icon" viewBox="0 0 1024 1024" version="1.1" xmlns="http://www.w3.org/2000/svg" p-id="9478" xmlns:xlink="http://www.w3.org/1999/xlink" width="200" height="200"><path d="M339.488 569.504a129.824 129.824 0 0 1-92.384-38.656l-129.152-128.192c-50.912-50.912-50.912-134.816 0-185.696l98.976-98.976c50.912-50.912 134.816-50.912 185.696 0l129.152 129.152c50.912 50.912 50.912 134.816 0 185.696l-98.976 98.976c-25.44 25.44-59.392 37.696-93.312 37.696zM309.312 159.424c-13.184 0-26.4 4.704-35.808 15.072L174.528 273.472c-9.44 9.44-15.072 22.624-15.072 35.808s5.664 26.4 15.072 35.808l129.152 130.08c19.808 19.808 52.8 19.808 72.576 0l98.976-98.976a51.744 51.744 0 0 0 0-72.576l-130.08-129.152a47.776 47.776 0 0 0-35.808-15.072z m405.376 785.28c-34.88 0-67.872-13.184-92.384-38.656l-129.152-129.152c-24.512-24.512-38.656-57.504-38.656-92.384s13.184-67.872 38.656-92.384l98.976-98.976c50.912-50.912 134.816-50.912 185.696 0l129.152 129.152c50.912 50.912 50.912 134.816 0 185.696l-98.976 98.976a133.44 133.44 0 0 1-93.312 37.696z m-30.176-410.08c-13.184 0-26.4 4.704-35.808 15.072l-98.976 98.976c-9.44 9.44-15.072 22.624-15.072 35.808s5.664 26.4 15.072 35.808l129.152 129.152c9.44 9.44 22.624 15.072 35.808 15.072s26.4-5.664 35.808-15.072l98.976-98.976c9.44-9.44 15.072-22.624 15.072-35.808s-5.664-26.4-15.072-35.808l-129.152-129.152a47.776 47.776 0 0 0-35.808-15.072z m-85.792 128.192l-232.832-232.832c-17.92-17.92-17.92-46.208 0-64.096s46.208-17.92 64.096 0l232.832 232.832c17.92 17.92 17.92 46.208 0 64.096s-46.208 17.92-64.096 0z" p-id="9479"></path></svg>