<?xml version="1.0" standalone="no"?><!DOCTYPE svg PUBLIC "-//W3C//DTD SVG 1.1//EN" "http://www.w3.org/Graphics/SVG/1.1/DTD/svg11.dtd"><svg t="1757299500822" class="icon" viewBox="0 0 1131 1024" version="1.1" xmlns="http://www.w3.org/2000/svg" p-id="20291" xmlns:xlink="http://www.w3.org/1999/xlink" width="220.8984375" height="200"><path d="M108.92518 116.78576H1030.858918v534.519438H108.92518z" fill="#E8E8E8" p-id="20292"></path><path d="M253.712571 905.839762h633.338159v116.664482h-633.338159z" fill="" p-id="20293"></path><path d="M290.733657 944.513815h559.295987v39.307392H290.733657z" fill="#A1EEFD" p-id="20294"></path><path d="M555.747496 480.362289H925.302558v39.307391h-369.555062zM402.573989 757.611682h39.3029v148.232571h-39.3029zM699.030148 757.611682h39.3029v148.232571h-39.3029zM555.747496 354.593009H925.302558v39.307391h-369.555062zM555.747496 228.823729H925.302558v39.307392h-369.555062z" fill="" p-id="20295"></path><path d="M337.443469 302.380791m-120.71605 0a120.71605 120.71605 0 1 0 241.4321 0 120.71605 120.71605 0 1 0-241.4321 0Z" fill="" p-id="20296"></path><path d="M337.443469 304.505393m-84.78197 0a84.78197 84.78197 0 1 0 169.56394 0 84.78197 84.78197 0 1 0-169.56394 0Z" fill="#FAD97F" p-id="20297"></path><path d="M412.698416 589.848938l-75.165112-83.641063-75.349273 83.641063V393.028999h150.514385z" fill="" p-id="20298"></path><path d="M375.048484 487.692841l-37.560097-36.437157-37.654424 36.437157V423.092349h75.214521z" fill="#F2385A" p-id="20299"></path><path d="M1130.697267 635.143846c0 71.859176-48.048357 130.103828-107.326113 130.103828H108.422103C49.144346 765.247674 1.091498 707.003022 1.091498 635.143846V132.94262C1.091498 61.087936 49.144346 2.838792 108.422103 2.838792h914.949051c59.273265 0 107.326113 58.249144 107.326113 130.103828v502.201226z m-35.2693-480.36678c0-64.843047-45.09727-117.405623-100.723226-117.405623H136.091344c-55.625956 0-100.718734 52.562575-100.718734 117.405623v453.178157c0 64.843047 45.09727 117.401131 100.718734 117.401131h858.613397c55.625956 0 100.723226-52.558084 100.723226-117.401131V154.777066z" fill="" p-id="20300"></path></svg>