<?xml version="1.0" standalone="no"?><!DOCTYPE svg PUBLIC "-//W3C//DTD SVG 1.1//EN" "http://www.w3.org/Graphics/SVG/1.1/DTD/svg11.dtd"><svg t="1757299180518" class="icon" viewBox="0 0 1024 1024" version="1.1" xmlns="http://www.w3.org/2000/svg" p-id="14116" xmlns:xlink="http://www.w3.org/1999/xlink" width="200" height="200"><path d="M33.848889 33.564444a42.666667 42.666667 0 0 0-12.515556 30.151112V533.617778c0 23.552 19.114667 42.666667 42.666667 42.666666h341.333333a42.666667 42.666667 0 0 0 42.666667-42.666666v-469.333334a42.666667 42.666667 0 0 0-42.666667-42.666666l-341.333333-0.625778a42.666667 42.666667 0 0 0-30.151111 12.515556zM960 21.048889l-341.333333 0.568889a42.666667 42.666667 0 0 0-42.666667 42.666666v213.333334c0 23.552 19.114667 42.666667 42.666667 42.666666h341.333333a42.666667 42.666667 0 0 0 42.666667-42.666666V63.715556a42.666667 42.666667 0 0 0-42.666667-42.666667zM435.484444 990.435556a42.666667 42.666667 0 0 0 12.515556-30.151112v-213.333333a42.666667 42.666667 0 0 0-42.666667-42.666667h-341.333333a42.666667 42.666667 0 0 0-42.666667 42.666667v212.707556c0 23.552 19.114667 42.666667 42.666667 42.666666l341.333333 0.568889a42.666667 42.666667 0 0 0 30.151111-12.458666zM960 448.341333h-341.333333a42.666667 42.666667 0 0 0-42.666667 42.666667v469.333333c0 23.552 19.114667 42.666667 42.666667 42.666667l341.333333-0.568889a42.666667 42.666667 0 0 0 42.666667-42.666667V490.951111a42.666667 42.666667 0 0 0-42.666667-42.666667z" lee="#606266" p-id="14117"></path></svg>
