<?xml version="1.0" standalone="no"?><!DOCTYPE svg PUBLIC "-//W3C//DTD SVG 1.1//EN" "http://www.w3.org/Graphics/SVG/1.1/DTD/svg11.dtd"><svg t="1752118084469" class="icon" viewBox="0 0 1024 1024" version="1.1" xmlns="http://www.w3.org/2000/svg" p-id="25844" xmlns:xlink="http://www.w3.org/1999/xlink" width="200" height="200"><path d="M864 192h-768C44.8 192 0 236.8 0 288v448c0 51.2 44.8 96 96 96h768c51.2 0 96-44.8 96-96v-448c0-51.2-44.8-96-96-96z m-768 576c-19.2 0-32-12.8-32-32v-448c0-19.2 12.8-32 32-32H448v512H96z m800-32c0 19.2-12.8 32-32 32H512V256h352c19.2 0 32 12.8 32 32v448z m-556.8-12.8L128 512l211.2-211.2 51.2 51.2L236.8 512l153.6 153.6-51.2 57.6z m288 0L832 512 627.2 300.8l-57.6 57.6L723.2 512l-153.6 153.6 57.6 57.6z" lee="#333333" p-id="25845"></path></svg>