<?xml version="1.0" standalone="no"?><!DOCTYPE svg PUBLIC "-//W3C//DTD SVG 1.1//EN" "http://www.w3.org/Graphics/SVG/1.1/DTD/svg11.dtd"><svg t="1752115399161" class="icon" viewBox="0 0 1024 1024" version="1.1" xmlns="http://www.w3.org/2000/svg" p-id="22804" xmlns:xlink="http://www.w3.org/1999/xlink" width="200" height="200"><path d="M82.407619 190.171429h859.184762a34.133333 34.133333 0 1 0 0-68.266667H82.407619a34.133333 34.133333 0 0 0 0 68.266667z" lee="#AAAAAA" p-id="22805"></path><path d="M941.104762 477.866667h-390.095238a34.133333 34.133333 0 1 0 0 68.266666h390.095238a34.133333 34.133333 0 0 0 0-68.266666z" lee="#AAAAAA" p-id="22806"></path><path d="M941.592381 833.828571H82.407619a34.133333 34.133333 0 1 0 0 68.266667h859.184762a34.133333 34.133333 0 0 0 0-68.266667z" lee="#AAAAAA" p-id="22807"></path><path d="M268.190476 365.714286l-195.047619 146.285714 195.047619 146.285714z" lee="#AAAAAA" p-id="22808"></path></svg>