<?xml version="1.0" standalone="no"?><!DOCTYPE svg PUBLIC "-//W3C//DTD SVG 1.1//EN" "http://www.w3.org/Graphics/SVG/1.1/DTD/svg11.dtd"><svg t="1752115255850" class="icon" viewBox="0 0 1024 1024" version="1.1" xmlns="http://www.w3.org/2000/svg" p-id="14837" xmlns:xlink="http://www.w3.org/1999/xlink" width="200" height="200"><path d="M380.148 710.212V1018.5h427.316V710.212H380.148z m379.837 41.112v226.068H427.637V751.324h332.348zM375.086 6v308.287h427.317V6H375.086z m379.836 41.108v226.07H422.575V47.108h332.347zM5.059 721.247h308.287V293.93H5.059v427.317zM46.167 341.41h226.07v332.346H46.167V341.41z" lee="#333333" p-id="14838"></path><path d="M903.652 540.727H416.387v-66.445h487.265l-69.609-75.938c-12.655-12.656-12.655-31.641 0-44.297 12.657-12.656 28.478-12.656 41.133 0l139.219 155.04-139.219 155.038c-12.655 12.656-28.476 12.656-41.133 0-12.655-12.656-12.655-31.641 0-44.297l69.609-79.101z" lee="#2F61D5" p-id="14839"></path></svg>