<?xml version="1.0" standalone="no"?><!DOCTYPE svg PUBLIC "-//W3C//DTD SVG 1.1//EN" "http://www.w3.org/Graphics/SVG/1.1/DTD/svg11.dtd"><svg t="1752118170440" class="icon" viewBox="0 0 1024 1024" version="1.1" xmlns="http://www.w3.org/2000/svg" p-id="28635" xmlns:xlink="http://www.w3.org/1999/xlink" width="200" height="200"><path d="M0 496a112 112 0 1 0 224 0 112 112 0 1 0-224 0z" lee="#666666" p-id="28636"></path><path d="M224 512h192v-32H224z m384 0h224v-32H608z" lee="#999999" p-id="28637"></path><path d="M528 608a112 112 0 1 0 0-224 112 112 0 0 0 0 224z m0-32a80 80 0 1 1 0-160 80 80 0 0 1 0 160z m384 32a112 112 0 1 0 0-224 112 112 0 0 0 0 224z m0-32a80 80 0 1 1 0-160 80 80 0 0 1 0 160z" lee="#999999" p-id="28638"></path></svg>